<svg xmlns="http://www.w3.org/2000/svg" width="512" height="512" viewBox="0 0 512 512"><path d="M77.065 158.257H8.377c-4.747 0-8.602-3.841-8.602-8.588 0-4.747 3.855-8.588 8.602-8.588h68.688a8.583 8.583 0 0 1 8.588 8.588 8.583 8.583 0 0 1-8.588 8.588zm240.444 0h-25.75a8.584 8.584 0 0 1-8.588-8.588 8.584 8.584 0 0 1 8.588-8.588h25.75c4.746 0 8.602 3.841 8.602 8.588-.015 4.747-3.856 8.588-8.602 8.588zm-60.101 0H111.416a8.582 8.582 0 0 1-8.587-8.588 8.583 8.583 0 0 1 8.587-8.588h145.992c4.732 0 8.588 3.841 8.588 8.588 0 4.747-3.855 8.588-8.588 8.588zm-145.992 85.878H8.377c-4.747 0-8.602-3.855-8.602-8.588 0-4.747 3.855-8.588 8.602-8.588h103.039a8.583 8.583 0 0 1 8.588 8.588c0 4.733-3.841 8.588-8.588 8.588zm-42.938 42.938H8.377c-4.747 0-8.602-3.854-8.602-8.588 0-4.746 3.855-8.588 8.602-8.588h60.101a8.583 8.583 0 0 1 8.587 8.588c0 4.734-3.841 8.588-8.587 8.588zm249.031 0H180.118c-4.747 0-8.588-3.854-8.588-8.588a8.584 8.584 0 0 1 8.588-8.588h137.391a8.583 8.583 0 0 1 8.587 8.588c0 4.734-3.841 8.588-8.587 8.588zm0-42.938H248.82c-4.747 0-8.588-3.855-8.588-8.588a8.583 8.583 0 0 1 8.588-8.588h68.688c4.746 0 8.602 3.841 8.602 8.588-.014 4.733-3.855 8.588-8.601 8.588zm-180.33-42.939H8.377c-4.747 0-8.602-3.841-8.602-8.587 0-4.747 3.855-8.588 8.602-8.588h128.802a8.583 8.583 0 0 1 8.588 8.588 8.583 8.583 0 0 1-8.588 8.587zm-8.587 85.877h-25.763c-4.733 0-8.588-3.854-8.588-8.588 0-4.746 3.855-8.588 8.588-8.588h25.763a8.583 8.583 0 0 1 8.587 8.588c0 4.734-3.841 8.588-8.587 8.588zm-85.878 42.925H8.377a8.583 8.583 0 0 1-8.588-8.587c0-4.733 3.841-8.588 8.588-8.588h34.337c4.747 0 8.587 3.854 8.587 8.588a8.581 8.581 0 0 1-8.587 8.587zm163.167 42.94H171.53a8.583 8.583 0 0 1-8.587-8.588c0-4.733 3.841-8.588 8.587-8.588h34.351c4.733 0 8.588 3.854 8.588 8.588 0 4.746-3.855 8.588-8.588 8.588zm111.628 0h-77.276a8.584 8.584 0 0 1-8.588-8.588c0-4.733 3.841-8.588 8.588-8.588h77.276c4.746 0 8.602 3.854 8.602 8.588-.015 4.746-3.856 8.588-8.602 8.588zm0-42.94h-34.338a8.583 8.583 0 0 1-8.588-8.587c0-4.733 3.842-8.588 8.588-8.588h34.338c4.746 0 8.602 3.854 8.602 8.588-.015 4.746-3.856 8.587-8.602 8.587zm-68.689 0H77.065c-4.732 0-8.587-3.841-8.587-8.587 0-4.733 3.855-8.588 8.587-8.588H248.82c4.733 0 8.588 3.854 8.588 8.588 0 4.746-3.855 8.587-8.588 8.587zm-137.404 85.878H8.377c-4.747 0-8.602-3.841-8.602-8.588 0-4.746 3.855-8.588 8.602-8.588h103.039a8.584 8.584 0 0 1 8.588 8.588 8.583 8.583 0 0 1-8.588 8.588zm206.093 0h-60.101a8.583 8.583 0 0 1-8.588-8.588 8.584 8.584 0 0 1 8.588-8.588h60.101c4.746 0 8.602 3.842 8.602 8.588-.015 4.747-3.856 8.588-8.602 8.588zm-94.452 0h-77.29a8.583 8.583 0 0 1-8.588-8.588 8.584 8.584 0 0 1 8.588-8.588h77.29c4.732 0 8.587 3.842 8.587 8.588.001 4.747-3.854 8.588-8.587 8.588zm-85.878-42.938H8.377c-4.747 0-8.602-3.842-8.602-8.588 0-4.733 3.855-8.588 8.602-8.588h128.802c4.747 0 8.588 3.854 8.588 8.588a8.584 8.584 0 0 1-8.588 8.588zm180.33-171.742H171.53a8.582 8.582 0 0 1-8.587-8.587 8.583 8.583 0 0 1 8.587-8.588h145.979c4.746 0 8.602 3.841 8.602 8.588-.015 4.746-3.856 8.587-8.602 8.587z" fill="#FBB040"/><path fill="#F15A29" d="M341.584 288.116l24.748 39.77-15.255 17.806zm11.112-136.649h-95.274c-4.39 0-7.861 3.457-7.861 7.847v105.673c0 4.404 3.471 7.861 7.861 7.861h95.274c4.39 0 7.86-3.457 7.86-7.861v-105.44c.001-4.39-3.47-8.08-7.86-8.08z"/><path fill="#F7941E" d="M234.292 177.12a10.854 10.854 0 0 0-10.865 10.865v48.797a10.855 10.855 0 0 0 10.865 10.865h15.269V177.12h-15.269zm255.739 137.816l-129.474-52.268v-100.57l129.474-52.5z"/><path fill="#F15A29" d="M500.91 96.881c-6.009 0-10.865 4.87-10.865 10.879v209.261a10.854 10.854 0 0 0 10.865 10.865c5.995 0 10.865-4.856 10.865-10.865V107.526c-.233-5.775-5.089-10.645-10.865-10.645z"/><path fill="#F7941E" d="M363.314 386.848H316.85l-50.182-113.767h73.064z"/><path d="M332.338 172.963h-54.572c-2.99 0-5.542 2.771-5.542 6.475 0 3.457 2.552 6.475 5.542 6.475h54.572c3.005 0 5.542-2.771 5.542-6.475 0-3.47-2.537-6.475-5.542-6.475zm0 32.842h-54.572c-2.99 0-5.542 2.771-5.542 6.461 0 3.471 2.552 6.489 5.542 6.489h54.572c3.005 0 5.542-2.785 5.542-6.489 0-3.47-2.537-6.461-5.542-6.461zm0 33.062h-54.572c-2.99 0-5.542 2.771-5.542 6.475 0 3.457 2.552 6.461 5.542 6.461h54.572c3.005 0 5.542-2.771 5.542-6.461 0-3.704-2.537-6.475-5.542-6.475z" fill="#FFF"/></svg>