<svg xmlns="http://www.w3.org/2000/svg" width="512" height="512" viewBox="0 0 512 512"><path fill="none" d="M492.173 256.335c0 130.2-105.559 235.75-235.742 235.75-130.2 0-235.758-105.55-235.758-235.75 0-130.192 105.558-235.75 235.758-235.75 130.183 0 235.742 105.558 235.742 235.75z"/><path fill="#FFF" d="M105.972 256.335c0-83.764 67.898-151.679 151.67-151.679 83.772 0 151.671 67.915 151.671 151.679 0 83.772-67.898 151.679-151.671 151.679-83.771 0-151.67-67.907-151.67-151.679z"/><path fill="#E3E2EA" d="M258.502 411.193c-1.698 0-3.142-1.444-3.229-3.146a3.227 3.227 0 0 1 3.229-3.229c5.608 0 11.221-.341 16.576-1.021 1.702-.257 3.321 1.104 3.578 2.807v.34c0 1.619-1.195 2.973-2.806 3.23h-.341a142.724 142.724 0 0 1-17.007 1.019zm-17.003-.846h-.253a146.27 146.27 0 0 1-17.173-2.806c-1.445-.341-2.549-1.619-2.466-3.147 0-.257 0-.423.083-.681.34-1.702 2.042-2.723 3.744-2.383 5.355 1.195 10.88 2.043 16.406 2.641 1.702.166 2.894 1.527 2.894 3.229v.341c-.172 1.61-1.533 2.806-3.235 2.806zm50.674-3.147c-1.444 0-2.723-1.021-3.063-2.466-.083-.175-.083-.515-.083-.764 0-1.445 1.021-2.724 2.466-2.98 5.438-1.362 10.793-2.89 15.899-4.675l.083-.083c1.61-.598 3.487.341 3.993 1.951.175.341.258.764.258 1.104-.083 1.361-.938 2.557-2.126 2.98-5.529 1.951-11.142 3.653-16.663 4.932l-.764.001zm-83.743-4.168c-.34 0-.681-.083-1.021-.174-5.442-1.868-10.797-4.077-16.069-6.543a3.191 3.191 0 0 1-1.868-2.889c0-.516.083-.938.336-1.362.681-1.527 2.636-2.291 4.251-1.527a137.124 137.124 0 0 0 15.389 6.285 3.123 3.123 0 0 1 2.125 2.98c0 .34 0 .764-.17 1.104a3.108 3.108 0 0 1-2.973 2.126zm115.708-7.139c-1.188 0-2.3-.682-2.807-1.785-.257-.424-.34-.938-.34-1.445 0-1.195.681-2.3 1.785-2.889a126.888 126.888 0 0 0 14.454-8.078c1.445-.938 3.57-.516 4.417.93.341.515.515 1.104.515 1.702 0 1.104-.515 2.125-1.444 2.723-4.932 3.146-10.038 5.953-15.136 8.502-.423.165-.937.34-1.444.34zm-146.403-7.399a3.058 3.058 0 0 1-1.698-.515c-4.761-2.972-9.61-6.284-14.197-9.946-.768-.589-1.191-1.444-1.191-2.466 0-.764.253-1.444.681-2.034 1.017-1.278 3.142-1.536 4.504-.515a128.698 128.698 0 0 0 13.604 9.523 3.297 3.297 0 0 1 1.532 2.806c0 .507-.17 1.104-.511 1.619-.598.93-1.615 1.528-2.724 1.528zM352.79 377.61a3.213 3.213 0 0 1-2.466-1.104 3.191 3.191 0 0 1-.764-2.043c0-1.021.423-1.867 1.187-2.466 4.426-3.569 8.585-7.306 12.329-11.133h.083c1.104-1.279 3.23-1.279 4.509-.083.59.589.847 1.444.93 2.291 0 .855-.34 1.619-.93 2.209a139.025 139.025 0 0 1-12.927 11.648c-.507.515-1.27.681-1.951.681zm-201.748-10.112c-.768 0-1.619-.341-2.212-.938-4.164-4.168-8.074-8.419-11.648-12.836-.423-.598-.677-1.278-.677-2.042 0-.938.423-1.868 1.188-2.466 1.274-1.104 3.399-.848 4.508.423a150.44 150.44 0 0 0 11.138 12.412c.593.598.934 1.362.934 2.217 0 .847-.341 1.694-.934 2.292a3.294 3.294 0 0 1-2.297.938zm225.634-13.949c-.764 0-1.444-.249-2.042-.681-.764-.589-1.188-1.444-1.188-2.466 0-.681.258-1.444.681-2.034.083-.091.175-.174.258-.174a197.727 197.727 0 0 0 9.349-13.434c.855-1.444 2.889-1.951 4.425-1.021.93.598 1.445 1.619 1.445 2.807 0 .515-.175 1.104-.424 1.619-3.146 5.015-6.551 9.771-10.038 14.197-.589.764-1.528 1.187-2.466 1.187zm-246.888-12.412c-1.108 0-2.125-.589-2.723-1.527a145.644 145.644 0 0 1-8.502-15.136c-.17-.423-.34-.847-.34-1.361 0-1.188.681-2.292 1.785-2.89a3.206 3.206 0 0 1 4.251 1.445c2.466 4.932 5.189 9.863 8.161 14.537.34.515.511 1.021.511 1.619 0 1.104-.511 2.209-1.445 2.807-.51.257-1.104.506-1.698.506zm264.83-16.406c-.515 0-.938-.083-1.362-.258-1.104-.589-1.867-1.702-1.867-2.889 0-.507.166-.938.34-1.362a151.283 151.283 0 0 0 6.285-15.384v-.083c.598-1.619 2.383-2.558 4.085-1.96a3.113 3.113 0 0 1 2.125 2.973c0 .34-.083.771-.166 1.112a156.807 156.807 0 0 1-6.551 16.065c-.598 1.106-1.702 1.786-2.889 1.786zm-279.795-14.114c-1.361 0-2.549-.764-2.977-2.043l-.083-.166c-1.955-5.446-3.57-11.051-4.849-16.497-.083-.249-.083-.506-.083-.847 0-1.444 1.021-2.723 2.466-2.98 1.615-.424 3.4.681 3.828 2.383 1.187 5.272 2.802 10.627 4.674 15.899.17.34.17.764.17 1.104 0 1.361-.851 2.549-2.042 2.98-.424.167-.764.167-1.104.167zm290.846-17.942c-.258 0-.424 0-.682-.083-1.444-.34-2.466-1.527-2.466-3.055v-.772c1.279-5.438 2.126-10.968 2.724-16.405.166-1.702 1.785-2.973 3.57-2.807 1.619.174 2.806 1.527 2.806 3.146v.341c-.681 5.869-1.619 11.648-2.806 17.169-.34 1.453-1.619 2.466-3.146 2.466zm-298.667-15.044c-1.615 0-2.889-1.188-3.147-2.806v-.341a141.373 141.373 0 0 1-1.021-17.004c-.083-.17 0-.34 0-.51s-.083-.423-.083-.594l.083-.087a3.139 3.139 0 0 1 3.146-3.143c1.785 0 3.147 1.444 3.147 3.229v1.104c.083 5.53.423 11.143 1.104 16.58v.341c0 1.61-1.191 2.973-2.806 3.229-.083.002-.253.002-.423.002zm302.319-18.705c-1.785 0-3.229-1.445-3.229-3.143 0-5.53-.34-11.138-.93-16.581 0-.17-.092-.253-.092-.423 0-1.619 1.279-2.977 2.898-3.146 1.693-.257 3.313 1.104 3.479 2.806a148.084 148.084 0 0 1 1.021 17.344c.001 1.697-1.445 3.143-3.147 3.143zM106.915 242.52h-.336c-1.702-.17-2.894-1.532-2.894-3.146 0-.17.087-.253.087-.34v-.17c.594-5.695 1.615-11.391 2.89-16.917.34-1.702 2.042-2.806 3.74-2.466 1.532.341 2.553 1.698 2.553 3.23 0 .17-.087.423-.087.594a133.032 133.032 0 0 0-2.806 16.41c-.171 1.613-1.528 2.805-3.147 2.805zm298.496-17.261c-1.444 0-2.807-1.017-3.056-2.466-1.278-5.525-2.889-10.88-4.674-15.982-.175-.34-.175-.764-.175-1.104 0-1.361.847-2.553 2.126-2.976 1.527-.511 3.487.34 4.085 1.955 1.868 5.355 3.479 10.968 4.84 16.663 0 .17 0 .428.083.598 0 1.528-1.013 2.89-2.457 3.23-.257-.001-.514.082-.772.082zm-291.012-15.812c-.34 0-.681 0-1.021-.17a3.115 3.115 0 0 1-2.125-2.977c0-.34 0-.681.17-1.104a151.128 151.128 0 0 1 6.63-15.982c.768-1.532 2.723-2.213 4.25-1.532 1.108.594 1.785 1.615 1.785 2.889 0 .511-.083.938-.253 1.362a146.76 146.76 0 0 0-6.376 15.389c-.423 1.274-1.702 2.125-3.06 2.125zm279.705-16.153c-1.188 0-2.292-.768-2.89-1.872a136.968 136.968 0 0 0-8.078-14.451 3.139 3.139 0 0 1-.507-1.702c0-1.104.598-2.125 1.527-2.719 1.445-.938 3.487-.428 4.343 1.017a140.875 140.875 0 0 1 8.502 15.135c.166.423.249.851.249 1.362.091 1.187-.681 2.295-1.785 2.889-.424.171-.847.341-1.361.341zm-264.997-14.368c-.598 0-1.104-.17-1.615-.51-1.021-.598-1.532-1.615-1.532-2.806 0-.511.17-1.104.511-1.615a162.044 162.044 0 0 1 10.034-14.114c1.104-1.361 3.143-1.615 4.504-.51.681.598 1.191 1.444 1.191 2.466 0 .681-.257 1.444-.681 2.042a150.317 150.317 0 0 0-9.693 13.517c-.593.933-1.615 1.53-2.719 1.53zm246.805-14.284c-.938 0-1.868-.511-2.466-1.191a155.08 155.08 0 0 0-11.134-12.413c-.598-.593-.938-1.357-.938-2.208 0-.851.34-1.702.938-2.296 1.188-1.191 3.313-1.191 4.5 0a169.01 169.01 0 0 1 11.648 12.923c.424.511.681 1.274.681 2.038 0 .938-.423 1.785-1.187 2.383a3.05 3.05 0 0 1-2.042.764zM150.274 152.4c-.851 0-1.615-.34-2.208-.934-.598-.681-.934-1.449-.934-2.295 0-.851.336-1.702.934-2.296a153.815 153.815 0 0 1 12.923-11.565c1.274-1.017 3.399-.764 4.421.511.511.598.764 1.279.764 2.042-.083 1.021-.51 1.868-1.191 2.466a142.12 142.12 0 0 0-12.412 11.051 3.037 3.037 0 0 1-2.297 1.02zm201.661-11.732c-.764 0-1.444-.257-2.034-.681a171.179 171.179 0 0 0-13.607-9.606c-.931-.598-1.445-1.619-1.445-2.724 0-.593.175-1.187.424-1.698.938-1.449 2.98-1.872 4.425-1.021 5.015 3.146 9.689 6.459 13.94 9.946.083 0 .174.087.257.087v.083c.682.51 1.188 1.444 1.188 2.378 0 .768-.249 1.449-.681 2.042-.591.767-1.529 1.194-2.467 1.194zm-175.134-9.522c-1.104 0-2.125-.511-2.719-1.445a3.065 3.065 0 0 1-.511-1.702c0-1.104.594-2.125 1.528-2.719 4.849-3.06 9.951-5.866 15.136-8.419a3.206 3.206 0 0 1 4.25 1.445c.253.428.341.938.341 1.449 0 1.188-.681 2.296-1.785 2.889a115.962 115.962 0 0 0-14.538 8.079c-.51.252-1.108.423-1.702.423zm146.315-8.502c-.506 0-.938-.087-1.361-.257-4.932-2.378-10.112-4.504-15.385-6.376a3.108 3.108 0 0 1-2.125-2.972c0-.34 0-.681.166-1.021.515-1.702 2.466-2.549 4.085-2.042a176.011 176.011 0 0 1 15.982 6.634c1.104.51 1.868 1.698 1.868 2.889 0 .511-.167.934-.341 1.362-.506 1.102-1.701 1.783-2.889 1.783zm-115.795-6.206c-1.357 0-2.549-.934-2.972-2.212a2.344 2.344 0 0 1-.257-1.104c.087-1.274.934-2.466 2.212-2.889a144.018 144.018 0 0 1 16.663-4.849c1.615-.336 3.4.681 3.823 2.383 0 .253.087.423.087.681 0 1.445-1.021 2.806-2.553 3.147a164.38 164.38 0 0 0-15.982 4.587h.087c-.427.169-.767.256-1.108.256zm83.747-4.932c-.257 0-.432 0-.681-.083h-.174c-5.438-1.191-10.885-2.125-16.24-2.723-1.61-.17-2.889-1.528-2.806-3.147v-.336c.174-1.702 1.702-2.894 3.486-2.806h.083a147.948 147.948 0 0 1 16.921 2.806h.083c1.453.336 2.558 1.698 2.558 3.143-.092.257-.092.427-.092.681-.339 1.444-1.692 2.465-3.138 2.465zm-50.673-2.719c-1.615 0-2.977-1.191-3.147-2.806 0-.087-.083-.257-.083-.34 0-1.615 1.274-2.977 2.889-3.146v.17-.17a145.643 145.643 0 0 1 17.261-1.021c1.785 0 3.23 1.449 3.23 3.147 0 1.785-1.445 3.229-3.147 3.229-5.525 0-11.05.34-16.663.938l-.34-.001z"/><path fill="#E7E7E7" d="M262.657 27.144h56.906v5.978h-56.906zm136.528 86.894h56.889v5.97h-56.889zM.414 289.205h56.905v5.978H.414zm455.111 39.296h56.889v5.969h-56.889zM20.34 165.414h56.889v5.97H20.34zm50.264-81.29h24.393v2.557H70.604zm205.155-34.696h24.376v2.565h-24.376zm201.153 241.487h24.394v2.558h-24.394zm-24.376-112.931h24.376v2.557h-24.376zM16.67 320.604h24.393v2.558H16.67zM381.749 57.216h16.256v1.993h-16.256z"/><path fill="#E7E7E7" d="M388.889 50.076h1.993v16.256h-1.993zM37.526 251.378h16.256v1.984H37.526z"/><path fill="#E7E7E7" d="M44.65 244.238h1.993v16.256H44.65zm407.886-1.486h24.376v2.981h-24.376z"/><path fill="#E7E7E7" d="M463.229 232.05h2.989v24.384h-2.989zM177.889 43.533h24.376v2.98h-24.376z"/><path fill="#E7E7E7" d="M188.583 32.831h2.989v24.385h-2.989z"/><path fill="#E3ECF8" d="M61.288 109.895c0 5.588-4.533 10.113-10.112 10.113a10.104 10.104 0 0 1-10.112-10.113 10.103 10.103 0 0 1 10.112-10.112c5.579 0 10.112 4.525 10.112 10.112z"/><path fill="#E6E7E8" d="M433.972 87.62c-4.085 0-7.405-3.325-7.405-7.414 0-4.089 3.32-7.415 7.405-7.415 4.094 0 7.423 3.325 7.423 7.415 0 4.088-3.33 7.414-7.423 7.414zm0-12.703c-2.914 0-5.28 2.375-5.28 5.289 0 2.914 2.366 5.289 5.28 5.289a5.3 5.3 0 0 0 5.297-5.289 5.298 5.298 0 0 0-5.297-5.289z"/><path fill="#E3ECF8" d="M132.856 66.332a6.354 6.354 0 0 1-6.36 6.359c-3.503 0-6.343-2.848-6.343-6.359a6.343 6.343 0 0 1 6.343-6.343 6.346 6.346 0 0 1 6.36 6.343z"/><path fill="#E6E7E8" d="M440.332 310.94c-4.094 0-7.423-3.329-7.423-7.414s3.329-7.414 7.423-7.414c4.084 0 7.405 3.329 7.405 7.414s-3.321 7.414-7.405 7.414zm0-12.702c-2.923 0-5.298 2.374-5.298 5.288s2.375 5.289 5.298 5.289c2.914 0 5.28-2.375 5.28-5.289s-2.366-5.288-5.28-5.288z"/><path fill="#E3ECF8" d="M351.212 59.98c0 3.512-2.839 6.36-6.343 6.36s-6.359-2.848-6.359-6.36c0-3.504 2.855-6.343 6.359-6.343s6.343 2.84 6.343 6.343z"/><path fill="#E6E7E8" d="M61.288 211.377c-4.093 0-7.422-3.33-7.422-7.422 0-4.089 3.329-7.414 7.422-7.414 4.085 0 7.406 3.325 7.406 7.414 0 4.092-3.321 7.422-7.406 7.422zm0-12.711c-2.922 0-5.297 2.375-5.297 5.289a5.301 5.301 0 0 0 5.297 5.297c2.91 0 5.28-2.375 5.28-5.297 0-2.915-2.37-5.289-5.28-5.289z"/><path fill="#E3ECF8" d="M59.146 364.874c0-9.481 7.672-17.153 17.153-17.153 9.465 0 17.136 7.672 17.136 17.153 0 9.465-7.671 17.137-17.136 17.137-9.481 0-17.153-7.672-17.153-17.137zM453.98 187.025c0-8.003 6.51-14.496 14.514-14.496 8.003 0 14.496 6.493 14.496 14.496 0 8.004-6.493 14.488-14.496 14.488-8.004.001-14.514-6.484-14.514-14.488zm-22.998 177.849c0-5.181 4.185-9.365 9.35-9.365 5.164 0 9.349 4.185 9.349 9.365a9.348 9.348 0 0 1-9.349 9.349 9.348 9.348 0 0 1-9.35-9.349z"/><path fill="#FFD24E" d="M321.971 261.773l12.678 12.678-15.883 15.883-12.678-12.67a60.007 60.007 0 0 0 8.71-7.182 59.929 59.929 0 0 0 7.173-8.709z"/><path fill="#317ABE" d="M385.593 113.739v22.467H127.244v-22.467c0-12.404 10.054-22.458 22.458-22.458h213.433c12.404 0 22.458 10.054 22.458 22.458z"/><path fill="#8BD7F8" d="M228.335 124.973H127.244v200.041c26.418 44.543 74.847 74.498 130.399 74.498 53.858 0 101.042-28.153 127.95-70.472V124.973H228.335z"/><path fill="#FFF" d="M328.023 107.844v.557a4.216 4.216 0 0 1-4.21 4.217 4.223 4.223 0 0 1-4.217-4.217v-.557a4.216 4.216 0 0 1 4.217-4.209 4.21 4.21 0 0 1 4.21 4.209zm12.637-4.209a4.21 4.21 0 0 0-4.21 4.209v.557a4.216 4.216 0 0 0 4.21 4.217 4.21 4.21 0 0 0 4.209-4.217v-.557a4.204 4.204 0 0 0-4.209-4.209zm16.846 0a4.202 4.202 0 0 0-4.201 4.209v.557c0 2.325 1.876 4.217 4.201 4.217a4.218 4.218 0 0 0 4.218-4.217v-.557a4.212 4.212 0 0 0-4.218-4.209zm-11.226 175.79H166.547c-6.193 0-11.225-5.032-11.225-11.233v-61.779c0-6.202 5.031-11.233 11.225-11.233H346.28c6.202 0 11.226 5.031 11.226 11.233v61.779c0 6.201-5.024 11.233-11.226 11.233zM228.335 161.479c0-6.202-5.031-11.225-11.233-11.225h-50.554c-6.193 0-11.225 5.023-11.225 11.225s5.031 11.233 11.225 11.233h50.554c6.202 0 11.233-5.031 11.233-11.233zm129.171 0c0-6.202-5.023-11.225-11.226-11.225h-89.866c-6.202 0-11.225 5.023-11.225 11.225s5.023 11.233 11.225 11.233h89.866c6.202 0 11.226-5.031 11.226-11.233z"/><path fill="#317ABE" d="M382.306 297.715l-31.774-31.766c-4.384-4.384-11.507-4.384-15.883 0l-12.678-12.678c15.525-22.932 13.135-54.381-7.182-74.698-23.031-23.023-60.368-23.023-83.399 0-23.031 23.04-23.031 60.368 0 83.407 20.308 20.309 51.758 22.708 74.698 7.182l12.678 12.67c-4.392 4.384-4.392 11.499 0 15.883l31.766 31.773c4.384 4.393 11.499 4.393 15.892 0l15.883-15.883c4.382-4.391 4.382-11.499-.001-15.89z"/><path fill="#FFF" d="M312.406 220.286c0 21.711-17.602 39.312-39.32 39.312-21.711 0-39.305-17.601-39.305-39.312 0-21.72 17.593-39.329 39.305-39.329 21.719 0 39.32 17.609 39.32 39.329z"/><path fill="#DCF1F8" d="M296.632 188.786a39.379 39.379 0 0 1 13.491 18.291l-50.238 50.23c-7.356-2.607-13.691-7.348-18.282-13.483l55.029-55.038zm-60.576 44.692a38.934 38.934 0 0 0 2.358 5.339l53.22-53.211a39.3 39.3 0 0 0-5.339-2.358l-50.239 50.23z"/></svg>