<svg xmlns="http://www.w3.org/2000/svg" width="512" height="512" viewBox="0 0 512 512"><path fill="#476288" d="M502.93 159.7H304.931c-5.227 0-9.446 4.22-9.446 9.433V417.81c0 5.199 4.22 9.419 9.446 9.419H502.93c5.2 0 9.42-4.22 9.42-9.419V169.133c0-5.213-4.22-9.433-9.42-9.433z"/><path fill="#FFF" d="M356.792 231.245H319.06a4.702 4.702 0 0 1-4.709-4.709 4.694 4.694 0 0 1 4.709-4.71h37.732a4.711 4.711 0 0 1 4.71 4.71 4.72 4.72 0 0 1-4.71 4.709zm131.981 0h-14.129a4.703 4.703 0 0 1-4.71-4.709 4.694 4.694 0 0 1 4.71-4.71h14.129c2.614 0 4.737 2.096 4.737 4.71.001 2.599-2.122 4.709-4.737 4.709zm-32.995 0h-80.147a4.72 4.72 0 0 1-4.709-4.709 4.71 4.71 0 0 1 4.709-4.71h80.147a4.694 4.694 0 0 1 4.71 4.71 4.702 4.702 0 0 1-4.71 4.709zm-80.147 47.151H319.06a4.71 4.71 0 0 1-4.709-4.71 4.705 4.705 0 0 1 4.709-4.723h56.571a4.705 4.705 0 0 1 4.71 4.723 4.711 4.711 0 0 1-4.71 4.71zm-23.575 23.577H319.06c-2.613 0-4.709-2.124-4.709-4.724s2.096-4.724 4.709-4.724h32.996c2.613 0 4.736 2.124 4.736 4.724s-2.123 4.724-4.736 4.724zm136.717 0h-75.41c-2.613 0-4.736-2.124-4.736-4.724s2.123-4.724 4.736-4.724h75.41c2.614 0 4.737 2.124 4.737 4.724.001 2.6-2.122 4.724-4.737 4.724zm0-23.577h-37.705a4.71 4.71 0 0 1-4.709-4.71 4.705 4.705 0 0 1 4.709-4.723h37.705a4.728 4.728 0 0 1 4.737 4.723c.001 2.587-2.122 4.71-4.737 4.71zm-56.571 0h-37.705a4.71 4.71 0 0 1-4.709-4.71 4.705 4.705 0 0 1 4.709-4.723h37.705a4.705 4.705 0 0 1 4.71 4.723 4.711 4.711 0 0 1-4.71 4.71zm-42.414-23.575H319.06a4.702 4.702 0 0 1-4.709-4.71 4.705 4.705 0 0 1 4.709-4.723h70.729c2.586 0 4.709 2.11 4.709 4.723a4.721 4.721 0 0 1-4.71 4.71zm-4.71 47.152h-14.156c-2.614 0-4.71-2.124-4.71-4.724s2.096-4.724 4.71-4.724h14.156c2.586 0 4.71 2.124 4.71 4.724s-2.124 4.724-4.71 4.724zm-47.152 23.562H319.06a4.705 4.705 0 0 1-4.709-4.724 4.711 4.711 0 0 1 4.709-4.71h18.866c2.587 0 4.71 2.124 4.71 4.71 0 2.614-2.123 4.724-4.71 4.724zm89.567 23.575h-18.866a4.722 4.722 0 0 1-4.71-4.723c0-2.587 2.123-4.71 4.71-4.71h18.866a4.71 4.71 0 0 1 4.709 4.71 4.705 4.705 0 0 1-4.709 4.723zm61.28 0h-42.414a4.705 4.705 0 0 1-4.71-4.723 4.711 4.711 0 0 1 4.71-4.71h42.414c2.614 0 4.737 2.123 4.737 4.71a4.727 4.727 0 0 1-4.737 4.723zm0-23.575h-18.839a4.706 4.706 0 0 1-4.71-4.724 4.712 4.712 0 0 1 4.71-4.71h18.839c2.614 0 4.737 2.124 4.737 4.71a4.727 4.727 0 0 1-4.737 4.724zm-37.705 0h-94.276a4.728 4.728 0 0 1-4.736-4.724c0-2.586 2.123-4.71 4.736-4.71h94.276a4.712 4.712 0 0 1 4.71 4.71 4.706 4.706 0 0 1-4.71 4.724z"/><path fill="#D8DEEC" d="M375.631 372.687H319.06a4.705 4.705 0 0 1-4.709-4.724 4.71 4.71 0 0 1 4.709-4.709h56.571a4.71 4.71 0 0 1 4.71 4.709 4.706 4.706 0 0 1-4.71 4.724z"/><path fill="#FFF" d="M488.773 372.687h-32.995a4.723 4.723 0 0 1-4.71-4.724c0-2.586 2.124-4.709 4.71-4.709h32.995c2.614 0 4.737 2.123 4.737 4.709a4.727 4.727 0 0 1-4.737 4.724zm-51.861 0h-42.415a4.705 4.705 0 0 1-4.709-4.724 4.71 4.71 0 0 1 4.709-4.709h42.415c2.613 0 4.737 2.123 4.737 4.709a4.73 4.73 0 0 1-4.737 4.724zm-47.124-23.577H319.06a4.705 4.705 0 0 1-4.709-4.723 4.71 4.71 0 0 1 4.709-4.71h70.729c2.586 0 4.709 2.123 4.709 4.71-.001 2.614-2.124 4.723-4.71 4.723zm98.985-94.289h-80.146a4.72 4.72 0 0 1-4.71-4.71 4.723 4.723 0 0 1 4.71-4.723h80.146a4.728 4.728 0 0 1 4.737 4.723c.001 2.6-2.122 4.71-4.737 4.71z"/><path fill="#F47A49" d="M207.796 159.7H9.769c-5.2 0-9.419 4.22-9.419 9.433V417.81c0 5.199 4.22 9.419 9.419 9.419h198.027c5.2 0 9.419-4.22 9.419-9.419V169.133c0-5.213-4.219-9.433-9.419-9.433z"/><path fill="#FFF" d="M61.631 231.245H23.926a4.702 4.702 0 0 1-4.71-4.709 4.694 4.694 0 0 1 4.71-4.71h37.705c2.613 0 4.737 2.096 4.737 4.71 0 2.599-2.124 4.709-4.737 4.709zm132.008 0H179.51a4.702 4.702 0 0 1-4.71-4.709 4.694 4.694 0 0 1 4.71-4.71h14.129a4.694 4.694 0 0 1 4.71 4.71 4.702 4.702 0 0 1-4.71 4.709zm-32.995 0H80.497a4.702 4.702 0 0 1-4.71-4.709 4.694 4.694 0 0 1 4.71-4.71h80.147a4.694 4.694 0 0 1 4.709 4.71 4.702 4.702 0 0 1-4.709 4.709zm-80.147 47.151H23.926a4.711 4.711 0 0 1-4.71-4.71 4.705 4.705 0 0 1 4.71-4.723h56.571a4.705 4.705 0 0 1 4.709 4.723 4.71 4.71 0 0 1-4.709 4.71zm-23.576 23.577H23.926c-2.614 0-4.71-2.124-4.71-4.724s2.096-4.724 4.71-4.724h32.995c2.613 0 4.71 2.124 4.71 4.724s-2.097 4.724-4.71 4.724zm136.718 0h-75.437c-2.586 0-4.71-2.124-4.71-4.724s2.124-4.724 4.71-4.724h75.437c2.614 0 4.71 2.124 4.71 4.724s-2.096 4.724-4.71 4.724zm0-23.577h-37.705a4.71 4.71 0 0 1-4.709-4.71 4.705 4.705 0 0 1 4.709-4.723h37.705a4.705 4.705 0 0 1 4.71 4.723 4.711 4.711 0 0 1-4.71 4.71zm-56.571 0H99.363a4.71 4.71 0 0 1-4.709-4.71 4.705 4.705 0 0 1 4.709-4.723h37.705a4.705 4.705 0 0 1 4.71 4.723 4.711 4.711 0 0 1-4.71 4.71zm-42.415-23.575H23.926a4.703 4.703 0 0 1-4.71-4.71 4.705 4.705 0 0 1 4.71-4.723h70.728c2.586 0 4.709 2.11 4.709 4.723a4.72 4.72 0 0 1-4.71 4.71zm-4.736 47.152h-14.13c-2.613 0-4.71-2.124-4.71-4.724s2.097-4.724 4.71-4.724h14.129c2.613 0 4.737 2.124 4.737 4.724s-2.123 4.724-4.736 4.724zm-47.125 23.562H23.926a4.706 4.706 0 0 1-4.71-4.724 4.712 4.712 0 0 1 4.71-4.71h18.866c2.586 0 4.71 2.124 4.71 4.71-.001 2.614-2.124 4.724-4.71 4.724z"/><path fill="#C7CFE2" d="M132.358 349.11h-18.866a4.723 4.723 0 0 1-4.71-4.723c0-2.587 2.124-4.71 4.71-4.71h18.866a4.71 4.71 0 0 1 4.709 4.71 4.703 4.703 0 0 1-4.709 4.723z"/><path fill="#FFF" d="M193.639 349.11h-42.415a4.728 4.728 0 0 1-4.737-4.723c0-2.587 2.123-4.71 4.737-4.71h42.415a4.711 4.711 0 0 1 4.71 4.71 4.705 4.705 0 0 1-4.71 4.723zm0-23.575H174.8a4.73 4.73 0 0 1-4.737-4.724c0-2.586 2.124-4.71 4.737-4.71h18.839a4.712 4.712 0 0 1 4.71 4.71 4.706 4.706 0 0 1-4.71 4.724zm-37.705 0H61.631c-2.586 0-4.71-2.11-4.71-4.724 0-2.586 2.124-4.71 4.71-4.71h94.303a4.712 4.712 0 0 1 4.71 4.71 4.706 4.706 0 0 1-4.71 4.724zm-75.437 47.152H23.926a4.705 4.705 0 0 1-4.71-4.724 4.71 4.71 0 0 1 4.71-4.709h56.571a4.71 4.71 0 0 1 4.709 4.709 4.705 4.705 0 0 1-4.709 4.724z"/><path fill="#C7CFE2" d="M193.639 372.687h-32.995a4.705 4.705 0 0 1-4.71-4.724 4.71 4.71 0 0 1 4.71-4.709h32.995a4.71 4.71 0 0 1 4.71 4.709 4.706 4.706 0 0 1-4.71 4.724z"/><path fill="#FFF" d="M141.778 372.687H99.363a4.705 4.705 0 0 1-4.709-4.724 4.71 4.71 0 0 1 4.709-4.709h42.415a4.711 4.711 0 0 1 4.71 4.709 4.706 4.706 0 0 1-4.71 4.724zM94.653 349.11H23.926a4.705 4.705 0 0 1-4.71-4.723 4.711 4.711 0 0 1 4.71-4.71h70.728c2.586 0 4.709 2.123 4.709 4.71a4.722 4.722 0 0 1-4.71 4.723zm98.986-94.289h-80.147a4.72 4.72 0 0 1-4.71-4.71 4.723 4.723 0 0 1 4.71-4.723h80.147c2.614 0 4.71 2.11 4.71 4.723 0 2.6-2.096 4.71-4.71 4.71z"/><path fill="#FBB040" d="M391.095 84.834h-269.49c-7.078 0-12.823 5.745-12.823 12.823v316.75c0 7.078 5.745 12.822 12.823 12.822h269.49c7.078 0 12.822-5.744 12.822-12.822V97.657c0-7.078-5.744-12.823-12.822-12.823z"/><path fill="#FFF" d="M294.857 234.144h-51.344c-3.539 0-6.398-2.872-6.398-6.411 0-3.539 2.859-6.425 6.398-6.425h51.344c3.539 0 6.398 2.886 6.398 6.425.001 3.539-2.859 6.411-6.398 6.411zm-102.661-64.153h-51.344c-3.539 0-6.397-2.886-6.397-6.425 0-3.539 2.858-6.412 6.397-6.412h51.344c3.54 0 6.425 2.873 6.425 6.412.001 3.539-2.885 6.425-6.425 6.425zm179.651 0H352.6c-3.539 0-6.425-2.886-6.425-6.425 0-3.539 2.886-6.412 6.425-6.412h19.247c3.539 0 6.425 2.873 6.425 6.412-.001 3.539-2.886 6.425-6.425 6.425zm-44.919 0H217.869c-3.539 0-6.425-2.886-6.425-6.425 0-3.539 2.886-6.412 6.425-6.412h109.059c3.539 0 6.425 2.873 6.425 6.412 0 3.539-2.886 6.425-6.425 6.425zm-109.059 64.153h-77.017c-3.539 0-6.397-2.872-6.397-6.411 0-3.539 2.858-6.425 6.397-6.425h77.017c3.539 0 6.397 2.886 6.397 6.425 0 3.539-2.858 6.411-6.397 6.411zm-32.098 32.084h-44.919c-3.539 0-6.397-2.872-6.397-6.411a6.392 6.392 0 0 1 6.397-6.411h44.919c3.539 0 6.425 2.858 6.425 6.411 0 3.538-2.885 6.411-6.425 6.411zm186.076 0H269.186c-3.539 0-6.425-2.872-6.425-6.411 0-3.553 2.886-6.411 6.425-6.411h102.661c3.539 0 6.425 2.858 6.425 6.411-.001 3.538-2.886 6.411-6.425 6.411zm0-32.084H320.53a6.408 6.408 0 0 1-6.425-6.411 6.42 6.42 0 0 1 6.425-6.425h51.316c3.539 0 6.425 2.886 6.425 6.425 0 3.539-2.885 6.411-6.424 6.411zm-134.731-32.083h-96.264a6.393 6.393 0 0 1-6.397-6.412c0-3.539 2.858-6.411 6.397-6.411h96.264c3.54 0 6.398 2.872 6.398 6.411a6.394 6.394 0 0 1-6.398 6.412zm-6.425 64.167h-19.247c-3.539 0-6.425-2.872-6.425-6.411 0-3.553 2.886-6.411 6.425-6.411h19.247c3.54 0 6.425 2.858 6.425 6.411 0 3.538-2.886 6.411-6.425 6.411zm-64.167 32.083h-25.645a6.408 6.408 0 0 1-6.425-6.411 6.42 6.42 0 0 1 6.425-6.425h25.645c3.539 0 6.425 2.886 6.425 6.425 0 3.538-2.886 6.411-6.425 6.411zm121.909 32.084h-25.672c-3.539 0-6.397-2.886-6.397-6.425 0-3.539 2.858-6.411 6.397-6.411h25.672c3.539 0 6.425 2.872 6.425 6.411-.001 3.539-2.886 6.425-6.425 6.425zm83.414 0h-57.741c-3.539 0-6.425-2.886-6.425-6.425 0-3.539 2.886-6.411 6.425-6.411h57.741c3.539 0 6.425 2.872 6.425 6.411-.001 3.539-2.886 6.425-6.425 6.425zm0-32.084h-25.672c-3.539 0-6.397-2.872-6.397-6.411 0-3.539 2.858-6.425 6.397-6.425h25.672c3.539 0 6.425 2.886 6.425 6.425-.001 3.538-2.886 6.411-6.425 6.411zm-51.317 0H192.196c-3.539 0-6.425-2.872-6.425-6.411 0-3.539 2.886-6.425 6.425-6.425H320.53c3.539 0 6.397 2.886 6.397 6.425.001 3.538-2.858 6.411-6.397 6.411zm-102.661 64.153h-77.017a6.392 6.392 0 0 1-6.397-6.411c0-3.539 2.858-6.411 6.397-6.411h77.017c3.539 0 6.397 2.872 6.397 6.411a6.393 6.393 0 0 1-6.397 6.411zm153.978 0h-44.919a6.392 6.392 0 0 1-6.397-6.411c0-3.539 2.858-6.411 6.397-6.411h44.919c3.539 0 6.425 2.872 6.425 6.411-.001 3.552-2.886 6.411-6.425 6.411zm-70.591 0h-57.742a6.393 6.393 0 0 1-6.398-6.411c0-3.539 2.859-6.411 6.398-6.411h57.742a6.408 6.408 0 0 1 6.425 6.411 6.4 6.4 0 0 1-6.425 6.411zm-64.14-32.069h-96.264c-3.539 0-6.397-2.886-6.397-6.425 0-3.539 2.858-6.411 6.397-6.411h96.264c3.54 0 6.398 2.872 6.398 6.411 0 3.539-2.859 6.425-6.398 6.425zm134.731-128.334H262.761a6.393 6.393 0 0 1-6.397-6.412c0-3.539 2.858-6.411 6.397-6.411h109.086c3.539 0 6.425 2.872 6.425 6.411-.001 3.553-2.886 6.412-6.425 6.412z"/></svg>