<svg xmlns="http://www.w3.org/2000/svg" width="512" height="512" viewBox="0 0 512 512"><path fill="#FFF" d="M488.086 256.781c0 130.202-105.552 235.754-235.746 235.754-130.203 0-235.754-105.552-235.754-235.754 0-130.194 105.551-235.754 235.754-235.754 130.194 0 235.746 105.56 235.746 235.754z"/><path fill="#FFF" d="M101.879 256.781c0-83.766 67.908-151.681 151.673-151.681 83.774 0 151.681 67.916 151.681 151.681 0 83.773-67.907 151.682-151.681 151.682-83.765 0-151.673-67.908-151.673-151.682z"/><path fill="#E3E2EA" d="M254.449 411.676h-.083c-1.702 0-3.147-1.444-3.147-3.229 0-.855.34-1.619.934-2.217.594-.59 1.362-.931 2.213-.931a180.907 180.907 0 0 0 16.663-1.021c1.702-.175 3.313 1.021 3.487 2.806 0 .083.083.166.083.341 0 1.61-1.278 2.973-2.89 3.146-5.611.681-11.395 1.022-17.26 1.105zm-17.004-.856h-.34c-5.613-.681-11.392-1.527-17.087-2.806a3.24 3.24 0 0 1-2.553-3.139c0-.258.087-.515.087-.681.34-1.702 2.125-2.807 3.823-2.383 5.272 1.104 10.797 2.042 16.41 2.632 1.615.174 2.889 1.536 2.889 3.146 0 .174 0 .257-.083.341-.169 1.62-1.531 2.89-3.146 2.89zm50.671-3.138c-1.444 0-2.806-1.021-3.063-2.466-.083-.257-.083-.515-.083-.771a3.184 3.184 0 0 1 2.383-3.056c5.355-1.195 10.71-2.807 15.982-4.675 1.619-.598 3.487.341 4.085 1.951.166.341.166.682.166 1.104a3.117 3.117 0 0 1-2.042 2.89v.091c-.166 0-.341.083-.424.083a153.558 153.558 0 0 1-16.24 4.758c-.257.091-.506.091-.764.091zm-83.827-4.168c-.34 0-.681-.083-1.021-.174-5.355-1.868-10.71-4.076-16.07-6.543-1.104-.598-1.785-1.701-1.785-2.889 0-.515.087-.938.257-1.362.764-1.618 2.719-2.3 4.251-1.535a143.024 143.024 0 0 0 15.472 6.293c1.275.424 2.125 1.619 2.125 2.89 0 .432-.083.771-.17 1.112-.423 1.353-1.698 2.208-3.059 2.208zm115.793-7.232c-1.188 0-2.292-.681-2.89-1.785-.166-.423-.341-.847-.341-1.361 0-1.188.764-2.374 1.785-2.89 5.106-2.466 10.038-5.181 14.538-8.161v.092c1.444-.938 3.487-.516 4.426.93.34.515.506 1.195.506 1.785-.083 1.104-.598 2.042-1.527 2.64l-.083.083c-5.023 3.147-10.038 5.953-15.053 8.328-.423.256-.846.339-1.361.339zm-146.401-7.397c-.593 0-1.191-.083-1.702-.424a151.39 151.39 0 0 1-14.198-9.946c-.764-.589-1.188-1.527-1.188-2.466-.087-.764.17-1.444.677-2.042 1.021-1.354 3.064-1.611 4.421-.507 4.338 3.404 8.929 6.634 13.691 9.523.934.598 1.445 1.61 1.445 2.723 0 .59-.17 1.188-.428 1.694-.593.939-1.614 1.445-2.718 1.445zm175.053-10.793c-1.021 0-1.868-.424-2.549-1.188-.424-.515-.682-1.278-.682-2.043 0-.938.424-1.868 1.188-2.466a137.033 137.033 0 0 0 12.33-11.142c1.195-1.188 3.32-1.188 4.508 0 .598.598.938 1.361.938 2.217 0 .93-.258 1.702-.855 2.291a166.682 166.682 0 0 1-12.919 11.648c-.597.425-1.278.683-1.959.683zm-201.751-10.204c-.847 0-1.615-.341-2.208-.847a168.672 168.672 0 0 1-11.648-12.928c-.511-.507-.681-1.271-.681-2.034 0-.938.427-1.785 1.104-2.383 1.362-1.104 3.487-.855 4.508.424 3.57 4.334 7.311 8.502 11.221 12.329.598.598.938 1.444.938 2.292 0 .854-.34 1.618-.938 2.217a3.303 3.303 0 0 1-2.296.93zm225.555-13.858c-.681 0-1.354-.257-1.951-.681-.764-.681-1.196-1.527-1.196-2.466 0-.764.258-1.445.682-2.043l.174-.249a130.562 130.562 0 0 0 9.349-13.351h.092c.847-1.444 2.89-1.951 4.334-1.021.93.599 1.527 1.619 1.527 2.724 0 .598-.166 1.188-.506 1.61-3.064 4.933-6.377 9.615-9.781 14.032-.083 0-.083.166-.166.257h-.091c-.591.681-1.446 1.188-2.467 1.188zm-246.892-12.495c-1.104 0-2.042-.515-2.636-1.445-3.147-4.849-6.036-9.946-8.502-15.136-.253-.423-.34-.847-.34-1.361 0-1.271.681-2.383 1.785-2.89 1.532-.764 3.487-.083 4.251 1.445 2.466 4.932 5.185 9.863 8.161 14.538.34.515.511 1.104.511 1.784-.083 1.021-.594 2.043-1.532 2.55a3.061 3.061 0 0 1-1.698.515zm264.917-16.323c-.506 0-.93-.092-1.361-.341-1.104-.515-1.868-1.619-1.868-2.889 0-.432.083-.855.341-1.362 0-.083.083-.174.083-.174 2.383-4.932 4.425-10.113 6.21-15.219.507-1.611 2.383-2.549 4.077-1.951 1.195.423 2.042 1.61 2.125 2.972 0 .341-.083.682-.166 1.104-1.959 5.446-4.085 10.885-6.551 15.982-.591 1.114-1.694 1.878-2.89 1.878zM110.68 311.098c-1.274 0-2.549-.855-2.972-2.126 0-.083-.087-.174-.087-.257-1.868-5.182-3.487-10.711-4.845-16.323-.087-.258-.087-.598-.087-.847.087-1.445 1.021-2.724 2.466-3.064 1.702-.34 3.4.765 3.828 2.383a143.822 143.822 0 0 0 4.762 15.983c.083.34.17.681.17 1.104a3.11 3.11 0 0 1-2.125 2.973c-.342.091-.682.174-1.11.174zm290.933-18.026h-.764c-1.444-.341-2.466-1.702-2.466-3.229 0-.175.092-.424.092-.598 1.187-5.521 2.125-10.968 2.715-16.406.174-1.785 1.619-3.063 3.487-2.89a3.223 3.223 0 0 1 2.889 3.229c0 .083 0 .166-.083.341-.598 5.695-1.527 11.475-2.806 17.087-.257 1.445-1.611 2.466-3.064 2.466zM102.946 278.11c-1.615 0-2.977-1.195-3.146-2.806-.681-5.87-1.104-11.731-1.104-17.345 0-.17 0-.428.083-.598-.083-.17-.083-.423-.083-.593 0-1.702 1.445-3.147 3.143-3.147 1.789 0 3.234 1.445 3.234 3.147 0 .17 0 .423-.087.593.087.17.087.341.087.598.083 5.521.423 11.134 1.017 16.581v.249c.087 1.702-1.104 3.063-2.719 3.237-.171.084-.254.084-.425.084zm302.246-18.705c-1.702 0-3.147-1.445-3.147-3.23 0-5.442-.34-10.968-1.021-16.581v-.34c0-1.615 1.188-2.977 2.806-3.147 1.611-.253 3.313 1.021 3.57 2.724a149.187 149.187 0 0 1 1.021 17.344c0 1.785-1.444 3.23-3.146 3.23h-.083zm-302.333-16.41h-.424c-1.615-.17-2.806-1.528-2.806-3.229v-.253l.423-.087-.423-.083c.681-5.696 1.615-11.396 2.889-17.004.428-1.702 2.125-2.807 3.828-2.383 1.532.34 2.549 1.615 2.466 3.146 0 .253 0 .423-.087.681-1.188 5.355-2.125 10.881-2.719 16.406-.254 1.619-1.532 2.806-3.147 2.806zm298.505-17.345c-1.444 0-2.806-1.017-3.146-2.378v-.17a179.378 179.378 0 0 0-4.591-15.899 2.212 2.212 0 0 1-.258-1.021c.083-1.357.855-2.549 2.125-2.972 1.619-.598 3.487.34 4.085 1.868a140.192 140.192 0 0 1 4.841 16.75c.092.17.092.34.092.594 0 1.532-1.021 2.806-2.467 3.146-.257.082-.515.082-.681.082zM110.34 209.925c-.336 0-.677-.087-1.017-.17-1.279-.427-2.125-1.615-2.212-2.977 0-.34.087-.764.17-1.104l.087-.17a188.046 188.046 0 0 1 6.546-15.899c.764-1.532 2.719-2.213 4.334-1.445 1.104.511 1.785 1.615 1.785 2.89 0 .423-.083.934-.34 1.361-2.466 5.102-4.591 10.2-6.376 15.389a3.116 3.116 0 0 1-2.977 2.125zm279.717-16.24c-1.279 0-2.383-.681-2.89-1.785-2.383-4.932-5.106-9.776-8.078-14.538-.341-.511-.515-1.021-.515-1.615 0-1.108.515-2.125 1.444-2.724 1.453-.934 3.487-.51 4.425.938 3.147 4.928 5.953 10.029 8.419 15.131.249.423.341.934.341 1.445a3.087 3.087 0 0 1-1.785 2.806c-.432.255-.855.342-1.361.342zm-265.009-14.368c-.593 0-1.187-.17-1.698-.427-.934-.594-1.532-1.698-1.445-2.802 0-.598.17-1.191.424-1.619 3.059-4.928 6.463-9.689 10.034-14.198 1.104-1.274 3.146-1.527 4.504-.51a3.141 3.141 0 0 1 1.191 2.466c0 .768-.17 1.444-.681 2.042a157.555 157.555 0 0 0-9.606 13.604c-.598.934-1.615 1.444-2.723 1.444zm246.809-14.284a3.149 3.149 0 0 1-2.467-1.191 136.893 136.893 0 0 0-11.134-12.325c-.598-.598-.938-1.445-.938-2.296s.34-1.615.938-2.212c1.188-1.274 3.313-1.274 4.509 0 3.993 3.911 7.821 8.162 11.475 12.67l.083.17c.515.594.771 1.362.681 2.039 0 .938-.424 1.872-1.104 2.466-.59.425-1.362.679-2.043.679zM146.22 152.791c-.851 0-1.615-.34-2.295-.934-.594-.598-.934-1.362-.934-2.213s.34-1.698.934-2.295c.087-.083.17-.083.253-.17 3.998-3.993 8.249-7.904 12.67-11.391 1.362-1.104 3.487-.851 4.504.511.427.594.681 1.274.681 2.038 0 .938-.423 1.79-1.188 2.466a153.914 153.914 0 0 0-12.329 11.055c-.682.592-1.445.933-2.296.933zm201.584-11.649c-.681 0-1.452-.253-1.959-.681a136.578 136.578 0 0 0-13.6-9.606c-.938-.594-1.536-1.698-1.536-2.807 0-.593.175-1.104.515-1.615.93-1.444 2.973-1.955 4.417-1.021a148.55 148.55 0 0 1 14.114 10.034c.765.594 1.188 1.445 1.279 2.466 0 .681-.258 1.445-.681 2.042-.681.764-1.536 1.188-2.549 1.188zm-175.057-9.519c-1.104 0-2.125-.598-2.723-1.532-.34-.427-.506-1.021-.506-1.615 0-1.104.506-2.125 1.528-2.723 4.761-3.06 9.863-5.949 15.136-8.415 1.527-.764 3.483-.087 4.251 1.444.17.423.34.934.34 1.362 0 1.274-.768 2.378-1.873 2.889-4.932 2.466-9.863 5.185-14.538 8.079-.428.341-1.022.511-1.615.511zm146.314-8.502c-.507 0-1.013-.087-1.445-.34a140.054 140.054 0 0 0-15.302-6.293h-.083c-1.187-.424-2.042-1.615-2.125-2.977 0-.34.083-.764.166-1.104.598-1.615 2.383-2.549 4.085-1.955 5.438 1.872 10.885 4.081 16.065 6.629a3.091 3.091 0 0 1 1.785 2.807c0 .51-.083 1.021-.249 1.444-.598 1.108-1.702 1.789-2.897 1.789zm-115.793-6.293c-1.362 0-2.549-.851-3.06-2.125-.087-.34-.17-.764-.17-1.104 0-1.361.851-2.553 2.125-2.977a185.223 185.223 0 0 1 16.664-4.844c1.702-.34 3.4.764 3.827 2.466.083.166.083.423.083.594 0 1.532-1.021 2.889-2.466 3.229-5.442 1.191-10.88 2.806-15.982 4.591-.341.087-.681.17-1.021.17zm83.744-4.845c-.257 0-.515 0-.764-.087-5.355-1.191-10.802-2.125-16.414-2.719-1.61-.17-2.798-1.532-2.798-3.23v-.257c.166-1.785 1.785-3.06 3.57-2.889 5.604.681 11.391 1.615 17.087 2.889 1.444.34 2.466 1.615 2.466 3.147 0 .253 0 .423-.083.681-.341 1.444-1.619 2.465-3.064 2.465zm-50.671-2.723c-1.702 0-3.06-1.188-3.229-2.807v-.336c0-1.619 1.187-3.064 2.802-3.234 5.783-.594 11.565-.934 17.344-.934 1.785 0 3.234 1.362 3.234 3.146a3.232 3.232 0 0 1-3.234 3.23c-5.608 0-11.138.253-16.577.934l-.34.001z"/><path fill="none" d="M397.105 256.781c0 79.349-64.321 143.661-143.661 143.661S109.792 336.13 109.792 256.781c0-79.34 64.313-143.661 143.652-143.661s143.661 64.321 143.661 143.661z"/><path fill="#8AD7F8" d="M352.279 152.6L338.58 89.923H120.934l18.233 80.212 7.705 29.773h217.646z"/><path fill="#19335E" d="M368.785 342.166l-10.86-41.995H140.263l16.124 62.304c25.572 23.504 59.58 37.968 97.058 37.968 47.325-.001 89.17-22.974 115.34-58.277z"/><path fill="#476288" d="M146.755 199.908l-6.492 100.263h217.662l6.476-100.263z"/><path d="M151.056 114.515h171.151v7.124H151.056zm3.57 25.423h171.168v7.124H154.626zm8.618 28.254h171.159v7.124H163.244z" fill="#FFF"/><path fill="#E7E7E7" d="M173.556 319.906h171.16v7.124h-171.16zm3.579 25.423h171.159v7.124H177.135zm-13.891-123.9h171.159v7.124H163.244zm0 25.422h171.159v7.124H163.244zm0 28.254h171.159v7.123H163.244z"/><path fill="#C3B8B9" d="M403.606 163.202l-2.308-15.501-15.509-2.316-9.897 9.905 2.325 15.492 15.493 2.308z"/><path fill="#463937" d="M284.396 261.307a2.326 2.326 0 0 0 0 3.296 2.316 2.316 0 0 0 3.288 0l14.546-8.552 1.943-11.242-11.226 1.959-8.551 14.539z"/><path fill="#F79D89" d="M305.17 226.012l-12.222 20.756 9.282 9.283 20.757-12.23-2.307-15.501z"/><path fill="#19335E" d="M414.499 152.317c4.899-4.916 4.899-12.902 0-17.818-4.915-4.907-12.919-4.907-17.817 0l-10.893 10.885 17.817 17.817 10.893-10.884z"/><path fill="#FFD24E" d="M393.71 173.09l-70.723 70.731-17.817-17.809 70.722-70.722z"/><path fill="#E7E7E7" d="M185.745 370.021v7.123h145.894a143.219 143.219 0 0 0 9.947-7.123H185.745zm76.766-342.435h56.89v5.978h-56.89zm136.512 86.896h56.897v5.97h-56.897zM.263 289.651h56.89v5.979H.263zm455.102 39.297h56.898v5.97h-56.898zM20.173 165.859h56.898v5.97H20.173zm50.281-81.292H94.83v2.558H70.454zm205.15-26.194h24.385v2.565h-24.385zM476.77 291.362h24.376v2.557H476.77zm-24.394-112.933h24.394v2.557h-24.394zM16.52 321.052h24.376v2.558H16.52zM381.604 57.659h16.257v1.993h-16.257z"/><path fill="#E7E7E7" d="M388.728 50.519h2.001v16.256h-2.001zM37.359 251.825h16.257v1.984H37.359z"/><path fill="#E7E7E7" d="M44.5 244.684h1.992v16.257H44.5zm407.876-1.486h24.394v2.98h-24.394z"/><path fill="#E7E7E7" d="M463.078 232.496h2.989v24.385h-2.989zM177.724 43.976h24.393v2.98h-24.393z"/><path fill="#E7E7E7" d="M188.435 33.274h2.981v24.385h-2.981z"/><path fill="#E3ECF8" d="M61.122 110.339a10.11 10.11 0 0 1-10.112 10.113c-5.58 0-10.113-4.525-10.113-10.113 0-5.587 4.533-10.112 10.113-10.112a10.108 10.108 0 0 1 10.112 10.112z"/><path fill="#E6E7E8" d="M433.828 88.063c-4.094 0-7.423-3.325-7.423-7.414 0-4.089 3.329-7.415 7.423-7.415 4.085 0 7.414 3.325 7.414 7.415 0 4.089-3.329 7.414-7.414 7.414zm0-12.703a5.3 5.3 0 0 0-5.297 5.289 5.3 5.3 0 0 0 5.297 5.289 5.298 5.298 0 0 0 5.289-5.289 5.297 5.297 0 0 0-5.289-5.289z"/><path fill="#E3ECF8" d="M132.699 66.775a6.359 6.359 0 0 1-6.352 6.36 6.366 6.366 0 0 1-6.36-6.36c0-3.503 2.856-6.343 6.36-6.343 3.504 0 6.352 2.839 6.352 6.343z"/><path fill="#E6E7E8" d="M440.18 311.388c-4.085 0-7.414-3.329-7.414-7.414s3.329-7.414 7.414-7.414 7.414 3.329 7.414 7.414-3.329 7.414-7.414 7.414zm0-12.703c-2.914 0-5.289 2.375-5.289 5.289s2.375 5.289 5.289 5.289 5.289-2.375 5.289-5.289-2.375-5.289-5.289-5.289z"/><path fill="#E3ECF8" d="M351.067 60.423a6.353 6.353 0 0 1-12.704 0 6.344 6.344 0 0 1 6.352-6.343 6.344 6.344 0 0 1 6.352 6.343z"/><path fill="#E6E7E8" d="M61.122 211.822c-4.089 0-7.414-3.329-7.414-7.422 0-4.089 3.325-7.415 7.414-7.415 4.093 0 7.423 3.325 7.423 7.415-.001 4.093-3.33 7.422-7.423 7.422zm0-12.711a5.298 5.298 0 0 0-5.289 5.289c0 2.922 2.375 5.297 5.289 5.297a5.3 5.3 0 0 0 5.297-5.297 5.3 5.3 0 0 0-5.297-5.289z"/><path fill="#E3ECF8" d="M58.996 365.322c0-9.482 7.672-17.153 17.137-17.153 9.474 0 17.153 7.671 17.153 17.153 0 9.465-7.68 17.137-17.153 17.137-9.465 0-17.137-7.672-17.137-17.137zm394.842-177.851c0-8.004 6.492-14.497 14.496-14.497s14.496 6.493 14.496 14.497-6.492 14.488-14.496 14.488-14.496-6.484-14.496-14.488zm-23.016 177.851c0-5.182 4.185-9.365 9.349-9.365a9.352 9.352 0 0 1 9.357 9.365c0 5.164-4.185 9.349-9.357 9.349a9.348 9.348 0 0 1-9.349-9.349z"/></svg>