<svg xmlns="http://www.w3.org/2000/svg" width="512" height="512" viewBox="0 0 512 512"><path fill="none" d="M491.741 256.335c0 130.2-105.559 235.75-235.742 235.75-130.2 0-235.758-105.55-235.758-235.75 0-130.192 105.558-235.75 235.758-235.75 130.184 0 235.742 105.558 235.742 235.75z"/><path fill="#FFF" d="M105.541 256.335c0-83.764 67.898-151.679 151.67-151.679s151.671 67.915 151.671 151.679c0 83.772-67.898 151.679-151.671 151.679s-151.67-67.907-151.67-151.679z"/><path fill="#E3E2EA" d="M258.087 411.193c-1.785 0-3.234-1.444-3.234-3.146 0-.847.341-1.702.938-2.291a3.272 3.272 0 0 1 2.295-.938c5.608 0 11.221-.341 16.576-1.021 1.785-.257 3.313 1.104 3.57 2.807v.34c0 1.619-1.188 2.973-2.807 3.23h-.423a141.182 141.182 0 0 1-16.915 1.019zm-17.004-.846h-.257a138.12 138.12 0 0 1-17.174-2.806c-1.445-.341-2.549-1.702-2.466-3.147 0-.257 0-.423.087-.681.34-1.619 2.038-2.723 3.74-2.383 5.355 1.195 10.88 2.043 16.41 2.641a3.226 3.226 0 0 1 2.889 3.229v.249c-.256 1.702-1.614 2.898-3.229 2.898zm50.667-3.147c-1.445 0-2.715-.938-3.056-2.383-.092-.258-.092-.507-.092-.847 0-1.445 1.021-2.724 2.466-2.98a161.147 161.147 0 0 0 15.899-4.675v-.083c1.702-.598 3.57.341 4.085 1.951.166.341.166.764.166 1.104 0 1.361-.847 2.557-2.125 2.98-5.521 1.951-11.134 3.653-16.572 4.932l-.771.001zm-83.827-4.168c-.336 0-.677-.083-1.017-.174-5.525-1.868-10.885-4.077-16.07-6.543-1.104-.506-1.785-1.702-1.785-2.889 0-.424.083-.938.34-1.362.681-1.527 2.636-2.291 4.251-1.527a136.817 136.817 0 0 0 15.389 6.285 3.128 3.128 0 0 1 2.125 2.98c0 .34-.087.681-.17 1.104-.427 1.28-1.701 2.126-3.063 2.126zm115.8-7.139c-1.195 0-2.3-.765-2.897-1.785a4.064 4.064 0 0 1-.249-1.445c-.092-1.195.681-2.3 1.785-2.889a139.182 139.182 0 0 0 14.454-8.078c1.445-.938 3.479-.516 4.417 1.021.341.424.507 1.013.507 1.611 0 1.104-.59 2.125-1.527 2.723-4.849 3.146-9.947 5.953-15.045 8.502-.516.165-.939.34-1.445.34zm-146.403-7.399a3.064 3.064 0 0 1-1.702-.515c-4.845-3.055-9.693-6.376-14.197-9.946-.764-.589-1.191-1.444-1.191-2.466 0-.672.17-1.444.681-2.034 1.021-1.278 3.146-1.536 4.504-.515a128.595 128.595 0 0 0 13.604 9.523c.938.598 1.532 1.619 1.445 2.806 0 .507-.17 1.104-.424 1.619-.594.93-1.616 1.528-2.72 1.528zm175.046-10.884c-1.013 0-1.951-.424-2.549-1.104-.423-.598-.681-1.361-.681-2.043 0-1.021.432-1.867 1.195-2.466 4.334-3.479 8.502-7.223 12.329-11.133 1.188-1.279 3.313-1.279 4.5-.083.681.589.938 1.444.938 2.291.083.855-.258 1.619-.855 2.209a137.784 137.784 0 0 1-12.918 11.648c-.597.515-1.278.681-1.959.681zm-201.742-10.112c-.851 0-1.615-.341-2.213-.938a151.117 151.117 0 0 1-11.644-12.836c-.428-.598-.681-1.361-.681-2.042 0-.938.424-1.868 1.191-2.466 1.275-1.104 3.4-.848 4.421.423a168.231 168.231 0 0 0 11.221 12.412c.594.598.934 1.362.934 2.217 0 .847-.34 1.694-.934 2.292s-1.444.938-2.295.938zm225.554-13.949c-.681 0-1.361-.249-1.959-.681-.764-.589-1.188-1.444-1.188-2.466 0-.681.258-1.444.681-2.034a174.337 174.337 0 0 0 9.606-13.607c.847-1.444 2.889-1.951 4.417-1.021.938.598 1.444 1.619 1.444 2.807 0 .515-.166 1.104-.424 1.619-3.055 4.849-6.459 9.605-9.946 14.114l-.083.083c-.597.763-1.527 1.186-2.548 1.186zm-246.896-12.412c-1.104 0-2.038-.589-2.632-1.527a144.37 144.37 0 0 1-8.502-15.136c-.257-.423-.34-.847-.34-1.361 0-1.188.681-2.375 1.785-2.89 1.527-.764 3.483-.083 4.251 1.445 2.466 4.932 5.185 9.863 8.161 14.537.34.515.511 1.021.511 1.619 0 1.104-.511 2.209-1.445 2.807-.51.257-1.109.506-1.789.506zm264.921-16.406c-.515 0-.938-.083-1.362-.258-1.195-.589-1.876-1.702-1.876-2.889 0-.507.091-.938.341-1.362 0-.166.091-.257.091-.34 2.375-4.932 4.417-10.029 6.202-15.044v-.083c.515-1.619 2.466-2.558 4.085-1.96 1.188.424 2.034 1.619 2.125 2.973 0 .432-.091.771-.174 1.112a132.023 132.023 0 0 1-6.634 16.065 3.073 3.073 0 0 1-2.798 1.786zM114.404 310.7c-1.357 0-2.549-.847-3.06-2.126v-.166a145.725 145.725 0 0 1-4.845-16.497c-.087-.249-.17-.506-.17-.847.083-1.444 1.104-2.723 2.549-2.98 1.615-.424 3.4.681 3.827 2.383 1.191 5.272 2.807 10.627 4.674 15.899.087.34.17.764.17 1.104a3.127 3.127 0 0 1-2.125 2.98c-.34.167-.68.25-1.02.25zm290.85-18.025c-.258 0-.516 0-.682-.083a3.256 3.256 0 0 1-2.549-3.146c0-.249.083-.423.083-.681 1.271-5.521 2.126-11.051 2.724-16.405.166-1.702 1.61-2.973 3.479-2.807 1.619.174 2.897 1.527 2.897 3.146v.341c-.681 5.695-1.619 11.474-2.897 17.169-.249 1.453-1.611 2.466-3.055 2.466zm-298.671-15.044c-1.615 0-2.972-1.188-3.143-2.806v-.341c-.681-5.612-1.021-11.308-1.108-17.004 0-.17.087-.34.087-.51-.087-.253-.087-.423-.087-.681 0-1.698 1.445-3.143 3.234-3.143 1.698 0 3.143 1.444 3.143 3.143v1.191c.087 5.53.428 11.143 1.108 16.58v.341c0 1.61-1.191 2.973-2.806 3.229l-.428.001zm302.323-18.705c-1.785 0-3.229-1.445-3.229-3.143 0-5.53-.34-11.138-.938-16.664 0-.087-.083-.17-.083-.257 0-1.702 1.188-3.06 2.89-3.229 1.785-.17 3.321 1.104 3.487 2.806a148.084 148.084 0 0 1 1.021 17.344c-.001 1.697-1.446 3.143-3.148 3.143zM106.5 242.52h-.34c-1.702-.17-2.889-1.532-2.889-3.146 0-.17 0-.253.083-.34a143.04 143.04 0 0 1 2.806-17.087c.423-1.702 2.125-2.806 3.828-2.466 1.444.341 2.549 1.698 2.461 3.23v.594a132.275 132.275 0 0 0-2.802 16.41c-.171 1.613-1.533 2.805-3.147 2.805zm298.496-17.261c-1.527 0-2.807-1.017-3.146-2.466-1.188-5.355-2.807-10.71-4.592-15.982a2.405 2.405 0 0 1-.257-1.104c.091-1.361.938-2.553 2.217-2.976 1.61-.594 3.486.34 3.993 1.955a153.868 153.868 0 0 1 4.849 16.663c.083.17.083.428.083.598a3.126 3.126 0 0 1-2.466 3.23c-.174-.001-.423.082-.681.082zM113.98 209.447c-.34 0-.681-.083-1.021-.17a3.115 3.115 0 0 1-2.125-2.977c0-.34 0-.764.17-1.104a168.203 168.203 0 0 1 6.546-15.813c0-.087.087-.17.087-.17.764-1.532 2.719-2.213 4.25-1.532 1.104.51 1.785 1.702 1.785 2.889 0 .511-.087.938-.34 1.362h-.428l.428.17a158.563 158.563 0 0 0-6.376 15.219h.083c-.51 1.275-1.697 2.126-3.059 2.126zm279.708-16.153c-1.271 0-2.292-.768-2.89-1.872-2.383-4.932-5.189-9.859-8.078-14.451a3.065 3.065 0 0 1-.507-1.702c0-1.104.507-2.125 1.444-2.719 1.445-.938 3.487-.428 4.417.934 3.063 4.932 5.953 9.946 8.502 15.218.175.423.258.851.258 1.362 0 1.187-.681 2.295-1.785 2.889-.423.171-.938.341-1.361.341zm-265-14.368c-.593 0-1.191-.17-1.698-.51-.938-.598-1.449-1.615-1.449-2.806 0-.594.17-1.104.511-1.615 3.063-4.932 6.463-9.606 10.033-14.114 1.021-1.361 3.147-1.615 4.421-.51.764.598 1.191 1.444 1.274 2.466 0 .681-.253 1.444-.764 2.042a143.002 143.002 0 0 0-9.61 13.517c-.593.933-1.614 1.53-2.718 1.53zm246.809-14.284c-.938 0-1.876-.423-2.466-1.191a155.176 155.176 0 0 0-11.142-12.413c-.59-.593-.93-1.357-.93-2.208a3.3 3.3 0 0 1 .93-2.296c1.195-1.191 3.32-1.191 4.508 0a128.361 128.361 0 0 1 11.565 12.923c.507.594.764 1.274.764 2.038 0 .938-.515 1.785-1.187 2.383a3.052 3.052 0 0 1-2.042.764zm-225.638-12.329c-.851 0-1.615-.253-2.212-.847-.594-.681-.934-1.449-.934-2.295 0-.851.34-1.615.934-2.213 3.998-4.081 8.332-7.991 12.84-11.648 1.357-1.017 3.483-.764 4.504.511.511.598.764 1.279.681 2.042 0 .934-.424 1.868-1.191 2.466-4.334 3.483-8.502 7.228-12.325 11.138-.598.593-1.449.846-2.297.846zm201.578-11.645c-.681 0-1.361-.257-1.959-.681l-.249-.17c-4.251-3.4-8.76-6.546-13.351-9.436-.938-.598-1.528-1.619-1.528-2.724a5.511 5.511 0 0 1 .507-1.698c.938-1.449 2.973-1.872 4.425-.938 4.841 2.977 9.606 6.376 14.197 9.951.682.593 1.188 1.527 1.188 2.461 0 .768-.257 1.449-.681 2.042-.598.766-1.528 1.193-2.549 1.193zm-175.055-9.522c-1.104 0-2.125-.511-2.719-1.445a3.057 3.057 0 0 1-.511-1.702c0-1.104.598-2.125 1.532-2.719a147.772 147.772 0 0 1 15.131-8.419c1.532-.764 3.487-.083 4.251 1.445.257.428.34.938.34 1.449a3.079 3.079 0 0 1-1.785 2.802 149.423 149.423 0 0 0-14.538 8.078c-.51.34-1.104.511-1.701.511zm146.319-8.502c-.515 0-.938-.087-1.361-.257-5.015-2.378-10.204-4.504-15.393-6.376-1.271-.423-2.126-1.615-2.209-2.972 0-.34.083-.681.258-1.108.506-1.615 2.383-2.461 3.993-1.955a167.524 167.524 0 0 1 16.074 6.634c1.104.51 1.784 1.615 1.784 2.889.084.428-.091.934-.257 1.362-.514 1.102-1.618 1.783-2.889 1.783zm-115.795-6.293c-1.362 0-2.553-.847-2.977-2.125a2.254 2.254 0 0 1-.257-1.017c0-1.362.938-2.553 2.125-2.977a154.842 154.842 0 0 1 16.667-4.849c1.785-.336 3.483.681 3.823 2.383.087.253.087.423.087.681.083 1.445-1.021 2.806-2.466 3.147a146.305 146.305 0 0 0-15.986 4.587c-.335.17-.675.17-1.016.17zm83.74-4.845h-.681a132.872 132.872 0 0 0-16.406-2.806c-1.619-.17-2.889-1.528-2.889-3.147v-.083c0-.087 0-.17.083-.253.174-1.702 1.702-3.064 3.486-2.806h.083c5.696.593 11.392 1.615 16.838 2.806h.166c1.444.336 2.549 1.698 2.466 3.229 0 .17 0 .34-.083.594-.257 1.445-1.619 2.466-3.063 2.466zm-50.671-2.719c-1.615 0-2.972-1.191-3.229-2.806v-.34c0-1.615 1.191-2.977 2.893-3.146a149.941 149.941 0 0 1 17.257-1.021c1.785 0 3.229 1.449 3.229 3.147a3.227 3.227 0 0 1-3.229 3.229c-5.612 0-11.221.34-16.58.938l-.341-.001z"/><path fill="#8BD7F8" d="M257.211 399.512c47.067 0 89.111-21.437 116.925-55.07V107.637l-41.579-41.579h-192.27v278.384c27.813 33.633 69.857 55.07 116.924 55.07z"/><path fill="#E7E7E7" d="M262.226 27.144h56.906v5.978h-56.906zm136.527 86.894h56.889v5.97h-56.889zM-.018 289.205h56.905v5.978H-.018zm455.112 39.296h56.889v5.969h-56.889zM19.909 165.414h56.889v5.97H19.909zm50.263-81.29h24.393v2.557H70.172zm205.155-34.696h24.385v2.565h-24.385zM476.48 290.915h24.394v2.558H476.48zm-24.376-112.931h24.376v2.557h-24.376zM16.239 320.604h24.393v2.558H16.239zM381.317 57.216h16.256v1.993h-16.256z"/><path fill="#E7E7E7" d="M388.457 50.076h1.993v16.256h-1.993zM37.095 251.378h16.256v1.984H37.095z"/><path fill="#E7E7E7" d="M44.218 244.238h2.001v16.256h-2.001zm407.886-1.486h24.376v2.981h-24.376z"/><path fill="#E7E7E7" d="M462.798 232.05h2.989v24.384h-2.989zM177.457 43.533h24.376v2.98h-24.376z"/><path fill="#E7E7E7" d="M188.151 32.831h2.989v24.385h-2.989z"/><path fill="#E3ECF8" d="M60.856 109.895c0 5.588-4.533 10.113-10.112 10.113a10.11 10.11 0 0 1-10.113-10.113 10.11 10.11 0 0 1 10.113-10.112c5.579 0 10.112 4.525 10.112 10.112z"/><path fill="#E6E7E8" d="M433.549 87.62c-4.085 0-7.414-3.325-7.414-7.414 0-4.089 3.329-7.415 7.414-7.415 4.084 0 7.414 3.325 7.414 7.415 0 4.088-3.33 7.414-7.414 7.414zm0-12.703a5.297 5.297 0 0 0-5.289 5.289 5.297 5.297 0 0 0 5.289 5.289 5.297 5.297 0 0 0 5.288-5.289 5.297 5.297 0 0 0-5.288-5.289z"/><path fill="#E3ECF8" d="M132.424 66.332a6.352 6.352 0 1 1-12.704 0 6.344 6.344 0 0 1 6.352-6.343 6.344 6.344 0 0 1 6.352 6.343z"/><path fill="#E6E7E8" d="M439.899 310.94c-4.093 0-7.422-3.329-7.422-7.414s3.329-7.414 7.422-7.414c4.085 0 7.415 3.329 7.415 7.414s-3.33 7.414-7.415 7.414zm0-12.702c-2.922 0-5.297 2.374-5.297 5.288s2.375 5.289 5.297 5.289c2.915 0 5.289-2.375 5.289-5.289s-2.374-5.288-5.289-5.288z"/><path fill="#E3ECF8" d="M350.789 59.98c0 3.512-2.848 6.36-6.352 6.36s-6.359-2.848-6.359-6.36c0-3.504 2.855-6.343 6.359-6.343s6.352 2.84 6.352 6.343z"/><path fill="#E6E7E8" d="M60.856 211.377c-4.093 0-7.422-3.33-7.422-7.422 0-4.089 3.329-7.414 7.422-7.414 4.085 0 7.406 3.325 7.406 7.414 0 4.092-3.321 7.422-7.406 7.422zm0-12.711c-2.922 0-5.297 2.375-5.297 5.289a5.301 5.301 0 0 0 5.297 5.297c2.91 0 5.28-2.375 5.28-5.297.001-2.915-2.369-5.289-5.28-5.289z"/><path fill="#E3ECF8" d="M58.714 364.874c0-9.481 7.671-17.153 17.153-17.153 9.465 0 17.136 7.672 17.136 17.153 0 9.465-7.671 17.137-17.136 17.137-9.481 0-17.153-7.672-17.153-17.137zm394.844-177.849c0-8.003 6.501-14.496 14.505-14.496 8.003 0 14.496 6.493 14.496 14.496 0 8.004-6.493 14.488-14.496 14.488-8.004.001-14.505-6.484-14.505-14.488zm-23.007 177.849c0-5.181 4.185-9.365 9.349-9.365 5.165 0 9.349 4.185 9.349 9.365a9.347 9.347 0 0 1-9.349 9.349 9.347 9.347 0 0 1-9.349-9.349z"/><path fill="#FFF" d="M189.819 269.935h137.564v15.418H189.819zm0 29.432h137.564v15.426H189.819zm68.779-194.744c37.992 0 68.786 30.794 68.786 68.778 0 37.992-30.794 68.786-68.786 68.786-37.984 0-68.778-30.794-68.778-68.786-.001-37.984 30.794-68.778 68.778-68.778z"/><path fill="#317ABE" d="M258.598 128.219c24.957 0 45.183 20.233 45.183 45.183 0 24.965-20.226 45.19-45.183 45.19-24.958 0-45.182-20.225-45.182-45.19 0-24.95 20.224-45.183 45.182-45.183z"/><path fill="#FFF" d="M254.944 199.538v-6.542c-4.616-.208-9.083-1.52-11.707-2.964l2.067-8.062c2.898 1.586 6.958 3.031 11.433 3.031 4.002 0 6.684-1.586 6.684-4.268 0-2.624-2.2-4.276-7.373-5.995-7.364-2.482-12.396-5.928-12.396-12.611 0-6.119 4.267-10.876 11.64-12.254v-6.542h6.75v6.061c4.55.141 7.646 1.171 10.055 2.275l-2.059 7.78c-1.728-.822-4.966-2.408-9.931-2.408-4.466 0-5.911 2-5.911 3.918 0 2.208 2.408 3.72 8.327 5.862 8.195 2.897 11.433 6.684 11.433 12.952 0 6.127-4.268 11.366-12.188 12.67v7.099h-6.824z"/><path fill="#317ABE" d="M332.557 107.637h41.579l-41.579-41.579z"/></svg>