<svg xmlns="http://www.w3.org/2000/svg" width="512" height="512" viewBox="0 0 512 512"><path fill="#F6F9FD" d="M413.538 193.703c7.455 18.356-1.379 39.279-19.733 46.734L86.751 365.187c-18.354 7.459-39.279-1.373-46.734-19.728-7.458-18.354 1.376-39.276 19.73-46.734l307.056-124.75c18.357-7.461 39.279 1.374 46.735 19.728zM291.729 320.86c-7.341-18.074 1.133-38.61 18.914-46.354-.283.106-.57.185-.855.302L139.09 344.156c-.207.084-.394.192-.595.276 18.202-7.019 38.741 1.798 46.113 19.948 7.374 18.15-1.195 38.784-19.136 46.455.206-.082.418-.131.619-.218l170.702-69.346c.282-.116.537-.264.814-.383-18.141 6.852-38.537-1.955-45.878-20.028z"/><path fill="#F6F9FD" d="M508.614 310.183c7.456 18.354-1.379 39.276-19.733 46.731l-350.44 142.243c-18.354 7.455-39.276-1.377-46.735-19.733-7.458-18.354 1.376-39.279 19.73-46.737L461.88 290.452c18.351-7.456 39.279 1.374 46.734 19.731z"/><path fill="#E3E2EA" d="M273.245 411.205c-1 0-1.89-.027-2.696-.027-.277 0-.529-.111-.723-.307-.195-.223-.307-.473-.307-.75.027-.557.473-1.028 1.057-1.028 1.974.026 3.978.026 5.533 0 .583 0 1.056.445 1.056 1.028 0 .555-.445 1.026-1.028 1.057-.889 0-1.806.027-2.892.027zm-8.229-.195h-.055c-2.112-.111-3.894-.193-5.561-.334-.528-.027-.946-.473-.974-1v-.111a1.1 1.1 0 0 1 1.141-.975c1.639.142 3.393.253 5.505.334.557.03.999.473.999 1.029v.084c-.027.527-.499.973-1.055.973zm16.711 0h-.03a1.046 1.046 0 0 1-1.056-1v-.057c0-.557.445-.999 1.002-1.029a199.22 199.22 0 0 0 5.503-.334h.085c.529 0 1.001.418 1.028.948v.111c0 .526-.418.972-.972 1.026v-.082.082c-1.865.141-3.727.253-5.56.335zm-27.776-.834h-.111a161.742 161.742 0 0 1-5.56-.668c-.501-.081-.891-.5-.891-.999v-.168a1.063 1.063 0 0 1 1.196-.889c1.78.25 3.614.473 5.477.666v-.027c.529.057.946.499.946 1.056 0 .027-.028.084-.028.111a1.028 1.028 0 0 1-1.029.918zm38.785 0a1.05 1.05 0 0 1-1.029-.945v-.111c0-.529.389-.972.945-1.028 1.946-.223 3.725-.445 5.476-.668.668-.082 1.084.334 1.168.891v.111c.027.529-.361.972-.888 1.056h-.03c-1.806.25-3.668.473-5.53.668-.031.026-.058.026-.112.026zm-49.796-1.475c-.054 0-.11-.027-.166-.027-1.891-.307-3.727-.667-5.505-1.001a1.065 1.065 0 0 1-.835-1.026c0-.058 0-.142.028-.195.111-.557.667-.945 1.223-.834 1.863.389 3.698.723 5.421.999.528.084.891.529.891 1.029 0 .057 0 .111-.029.168a1.065 1.065 0 0 1-1.028.887zm60.806-.054a1.04 1.04 0 0 1-1.029-.863v-.166c-.03-.529.361-.945.86-1.029 1.836-.307 3.644-.668 5.422-1.002h.027c.557-.138 1.086.253 1.197.807a.64.64 0 0 1 .027.223c0 .473-.361.918-.833 1.002-1.865.389-3.698.723-5.507 1.029l-.164-.001zm-71.675-2.142h-.251c-.054-.027-.083-.027-.138-.054-1.78-.419-3.531-.834-5.2-1.279-.027 0-.056 0-.083-.027a1.013 1.013 0 0 1-.779-1.002c0-.084 0-.195.028-.276.167-.529.751-.891 1.279-.726 1.891.503 3.643.918 5.366 1.309.473.111.778.527.807 1 0 .084 0 .168-.028.249a1.008 1.008 0 0 1-1.001.806zm82.574-.027c-.503 0-.918-.334-1.029-.806 0-.085-.027-.166-.027-.25.027-.5.361-.891.834-1.002 1.751-.416 3.529-.86 5.338-1.333.557-.169 1.14.195 1.278.749.027.084.027.168.027.253 0 .472-.307.888-.749.999h-.03c-.027.027-.055.027-.081.027-1.725.472-3.506.917-5.338 1.336-.086 0-.142.027-.223.027zm-93.334-2.781a.984.984 0 0 1-.278-.054 163.399 163.399 0 0 1-5.337-1.67 1.043 1.043 0 0 1-.723-.999c0-.111.027-.223.056-.307.166-.557.778-.834 1.306-.668 1.696.557 3.419 1.086 5.282 1.64.418.141.724.529.75 1.002 0 .084-.027.195-.056.307a1.038 1.038 0 0 1-1 .749zm104.063-.084c-.473 0-.86-.276-.999-.722a1.324 1.324 0 0 1-.057-.305c0-.475.307-.863.752-1.002a148.097 148.097 0 0 0 5.28-1.667c.529-.168 1.141.139 1.309.665.027.111.055.196.055.308 0 .472-.277.86-.723 1.001a197.28 197.28 0 0 1-5.311 1.694c-.111.028-.195.028-.306.028zm-114.627-3.418a.947.947 0 0 1-.363-.084v.026l-.083-.054a188.913 188.913 0 0 1-5.144-1.947 1.06 1.06 0 0 1-.639-.972c0-.139.028-.279.056-.391.223-.527.833-.807 1.363-.584 1.64.668 3.335 1.309 5.171 1.974.417.169.695.557.695.975 0 .139-.029.25-.084.361a1.017 1.017 0 0 1-.972.696zm125.164-.057c-.445 0-.833-.276-.972-.694-.058-.111-.058-.25-.058-.361 0-.445.253-.834.668-.972a228.105 228.105 0 0 0 5.146-1.975h.027a1.022 1.022 0 0 1 1.333.557c.057.139.084.277.084.416 0 .418-.25.806-.638.944-1.67.668-3.367 1.336-5.229 2.004a.875.875 0 0 1-.361.081zm-135.508-4.086a1.09 1.09 0 0 1-.417-.084c-1.668-.749-3.364-1.501-5.005-2.278-.027-.026-.054-.026-.083-.057a1.005 1.005 0 0 1-.583-.918 1.3 1.3 0 0 1 .083-.473c.251-.472.891-.722 1.39-.472.056 0 .056 0 .084.027 1.501.694 3.114 1.446 4.948 2.253.389.166.639.557.639.972 0 .139-.027.28-.083.392a1.064 1.064 0 0 1-.973.638zm145.796-.054c-.419 0-.779-.25-.945-.614a1.08 1.08 0 0 1-.084-.415 1.002 1.002 0 0 1 .61-.975c1.67-.723 3.367-1.502 5.007-2.278.5-.25 1.168 0 1.391.5a.83.83 0 0 1 .111.445c0 .388-.253.749-.614.944a288.035 288.035 0 0 1-5.058 2.308c-.141.055-.28.085-.418.085zm-155.832-4.7c-.167 0-.334-.055-.473-.111a182.79 182.79 0 0 1-4.95-2.642c-.333-.193-.555-.527-.555-.918 0-.165.056-.331.139-.499a1.101 1.101 0 0 1 1.417-.416c1.53.86 3.143 1.694 4.894 2.612.361.168.557.529.557.944a.882.882 0 0 1-.111.445 1.009 1.009 0 0 1-.918.585zm165.839-.055a1.03 1.03 0 0 1-.915-.557c-.084-.138-.111-.307-.141-.445 0-.418.223-.778.584-.972.029 0 .057-.029.084-.029a137.827 137.827 0 0 0 4.781-2.558 1.055 1.055 0 0 1 1.42.418c.081.165.111.334.111.499.027.392-.195.723-.529.918-1.613.891-3.28 1.778-4.92 2.614a.927.927 0 0 1-.475.112zm-175.598-5.338a.886.886 0 0 1-.528-.141 138.235 138.235 0 0 1-4.754-2.919 1 1 0 0 1-.501-.891c0-.192.056-.388.167-.554a1.064 1.064 0 0 1 1.446-.307 143.94 143.94 0 0 0 4.698 2.892c.334.165.501.499.529.86 0 .195-.056.392-.167.557-.167.308-.528.503-.89.503zm185.302 0c-.361 0-.695-.195-.888-.529a.891.891 0 0 1-.142-.529 1 1 0 0 1 .503-.888c1.612-.945 3.195-1.92 4.696-2.892.473-.279 1.141-.139 1.447.334.082.166.139.334.166.526 0 .361-.195.695-.5.918-1.501.945-3.114 1.92-4.754 2.892a.91.91 0 0 1-.528.168zm-194.699-5.951c-.194 0-.39-.054-.584-.165a215.02 215.02 0 0 1-4.56-3.199c-.278-.223-.444-.499-.444-.833 0-.223.056-.445.194-.641.334-.442 1-.554 1.446-.22h.027c.029 0 .029.026.056.054 1.475 1.057 2.976 2.085 4.449 3.114h.029c.277.195.444.5.444.86a.923.923 0 0 1-.194.584 1.026 1.026 0 0 1-.863.446zm204.069 0c-.361 0-.668-.165-.861-.445-.111-.192-.195-.388-.195-.584 0-.36.166-.665.473-.86 0-.027.027-.027.057-.057 1.472-.973 2.946-2.028 4.447-3.111a1.087 1.087 0 0 1 1.475.22c.111.195.192.418.192.641 0 .334-.165.61-.442.833-.029.027-.057.027-.084.058a271.126 271.126 0 0 1-4.478 3.142 1.105 1.105 0 0 1-.584.163zm8.982-6.505a1.024 1.024 0 0 1-1.03-1.03c0-.334.139-.638.388-.834a134.116 134.116 0 0 0 4.339-3.421c.416-.36 1.11-.276 1.472.142.139.192.223.415.223.665 0 .307-.139.584-.361.779v.027c-.026 0-.054.029-.084.029-1.306 1.111-2.723 2.224-4.309 3.446-.167.143-.389.197-.638.197zm-222.058 0c-.223 0-.445-.084-.612-.195l-.083-.082a168.609 168.609 0 0 1-4.31-3.421.991.991 0 0 1-.39-.807c0-.223.084-.472.251-.638.361-.445 1.029-.502 1.473-.168 1.419 1.197 2.892 2.335 4.31 3.447.277.196.417.5.417.834a.967.967 0 0 1-.223.611.984.984 0 0 1-.833.419zm230.648-7.035c-.307 0-.583-.111-.779-.361-.165-.192-.276-.445-.249-.694 0-.305.111-.584.334-.75a206.852 206.852 0 0 0 4.113-3.697c.391-.392 1.112-.334 1.474.054.166.195.277.445.277.695 0 .307-.111.584-.331.779-.03.027-.058.054-.085.054-1.224 1.171-2.557 2.338-4.004 3.617l-.082.054c-.168.168-.418.249-.668.249zm-239.24 0c-.25 0-.473-.111-.667-.25-.029-.026-.056-.054-.084-.054a226.32 226.32 0 0 1-4.086-3.698 1.01 1.01 0 0 1-.334-.779c0-.25.111-.499.278-.695.388-.418 1.056-.418 1.473-.054 1.446 1.333 2.78 2.558 4.115 3.695.223.195.334.475.361.752 0 .276-.083.529-.25.722-.223.222-.5.361-.806.361zm247.385-7.534c-.277 0-.557-.111-.749-.304-.196-.196-.28-.473-.28-.753 0-.276.111-.526.307-.722l.055-.057c1.42-1.418 2.669-2.669 3.81-3.892.391-.391 1.086-.418 1.474-.026.223.192.334.499.334.776 0 .25-.111.502-.307.695a176.765 176.765 0 0 1-3.92 3.978 1.013 1.013 0 0 1-.724.305zm-255.531-.027c-.278 0-.529-.111-.723-.307v.03l-.083-.085c-1.251-1.251-2.558-2.558-3.838-3.92-.194-.166-.277-.418-.277-.695-.028-.277.083-.557.306-.779.417-.361 1.084-.361 1.473.057 1.223 1.279 2.531 2.585 3.865 3.921h.029c.194.193.305.445.305.723 0 .276-.111.557-.305.749a1.083 1.083 0 0 1-.752.306zm263.204-8.007c-.25 0-.5-.084-.695-.25a1.053 1.053 0 0 1-.334-.778c0-.25.084-.5.253-.695a3.27 3.27 0 0 0 .081-.084 328.05 328.05 0 0 0 3.56-4.087c.361-.418 1.057-.472 1.475-.111.223.196.361.5.361.807a.94.94 0 0 1-.25.641v.027c-.027 0-.058.027-.058.055a251.41 251.41 0 0 1-3.557 4.089c-.029 0-.029.026-.057.054-.222.22-.472.332-.779.332zm-270.878 0a1.08 1.08 0 0 1-.778-.361 281.097 281.097 0 0 1-3.671-4.197 1.389 1.389 0 0 1-.25-.668c0-.307.139-.61.39-.806.417-.361 1.112-.308 1.473.111a119.97 119.97 0 0 0 3.615 4.17c.166.192.277.445.277.695 0 .304-.139.583-.361.779a1.105 1.105 0 0 1-.695.277zm278.051-8.479a.95.95 0 0 1-.638-.223.993.993 0 0 1-.391-.807c0-.223.057-.445.223-.641a197.84 197.84 0 0 0 3.363-4.394c.334-.442 1.029-.554 1.475-.192.25.192.418.499.418.807 0 .223-.084.445-.223.638a181.866 181.866 0 0 1-3.394 4.42 1.066 1.066 0 0 1-.833.392zm-285.224 0c-.306 0-.611-.139-.807-.392a189.617 189.617 0 0 1-3.364-4.363s-.027-.029-.056-.057a1.308 1.308 0 0 1-.194-.638c0-.334.167-.641.417-.837.445-.331 1.112-.22 1.474.223a146.428 146.428 0 0 0 3.364 4.366c.138.195.223.418.223.668 0 .304-.167.61-.39.807a1.135 1.135 0 0 1-.667.223zm-6.617-8.897c-.361 0-.667-.169-.862-.445a150.02 150.02 0 0 1-3.086-4.559l-.056-.058a1.05 1.05 0 0 1 .306-1.444 1.062 1.062 0 0 1 1.446.305c.945 1.474 1.974 2.948 3.085 4.562.14.165.196.36.196.583 0 .334-.167.668-.445.861a.936.936 0 0 1-.584.195zm298.515 0a.95.95 0 0 1-.61-.195 1.058 1.058 0 0 1-.445-.861.87.87 0 0 1 .192-.583c.975-1.391 1.974-2.892 3.087-4.562.307-.473 1.002-.611 1.447-.305.304.166.473.5.473.861 0 .195-.058.391-.169.583a152.072 152.072 0 0 1-3.141 4.616c-.197.277-.5.446-.834.446zm-304.603-9.259c-.361 0-.695-.195-.889-.499a202.966 202.966 0 0 1-2.865-4.812c-.083-.139-.111-.304-.138-.473 0-.388.194-.749.528-.944.5-.277 1.167-.084 1.446.388a109.578 109.578 0 0 0 2.808 4.754c.084.142.14.334.14.53 0 .36-.167.694-.501.891a.921.921 0 0 1-.529.165zm310.69-.027c-.192 0-.388-.057-.554-.168a1.054 1.054 0 0 1-.502-.888c0-.195.057-.392.168-.529.945-1.529 1.89-3.142 2.808-4.755v-.026c.277-.473.945-.668 1.444-.392.334.195.529.557.529.948-.027.165-.054.331-.138.499-.918 1.556-1.863 3.198-2.865 4.809a1.061 1.061 0 0 1-.89.502zm-316.195-9.592c-.39 0-.751-.223-.945-.557a422.45 422.45 0 0 1-2.531-4.95.9.9 0 0 1-.111-.472c0-.389.223-.75.584-.945.501-.25 1.14-.027 1.39.473.028.029.028.057.056.111.833 1.67 1.64 3.253 2.475 4.811a.916.916 0 0 1 .111.473c0 .389-.223.75-.557.918a.965.965 0 0 1-.472.138zm321.729-.084a1.08 1.08 0 0 1-.5-.111c-.334-.193-.557-.527-.557-.918 0-.166.057-.334.139-.5a135.663 135.663 0 0 0 2.503-4.919c.25-.503.918-.726 1.417-.476.334.168.584.557.584.947 0 .166-.054.305-.111.473a280.524 280.524 0 0 1-2.558 4.977 1.076 1.076 0 0 1-.917.527zm-326.65-9.843c-.417 0-.779-.25-.945-.61-.834-1.863-1.585-3.53-2.225-5.115a.924.924 0 0 1-.083-.418 1.026 1.026 0 0 1 1.974-.388h.027c0 .027 0 .055.029.084a138.515 138.515 0 0 0 2.168 4.947c.056.141.111.307.084.473 0 .391-.223.752-.584.917a1.31 1.31 0 0 1-.445.11zm331.572-.139c-.168 0-.307-.026-.445-.084a1.076 1.076 0 0 1-.61-.917c0-.166.026-.305.111-.443v-.029s0-.027.026-.055c.723-1.612 1.472-3.31 2.197-5.004.192-.502.833-.779 1.36-.557.363.166.641.527.641.945 0 .139-.027.276-.085.418a128.235 128.235 0 0 1-2.224 5.031c0 .027 0 .057-.026.111a1.052 1.052 0 0 1-.945.584zm-335.853-10.091c-.445 0-.833-.249-.974-.641a243.137 243.137 0 0 1-1.945-5.254 1.604 1.604 0 0 1-.056-.36c.027-.445.306-.834.722-.973a1.026 1.026 0 0 1 1.308.639 209.689 209.689 0 0 0 1.918 5.199c.027.111.056.223.056.334 0 .445-.251.833-.668.999-.112.057-.25.057-.361.057zm340.161-.165c-.138 0-.279-.03-.388-.058a1.094 1.094 0 0 1-.668-1.002.97.97 0 0 1 .081-.36 130.425 130.425 0 0 0 1.893-5.199 1.053 1.053 0 0 1 1.333-.639c.418.139.695.527.695.972 0 .111-.027.223-.055.361a252.962 252.962 0 0 1-1.89 5.173c0 .026-.029.057-.029.084h-.027a.988.988 0 0 1-.945.668zM99.537 283.952c-.474 0-.862-.277-1.002-.723a196.809 196.809 0 0 1-1.584-5.338c-.027-.111-.056-.223-.056-.304 0-.476.306-.863.751-1.002a1.108 1.108 0 0 1 1.307.723c.473 1.696 1 3.475 1.584 5.311.027.084.027.195.027.307 0 .442-.277.86-.722.999-.111.027-.194.027-.305.027zm347.473-.193a.895.895 0 0 1-.277-.057 1.041 1.041 0 0 1-.752-.999c0-.111.029-.195.057-.307a173.714 173.714 0 0 0 1.556-5.284c.169-.554.753-.888 1.309-.722.443.111.777.529.75 1.029 0 .084 0 .168-.027.249-.584 1.975-1.083 3.726-1.586 5.312 0 0 0 .026-.026.057a1.062 1.062 0 0 1-1.004.722zM96.505 273.276c-.472 0-.889-.334-1-.776-.417-1.725-.862-3.532-1.279-5.449 0-.084-.028-.142-.028-.223 0-.502.362-.918.835-1.029.528-.111 1.112.25 1.25.807.363 1.724.779 3.476 1.252 5.392 0 .085.028.169.028.25 0 .476-.334.891-.806 1.002-.085.026-.167.026-.252.026zm353.534-.222c-.081 0-.192 0-.249-.027a1.035 1.035 0 0 1-.807-.999c0-.084 0-.168.029-.253.443-1.751.861-3.557 1.249-5.392.111-.557.695-.918 1.252-.807.473.111.834.557.807 1.029 0 .081 0 .165-.027.223a157.353 157.353 0 0 1-1.252 5.449 1.038 1.038 0 0 1-1.002.777zM94.17 262.435c-.528 0-.945-.36-1.029-.863a153.747 153.747 0 0 1-.945-5.503v-.167c0-.501.361-.946.889-1.029a1.03 1.03 0 0 1 1.167.889c.278 1.724.585 3.504.946 5.422v.223c0 .499-.361.917-.862.999-.054-.001-.11.029-.166.029zm358.207-.223c-.057 0-.141 0-.195-.026a1.069 1.069 0 0 1-.86-1.002c0-.084 0-.139.026-.223.334-1.751.639-3.587.918-5.422a1.058 1.058 0 0 1 1.194-.889c.5.084.861.528.861 1.029v.167a154.717 154.717 0 0 1-.915 5.503c-.111.503-.529.863-1.029.863zM92.475 251.453c-.528 0-.974-.39-1.029-.918a172.952 172.952 0 0 1-.612-5.56v-.111c0-.528.418-.974.946-1.001a1.034 1.034 0 0 1 1.139.918c.167 1.834.362 3.698.584 5.505v.111c.028.528-.361.972-.89 1.056h-.138zm361.569-.223h-.111c-.557-.083-.944-.528-.917-1.056v-.111c.195-1.724.391-3.504.583-5.505.027-.557.529-1 1.113-.945.557.054.945.5.972 1.028 0 .056 0 .084-.026.111a193.41 193.41 0 0 1-.584 5.56 1.029 1.029 0 0 1-1.03.918zM91.473 240.387c-.555 0-1.028-.417-1.056-.973a185.597 185.597 0 0 1-.25-5.588v-.056a.997.997 0 0 1 1.001-1.002h.028c.555 0 1.028.445 1.056 1.002.056 1.778.139 3.587.25 5.505v.056c0 .555-.417 1.028-.974 1.056h-.055zm363.573-.222h-.057a1.021 1.021 0 0 1-.973-1.056v-.056c.111-1.974.193-3.781.25-5.505 0-.557.473-1.002 1.029-1.002h.027c.583 0 1.028.474 1.028 1.058a224.119 224.119 0 0 1-.249 5.588 1.06 1.06 0 0 1-1.055.973zM91.112 229.293a1.056 1.056 0 0 1-1.056-1.056v-.223c0-1.862.027-3.586.083-5.254v-.111c.028-.557.501-1.002 1.029-1.002h.056a1.032 1.032 0 0 1 1 1.084 116.024 116.024 0 0 0-.056 5.282c-.027.056-.027.111-.027.167l.027.056c0 .585-.472 1.057-1.056 1.057zm364.268-.222a1.058 1.058 0 0 1-1.059-1.056h.029v-.194c0-.084-.029-.167-.029-.25 0-1.724-.027-3.531-.082-5.533v-.027c0-.585.445-1.029 1-1.029h.057c.557 0 .999.444 1.029 1 .054 1.751.081 3.642.111 5.589 0 .056-.03.138-.03.221 0 .084.03.14.03.223a1.054 1.054 0 0 1-1.056 1.056zm-363.963-10.87h-.027c-.584-.056-1.001-.501-1.001-1.056v-.056c.111-1.809.25-3.671.417-5.561.056-.584.528-1.002 1.14-.946.528.028.917.473.945 1.002 0 .056 0 .083-.028.11h.028c0 .056-.028.084-.028.111a143.583 143.583 0 0 0-.388 5.395 1.065 1.065 0 0 1-1.058 1.001zm363.6-.695c-.555 0-1-.417-1.026-.973-.111-1.78-.253-3.643-.445-5.505v-.111c0-.528.415-.973.944-1.029.527-.056 1.083.362 1.141.946.165 1.778.304 3.641.445 5.561v.056c0 .555-.445 1.028-1.002 1.056h-.057zm-362.598-10.37h-.111c-.557-.084-.945-.528-.945-1.056 0-.056.027-.084.027-.111.222-1.919.472-3.753.75-5.533.083-.557.583-.974 1.167-.889.501.083.889.528.889 1.027v.167c-.277 1.78-.528 3.615-.75 5.478a1.024 1.024 0 0 1-1.027.917zm361.571-.668c-.53 0-.975-.417-1.029-.917-.25-1.945-.502-3.725-.779-5.477v-.167c0-.501.389-.945.891-1.029.584-.111 1.083.305 1.194.862.277 1.891.529 3.754.75 5.534 0 .027.029.056.029.083v.028c0 .528-.391 1-.918 1.056-.057-.001-.084.027-.138.027zM94.088 196.153c-.084 0-.14 0-.196-.027-.5-.084-.862-.528-.862-1.058 0-.056 0-.083.028-.138.334-1.835.695-3.698 1.085-5.478.11-.555.695-.917 1.25-.805.473.083.807.528.807 1.028 0 .056 0 .14-.027.195a234.297 234.297 0 0 0-1.058 5.42c-.111.502-.528.863-1.027.863zm358.205-.666c-.5 0-.945-.363-1.029-.862-.334-1.835-.722-3.642-1.083-5.394-.03-.084-.03-.167-.03-.222 0-.501.334-.918.807-1.029.584-.111 1.141.25 1.252.778v.029c0 .027.027.056.027.083.363 1.752.752 3.56 1.086 5.366v.223c0 .501-.361.918-.834 1-.085.028-.141.028-.196.028zM96.394 185.282c-.083 0-.166 0-.25-.027a1.041 1.041 0 0 1-.778-1c0-.084 0-.167.027-.251.445-1.778.918-3.587 1.419-5.394.166-.555.75-.889 1.279-.722.472.111.778.528.778 1a.948.948 0 0 1-.056.278 161.905 161.905 0 0 0-1.39 5.338c-.111.473-.528.778-1.029.778zm353.537-.639c-.475 0-.891-.333-1.029-.805-.418-1.724-.89-3.531-1.42-5.339-.026-.111-.026-.194-.026-.306 0-.445.307-.862.752-.973.526-.167 1.138.167 1.278.724.554 1.89 1.029 3.669 1.444 5.394.027.083.027.167.027.25 0 .473-.304.891-.776 1a.816.816 0 0 1-.25.055zM99.397 174.606a.953.953 0 0 1-.305-.056 1.067 1.067 0 0 1-.751-1c0-.111.027-.223.056-.306a252.759 252.759 0 0 1 1.751-5.339c.195-.528.806-.805 1.334-.64.417.14.695.53.695.974 0 .14 0 .251-.056.361a238.61 238.61 0 0 0-1.723 5.255 1.067 1.067 0 0 1-1.001.751zm347.501-.666a1.04 1.04 0 0 1-.999-.724c-.53-1.64-1.087-3.364-1.752-5.227a1.56 1.56 0 0 1-.057-.361c0-.445.279-.835.695-.974.529-.194 1.14.111 1.335.64.611 1.724 1.195 3.531 1.779 5.282.026.111.026.222.026.333 0 .445-.276.862-.722 1-.109.031-.193.031-.305.031zm-343.858-9.871c-.111 0-.25-.027-.361-.056a1.056 1.056 0 0 1-.668-1c0-.139.029-.25.056-.361a268.907 268.907 0 0 1 2.085-5.199c.223-.528.862-.778 1.363-.557a1.026 1.026 0 0 1 .556 1.363 252.232 252.232 0 0 0-2.057 5.144 1.033 1.033 0 0 1-.974.666zm340.16-.611c-.415 0-.807-.251-.972-.668-.668-1.696-1.333-3.42-2.059-5.088a1.136 1.136 0 0 1-.081-.417c0-.417.25-.778.638-.945a1.042 1.042 0 0 1 1.363.555 136.084 136.084 0 0 1 2.058 5.061c0 .027.027.056.027.083v.029a.75.75 0 0 1 .084.333c0 .445-.252.835-.668 1.002a1.666 1.666 0 0 1-.39.055zm-335.85-9.675c-.167 0-.307-.028-.445-.084a1.09 1.09 0 0 1-.612-.918c0-.167.029-.333.111-.472a108.05 108.05 0 0 1 2.364-4.977c0-.027 0-.056.027-.083v.027c.251-.528.891-.75 1.39-.5.362.194.585.555.585.945a.988.988 0 0 1-.111.473 160.55 160.55 0 0 0-2.363 4.977c-.169.39-.53.612-.946.612zm331.569-.528c-.416 0-.777-.223-.945-.585l-.027-.027c0-.029-.027-.056-.027-.083a192.412 192.412 0 0 0-2.335-4.865 1.288 1.288 0 0 1-.111-.445c0-.417.223-.779.584-.945.5-.251 1.168-.056 1.391.472.806 1.584 1.612 3.28 2.419 5.004.054.139.081.306.081.473 0 .39-.25.75-.61.917a1.124 1.124 0 0 1-.42.084zm-326.649-9.454c-.166 0-.361-.027-.5-.111-.334-.194-.557-.528-.557-.917 0-.167.029-.334.111-.501a330.379 330.379 0 0 1 2.698-4.894c.278-.473.945-.667 1.446-.389a.99.99 0 0 1 .5.918c0 .194-.027.361-.111.5a148.879 148.879 0 0 0-2.669 4.838l-.027.027a.997.997 0 0 1-.891.529zm321.729-.472c-.389 0-.75-.194-.918-.528h-.027c0-.056-.027-.083-.057-.139a221.005 221.005 0 0 0-2.612-4.698 1.145 1.145 0 0 1-.139-.529c.027-.361.223-.695.527-.89a1.066 1.066 0 0 1 1.417.39h.03c0 .027.027.056.027.083.972 1.696 1.805 3.226 2.611 4.698 0 .029.03.056.057.084v.027c.085.14.111.307.111.473 0 .39-.223.75-.557.917-.136.085-.331.112-.47.112zm-316.224-9.175a.999.999 0 0 1-.557-.167 1.064 1.064 0 0 1-.501-.89c0-.195.056-.362.167-.529a130.772 130.772 0 0 1 2.947-4.643c0-.027 0-.056.029-.083h.027c.278-.472.974-.612 1.417-.305.307.194.474.5.474.86 0 .196-.056.39-.167.584a162.398 162.398 0 0 0-2.947 4.671 1.057 1.057 0 0 1-.889.502zm310.691-.416c-.361 0-.695-.195-.888-.501a137.873 137.873 0 0 0-2.949-4.643 1.131 1.131 0 0 1-.195-.584c0-.362.195-.668.476-.862.472-.306 1.137-.167 1.444.278a208.659 208.659 0 0 1 3.003 4.698 1 1 0 0 1 .165.555c0 .363-.192.695-.499.891a1 1 0 0 1-.557.168zm-304.602-8.898c-.223 0-.418-.056-.612-.194a1.072 1.072 0 0 1-.445-.862c0-.223.084-.417.195-.583a195.555 195.555 0 0 1 3.28-4.533c.334-.444 1.002-.528 1.446-.222.278.222.418.528.418.861a1 1 0 0 1-.195.612 132.926 132.926 0 0 0-3.224 4.476c-.196.278-.53.445-.863.445zm298.514-.361a1.07 1.07 0 0 1-.863-.445c-1.167-1.696-2.251-3.142-3.226-4.476-.139-.195-.223-.39-.223-.612 0-.334.169-.64.418-.834.445-.333 1.113-.251 1.475.194 1.057 1.418 2.14 2.92 3.28 4.531.111.167.168.363.168.557 0 .361-.142.695-.445.889a1.046 1.046 0 0 1-.584.196zm-291.87-8.536a.994.994 0 0 1-.667-.25c-.223-.194-.39-.472-.39-.778 0-.251.084-.474.223-.668a131.464 131.464 0 0 1 3.558-4.337c.334-.417 1.029-.472 1.474-.111.223.196.361.501.361.807a.998.998 0 0 1-.25.668 136.578 136.578 0 0 0-3.504 4.253 1.053 1.053 0 0 1-.805.416zm285.223-.361c-.334 0-.638-.138-.833-.39a135.274 135.274 0 0 0-3.503-4.253.989.989 0 0 1-.249-.668c0-.306.138-.611.36-.805.445-.362 1.11-.307 1.475.11 1.222 1.419 2.39 2.865 3.557 4.311.139.194.223.445.223.667a.987.987 0 0 1-.389.806 1.118 1.118 0 0 1-.641.222zm-278.077-8.146c-.251 0-.501-.083-.695-.25a1.16 1.16 0 0 1-.334-.778c0-.251.083-.501.278-.695 1.223-1.39 2.502-2.753 3.781-4.115.39-.39 1.084-.418 1.473-.028.196.195.307.445.334.723 0 .277-.111.555-.305.751-1.196 1.279-2.475 2.64-3.754 4.059a1.006 1.006 0 0 1-.778.333zm270.877-.306c-.276 0-.557-.138-.779-.361h.03-.03c-.027-.029-.027-.056-.054-.056a156.305 156.305 0 0 0-3.698-3.976c-.195-.194-.277-.473-.277-.751 0-.277.111-.528.305-.722.418-.39 1.086-.361 1.501.027a442.363 442.363 0 0 1 3.726 4.032s.029.027.057.056v.027a.976.976 0 0 1 .277.668c0 .306-.139.584-.334.778-.224.167-.474.278-.724.278zm-263.204-7.729c-.278 0-.528-.111-.75-.307-.194-.194-.278-.472-.278-.75s.111-.529.307-.723c1.25-1.252 2.613-2.531 4.03-3.865.39-.388 1.085-.361 1.475.056a1.1 1.1 0 0 1 .278.695c0 .307-.111.583-.334.779-.029.027-.029.027-.056.056a366.34 366.34 0 0 0-3.948 3.752 1.01 1.01 0 0 1-.724.307zm255.531-.306c-.276 0-.529-.083-.722-.277a184.253 184.253 0 0 0-4.005-3.809 1.098 1.098 0 0 1-.334-.779c0-.277.084-.5.279-.695.361-.417 1.057-.444 1.472-.054l.03.027.026.027a177.714 177.714 0 0 1 3.976 3.782c.195.194.307.444.334.751 0 .278-.111.528-.307.722a1.063 1.063 0 0 1-.749.305zm-247.385-7.256c-.305 0-.583-.111-.779-.334a1.077 1.077 0 0 1-.277-.722c0-.278.139-.557.361-.751 1.446-1.279 2.892-2.475 4.253-3.614.417-.362 1.112-.278 1.475.139.167.194.25.417.223.668 0 .305-.14.611-.363.805-1.361 1.113-2.78 2.336-4.226 3.56-.167.166-.417.249-.667.249zm239.211-.278c-.223 0-.473-.083-.665-.25-.03-.027-.058-.027-.058-.056-1.333-1.167-2.753-2.335-4.17-3.502a.991.991 0 0 1-.389-.806c0-.251.082-.473.25-.668.334-.417 1.029-.5 1.475-.139 1.472 1.223 2.919 2.419 4.252 3.614.223.167.36.445.36.751 0 .25-.081.501-.249.695-.193.249-.5.361-.806.361zm-230.647-6.756a1.07 1.07 0 0 1-.835-.417c-.138-.167-.194-.39-.194-.612 0-.334.138-.64.389-.833a170.815 170.815 0 0 1 4.476-3.337c.445-.334 1.14-.223 1.446.223.138.194.223.39.194.64a.94.94 0 0 1-.417.806 176.3 176.3 0 0 0-4.42 3.308c-.196.138-.389.222-.639.222zm222.056-.278a1.08 1.08 0 0 1-.638-.194 141.5 141.5 0 0 0-4.42-3.31c-.28-.194-.418-.5-.445-.833 0-.223.081-.445.192-.611.334-.445 1.002-.585 1.475-.251.027.029.027.029.057.056 1.528 1.085 3 2.197 4.42 3.281.25.194.416.528.416.833 0 .251-.082.445-.223.64-.194.251-.5.389-.834.389zm-213.076-6.228a1.02 1.02 0 0 1-.862-.473 1.028 1.028 0 0 1-.167-.583c0-.334.167-.667.445-.862a147.631 147.631 0 0 1 4.614-3.003c.028-.027.028-.054.056-.054.472-.278 1.14-.14 1.446.333.084.167.14.334.14.528a.95.95 0 0 1-.474.891c-1.696 1.083-3.197 2.085-4.614 3.03v.029a1.053 1.053 0 0 1-.584.164zm204.067-.25c-.22 0-.415-.083-.583-.194a262.852 262.852 0 0 0-4.644-3.032 1.039 1.039 0 0 1-.472-.889.92.92 0 0 1 .168-.528c.277-.473.972-.64 1.444-.334a332.297 332.297 0 0 1 4.67 3.059c.28.194.445.528.445.862 0 .223-.054.417-.165.584-.195.278-.529.472-.863.472zM180.385 72.35a.999.999 0 0 1-.889-.528.86.86 0 0 1-.167-.529c0-.361.195-.695.528-.889 1.613-.945 3.226-1.891 4.838-2.752.472-.278 1.14-.084 1.417.388.084.167.111.334.111.501 0 .39-.194.722-.528.918-1.557.862-3.17 1.78-4.781 2.751a1.24 1.24 0 0 1-.529.14zm185.303-.251c-.192 0-.389-.056-.526-.138a146.288 146.288 0 0 0-4.812-2.753 1.031 1.031 0 0 1-.557-.916c0-.167.057-.334.142-.501a1.102 1.102 0 0 1 1.417-.417c1.556.862 3.168 1.78 4.865 2.78.307.194.5.528.5.889 0 .196-.055.361-.139.528a1.03 1.03 0 0 1-.89.528zm-175.599-5.116a1.11 1.11 0 0 1-.945-.556 1.078 1.078 0 0 1-.111-.5c0-.39.223-.75.555-.917 1.668-.833 3.337-1.668 5.005-2.475.528-.25 1.139 0 1.39.501a.88.88 0 0 1 .111.445c0 .417-.251.778-.612.945-1.557.751-3.17 1.557-4.921 2.446a.962.962 0 0 1-.472.111zm165.841-.249a.93.93 0 0 1-.473-.111c-1.809-.918-3.421-1.696-4.949-2.446h-.027a1.01 1.01 0 0 1-.584-.918c0-.167.027-.307.084-.472.25-.501.889-.724 1.391-.501 1.806.862 3.445 1.668 5.031 2.475.36.194.583.556.583.945a2.156 2.156 0 0 1-.111.473 1.113 1.113 0 0 1-.945.555zm-155.861-4.505c-.417 0-.778-.25-.945-.639a.974.974 0 0 1-.083-.39c0-.417.222-.807.611-.974a149.39 149.39 0 0 1 5.144-2.168 1.079 1.079 0 0 1 1.361.584c.029.138.056.278.056.417 0 .417-.25.779-.639.946h-.056a204.99 204.99 0 0 0-5.031 2.141.927.927 0 0 1-.418.083zm145.796-.25c-.139 0-.277-.028-.416-.084a266.573 266.573 0 0 0-5.118-2.141c-.388-.139-.638-.528-.638-.945 0-.139 0-.278.055-.39.223-.528.836-.807 1.362-.584 1.641.64 3.392 1.363 5.173 2.141.388.167.638.557.638.973 0 .139-.055.278-.111.417a1.04 1.04 0 0 1-.945.613zm-135.508-3.893c-.417 0-.833-.277-.974-.695-.056-.11-.056-.221-.056-.361 0-.444.25-.833.668-.974a245.076 245.076 0 0 1 5.282-1.862c.528-.167 1.14.14 1.306.668.028.111.056.223.056.305.028.473-.277.862-.695 1.029-1.695.555-3.419 1.14-5.227 1.807a.761.761 0 0 1-.36.083zm125.166-.221a.864.864 0 0 1-.361-.084 299.76 299.76 0 0 0-5.227-1.807 1.02 1.02 0 0 1-.668-1.307c.166-.528.779-.86 1.333-.667 1.754.584 3.532 1.196 5.283 1.835.419.139.695.528.695.972 0 .14-.027.251-.084.362a1.014 1.014 0 0 1-.971.696zm-114.629-3.308c-.445 0-.862-.307-1-.724-.029-.111-.029-.223-.029-.334 0-.444.306-.833.724-.973 1.667-.5 3.447-1 5.394-1.529.555-.138 1.139.194 1.279.751 0 .083.027.167.027.25 0 .474-.306.891-.778 1.029-1.974.528-3.698 1-5.311 1.501h-.027c-.085.029-.168.029-.279.029zm104.065-.167c-.111 0-.195-.028-.28-.056h-.026s-.027 0-.055-.028c-1.725-.5-3.505-1-5.257-1.446a1.098 1.098 0 0 1-.776-1.029.81.81 0 0 1 .055-.25c.111-.555.695-.889 1.252-.751 1.751.473 3.559.974 5.337 1.501h.055c.418.14.725.528.725.974 0 .111 0 .223-.029.334-.141.417-.556.751-1.001.751zm-93.334-2.669c-.501 0-.918-.334-1.029-.806 0-.084-.027-.167-.027-.278a1.09 1.09 0 0 1 .833-1 177.95 177.95 0 0 1 5.449-1.169c.528-.139 1.113.251 1.223.806.028.084.028.14.028.223 0 .473-.361.918-.833 1-1.808.363-3.615.751-5.395 1.169-.082.026-.165.055-.249.055zm82.601-.167c-.084 0-.165 0-.249-.028-1.89-.417-3.671-.807-5.396-1.139a1.07 1.07 0 0 1-.833-1.029c0-.084 0-.14.027-.223.084-.528.613-.918 1.224-.807 1.809.361 3.642.751 5.449 1.167.473.111.807.501.807 1 0 .084 0 .167-.027.251a1.04 1.04 0 0 1-1.002.808zm-71.703-2.058a1.02 1.02 0 0 1-1.027-.862c-.029-.056-.029-.111-.029-.139 0-.528.361-.973.862-1.056h.056c1.751-.307 3.558-.583 5.366-.834.027 0 .083-.027.11-.027.557-.056 1.085.334 1.169.889.027.056.027.111.027.167-.027.528-.39.945-.918 1.029-1.751.25-3.558.5-5.449.833h-.167zm60.805-.083c-.055 0-.111-.029-.166-.029a126.99 126.99 0 0 0-5.479-.806 1.045 1.045 0 0 1-.888-1.028v-.167a1.037 1.037 0 0 1 1.168-.89c1.89.251 3.752.528 5.53.834.503.083.863.528.863 1.028v.167c-.084.501-.529.891-1.028.891zm-49.822-1.419c-.528 0-.973-.417-1.029-.945v-.111c0-.528.39-.973.917-1.029 1.918-.194 3.781-.388 5.561-.528.528-.027 1.085.389 1.141.973v.056c0 .555-.418 1.029-.974 1.056-1.695.14-3.503.306-5.505.501-.028.027-.055.027-.111.027zm38.812-.082h-.111a150.856 150.856 0 0 0-5.507-.501.998.998 0 0 1-.944-1.056v-.028a1.002 1.002 0 0 1 1.113-.972c1.751.111 3.613.277 5.561.472.526.056.944.5.917 1.056v.083a1.03 1.03 0 0 1-1.029.946zm-27.691-.78h-.027a1.045 1.045 0 0 1-1.056-1v-.056c0-.555.442-1 .999-1.029 1.809-.083 3.671-.139 5.561-.167.584 0 1.056.445 1.086 1.001 0 .584-.476 1.056-1.029 1.083-1.863.03-3.725.085-5.534.168zm16.624-.027h-.054c-2.059-.084-3.863-.14-5.533-.167-.277 0-.527-.111-.723-.305a1.075 1.075 0 0 1-.307-.751c.03-.556.473-1.029 1.057-1.029 1.865.027 3.755.083 5.59.167.554.027.999.473.999 1.029v.056c-.027.555-.472 1-1.029 1z"/><path fill="#476288" d="M416.37 446.887H132.455c-7.969 0-14.545-6.582-14.545-14.545V243.291c0-7.96 6.576-14.539 14.545-14.539H416.37c7.963 0 14.542 6.579 14.542 14.539v189.051c0 8.31-6.579 14.545-14.542 14.545z"/><path fill="#19335E" d="M99.073 432.687c4.252 12.568 15.989 21.815 29.915 21.815h290.497c13.972 0 25.982-9.061 30.072-21.815H99.073z"/><path fill="#FFF" d="M133.142 248.143H415.33v173.468H133.142z"/><path fill="#2C3C4F" d="M274.406 233.601a5.191 5.191 0 1 1 0 10.382 5.193 5.193 0 0 1-5.19-5.186 5.193 5.193 0 0 1 5.19-5.196z"/><path fill="#FFF" d="M328.42 432.687H220.393l13.51 7.618h81.018z"/><g fill="#E3ECF8"><path d="M80.778 285.622a7.987 7.987 0 0 1-7.988 7.987 7.986 7.986 0 0 1-7.987-7.987 7.988 7.988 0 1 1 15.975 0z"/><circle cx="59.802" cy="324.735" r="6.755"/><path d="M33.151 306.191a4.36 4.36 0 0 1-4.361 4.357 4.355 4.355 0 0 1-4.355-4.357 4.36 4.36 0 0 1 8.716 0z"/></g><path fill="#E3ECF8" d="M459.194 325.887a5.605 5.605 0 0 1 5.607-5.609 5.605 5.605 0 0 1 5.606 5.609 5.604 5.604 0 0 1-5.606 5.604 5.606 5.606 0 0 1-5.607-5.604zM150.757 143.406c0-3.101 2.981-5.609 6.657-5.609 3.679 0 6.658 2.509 6.658 5.609 0 3.095-2.979 5.606-6.658 5.606-3.676.001-6.657-2.511-6.657-5.606z"/><circle fill="#E3ECF8" cx="479.525" cy="294.521" r="4.741"/><path fill="#E3ECF8" d="M172.689 51.496a5.606 5.606 0 0 1 5.609-5.609 5.605 5.605 0 0 1 5.604 5.609 5.607 5.607 0 0 1-11.213 0zM410.59 66.594a4.74 4.74 0 1 1 9.48-.002 4.74 4.74 0 0 1-9.48.002zm-89.938 92.049a4.742 4.742 0 0 1 9.484 0 4.741 4.741 0 0 1-9.484 0zM108.423 86.83a4.744 4.744 0 0 1 9.487 0 4.746 4.746 0 0 1-4.746 4.74 4.741 4.741 0 0 1-4.741-4.74zm389.809 248.049a3.058 3.058 0 1 1 6.115 0 3.058 3.058 0 0 1-6.115 0z"/><circle fill="#E3ECF8" cx="43.241" cy="413.898" r="3.059"/><path fill="#E3ECF8" d="M288.675 133.412a3.06 3.06 0 0 1 3.057-3.065 3.061 3.061 0 0 1 0 6.122 3.058 3.058 0 0 1-3.057-3.057z"/><circle fill="#E3ECF8" cx="246.626" cy="109.579" r="3.057"/><path fill="#E3ECF8" d="M401.749 74.395a3.058 3.058 0 1 1 6.118 0 3.055 3.055 0 0 1-3.058 3.057 3.057 3.057 0 0 1-3.06-3.057zm69.606 134.081h30.876v2.528h-30.876zm32.964 0h6.733v2.528h-6.733zM325.396 103.989h30.876v2.53h-30.876zm32.96 0h6.733v2.53h-6.733zm-151.424 38.152h30.876v2.53h-30.876zm32.961 0h6.733v2.53h-6.733zM-.739 224.823h51.853v4.251H-.739zm55.355 0h11.311v4.251H54.616zm296.421-77.154h32.694v2.685h-32.694zm34.905 0h7.132v2.685h-7.132z"/><path fill="#FFF" d="M131.95 174.993c0 19.994-16.209 36.206-36.206 36.206-19.991 0-36.203-16.211-36.203-36.206 0-19.994 16.212-36.203 36.203-36.203 19.997.001 36.206 16.21 36.206 36.203z"/><path fill="#E3E2EA" d="M97.062 212.224h-.028c-.555 0-1.028-.445-1.028-1.002v-.056c0-.555.444-1 1-1.027a37.37 37.37 0 0 0 5.338-.612c.557-.111 1.141.278 1.223.833.029.084.029.14.029.223 0 .473-.363.917-.862 1.002-1.836.36-3.754.555-5.672.639zm-5.589-.223h-.11a41.118 41.118 0 0 1-5.616-1.112 1.078 1.078 0 0 1-.75-1.029c0-.084 0-.167.027-.251.167-.556.751-.889 1.279-.723 1.751.473 3.531.834 5.311 1.029.528.056.918.528.918 1.056v.083c-.085.53-.53.947-1.059.947zm16.432-1.862a1.02 1.02 0 0 1-.973-.695c-.056-.111-.056-.223-.056-.334 0-.445.278-.834.695-1a31.282 31.282 0 0 0 4.921-2.196c.473-.251 1.141-.056 1.419.417.056.167.111.333.111.5 0 .39-.196.75-.528.917a37.51 37.51 0 0 1-5.172 2.308c0 .028-.027.028-.056.028-.111.055-.25.055-.361.055zm-27.108-1.114a1.11 1.11 0 0 1-.417-.083 39.463 39.463 0 0 1-5.004-2.753c-.278-.194-.474-.528-.474-.86 0-.223.056-.418.167-.585a1.063 1.063 0 0 1 1.445-.305c1.501.973 3.086 1.862 4.727 2.586.39.194.611.555.611 1 0 .14-.027.25-.083.39-.165.36-.555.61-.972.61zm36.839-4.17c-.334 0-.611-.138-.833-.388-.111-.195-.196-.39-.196-.639 0-.307.14-.64.418-.835a34.732 34.732 0 0 0 4.003-3.587c.388-.388 1.083-.388 1.473-.027.223.194.334.472.334.75s-.084.528-.278.722a39.637 39.637 0 0 1-4.282 3.81 1.086 1.086 0 0 1-.639.194zm-46.097-1.89c-.25 0-.5-.111-.695-.278-.027-.028-.056-.028-.083-.056a40.27 40.27 0 0 1-3.809-4.003l-.056-.084a1.049 1.049 0 0 1-.223-.64c0-.333.14-.611.362-.806.444-.361 1.139-.277 1.473.14a35.6 35.6 0 0 0 3.725 3.921c.223.194.362.472.362.75 0 .277-.111.528-.278.722a1.004 1.004 0 0 1-.778.334zm53.798-6.061c-.223 0-.417-.056-.611-.194a1.069 1.069 0 0 1-.445-.862c0-.223.083-.417.194-.583a37.35 37.35 0 0 0 2.78-4.643c.251-.501.89-.723 1.39-.474.361.195.583.557.583.946 0 .167-.056.334-.111.472-.862 1.696-1.834 3.364-2.918 4.893-.222.278-.528.445-.862.445zm-60.804-2.502c-.361 0-.722-.194-.889-.528a39.729 39.729 0 0 1-2.53-5.117c-.056-.138-.056-.277-.056-.417 0-.417.251-.778.639-.945a1.082 1.082 0 0 1 1.363.583c.667 1.64 1.446 3.281 2.363 4.838a.797.797 0 0 1 .139.555.981.981 0 0 1-.501.862.897.897 0 0 1-.528.169zm65.725-7.423a.981.981 0 0 1-.305-.056 1.02 1.02 0 0 1-.724-1c0-.084 0-.195.028-.307a32.777 32.777 0 0 0 1.25-5.254c.084-.557.584-.973 1.169-.862.528.083.889.5.889 1.027v.167c0 .029-.029.056-.029.111a36.615 36.615 0 0 1-1.279 5.449 1.014 1.014 0 0 1-.999.725zm-69.811-2.864c-.501 0-.918-.361-1.029-.807v-.111a38.207 38.207 0 0 1-.833-5.561l.139-.054h-.139c0-.557.417-1.029.972-1.058.583 0 1.084.39 1.113.974.138 1.78.388 3.586.806 5.338h-.028c.028.056.028.14.028.195.027.5-.334.945-.806 1.056-.085 0-.141.028-.223.028zm71.507-8.09c-.584 0-1.056-.445-1.056-1.029 0-.584.472-1.056 1.056-1.056.557 0 1.029.472 1.029 1.056a1.027 1.027 0 0 1-1.029 1.029zm-72.287-2.976h-.083c-.528-.027-.945-.472-.973-1v-.111a36.75 36.75 0 0 1 .917-5.643c.139-.557.695-.918 1.252-.779.472.111.778.528.805 1 0 .084-.027.167-.027.251a33.815 33.815 0 0 0-.862 5.338c-.027.528-.501.944-1.029.944zm71.925-2.14c-.5 0-.945-.389-1.029-.889v-.029c-.25-1.778-.667-3.558-1.167-5.253a1.037 1.037 0 0 1-.056-.307c0-.444.306-.86.75-.972a1.056 1.056 0 0 1 1.308.695 41.812 41.812 0 0 1 1.223 5.532v.196c0 .5-.39.945-.891 1.028l-.138-.001zm-69.367-8.618c-.11 0-.25-.029-.388-.084a1.024 1.024 0 0 1-.64-.945c0-.14.027-.278.083-.417 0-.029.028-.056.028-.056a35.381 35.381 0 0 1 2.558-5.033 1.016 1.016 0 0 1 1.417-.362c.307.195.501.529.501.891 0 .194-.056.361-.139.528-.946 1.529-1.752 3.17-2.448 4.837-.166.39-.527.641-.972.641zm66.142-1.976c-.389 0-.778-.221-.945-.583a35.2 35.2 0 0 0-2.696-4.67.87.87 0 0 1-.195-.584c0-.334.167-.667.445-.862.472-.307 1.14-.195 1.445.278h.027c0 .027.028.056.056.083a39.238 39.238 0 0 1 2.809 4.838c.056.139.083.306.083.444 0 .417-.223.779-.584.946a.808.808 0 0 1-.445.11zm-60.386-7.505c-.25 0-.501-.084-.668-.25a1.029 1.029 0 0 1-.388-.807c0-.251.111-.474.25-.667A39.687 39.687 0 0 1 71.178 147c.389-.362 1.084-.307 1.473.11.167.196.251.445.251.695 0 .307-.14.585-.361.779-1.363 1.167-2.615 2.475-3.753 3.836-.223.25-.501.39-.807.39zm54.103-1.613a.991.991 0 0 1-.751-.334 35.27 35.27 0 0 0-4.003-3.614c-.25-.223-.417-.528-.39-.862 0-.223.084-.417.223-.612a1.02 1.02 0 0 1 1.446-.166 34.393 34.393 0 0 1 4.226 3.836.965.965 0 0 1 .278.695c.027.278-.111.583-.307.778a1.1 1.1 0 0 1-.722.279zm-45.791-5.699c-.361 0-.695-.167-.889-.474a1.265 1.265 0 0 1-.138-.555c-.029-.361.166-.695.472-.891.027-.027.056-.027.056-.054a38.581 38.581 0 0 1 4.977-2.642 1.051 1.051 0 0 1 1.361.528c.056.138.111.278.111.417 0 .417-.25.779-.639.974a37.048 37.048 0 0 0-4.754 2.53 1.005 1.005 0 0 1-.557.167zm37.061-1.113c-.194 0-.361-.027-.528-.111a34.092 34.092 0 0 0-4.893-2.279c-.418-.138-.667-.528-.667-.973 0-.139.028-.25.056-.361a1.05 1.05 0 0 1 1.334-.611c.028 0 .084.027.111.027 1.724.668 3.448 1.446 5.088 2.363a1.038 1.038 0 0 1 .39 1.418c-.167.333-.53.527-.891.527zm-26.912-3.336c-.474 0-.891-.334-1.029-.779 0-.083-.028-.167-.028-.277 0-.474.307-.891.779-1.002a38.347 38.347 0 0 1 5.616-1.027c.584-.084 1.083.361 1.139.916 0 .029.028.084.028.111 0 .528-.417.974-.945 1.029a38.62 38.62 0 0 0-5.311.973v.027c-.083.001-.166.029-.249.029zm16.515-.501c-.084 0-.14 0-.223-.027a32.117 32.117 0 0 0-5.338-.64c-.557-.056-1.002-.501-1.002-1.057v-.056c.029-.556.474-.972 1.058-.972h.027c1.891.083 3.781.305 5.672.695.501.083.833.528.833 1v.223a1.066 1.066 0 0 1-1.027.834z"/><circle fill="#FFF" cx="269.215" cy="45.886" r="36.203"/><path fill="#E3E2EA" d="M270.521 83.108h-.027c-.557 0-1.029-.444-1.029-1v-.056c0-.555.445-1 1-1.029a33.602 33.602 0 0 0 5.367-.611v.027a1.043 1.043 0 0 1 1.222.807v.223c0 .5-.361.917-.833 1-.055.028-.084.028-.111.028a36.381 36.381 0 0 1-5.561.611h-.028zm-5.56-.221h-.138c-.029 0-.057-.028-.084-.028a36.414 36.414 0 0 1-5.505-1.085 1.066 1.066 0 0 1-.779-1.028c0-.084.028-.167.056-.251.14-.528.724-.862 1.252-.722h.083c1.695.473 3.446.833 5.228 1.029.526.083.945.528.918 1.056v.111a1.033 1.033 0 0 1-1.031.918zm16.432-1.835c-.445 0-.863-.306-1.002-.695-.027-.139-.054-.25-.054-.361 0-.445.276-.835.694-.973a39.268 39.268 0 0 0 4.92-2.197c.5-.278 1.168-.083 1.417.417.085.14.111.305.111.501 0 .361-.192.722-.526.917-1.697.889-3.448 1.696-5.227 2.308a.758.758 0 0 1-.333.083zm-27.109-1.14c-.139 0-.306-.027-.444-.083a38.221 38.221 0 0 1-5.005-2.753c-.278-.194-.444-.528-.473-.862 0-.221.056-.417.194-.583.278-.473.973-.611 1.418-.306 1.529 1 3.114 1.863 4.727 2.613a1 1 0 0 1 .611.974.891.891 0 0 1-.083.39 1 1 0 0 1-.945.61zm36.81-4.142c-.305 0-.611-.167-.807-.417-.139-.196-.22-.39-.22-.612 0-.334.139-.64.415-.862 1.418-1.056 2.78-2.279 4.032-3.558.388-.418 1.056-.418 1.475-.028.192.195.304.445.304.724 0 .277-.081.528-.277.75a37.645 37.645 0 0 1-4.281 3.781 1.002 1.002 0 0 1-.641.222zm-46.069-1.918c-.277 0-.528-.084-.722-.251a36.855 36.855 0 0 1-3.92-4.142.998.998 0 0 1-.25-.668c0-.306.139-.611.39-.807.417-.333 1.112-.277 1.473.14a33.172 33.172 0 0 0 3.725 3.919c.195.196.334.474.334.751 0 .278-.083.529-.278.724a.997.997 0 0 1-.752.334zm53.771-6.062a.871.871 0 0 1-.583-.194c-.308-.195-.445-.528-.445-.862 0-.223.054-.417.195-.584h-.03c.03-.028.058-.056.084-.084a40.07 40.07 0 0 0 2.696-4.531v-.027c.253-.474.918-.695 1.391-.445.363.167.583.528.583.917a.929.929 0 0 1-.108.473 36.107 36.107 0 0 1-2.921 4.893 1.068 1.068 0 0 1-.862.444zm-60.804-2.502c-.361 0-.695-.195-.889-.528a36.171 36.171 0 0 1-2.503-5.116 1.143 1.143 0 0 1-.083-.417c0-.417.278-.778.667-.945.528-.195 1.139.056 1.334.584a32.558 32.558 0 0 0 2.391 4.837c.083.167.139.362.139.557 0 .361-.194.695-.528.889a1.064 1.064 0 0 1-.528.139zm65.724-7.423c-.081 0-.192 0-.304-.029-.445-.167-.726-.555-.726-1 0-.111.03-.223.058-.305 0-.056 0-.084.027-.111a35.627 35.627 0 0 0 1.197-5.144 1.04 1.04 0 0 1 1.194-.889c.5.083.86.528.891 1.028 0 .056-.03.111-.03.167a36.261 36.261 0 0 1-1.278 5.478s0 .056-.027.083a1.02 1.02 0 0 1-1.002.722zM233.905 55c-.473 0-.889-.334-1-.806a38.623 38.623 0 0 1-.833-5.672v-.056c-.029-.555.417-1 .973-1.056.555 0 1.056.417 1.112.973.111 1.78.39 3.587.778 5.338 0 .056.028.14.028.194 0 .501-.334.946-.806 1.058-.085.001-.168.027-.252.027zm71.508-8.062c-.584 0-1.029-.472-1.029-1.056 0-.583.473-1.029 1.029-1.029.584 0 1.056.445 1.056 1.029 0 .584-.472 1.056-1.056 1.056zm-72.286-2.974c-.027 0-.056-.028-.083-.028a1.004 1.004 0 0 1-.946-1v-.111a35.55 35.55 0 0 1 .891-5.644c.139-.557.722-.917 1.25-.779.472.111.806.528.806 1 0 .084 0 .196-.027.251a34.277 34.277 0 0 0-.834 5.338c-.057.528-.501.973-1.057.973zm71.925-2.17c-.5 0-.944-.361-1.029-.889a33.494 33.494 0 0 0-1.167-5.255c-.027-.111-.027-.194-.027-.306 0-.472.277-.862.723-1 .526-.167 1.14.166 1.306.695 0 .027.027.083.027.11a35.04 35.04 0 0 1 1.197 5.451c.027.056.027.11.027.166 0 .529-.389.946-.918 1.029l-.139-.001zm-69.339-8.619a.885.885 0 0 1-.39-.083 1.024 1.024 0 0 1-.64-.945c0-.14.027-.278.083-.418a37.801 37.801 0 0 1 2.559-5.086 1.014 1.014 0 0 1 1.417-.362c.334.195.528.528.528.89 0 .194-.056.389-.167.556a37.229 37.229 0 0 0-2.419 4.81 1.059 1.059 0 0 1-.971.638zm66.141-1.973c-.415 0-.776-.223-.945-.584a39.592 39.592 0 0 0-2.723-4.67 1.315 1.315 0 0 1-.195-.556c0-.361.165-.695.472-.889.445-.307 1.141-.196 1.444.277 1.087 1.557 2.031 3.226 2.865 4.949.084.111.111.278.111.445 0 .388-.223.751-.584.945a1.277 1.277 0 0 1-.445.083zm-60.414-7.506a1.05 1.05 0 0 1-.668-.251 1.09 1.09 0 0 1-.361-.807c0-.221.083-.472.25-.667a38.978 38.978 0 0 1 3.976-4.059c.417-.39 1.112-.334 1.473.083.167.195.251.445.251.695 0 .307-.14.584-.334.779-1.363 1.167-2.613 2.474-3.782 3.864a1.09 1.09 0 0 1-.805.363zm54.104-1.613a1.08 1.08 0 0 1-.753-.305 34.546 34.546 0 0 0-3.975-3.643 1.034 1.034 0 0 1-.195-1.474c.361-.444 1.029-.528 1.475-.167a38.046 38.046 0 0 1 4.17 3.782c0 .027.027.027.058.056.165.194.276.444.276.695 0 .306-.111.584-.334.778a.99.99 0 0 1-.722.278zm-45.763-5.7c-.363 0-.695-.166-.891-.473a.984.984 0 0 1-.167-.528c0-.39.167-.722.472-.918a40.084 40.084 0 0 1 5.033-2.696c.528-.223 1.168.027 1.39.528.055.139.084.278.084.417 0 .417-.251.806-.612.973-1.613.695-3.197 1.557-4.754 2.531a.994.994 0 0 1-.555.166zm37.031-1.084c-.165 0-.36-.056-.499-.14-1.613-.889-3.253-1.667-4.893-2.252a1.08 1.08 0 0 1-.695-1.001c0-.111.027-.222.055-.361.195-.501.806-.807 1.362-.612a38.121 38.121 0 0 1 5.173 2.392c.334.194.557.555.557.917a.956.956 0 0 1-.142.5c-.193.335-.554.557-.918.557zM259.9 11.936c-.473 0-.89-.334-1.001-.779-.027-.083-.027-.167-.027-.25 0-.472.306-.889.75-1.029.056 0 .084-.027.111-.027a39.467 39.467 0 0 1 5.42-.973c0-.028.058-.028.085-.028h.026c.557-.056 1.06.362 1.141.917v.111c0 .528-.388 1-.944 1.056-1.806.195-3.587.501-5.281.973h-.03c-.083.029-.166.029-.25.029zm16.516-.501h-.195a34.55 34.55 0 0 0-5.365-.667 1.018 1.018 0 0 1-.975-1.029v-.056c0-.556.473-1 1.029-1h.057c1.917.083 3.81.333 5.672.695.473.11.833.528.833 1.028 0 .056 0 .14-.026.195-.112.5-.531.834-1.03.834z"/><path fill="#FFF" d="M485.762 171.328c0 19.991-16.212 36.203-36.205 36.203-19.994 0-36.203-16.212-36.203-36.203 0-19.997 16.209-36.208 36.203-36.208 19.993 0 36.205 16.212 36.205 36.208z"/><path fill="#E3E2EA" d="M450.876 208.553h-.03a1.066 1.066 0 0 1-1.056-1v-.083c0-.529.445-.974 1.028-1.002a33.83 33.83 0 0 0 5.338-.611 1.049 1.049 0 0 1 1.225.833.632.632 0 0 1 .027.223c0 .501-.361.917-.86 1-1.836.362-3.755.557-5.672.64zm-5.591-.222h-.111a38.447 38.447 0 0 1-5.614-1.112c-.445-.139-.779-.556-.75-1.029 0-.083 0-.166.027-.25a1.018 1.018 0 0 1 1.279-.722c1.724.472 3.529.833 5.311 1.027.526.056.917.529.917 1.058 0 .027 0 .056-.029.111a1.026 1.026 0 0 1-1.03.917zm16.432-1.863c-.445 0-.833-.278-.972-.695-.058-.111-.084-.223-.058-.361 0-.417.28-.806.668-.945l.058-.028a38.167 38.167 0 0 0 4.865-2.168c.5-.278 1.167-.084 1.417.417a.932.932 0 0 1 .139.473c0 .39-.223.75-.557.917a36.308 36.308 0 0 1-5.169 2.308l-.03.027c-.139.055-.25.055-.361.055zm-27.108-1.112c-.139 0-.276-.027-.415-.083a39.765 39.765 0 0 1-5.007-2.753 1.028 1.028 0 0 1-.473-.862c0-.223.058-.417.169-.584a1.061 1.061 0 0 1 1.444-.305c1.501.973 3.087 1.862 4.727 2.584.389.196.611.557.611 1.002a.887.887 0 0 1-.082.388 1.084 1.084 0 0 1-.974.613zm36.839-4.142c-.334 0-.639-.167-.834-.418a1.08 1.08 0 0 1-.195-.639c-.027-.306.141-.611.391-.833.027 0 .055-.029.082-.056a31.478 31.478 0 0 0 3.95-3.531c.388-.39 1.083-.417 1.472-.028a1.013 1.013 0 0 1 .029 1.474 36.834 36.834 0 0 1-4.254 3.81 1.133 1.133 0 0 1-.641.221zm-46.096-1.92c-.25 0-.5-.083-.695-.277a33.617 33.617 0 0 1-3.891-4.059s-.027-.028-.057-.056v-.028a1.05 1.05 0 0 1-.223-.64c0-.305.141-.612.36-.806.445-.361 1.141-.278 1.475.14l.057.083a36.313 36.313 0 0 0 3.668 3.809v.027c.223.195.361.472.361.75 0 .25-.108.501-.276.724a1.116 1.116 0 0 1-.779.333zm53.798-6.06c-.223 0-.418-.056-.613-.195a1.066 1.066 0 0 1-.442-.861c0-.223.081-.418.192-.585a37.132 37.132 0 0 0 2.78-4.643c.223-.5.891-.722 1.39-.473.361.194.584.557.584.945 0 .167-.054.334-.111.474a36.705 36.705 0 0 1-2.945 4.893 1.021 1.021 0 0 1-.835.445zm-60.803-2.502a1 1 0 0 1-.891-.529c-.973-1.611-1.806-3.335-2.53-5.115-.055-.138-.082-.278-.055-.417 0-.417.25-.779.638-.945a1.09 1.09 0 0 1 1.363.583 33.922 33.922 0 0 0 2.365 4.837c.111.167.138.361.138.557 0 .361-.195.695-.502.889a1.22 1.22 0 0 1-.526.14zm65.723-7.424c-.111 0-.223 0-.305-.056a1.01 1.01 0 0 1-.725-.972c0-.111 0-.223.03-.334a34.168 34.168 0 0 0 1.249-5.227h-.027a1.06 1.06 0 0 1 1.194-.891c.529.084.891.528.891 1.029v.167a39.07 39.07 0 0 1-1.306 5.561 1.039 1.039 0 0 1-1.001.723zm-69.81-2.863c-.502 0-.917-.361-1.028-.833a38.246 38.246 0 0 1-.834-5.645v-.056c0-.555.416-1.029.973-1.056a1.053 1.053 0 0 1 1.112.974v.111c.139 1.751.389 3.502.777 5.227a.5.5 0 0 1 .026.194c.03.501-.331.946-.804 1.056-.084 0-.168.028-.222.028zm71.508-8.062a1.056 1.056 0 0 1-1.057-1.056c0-.585.473-1.029 1.057-1.029.556 0 1.028.444 1.028 1.029 0 .583-.445 1.056-1.028 1.056zm-72.288-3.003h-.084c-.557-.056-.972-.472-.972-1v-.111a37.84 37.84 0 0 1 .918-5.645c.111-.555.694-.918 1.249-.778.445.111.779.528.806 1 0 .084-.026.167-.026.25-.416 1.753-.723 3.531-.861 5.339a1.032 1.032 0 0 1-1.03.945zm71.926-2.141c-.529 0-.975-.39-1.029-.889a41.463 41.463 0 0 0-1.167-5.255v-.028c-.058-.083-.058-.194-.058-.306 0-.445.307-.862.752-.973a1.044 1.044 0 0 1 1.307.695 42.466 42.466 0 0 1 1.224 5.561v.167c0 .501-.391.946-.89 1.029l-.139-.001zm-69.341-8.619a1.1 1.1 0 0 1-.415-.083 1.024 1.024 0 0 1-.641-.946c0-.138.027-.277.084-.417.723-1.724 1.556-3.419 2.53-5.004 0-.028.027-.056.027-.084l.027-.027c.279-.472.944-.612 1.417-.334.307.194.502.528.502.889 0 .195-.057.362-.141.529-.027.027-.027.056-.055.083-.918 1.501-1.696 3.114-2.392 4.754-.136.39-.525.64-.943.64zm66.116-1.974c-.418 0-.779-.222-.945-.583a38.98 38.98 0 0 0-2.698-4.671.87.87 0 0 1-.193-.583c0-.333.166-.667.445-.862.473-.305 1.138-.194 1.444.251.027.027.027.056.058.083a38.914 38.914 0 0 1 2.834 4.865c.058.14.085.306.085.445 0 .417-.223.778-.584.945a.829.829 0 0 1-.446.11zm-60.386-7.507c-.253 0-.503-.083-.668-.25a1.026 1.026 0 0 1-.139-1.473 39.654 39.654 0 0 1 4.002-4.088c.391-.361 1.086-.305 1.447.111a.973.973 0 0 1 .276.695c0 .278-.138.583-.36.779a34.51 34.51 0 0 0-3.753 3.836l-.029.027a1.026 1.026 0 0 1-.776.363zm54.102-1.611a.993.993 0 0 1-.752-.334 38.23 38.23 0 0 0-4.002-3.615v-.027a.965.965 0 0 1-.391-.833c0-.223.084-.445.223-.612.334-.445 1.002-.528 1.447-.194l.081.083a38.082 38.082 0 0 1 4.144 3.781.967.967 0 0 1 .279.695c.027.278-.111.583-.307.779a1.111 1.111 0 0 1-.722.277zm-45.792-5.701c-.361 0-.695-.167-.888-.472-.084-.167-.169-.361-.169-.557 0-.361.196-.695.503-.889a34.122 34.122 0 0 1 4.977-2.669s.027-.027.054-.027c.5-.223 1.141.027 1.363.528.055.138.084.277.084.417.027.417-.223.778-.613.974-1.64.695-3.226 1.557-4.754 2.529a1.01 1.01 0 0 1-.557.166zm37.061-1.112c-.192 0-.361-.027-.526-.138a34.857 34.857 0 0 0-4.893-2.252.962.962 0 0 1-.668-.973c0-.111 0-.25.054-.361a1.054 1.054 0 0 1 1.336-.612 36.268 36.268 0 0 1 5.199 2.391c.334.195.527.529.527.917 0 .167-.055.334-.139.501-.165.333-.529.527-.89.527zm-26.912-3.336c-.499 0-.891-.333-1.028-.778-.027-.083-.027-.167-.027-.278 0-.473.307-.889.779-1a36.131 36.131 0 0 1 5.614-1.029c.611-.083 1.084.361 1.141.918v.111c0 .528-.389.973-.918 1.029a33.792 33.792 0 0 0-5.311 1c-.084 0-.165.027-.25.027zm16.517-.5c-.085 0-.142 0-.223-.028a36.634 36.634 0 0 0-5.338-.639 1.064 1.064 0 0 1-1.002-1.056v-.056a1.015 1.015 0 0 1 1.028-.974h.085c1.943.084 3.836.307 5.642.695.473.084.834.528.834 1.001 0 .083 0 .139-.027.222-.084.474-.5.835-.999.835z"/><g fill="#E6E7E8"><path d="M466.335 167.402l-2.622-.445a14.76 14.76 0 0 0-1.054-2.544l1.548-2.164a2.308 2.308 0 0 0-.25-2.979l-2.33-2.324a2.276 2.276 0 0 0-1.629-.682c-.483 0-.95.149-1.338.429l-2.17 1.545a14.349 14.349 0 0 0-2.639-1.081l-.44-2.596a2.304 2.304 0 0 0-2.277-1.928h-3.291a2.313 2.313 0 0 0-2.283 1.928l-.451 2.658c-.874.269-1.727.632-2.535 1.069l-2.15-1.547a2.302 2.302 0 0 0-1.344-.429c-.617 0-1.203.242-1.632.676l-2.335 2.33a2.311 2.311 0 0 0-.25 2.973l1.563 2.197c-.432.82-.776 1.672-1.037 2.552l-2.596.442a2.302 2.302 0 0 0-1.928 2.275v3.291c0 1.132.81 2.091 1.928 2.281l2.655.451c.274.874.636 1.729 1.07 2.541l-1.537 2.14a2.302 2.302 0 0 0 .247 2.976l2.327 2.327a2.301 2.301 0 0 0 2.97.252l2.194-1.564c.787.416 1.618.75 2.468 1.016l.438 2.623a2.306 2.306 0 0 0 2.28 1.931h3.296a2.307 2.307 0 0 0 2.281-1.931l.445-2.623a14.823 14.823 0 0 0 2.547-1.054l2.161 1.545a2.3 2.3 0 0 0 1.347.429 2.31 2.31 0 0 0 1.632-.676l2.326-2.33a2.312 2.312 0 0 0 .25-2.976l-1.545-2.175c.429-.82.79-1.667 1.051-2.542l2.623-.439a2.31 2.31 0 0 0 1.933-2.278v-3.291a2.283 2.283 0 0 0-1.917-2.279zm-.174 5.571c0 .098-.07.185-.176.198l-3.277.551a1.049 1.049 0 0 0-.845.771 12.387 12.387 0 0 1-1.36 3.272c-.209.361-.192.806.047 1.148l1.93 2.718a.22.22 0 0 1-.024.269l-2.326 2.324a.2.2 0 0 1-.146.063.192.192 0 0 1-.117-.035l-2.712-1.934a1.052 1.052 0 0 0-1.146-.046 12.649 12.649 0 0 1-3.274 1.363 1.03 1.03 0 0 0-.771.842l-.56 3.28a.2.2 0 0 1-.201.171h-3.29a.201.201 0 0 1-.201-.171l-.549-3.28a1.035 1.035 0 0 0-.771-.842 13.07 13.07 0 0 1-3.204-1.317 1.113 1.113 0 0 0-.526-.138c-.215 0-.43.063-.614.193l-2.731 1.947a.249.249 0 0 1-.113.038.212.212 0 0 1-.152-.063l-2.329-2.327a.212.212 0 0 1-.022-.263l1.923-2.699a1.05 1.05 0 0 0 .046-1.151 12.309 12.309 0 0 1-1.371-3.266 1.084 1.084 0 0 0-.847-.774l-3.302-.559a.207.207 0 0 1-.174-.207v-3.291a.2.2 0 0 1 .174-.198l3.252-.548c.413-.071.75-.375.855-.785a12.517 12.517 0 0 1 1.333-3.277 1.03 1.03 0 0 0-.054-1.14l-1.944-2.731a.219.219 0 0 1 .024-.269l2.327-2.327a.193.193 0 0 1 .146-.06.21.21 0 0 1 .119.035l2.693 1.922c.348.244.799.261 1.157.049a12.077 12.077 0 0 1 3.263-1.374c.396-.114.706-.442.774-.847l.564-3.302a.202.202 0 0 1 .198-.174h3.291a.2.2 0 0 1 .2.174l.549 3.255c.07.416.375.75.782.85 1.178.299 2.302.763 3.351 1.377.358.214.806.198 1.146-.046l2.698-1.936a.245.245 0 0 1 .117-.038c.03 0 .09.005.146.06l2.327 2.327c.07.071.076.179.021.266l-1.928 2.71c-.239.339-.255.79-.049 1.148a12.45 12.45 0 0 1 1.363 3.271c.103.404.437.711.842.774l3.279.557a.2.2 0 0 1 .174.201v3.291h-.005z"/><path d="M449.564 163.259c-4.456 0-8.066 3.614-8.066 8.061 0 4.456 3.61 8.075 8.066 8.075 4.45 0 8.066-3.619 8.066-8.075.001-4.447-3.615-8.061-8.066-8.061zm0 14.026a5.966 5.966 0 0 1-5.963-5.965 5.964 5.964 0 0 1 5.963-5.957 5.965 5.965 0 0 1 5.957 5.957c0 3.29-2.671 5.965-5.957 5.965z"/></g><g fill="#E6E7E8"><path d="M259.821 58.631l28.854-28.859-8.626-8.625-28.854 28.855 8.626 8.629zm-1.287-3.033l-4.312-4.312 24.911-24.917 4.314 4.317-24.913 24.912z"/><path d="M282.632 27.199l1.46 1.463-16.483 16.456-1.461-1.464z"/></g><path fill="#E6E7E8" d="M251.195 50.002l-2.885 11.512 11.511-2.883z"/><path fill="#FFF" d="M251.567 58.253l1.445-3.803 2.405 2.403z"/><path fill="#E6E7E8" d="M85.633 187.475V162.51l21.617 12.484-21.617 12.481zm2.78-20.149v15.332l13.277-7.665-13.277-7.667z"/><path fill="#19335E" d="M185.341 179.823h180.34v220.613h-180.34z"/><path fill="#3079BE" d="M178.478 184.42h194.065v225.84H178.478z"/><path fill="#8AD7F8" d="M173.824 190.526h203.375v231.085H173.824z"/><path fill="#E3ECF8" d="M183.218 225.925h184.168v15.354H183.218z"/><path fill="#FFF" d="M190.576 250.863h169.456v15.354H190.576z"/><g fill="#E3ECF8"><circle cx="200.9" cy="204.935" r="4.535"/><circle cx="187.755" cy="204.935" r="4.537"/><path d="M218.577 204.935a4.532 4.532 0 0 1-4.537 4.534 4.533 4.533 0 1 1 0-9.068 4.535 4.535 0 0 1 4.537 4.534z"/></g><path d="M190.576 339.563h78.408v4.479h-78.408zm0 13.287h78.408v4.482h-78.408zm0 14.099h78.408v4.479h-78.408zm0 14.387h78.408v4.48h-78.408zm0 13.535h78.408v4.479h-78.408zm0-118.584h78.408v54.253h-78.408zm91.047.825h78.409V399.35h-78.409z" fill="#FFF"/><path d="M322.182 368.263a1.39 1.39 0 0 1-1.391-1.39v-13.692c0-.769.622-1.39 1.391-1.39.768 0 1.39.621 1.39 1.39v13.692a1.39 1.39 0 0 1-1.39 1.39zm0-31.973a1.39 1.39 0 0 1-1.391-1.39v-13.689a1.39 1.39 0 1 1 2.781 0V334.9a1.39 1.39 0 0 1-1.39 1.39zm22.831 9.14h-13.688a1.39 1.39 0 1 1 0-2.781h13.688a1.39 1.39 0 1 1 0 2.781zm-31.971 0h-13.689c-.769 0-1.39-.622-1.39-1.391s.621-1.39 1.39-1.39h13.689a1.39 1.39 0 1 1 0 2.781zm25.283 16.143c-.355 0-.712-.136-.983-.407l-9.679-9.68a1.389 1.389 0 1 1 1.966-1.965l9.679 9.679a1.39 1.39 0 0 1-.983 2.373zm-22.605-22.605c-.356 0-.712-.136-.983-.407l-9.679-9.683a1.39 1.39 0 0 1 1.965-1.966l9.68 9.683a1.39 1.39 0 0 1-.983 2.373zm-9.683 22.605a1.39 1.39 0 0 1-.982-2.373l9.679-9.679a1.389 1.389 0 1 1 1.966 1.965l-9.679 9.68a1.386 1.386 0 0 1-.984.407zm22.606-22.605a1.39 1.39 0 0 1-.982-2.373l9.682-9.683a1.39 1.39 0 1 1 1.966 1.966l-9.682 9.683a1.392 1.392 0 0 1-.984.407z" fill="#D1D3D4"/><g fill="#F15A29"><path d="M353.067 367.15c.142.1.207.273.207.45a.656.656 0 0 1-.207.48l-4.013 4.013c-.119.104-.293.174-.467.174s-.348-.07-.467-.174l-10.616-10.309 1.662-3.282 3.282-1.659 10.619 10.307z"/><path d="M323.979 342.421l27.759 8.362c.258.111.467.354.483.63a.693.693 0 0 1-.38.688l-12.642 6.439-6.435 12.652a.693.693 0 0 1-.689.351c-.277 0-.521-.206-.608-.48l-8.368-27.743a.784.784 0 0 1-.038-.211c0-.207.087-.375.209-.519a.762.762 0 0 1 .709-.169z"/></g></svg>