<svg xmlns="http://www.w3.org/2000/svg" width="512" height="512" viewBox="0 0 512 512"><path d="M77.462 158.257H8.774c-4.747 0-8.602-3.841-8.602-8.588 0-4.747 3.855-8.588 8.602-8.588h68.688a8.583 8.583 0 0 1 8.588 8.588 8.583 8.583 0 0 1-8.588 8.588zm240.444 0h-25.75a8.584 8.584 0 0 1-8.588-8.588 8.584 8.584 0 0 1 8.588-8.588h25.75c4.746 0 8.601 3.841 8.601 8.588-.014 4.747-3.855 8.588-8.601 8.588zm-60.1 0H111.813a8.583 8.583 0 0 1-8.588-8.588 8.583 8.583 0 0 1 8.588-8.588h145.992c4.732 0 8.587 3.841 8.587 8.588.001 4.747-3.854 8.588-8.586 8.588zm-145.993 85.878H8.774c-4.747 0-8.602-3.855-8.602-8.588 0-4.747 3.855-8.588 8.602-8.588h103.039a8.583 8.583 0 0 1 8.588 8.588c0 4.733-3.841 8.588-8.588 8.588zm-42.938 42.938H8.774c-4.747 0-8.602-3.854-8.602-8.588 0-4.746 3.855-8.588 8.602-8.588h60.101a8.583 8.583 0 0 1 8.587 8.588c0 4.734-3.84 8.588-8.587 8.588zm249.031 0h-137.39c-4.747 0-8.588-3.854-8.588-8.588a8.584 8.584 0 0 1 8.588-8.588h137.391a8.583 8.583 0 0 1 8.587 8.588c-.001 4.734-3.842 8.588-8.588 8.588zm0-42.938h-68.688c-4.747 0-8.588-3.855-8.588-8.588a8.583 8.583 0 0 1 8.588-8.588h68.688c4.746 0 8.601 3.841 8.601 8.588-.014 4.733-3.855 8.588-8.601 8.588zm-180.329-42.939H8.774c-4.747 0-8.602-3.841-8.602-8.587 0-4.747 3.855-8.588 8.602-8.588h128.802a8.583 8.583 0 0 1 8.588 8.588 8.582 8.582 0 0 1-8.587 8.587zm-8.588 85.877h-25.764c-4.732 0-8.587-3.854-8.587-8.588 0-4.746 3.855-8.588 8.587-8.588h25.764a8.583 8.583 0 0 1 8.587 8.588c.001 4.734-3.84 8.588-8.587 8.588zm-85.878 42.925H8.774a8.583 8.583 0 0 1-8.588-8.587c0-4.733 3.841-8.588 8.588-8.588h34.337c4.747 0 8.588 3.854 8.588 8.588a8.583 8.583 0 0 1-8.588 8.587zm163.168 42.94h-34.351a8.584 8.584 0 0 1-8.588-8.588c0-4.733 3.841-8.588 8.588-8.588h34.351c4.733 0 8.588 3.854 8.588 8.588 0 4.746-3.855 8.588-8.588 8.588zm111.627 0H240.63a8.584 8.584 0 0 1-8.588-8.588c0-4.733 3.841-8.588 8.588-8.588h77.276c4.746 0 8.601 3.854 8.601 8.588-.014 4.746-3.855 8.588-8.601 8.588zm0-42.94h-34.338a8.583 8.583 0 0 1-8.588-8.587c0-4.733 3.842-8.588 8.588-8.588h34.338c4.746 0 8.601 3.854 8.601 8.588-.014 4.746-3.855 8.587-8.601 8.587zm-68.688 0H77.462c-4.733 0-8.587-3.841-8.587-8.587 0-4.733 3.854-8.588 8.587-8.588h171.755c4.732 0 8.588 3.854 8.588 8.588.001 4.746-3.855 8.587-8.587 8.587zm-137.405 85.878H8.774c-4.747 0-8.602-3.841-8.602-8.588 0-4.746 3.855-8.588 8.602-8.588h103.039a8.584 8.584 0 0 1 8.588 8.588 8.583 8.583 0 0 1-8.588 8.588zm206.093 0h-60.101a8.583 8.583 0 0 1-8.588-8.588 8.584 8.584 0 0 1 8.588-8.588h60.101c4.746 0 8.601 3.842 8.601 8.588-.014 4.747-3.855 8.588-8.601 8.588zm-94.452 0h-77.29a8.583 8.583 0 0 1-8.588-8.588 8.584 8.584 0 0 1 8.588-8.588h77.29c4.733 0 8.588 3.842 8.588 8.588 0 4.747-3.855 8.588-8.588 8.588zm-85.877-42.938H8.774c-4.747 0-8.602-3.842-8.602-8.588 0-4.733 3.855-8.588 8.602-8.588h128.802c4.747 0 8.588 3.854 8.588 8.588a8.583 8.583 0 0 1-8.587 8.588zm180.329-171.742H171.928a8.583 8.583 0 0 1-8.588-8.587 8.583 8.583 0 0 1 8.588-8.588h145.979c4.746 0 8.601 3.841 8.601 8.588-.015 4.746-3.856 8.587-8.602 8.587z" fill="#317ABE"/><path fill="#FAD307" d="M341.981 288.116l24.748 39.77-15.254 17.806z"/><path fill="#8BD7F8" d="M353.094 151.467H257.82c-4.39 0-7.861 3.457-7.861 7.847v105.673c0 4.404 3.471 7.861 7.861 7.861h95.274c4.39 0 7.86-3.457 7.86-7.861v-105.44c0-4.39-3.471-8.08-7.86-8.08z"/><path fill="#317ABE" d="M234.689 177.12a10.855 10.855 0 0 0-10.865 10.865v48.797a10.855 10.855 0 0 0 10.865 10.865h15.269V177.12h-15.269zm255.74 137.816l-129.475-52.268v-100.57l129.475-52.5z"/><path fill="#8BD7F8" d="M501.308 96.881c-6.009 0-10.865 4.87-10.865 10.879v209.261a10.854 10.854 0 0 0 10.865 10.865c5.995 0 10.865-4.856 10.865-10.865V107.526c-.234-5.775-5.09-10.645-10.865-10.645z"/><path fill="#317ABE" d="M363.712 386.848h-46.465l-50.182-113.767h73.065z"/><path d="M332.735 172.963h-54.572c-2.99 0-5.542 2.771-5.542 6.475 0 3.457 2.552 6.475 5.542 6.475h54.572c3.005 0 5.542-2.771 5.542-6.475 0-3.47-2.537-6.475-5.542-6.475zm0 32.842h-54.572c-2.99 0-5.542 2.771-5.542 6.461 0 3.471 2.552 6.489 5.542 6.489h54.572c3.005 0 5.542-2.785 5.542-6.489 0-3.47-2.537-6.461-5.542-6.461zm0 33.062h-54.572c-2.99 0-5.542 2.771-5.542 6.475 0 3.457 2.552 6.461 5.542 6.461h54.572c3.005 0 5.542-2.771 5.542-6.461 0-3.704-2.537-6.475-5.542-6.475z" fill="#FFF"/></svg>