<svg xmlns="http://www.w3.org/2000/svg" width="512" height="512" viewBox="0 0 512 512"><path fill="none" d="M491.404 256.335c0 130.2-105.559 235.75-235.742 235.75-130.2 0-235.758-105.55-235.758-235.75 0-130.192 105.558-235.75 235.758-235.75 130.184 0 235.742 105.558 235.742 235.75z"/><path fill="#FFF" d="M105.204 256.335c0-83.764 67.898-151.679 151.67-151.679 83.772 0 151.67 67.915 151.67 151.679 0 83.772-67.898 151.679-151.67 151.679-83.772 0-151.67-67.907-151.67-151.679z"/><path fill="#E3E2EA" d="M257.722 411.193c-1.698 0-3.143-1.444-3.143-3.146 0-1.785 1.357-3.229 3.143-3.229 5.699 0 11.225-.341 16.58-1.021 1.784-.257 3.313 1.104 3.569 2.807v.34c0 1.619-1.187 2.973-2.806 3.23h-.341c-5.521.68-11.303 1.019-17.002 1.019zm-16.917-.846h-.34a146.287 146.287 0 0 1-17.174-2.806c-1.444-.341-2.466-1.702-2.466-3.147 0-.257 0-.423.087-.681.336-1.702 2.038-2.723 3.823-2.383 5.355 1.195 10.885 2.043 16.41 2.641 1.615.166 2.807 1.527 2.807 3.229v.249c-.171 1.619-1.532 2.898-3.147 2.898zm50.666-3.147c-1.527 0-2.798-1.021-3.138-2.383-.092-.258-.092-.507-.092-.847 0-1.445 1.021-2.724 2.466-2.98 5.446-1.362 10.802-2.89 15.899-4.675l.083-.083c1.619-.598 3.487.341 4.085 1.951.083.341.166.764.166 1.104 0 1.361-.847 2.557-2.125 2.98-5.521 1.951-11.134 3.653-16.664 4.932l-.68.001zm-83.822-4.168c-.341 0-.681-.083-1.021-.174-5.525-1.868-10.885-4.077-16.069-6.543-1.104-.506-1.868-1.702-1.868-2.889 0-.424.17-.938.34-1.362.764-1.527 2.632-2.291 4.251-1.527a136.754 136.754 0 0 0 15.385 6.285 3.123 3.123 0 0 1 2.125 2.98c0 .34 0 .764-.17 1.104a3.108 3.108 0 0 1-2.973 2.126zm115.704-7.139c-1.188 0-2.291-.765-2.798-1.785-.258-.424-.341-.938-.341-1.445 0-1.195.673-2.3 1.785-2.889a126.778 126.778 0 0 0 14.446-8.078c1.445-.938 3.487-.516 4.426.93.34.515.507 1.104.507 1.702 0 1.104-.507 2.125-1.445 2.723-4.84 3.146-9.946 5.953-15.127 8.502-.432.165-.939.34-1.453.34zm-146.399-7.399c-.593 0-1.187-.174-1.615-.515-4.932-2.972-9.689-6.376-14.28-9.946-.681-.589-1.191-1.444-1.191-2.466 0-.672.253-1.444.681-2.034 1.017-1.278 3.143-1.536 4.504-.515a136.44 136.44 0 0 0 13.604 9.523 3.297 3.297 0 0 1 1.532 2.806c0 .507-.17 1.104-.51 1.619-.599.93-1.616 1.528-2.725 1.528zm175.051-10.884a3.213 3.213 0 0 1-2.466-1.104 3.236 3.236 0 0 1-.764-2.043c0-1.021.515-1.867 1.195-2.466a153.547 153.547 0 0 0 12.412-11.133c1.188-1.279 3.229-1.279 4.5-.083.598.589.938 1.444.938 2.291 0 .855-.341 1.619-.938 2.209-4.159 4.25-8.502 8.078-12.836 11.648-.597.515-1.277.681-2.041.681zm-201.66-10.112a3.284 3.284 0 0 1-2.296-.938c-3.993-3.994-7.991-8.336-11.648-12.836-.423-.598-.676-1.361-.676-2.042 0-.938.423-1.868 1.187-2.466 1.274-1.104 3.4-.848 4.508.423 3.4 4.334 7.228 8.502 11.138 12.412.594.598.934 1.362.934 2.217 0 .847-.34 1.694-.851 2.292-.682.597-1.445.938-2.296.938zm225.554-13.949c-.764 0-1.444-.249-1.96-.681-.764-.589-1.27-1.527-1.27-2.466 0-.681.249-1.444.681-2.034 3.396-4.251 6.625-8.842 9.605-13.607.931-1.444 2.973-1.951 4.417-1.021.938.598 1.445 1.619 1.445 2.807 0 .598-.166 1.104-.424 1.619-3.146 4.932-6.459 9.771-10.029 14.197a3.152 3.152 0 0 1-2.465 1.186zm-246.892-12.412c-1.108 0-2.125-.589-2.723-1.527-3.06-4.849-5.949-9.946-8.502-15.136-.17-.423-.34-.847-.34-1.361 0-1.188.681-2.292 1.785-2.89 1.532-.764 3.487-.083 4.25 1.445 2.466 5.015 5.272 9.863 8.166 14.537.336.515.507 1.104.507 1.785 0 1.104-.507 2.043-1.445 2.641-.511.257-1.104.506-1.698.506zm264.826-16.406c-.507 0-.93-.083-1.354-.258-1.112-.589-1.876-1.702-1.876-2.889 0-.507.174-.938.34-1.362a149.538 149.538 0 0 0 6.294-15.384v-.083c.598-1.619 2.466-2.558 4.084-1.96a3.123 3.123 0 0 1 2.126 2.973c0 .34 0 .771-.175 1.112-1.868 5.438-3.993 10.71-6.459 15.808 0 0-.083.175-.083.258-.597 1.105-1.702 1.785-2.897 1.785zM114.042 310.7c-1.362 0-2.549-.93-2.977-2.126-2.038-5.521-3.653-11.134-4.928-16.663-.087-.249-.087-.506-.087-.847 0-1.444 1.021-2.641 2.466-2.98 1.702-.332 3.4.681 3.828 2.383 1.274 5.355 2.802 10.71 4.674 15.899.17.423.253.764.253 1.104-.083 1.361-.934 2.549-2.125 2.98-.423.167-.764.25-1.104.25zm290.85-18.025c-.257 0-.515 0-.681-.083-1.444-.34-2.466-1.527-2.466-2.972 0-.341 0-.598.083-.855 1.188-5.355 2.042-10.876 2.632-16.405.175-1.702 1.619-2.973 3.57-2.807 1.619.174 2.806 1.527 2.806 3.146v.341c-.681 5.869-1.61 11.648-2.806 17.169-.332 1.453-1.61 2.466-3.138 2.466zm-298.588-15.044c-1.615 0-2.973-1.188-3.23-2.806a148.139 148.139 0 0 1-1.021-17.345v-1.191c0-1.698 1.361-3.143 3.146-3.143s3.146 1.444 3.146 3.143v.598c0 .171.083.34.083.593 0 5.53.341 11.051 1.021 16.58v.258c.087 1.693-1.188 3.056-2.806 3.313h-.339zm302.241-18.705c-1.785 0-3.229-1.445-3.229-3.143 0-5.53-.341-11.138-.938-16.664v-.257c-.083-1.702 1.195-3.06 2.807-3.229 1.785-.257 3.313 1.104 3.569 2.806.599 5.779.938 11.561.938 17.344a3.14 3.14 0 0 1-3.147 3.143zM106.138 242.52h-.34c-1.619-.17-2.893-1.532-2.806-3.146v-.34c.594-5.783 1.615-11.479 2.889-17.087.341-1.702 2.042-2.806 3.828-2.466 1.357.341 2.379 1.615 2.466 3.06 0 .253 0 .511-.087.764a138.742 138.742 0 0 0-2.807 16.41 3.138 3.138 0 0 1-3.143 2.805zm298.497-17.261c-1.445 0-2.724-1.017-3.064-2.466-1.27-5.355-2.806-10.71-4.674-15.982-.166-.34-.166-.764-.166-1.104 0-1.361.847-2.553 2.125-2.976 1.611-.594 3.479.34 4.077 1.955a188.72 188.72 0 0 1 4.849 16.663c0 .257.083.511.083.768-.083 1.445-1.104 2.719-2.466 3.06-.258-.001-.507.082-.764.082zm-291.016-15.812c-.34 0-.681-.083-1.021-.17a3.115 3.115 0 0 1-2.125-2.977c0-.34.083-.764.17-1.104a168.203 168.203 0 0 1 6.546-15.813c0-.087.083-.17.083-.17.768-1.532 2.723-2.213 4.251-1.532 1.108.51 1.785 1.702 1.785 2.889 0 .511-.083.938-.253 1.362l-.083.257a144.647 144.647 0 0 0-6.293 15.131c-.425 1.276-1.703 2.127-3.06 2.127zm279.707-16.153c-1.188 0-2.3-.768-2.806-1.872-2.466-4.932-5.189-9.859-8.162-14.451a3.072 3.072 0 0 1-.506-1.702c0-1.104.589-2.125 1.527-2.719 1.444-.938 3.487-.428 4.417.934 2.98 4.844 5.87 9.946 8.419 15.218.174.423.34.851.34 1.362 0 1.274-.681 2.295-1.784 2.889-.506.171-.938.341-1.445.341zM128.41 178.926a3.06 3.06 0 0 1-1.698-.51c-1.021-.598-1.532-1.615-1.532-2.806 0-.511.17-1.104.511-1.615a163.324 163.324 0 0 1 9.863-13.944l.17-.17c1.104-1.361 3.143-1.615 4.504-.51.681.598 1.191 1.444 1.191 2.466 0 .681-.257 1.444-.681 1.955v.087a.18.18 0 0 0-.17.17 156.465 156.465 0 0 0-9.523 13.346c-.593.934-1.527 1.531-2.635 1.531zm246.809-14.284c-1.021 0-1.96-.423-2.549-1.191a141.891 141.891 0 0 0-11.06-12.413c-.672-.593-.93-1.357-.93-2.208-.083-.851.258-1.702.847-2.296 1.196-1.191 3.321-1.191 4.509 0a138.33 138.33 0 0 1 11.648 12.923c.423.511.681 1.274.681 2.038 0 .938-.424 1.785-1.195 2.383-.59.511-1.271.764-1.951.764zm-225.638-12.329c-.934 0-1.702-.253-2.296-.847-.598-.681-.934-1.449-.934-2.295 0-.851.336-1.615.934-2.213a165.415 165.415 0 0 1 12.923-11.648c1.274-1.017 3.4-.764 4.504.511.427.598.681 1.279.681 2.042 0 .934-.423 1.868-1.191 2.466a154.367 154.367 0 0 0-12.412 11.138c-.594.593-1.358.846-2.209.846zm201.577-11.645c-.765 0-1.445-.257-2.043-.681-4.251-3.4-8.842-6.634-13.517-9.606-1.021-.598-1.527-1.619-1.527-2.724 0-.593.166-1.187.507-1.698.854-1.449 2.889-1.872 4.334-.938 4.766 2.894 9.439 6.206 14.031 9.78 0 .083.083.17.166.17a3.119 3.119 0 0 1 1.195 2.461c0 .768-.258 1.449-.681 2.042a3.138 3.138 0 0 1-2.465 1.194zm-175.137-9.522c-1.104 0-2.125-.511-2.719-1.445a3.843 3.843 0 0 1-.428-1.702c-.083-1.104.511-2.125 1.445-2.719a147.933 147.933 0 0 1 15.135-8.419c1.532-.764 3.57-.083 4.251 1.445.253.428.34.938.34 1.449a3.079 3.079 0 0 1-1.785 2.802c-5.019 2.466-9.863 5.189-14.538 8.078-.51.34-1.108.511-1.701.511zm146.319-8.502c-.432 0-.938-.087-1.361-.257-4.932-2.378-10.121-4.504-15.394-6.376a3.118 3.118 0 0 1-2.125-2.972c0-.34.091-.681.174-1.108.59-1.615 2.466-2.461 4.077-1.955a167.4 167.4 0 0 1 16.073 6.634 3.263 3.263 0 0 1 1.785 2.889c0 .428-.174.934-.34 1.362-.515 1.102-1.619 1.783-2.889 1.783zm-115.799-6.293a3.11 3.11 0 0 1-2.973-2.125c-.17-.34-.17-.677-.17-1.017 0-1.362.847-2.553 2.125-2.977 5.355-1.955 10.967-3.57 16.663-4.849 1.698-.336 3.4.681 3.823 2.383 0 .253.087.423.087.681 0 1.445-1.021 2.806-2.466 3.147-5.272 1.187-10.714 2.719-15.982 4.587-.34.17-.767.17-1.107.17zm83.743-4.845h-.682c-.083-.083-.166-.083-.166-.083a141.334 141.334 0 0 0-16.239-2.723c-1.619-.17-2.89-1.528-2.807-3.147v-.336c.166-1.702 1.868-3.064 3.487-2.806 5.778.593 11.558 1.615 17.087 2.806 1.527.336 2.549 1.698 2.549 3.229 0 .17-.083.34-.083.594-.34 1.445-1.618 2.466-3.146 2.466zm-50.671-2.719c-1.615 0-2.976-1.191-3.146-2.806v-.34c-.083-1.615 1.191-2.977 2.806-3.146a150.328 150.328 0 0 1 17.344-1.021c1.702 0 3.146 1.449 3.146 3.147 0 1.785-1.444 3.229-3.146 3.229-5.696 0-11.221.34-16.664.938l-.34-.001z"/><path fill="#E7E7E7" d="M261.889 27.144h56.906v5.978h-56.906zm136.527 86.894h56.889v5.97h-56.889zM-.354 289.205h56.906v5.978H-.354zm455.111 39.296h56.889v5.969h-56.889zM19.572 165.414h56.889v5.97H19.572zm50.263-81.29h24.393v2.557H69.835zM274.99 49.428h24.377v2.565H274.99zm201.154 241.487h24.394v2.558h-24.394zm-22.881-108.016h24.376v2.557h-24.376zM15.902 320.604h24.393v2.558H15.902zM380.98 57.216h16.257v1.993H380.98z"/><path fill="#E7E7E7" d="M388.121 50.076h1.992v16.256h-1.992zM36.758 251.378h16.256v1.984H36.758z"/><path fill="#E7E7E7" d="M43.881 244.238h1.993v16.256h-1.993zm407.887-1.486h24.376v2.981h-24.376z"/><path fill="#E7E7E7" d="M462.462 232.05h2.988v24.384h-2.988zM177.12 43.533h24.376v2.98H177.12z"/><path fill="#E7E7E7" d="M187.814 32.831h2.989v24.385h-2.989z"/><path fill="#E3ECF8" d="M60.52 109.895c0 5.588-4.533 10.113-10.112 10.113a10.104 10.104 0 0 1-10.112-10.113 10.104 10.104 0 0 1 10.112-10.112c5.578 0 10.112 4.525 10.112 10.112z"/><path fill="#E6E7E8" d="M433.203 87.62c-4.085 0-7.405-3.325-7.405-7.414 0-4.089 3.32-7.415 7.405-7.415 4.094 0 7.423 3.325 7.423 7.415 0 4.088-3.329 7.414-7.423 7.414zm0-12.703c-2.914 0-5.28 2.375-5.28 5.289 0 2.914 2.366 5.289 5.28 5.289a5.3 5.3 0 0 0 5.297-5.289 5.298 5.298 0 0 0-5.297-5.289z"/><path fill="#E3ECF8" d="M132.087 66.332a6.354 6.354 0 0 1-6.36 6.359c-3.503 0-6.343-2.848-6.343-6.359a6.342 6.342 0 0 1 6.343-6.343 6.346 6.346 0 0 1 6.36 6.343z"/><path fill="#E6E7E8" d="M439.563 310.94c-4.094 0-7.423-3.329-7.423-7.414s3.329-7.414 7.423-7.414c4.085 0 7.405 3.329 7.405 7.414s-3.32 7.414-7.405 7.414zm0-12.702c-2.923 0-5.298 2.374-5.298 5.288s2.375 5.289 5.298 5.289c2.914 0 5.28-2.375 5.28-5.289s-2.365-5.288-5.28-5.288z"/><path fill="#E3ECF8" d="M350.443 59.98c0 3.512-2.839 6.36-6.343 6.36s-6.359-2.848-6.359-6.36c0-3.504 2.855-6.343 6.359-6.343s6.343 2.84 6.343 6.343z"/><path fill="#E6E7E8" d="M60.52 211.377c-4.093 0-7.422-3.33-7.422-7.422 0-4.089 3.33-7.414 7.422-7.414 4.085 0 7.406 3.325 7.406 7.414 0 4.092-3.322 7.422-7.406 7.422zm0-12.711c-2.922 0-5.297 2.375-5.297 5.289a5.301 5.301 0 0 0 5.297 5.297c2.91 0 5.281-2.375 5.281-5.297-.001-2.915-2.371-5.289-5.281-5.289z"/><path fill="#E3ECF8" d="M58.377 364.874c0-9.481 7.672-17.153 17.153-17.153 9.465 0 17.136 7.672 17.136 17.153 0 9.465-7.671 17.137-17.136 17.137-9.481 0-17.153-7.672-17.153-17.137zM426.86 160.74c0-8.003 6.509-14.496 14.513-14.496s14.496 6.493 14.496 14.496c0 8.004-6.492 14.488-14.496 14.488s-14.513-6.484-14.513-14.488zm3.355 204.134c0-5.181 4.184-9.365 9.349-9.365 5.164 0 9.349 4.185 9.349 9.365a9.348 9.348 0 0 1-9.349 9.349 9.347 9.347 0 0 1-9.349-9.349z"/><path fill="#1A325E" d="M137.019 149.49l119.855-61.795 119.838 61.795v104.861H137.019V149.49z"/><path fill="#317ABE" d="M163.238 68.972h187.255c4.118 0 7.489 3.371 7.489 7.489v191.257c0 4.118-3.371 7.489-7.489 7.489H163.238c-4.118 0-7.489-3.371-7.489-7.489V76.461c.001-4.118 3.372-7.489 7.489-7.489z"/><path fill="#8BD7F8" d="M334.769 83.95l11.973-14.978h3.752c4.118 0 7.489 3.371 7.489 7.489v7.489h-23.214zm-97.373 0l11.973-14.978h26.219L263.6 83.95h-26.204zm-81.646 0v-7.489c0-4.118 3.371-7.489 7.489-7.489h18.731L169.98 83.95h-14.23z"/><path fill="#F47A48" d="M286.083 83.95l11.972-14.978h26.22l-11.99 14.978h-26.202zm-97.373 0l11.981-14.978h26.211l-11.98 14.978H188.71z"/><path fill="#FFF" d="M261.059 116.197h75.104a3.765 3.765 0 0 0 3.753-3.753 3.77 3.77 0 0 0-3.753-3.752h-75.104a3.76 3.76 0 0 0-3.753 3.752 3.755 3.755 0 0 0 3.753 3.753zm75.104 7.513h-75.104c-2.075 0-3.753 1.686-3.753 3.753s1.678 3.761 3.753 3.761h75.104c2.06 0 3.753-1.693 3.753-3.761s-1.693-3.753-3.753-3.753zm-18.78 15.02h-56.324a3.761 3.761 0 0 0-3.753 3.761 3.76 3.76 0 0 0 3.753 3.753h56.324a3.76 3.76 0 0 0 3.753-3.753 3.76 3.76 0 0 0-3.753-3.761zm-111.054-20.831c2.939 0 5.255-2.308 5.255-5.255 0-2.939-2.316-5.248-5.255-5.248s-5.247 2.308-5.247 5.248c0 2.947 2.308 5.255 5.247 5.255zm-32.621 28.054l23.911-24.908 23.903 24.908z"/><path fill="#FFF" d="M201.082 145.953l23.911-33.309 23.911 33.309z"/><path fill="#317ABE" d="M256.875 399.512c48.802 0 92.1-23.139 119.838-58.939v-185.47c-1.079-1.395-2.092-2.848-3.213-4.209L137.019 254.351v86.197c27.739 35.816 71.045 58.964 119.856 58.964zM137.019 149.49v5.629c1.088-1.395 2.092-2.856 3.23-4.218l-3.23-1.411z"/><path fill="#8BD7F8" d="M256.875 399.512c48.802 0 92.1-23.139 119.838-58.939V149.49c-.822-.423-119.838 52.431-119.838 52.431L137.019 149.49v191.058c27.739 35.816 71.045 58.964 119.856 58.964z"/></svg>