<svg xmlns="http://www.w3.org/2000/svg" width="512" height="512" viewBox="0 0 512 512"><path fill="#19335E" d="M502.883 159.7H304.855c-5.199 0-9.419 4.22-9.419 9.433V417.81c0 5.199 4.22 9.419 9.419 9.419h198.027c5.199 0 9.419-4.22 9.419-9.419V169.133c.001-5.213-4.219-9.433-9.418-9.433z"/><path fill="#FFF" d="M356.717 231.245h-37.705a4.702 4.702 0 0 1-4.709-4.709 4.694 4.694 0 0 1 4.709-4.71h37.705a4.694 4.694 0 0 1 4.71 4.71 4.702 4.702 0 0 1-4.71 4.709z"/><path fill="#317ABE" d="M488.726 231.245h-14.129c-2.613 0-4.737-2.11-4.737-4.709 0-2.614 2.124-4.71 4.737-4.71h14.129a4.694 4.694 0 0 1 4.71 4.71 4.702 4.702 0 0 1-4.71 4.709zm-32.996 0h-80.147a4.702 4.702 0 0 1-4.709-4.709 4.694 4.694 0 0 1 4.709-4.71h80.147a4.694 4.694 0 0 1 4.71 4.71 4.702 4.702 0 0 1-4.71 4.709z"/><path fill="#FFF" d="M375.583 278.396h-56.571a4.71 4.71 0 0 1-4.709-4.71 4.705 4.705 0 0 1 4.709-4.723h56.571a4.705 4.705 0 0 1 4.71 4.723 4.711 4.711 0 0 1-4.71 4.71zm-23.575 23.577h-32.996c-2.613 0-4.709-2.124-4.709-4.724s2.096-4.724 4.709-4.724h32.996c2.613 0 4.709 2.124 4.709 4.724s-2.096 4.724-4.709 4.724z"/><path fill="#317ABE" d="M488.726 301.973h-75.438c-2.586 0-4.709-2.124-4.709-4.724s2.123-4.724 4.709-4.724h75.438c2.614 0 4.71 2.124 4.71 4.724s-2.096 4.724-4.71 4.724zm0-23.577h-37.705a4.712 4.712 0 0 1-4.71-4.71 4.706 4.706 0 0 1 4.71-4.723h37.705a4.705 4.705 0 0 1 4.71 4.723 4.711 4.711 0 0 1-4.71 4.71zm-56.572 0h-37.705c-2.613 0-4.736-2.123-4.736-4.71a4.728 4.728 0 0 1 4.736-4.723h37.705a4.705 4.705 0 0 1 4.71 4.723 4.71 4.71 0 0 1-4.71 4.71z"/><path fill="#FFF" d="M389.713 254.821h-70.701a4.702 4.702 0 0 1-4.709-4.71 4.705 4.705 0 0 1 4.709-4.723h70.701a4.728 4.728 0 0 1 4.736 4.723c0 2.6-2.123 4.71-4.736 4.71zm-4.71 47.152h-14.129c-2.614 0-4.71-2.124-4.71-4.724s2.096-4.724 4.71-4.724h14.129c2.613 0 4.71 2.124 4.71 4.724s-2.097 4.724-4.71 4.724zm-47.125 23.562h-18.866a4.705 4.705 0 0 1-4.709-4.724 4.711 4.711 0 0 1 4.709-4.71h18.866c2.587 0 4.71 2.124 4.71 4.71 0 2.614-2.123 4.724-4.71 4.724z"/><path fill="#317ABE" d="M427.445 349.11h-18.866a4.722 4.722 0 0 1-4.71-4.723c0-2.587 2.123-4.71 4.71-4.71h18.866a4.71 4.71 0 0 1 4.709 4.71 4.704 4.704 0 0 1-4.709 4.723zm61.281 0h-42.415a4.728 4.728 0 0 1-4.736-4.723c0-2.587 2.123-4.71 4.736-4.71h42.415a4.711 4.711 0 0 1 4.71 4.71 4.705 4.705 0 0 1-4.71 4.723zm0-23.575H469.86c-2.586 0-4.709-2.11-4.709-4.724 0-2.586 2.123-4.71 4.709-4.71h18.866a4.712 4.712 0 0 1 4.71 4.71 4.706 4.706 0 0 1-4.71 4.724zm-37.705 0h-94.304c-2.586 0-4.709-2.11-4.709-4.724 0-2.586 2.123-4.71 4.709-4.71h94.304c2.587 0 4.71 2.124 4.71 4.71-.001 2.614-2.124 4.724-4.71 4.724z"/><path fill="#D8DEEC" d="M375.583 372.687h-56.571a4.705 4.705 0 0 1-4.709-4.724 4.71 4.71 0 0 1 4.709-4.709h56.571a4.71 4.71 0 0 1 4.71 4.709 4.706 4.706 0 0 1-4.71 4.724z"/><path fill="#317ABE" d="M488.726 372.687H455.73a4.706 4.706 0 0 1-4.71-4.724 4.711 4.711 0 0 1 4.71-4.709h32.995a4.71 4.71 0 0 1 4.71 4.709 4.704 4.704 0 0 1-4.709 4.724zm-51.862 0h-42.415a4.728 4.728 0 0 1-4.736-4.724c0-2.586 2.123-4.709 4.736-4.709h42.415a4.711 4.711 0 0 1 4.71 4.709 4.706 4.706 0 0 1-4.71 4.724z"/><path fill="#FFF" d="M389.713 349.11h-70.701a4.705 4.705 0 0 1-4.709-4.723 4.71 4.71 0 0 1 4.709-4.71h70.701c2.613 0 4.736 2.123 4.736 4.71a4.728 4.728 0 0 1-4.736 4.723z"/><path fill="#317ABE" d="M488.726 254.821H408.58a4.72 4.72 0 0 1-4.71-4.71 4.723 4.723 0 0 1 4.71-4.723h80.146c2.614 0 4.71 2.11 4.71 4.723 0 2.6-2.096 4.71-4.71 4.71zM207.748 159.7H9.721c-5.2 0-9.419 4.22-9.419 9.433V417.81c0 5.199 4.22 9.419 9.419 9.419h198.027c5.2 0 9.419-4.22 9.419-9.419V169.133c0-5.213-4.219-9.433-9.419-9.433z"/><path fill="#8BD7F8" d="M61.583 231.245H23.878a4.702 4.702 0 0 1-4.71-4.709 4.694 4.694 0 0 1 4.71-4.71h37.705a4.694 4.694 0 0 1 4.709 4.71 4.702 4.702 0 0 1-4.709 4.709z"/><path fill="#FFF" d="M193.591 231.245h-14.156a4.72 4.72 0 0 1-4.709-4.709 4.71 4.71 0 0 1 4.709-4.71h14.156a4.694 4.694 0 0 1 4.71 4.71 4.702 4.702 0 0 1-4.71 4.709z"/><path fill="#8BD7F8" d="M160.596 231.245H80.449a4.702 4.702 0 0 1-4.71-4.709 4.694 4.694 0 0 1 4.71-4.71h80.147a4.71 4.71 0 0 1 4.709 4.71 4.718 4.718 0 0 1-4.709 4.709zm-80.147 47.151H23.878a4.711 4.711 0 0 1-4.71-4.71 4.705 4.705 0 0 1 4.71-4.723h56.571a4.722 4.722 0 0 1 4.709 4.723c.001 2.587-2.123 4.71-4.709 4.71zm-23.576 23.577H23.878c-2.614 0-4.71-2.124-4.71-4.724s2.096-4.724 4.71-4.724h32.995c2.613 0 4.71 2.124 4.71 4.724s-2.097 4.724-4.71 4.724z"/><path fill="#FFF" d="M193.591 301.973h-75.437c-2.586 0-4.71-2.124-4.71-4.724s2.124-4.724 4.71-4.724h75.437c2.614 0 4.71 2.124 4.71 4.724s-2.096 4.724-4.71 4.724zm0-23.577h-37.705c-2.613 0-4.737-2.123-4.737-4.71a4.73 4.73 0 0 1 4.737-4.723h37.705a4.705 4.705 0 0 1 4.71 4.723 4.711 4.711 0 0 1-4.71 4.71z"/><path fill="#8BD7F8" d="M137.02 278.396H99.315c-2.613 0-4.737-2.123-4.737-4.71a4.73 4.73 0 0 1 4.737-4.723h37.705a4.705 4.705 0 0 1 4.71 4.723 4.711 4.711 0 0 1-4.71 4.71zm-42.442-23.575h-70.7a4.703 4.703 0 0 1-4.71-4.71 4.705 4.705 0 0 1 4.71-4.723h70.7a4.728 4.728 0 0 1 4.737 4.723c0 2.6-2.123 4.71-4.737 4.71zm-4.709 47.152h-14.13c-2.613 0-4.737-2.124-4.737-4.724s2.124-4.724 4.737-4.724h14.129c2.613 0 4.709 2.124 4.709 4.724.001 2.6-2.095 4.724-4.708 4.724zm-47.152 23.562H23.878a4.706 4.706 0 0 1-4.71-4.724 4.712 4.712 0 0 1 4.71-4.71h18.839c2.613 0 4.737 2.124 4.737 4.71a4.73 4.73 0 0 1-4.737 4.724z"/><path fill="#C7CFE2" d="M132.311 349.11h-18.866a4.705 4.705 0 0 1-4.71-4.723 4.712 4.712 0 0 1 4.71-4.71h18.866c2.586 0 4.709 2.123 4.709 4.71a4.722 4.722 0 0 1-4.709 4.723z"/><path fill="#FFF" d="M193.591 349.11h-42.442a4.722 4.722 0 0 1-4.709-4.723c0-2.587 2.123-4.71 4.709-4.71h42.442a4.711 4.711 0 0 1 4.71 4.71 4.705 4.705 0 0 1-4.71 4.723zm0-23.575h-18.866c-2.586 0-4.71-2.11-4.71-4.724 0-2.586 2.124-4.71 4.71-4.71h18.866a4.712 4.712 0 0 1 4.71 4.71 4.706 4.706 0 0 1-4.71 4.724z"/><path fill="#8BD7F8" d="M155.886 325.535H61.583c-2.586 0-4.71-2.11-4.71-4.724 0-2.586 2.124-4.71 4.71-4.71h94.303c2.586 0 4.71 2.124 4.71 4.71 0 2.614-2.123 4.724-4.71 4.724zm-75.437 47.152H23.878a4.705 4.705 0 0 1-4.71-4.724 4.71 4.71 0 0 1 4.71-4.709h56.571c2.586 0 4.709 2.123 4.709 4.709a4.722 4.722 0 0 1-4.709 4.724z"/><path fill="#C7CFE2" d="M193.591 372.687h-32.995a4.705 4.705 0 0 1-4.71-4.724 4.71 4.71 0 0 1 4.71-4.709h32.995a4.71 4.71 0 0 1 4.71 4.709 4.706 4.706 0 0 1-4.71 4.724z"/><path fill="#8BD7F8" d="M141.73 372.687H99.315a4.729 4.729 0 0 1-4.737-4.724c0-2.586 2.124-4.709 4.737-4.709h42.415a4.711 4.711 0 0 1 4.71 4.709 4.706 4.706 0 0 1-4.71 4.724zM94.578 349.11h-70.7a4.705 4.705 0 0 1-4.71-4.723 4.711 4.711 0 0 1 4.71-4.71h70.7c2.614 0 4.737 2.123 4.737 4.71a4.728 4.728 0 0 1-4.737 4.723z"/><path fill="#FFF" d="M193.591 254.821h-80.147a4.703 4.703 0 0 1-4.71-4.71 4.706 4.706 0 0 1 4.71-4.723h80.147c2.614 0 4.71 2.11 4.71 4.723 0 2.6-2.096 4.71-4.71 4.71z"/><path fill="#8BD7F8" d="M391.047 84.834h-269.49c-7.078 0-12.823 5.745-12.823 12.823v316.75c0 7.078 5.745 12.822 12.823 12.822h269.49c7.078 0 12.822-5.744 12.822-12.822V97.657c0-7.078-5.744-12.823-12.822-12.823z"/><path fill="#FFF" d="M294.81 234.144h-51.344c-3.539 0-6.425-2.872-6.425-6.411 0-3.539 2.886-6.425 6.425-6.425h51.344c3.54 0 6.398 2.886 6.398 6.425 0 3.539-2.858 6.411-6.398 6.411zm-102.662-64.153h-51.344c-3.539 0-6.397-2.886-6.397-6.425 0-3.539 2.858-6.412 6.397-6.412h51.344c3.54 0 6.398 2.873 6.398 6.412 0 3.539-2.858 6.425-6.398 6.425zm179.651 0h-19.247a6.42 6.42 0 0 1-6.425-6.425 6.408 6.408 0 0 1 6.425-6.412h19.247c3.539 0 6.398 2.873 6.398 6.412 0 3.539-2.859 6.425-6.398 6.425zm-44.919 0H217.793c-3.539 0-6.397-2.886-6.397-6.425 0-3.539 2.858-6.412 6.397-6.412H326.88c3.539 0 6.425 2.873 6.425 6.412 0 3.539-2.886 6.425-6.425 6.425zm-109.087 64.153h-76.989c-3.539 0-6.397-2.872-6.397-6.411 0-3.539 2.858-6.425 6.397-6.425h76.989a6.42 6.42 0 0 1 6.425 6.425 6.407 6.407 0 0 1-6.425 6.411zm-32.069 32.084h-44.919c-3.539 0-6.397-2.872-6.397-6.411a6.392 6.392 0 0 1 6.397-6.411h44.919c3.539 0 6.425 2.858 6.425 6.411-.001 3.538-2.886 6.411-6.425 6.411zm186.075 0H269.138c-3.539 0-6.425-2.872-6.425-6.411 0-3.553 2.886-6.411 6.425-6.411h102.661a6.393 6.393 0 0 1 6.398 6.411c0 3.538-2.859 6.411-6.398 6.411zm0-32.084h-51.344c-3.539 0-6.397-2.872-6.397-6.411 0-3.539 2.858-6.425 6.397-6.425h51.344c3.539 0 6.398 2.886 6.398 6.425 0 3.539-2.859 6.411-6.398 6.411zm-134.758-32.083h-96.237a6.393 6.393 0 0 1-6.397-6.412c0-3.539 2.858-6.411 6.397-6.411h96.237a6.408 6.408 0 0 1 6.425 6.411 6.4 6.4 0 0 1-6.425 6.412zm-6.398 64.167h-19.247c-3.539 0-6.425-2.872-6.425-6.411 0-3.553 2.886-6.411 6.425-6.411h19.247a6.393 6.393 0 0 1 6.398 6.411c0 3.538-2.858 6.411-6.398 6.411zm-64.166 32.083h-25.672c-3.539 0-6.397-2.872-6.397-6.411 0-3.539 2.858-6.425 6.397-6.425h25.672c3.539 0 6.425 2.886 6.425 6.425-.001 3.538-2.886 6.411-6.425 6.411zm121.908 32.084h-25.672c-3.539 0-6.425-2.886-6.425-6.425 0-3.539 2.886-6.411 6.425-6.411h25.672c3.539 0 6.425 2.872 6.425 6.411 0 3.539-2.886 6.425-6.425 6.425zm83.414 0h-57.741c-3.539 0-6.425-2.886-6.425-6.425 0-3.539 2.886-6.411 6.425-6.411h57.741c3.539 0 6.398 2.872 6.398 6.411 0 3.539-2.859 6.425-6.398 6.425zm0-32.084h-25.672c-3.539 0-6.425-2.872-6.425-6.411 0-3.539 2.886-6.425 6.425-6.425h25.672c3.539 0 6.398 2.886 6.398 6.425 0 3.538-2.859 6.411-6.398 6.411zm-51.344 0H192.148c-3.539 0-6.425-2.872-6.425-6.411 0-3.539 2.886-6.425 6.425-6.425h128.307c3.539 0 6.425 2.886 6.425 6.425 0 3.538-2.886 6.411-6.425 6.411zm-102.662 64.153h-76.989a6.392 6.392 0 0 1-6.397-6.411c0-3.539 2.858-6.411 6.397-6.411h76.989a6.408 6.408 0 0 1 6.425 6.411 6.399 6.399 0 0 1-6.425 6.411zm154.006 0H326.88c-3.539 0-6.425-2.858-6.425-6.411 0-3.539 2.886-6.411 6.425-6.411h44.919c3.539 0 6.398 2.872 6.398 6.411a6.394 6.394 0 0 1-6.398 6.411zm-70.591 0h-57.742c-3.539 0-6.425-2.858-6.425-6.411 0-3.539 2.886-6.411 6.425-6.411h57.742c3.539 0 6.425 2.872 6.425 6.411 0 3.552-2.886 6.411-6.425 6.411zm-64.167-32.069h-96.237c-3.539 0-6.397-2.886-6.397-6.425 0-3.539 2.858-6.411 6.397-6.411h96.237a6.408 6.408 0 0 1 6.425 6.411 6.42 6.42 0 0 1-6.425 6.425zm134.758-128.334H262.713c-3.539 0-6.425-2.859-6.425-6.412 0-3.539 2.886-6.411 6.425-6.411h109.086c3.539 0 6.398 2.872 6.398 6.411a6.394 6.394 0 0 1-6.398 6.412z"/></svg>