<svg xmlns="http://www.w3.org/2000/svg" width="512" height="512" viewBox="0 0 512 512"><path fill="#FFF" d="M491.232 256.432c0 130.2-105.559 235.75-235.742 235.75-130.2 0-235.758-105.55-235.758-235.75 0-130.192 105.558-235.75 235.758-235.75 130.184 0 235.742 105.558 235.742 235.75z"/><path fill="#FFF" d="M105.032 256.432c0-83.764 67.898-151.679 151.671-151.679 83.772 0 151.67 67.915 151.67 151.679 0 83.772-67.898 151.679-151.67 151.679-83.773-.001-151.671-67.907-151.671-151.679z"/><path fill="#E3E2EA" d="M257.566 411.315c-1.786 0-3.147-1.444-3.147-3.229-.083-.848.257-1.611.851-2.209a3.278 3.278 0 0 1 2.296-.938 176.367 176.367 0 0 0 16.58-1.013c1.867-.257 3.313 1.013 3.569 2.798v.341c0 1.619-1.187 2.98-2.806 3.146-.166 0-.258.092-.424.092-5.611.589-11.306.929-16.919 1.012zm-17.003-.846h-.253a191.476 191.476 0 0 1-17.174-2.807c-1.444-.341-2.553-1.702-2.466-3.146 0-.258 0-.424.083-.681.34-1.702 2.042-2.807 3.74-2.466 5.53 1.278 11.055 2.125 16.41 2.723 1.702.166 2.889 1.528 2.889 3.146v.341c-.17 1.61-1.615 2.89-3.229 2.89zm50.752-3.148c-1.527 0-2.806-1.021-3.146-2.466-.083-.257-.083-.506-.083-.764 0-1.444 1.021-2.723 2.466-3.063 5.446-1.271 10.802-2.806 15.899-4.674h.083c1.619-.599 3.487.34 4.002 1.959.166.341.249.764.249 1.104-.083 1.361-.93 2.549-2.126 2.972a165.252 165.252 0 0 1-16.663 4.849c-.249.083-.423.083-.681.083zm-83.826-4.167c-.336 0-.764-.083-1.017-.166-5.525-1.96-10.968-4.085-16.152-6.551-1.021-.59-1.79-1.694-1.79-2.89 0-.507.087-.93.34-1.361.768-1.611 2.636-2.292 4.251-1.528a155.89 155.89 0 0 0 15.389 6.294c1.274.423 2.125 1.61 2.125 2.889 0 .424 0 .765-.17 1.104-.423 1.279-1.614 2.209-2.976 2.209zm115.708-7.223c-1.188 0-2.291-.681-2.89-1.702-.166-.506-.257-.93-.257-1.444 0-1.188.681-2.383 1.793-2.89 5.015-2.466 9.946-5.188 14.446-8.078 1.445-.938 3.487-.507 4.426.938.34.506.506 1.021.506 1.61 0 1.195-.506 2.217-1.444 2.807-4.849 3.063-9.946 5.952-15.136 8.501-.422.175-.929.258-1.444.258zm-146.398-7.398a3.816 3.816 0 0 1-1.698-.424c-4.849-2.98-9.61-6.376-14.202-9.946a3.497 3.497 0 0 1-1.187-2.64c0-.682.253-1.354.681-1.868 1.104-1.362 3.143-1.611 4.504-.507 4.251 3.396 8.842 6.543 13.604 9.523.934.589 1.528 1.61 1.528 2.715-.083.598-.17 1.195-.507 1.702-.598.938-1.619 1.445-2.723 1.445zM351.85 377.74c-1.021 0-1.868-.432-2.466-1.196a3.04 3.04 0 0 1-.764-2.042c0-.93.423-1.868 1.187-2.458a126.653 126.653 0 0 0 12.329-11.059v-.083c1.279-1.188 3.321-1.188 4.592 0 .598.598.938 1.361.938 2.208 0 .938-.341 1.702-.938 2.3a165.007 165.007 0 0 1-12.919 11.648c-.515.424-1.279.682-1.959.682zm-201.661-10.204a3.608 3.608 0 0 1-2.296-.855 166.862 166.862 0 0 1-11.648-12.919c-.423-.515-.681-1.278-.681-1.959 0-1.013.428-1.868 1.191-2.466 1.274-1.104 3.4-.847 4.508.432 3.4 4.334 7.223 8.41 11.134 12.321.598.598.938 1.453.938 2.3s-.34 1.61-.938 2.208c-.593.597-1.356.938-2.208.938zm225.555-13.857c-.764 0-1.444-.257-2.043-.681-.681-.598-1.187-1.536-1.187-2.466 0-.764.249-1.444.672-2.042 3.487-4.334 6.634-8.926 9.614-13.6.848-1.444 2.89-1.96 4.417-1.021.938.59 1.445 1.611 1.445 2.715 0 .598-.166 1.195-.424 1.702-3.146 4.932-6.459 9.697-10.029 14.197-.597.681-1.535 1.196-2.465 1.196zm-246.896-12.503c-1.104 0-2.125-.507-2.719-1.445-3.147-4.84-5.949-9.946-8.502-15.127-.253-.432-.34-.855-.34-1.361 0-1.195.681-2.383 1.785-2.89 1.532-.771 3.487-.091 4.251 1.445 2.466 4.932 5.189 9.863 8.162 14.446.34.598.511 1.195.511 1.876 0 1.021-.594 2.043-1.445 2.549a3.063 3.063 0 0 1-1.703.507zm264.83-16.323c-.507 0-.93-.083-1.362-.34a3.183 3.183 0 0 1-1.867-2.89c0-.424.174-.93.34-1.361a166.208 166.208 0 0 0 6.293-15.385c.599-1.619 2.383-2.549 4.077-1.959a3.122 3.122 0 0 1 2.125 2.98c0 .34-.083.764-.166 1.104a161.421 161.421 0 0 1-6.459 15.726c0 .091 0 .091-.092.174l-.083.083v.083a3.077 3.077 0 0 1-2.806 1.785zm-279.791-14.115c-1.362 0-2.549-.847-3.06-2.125a153.29 153.29 0 0 1-4.849-16.572c-.083-.34-.083-.598-.083-.855 0-1.444 1.021-2.715 2.466-3.055 1.698-.341 3.4.681 3.823 2.374 1.279 5.447 2.806 10.802 4.679 15.982.17.341.17.681.17 1.113a3.117 3.117 0 0 1-2.125 2.972c-.341.083-.681.166-1.021.166zm290.849-17.933c-.257 0-.515-.083-.681-.083-1.536-.34-2.558-1.702-2.558-3.237 0-.166.092-.332.092-.59 1.271-5.446 2.125-10.968 2.715-16.414.175-1.785 1.785-2.973 3.487-2.89 1.702.258 2.889 1.619 2.889 3.23v.34c-.681 5.787-1.61 11.565-2.806 17.095-.34 1.528-1.61 2.549-3.138 2.549zm-298.671-15.052c-1.615 0-2.976-1.271-3.146-2.89-.681-5.778-1.021-11.557-1.104-17.257 0-.17.083-.424.083-.594s-.083-.34-.083-.598c0-1.698 1.444-3.143 3.229-3.143 1.702 0 3.146 1.445 3.146 3.143v1.109c.083 5.608.423 11.221 1.104 16.659v.34c0 1.619-1.191 2.981-2.806 3.147-.169.084-.252.084-.423.084zm302.325-18.702a3.227 3.227 0 0 1-3.229-3.229c0-5.525-.341-11.05-.938-16.58v-.34c-.083-1.615 1.104-2.972 2.807-3.143 1.701-.257 3.313 1.017 3.486 2.802a146.78 146.78 0 0 1 1.021 17.261c-.001 1.784-1.445 3.229-3.147 3.229zm-302.411-16.405h-.34a3.235 3.235 0 0 1-2.89-3.234c0-.083 0-.17.087-.253l.34-.087-.34-.083c.594-5.696 1.615-11.391 2.802-17.004.427-1.702 2.125-2.806 3.827-2.383a3.252 3.252 0 0 1 2.549 3.147c0 .257-.083.427-.083.681a132.156 132.156 0 0 0-2.806 16.41c-.17 1.614-1.532 2.806-3.146 2.806zm298.5-17.345c-1.536 0-2.807-.938-3.147-2.383-1.187-5.442-2.806-10.797-4.591-15.982-.175-.34-.175-.764-.175-1.104a3.12 3.12 0 0 1 2.126-2.977c1.619-.594 3.487.34 4.002 1.955 1.951 5.442 3.652 11.051 4.84 16.664.092.17.092.423.092.764 0 1.445-1.021 2.723-2.466 3.063h-.681zm-291.016-15.729c-.341 0-.681-.087-1.021-.17a3.118 3.118 0 0 1-2.125-2.976c0-.341 0-.764.17-1.104 0-.087 0-.087.083-.17 1.785-5.355 3.998-10.627 6.546-15.813.768-1.619 2.636-2.295 4.251-1.532 1.104.511 1.785 1.615 1.785 2.889 0 .428-.083.938-.253 1.362-2.466 5.102-4.591 10.204-6.376 15.389-.511 1.274-1.702 2.125-3.06 2.125zm279.708-16.239c-1.188 0-2.3-.681-2.89-1.785-2.466-5.015-5.188-9.946-8.078-14.538-.34-.423-.515-1.021-.515-1.615 0-1.104.598-2.125 1.536-2.723 1.444-.934 3.487-.507 4.334.938 3.063 4.845 5.953 9.946 8.502 15.131.174.511.257.934.257 1.445 0 1.191-.681 2.295-1.785 2.893a3.514 3.514 0 0 1-1.361.254zm-265-14.368c-.598 0-1.191-.17-1.702-.51-.934-.511-1.445-1.615-1.445-2.719 0-.598.17-1.104.511-1.615 3.06-4.932 6.376-9.693 10.029-14.202 1.021-1.274 3.146-1.528 4.508-.506.681.677 1.104 1.528 1.191 2.466 0 .764-.257 1.445-.681 2.038-.087.087-.17.17-.257.253-3.313 4.251-6.547 8.759-9.436 13.351-.593.934-1.614 1.444-2.718 1.444zm246.809-14.284c-.938 0-1.877-.424-2.466-1.188a138.253 138.253 0 0 0-11.143-12.329 3.273 3.273 0 0 1-.938-2.296c0-.851.34-1.615.938-2.208 1.188-1.191 3.313-1.278 4.509 0a149.296 149.296 0 0 1 11.648 12.836c.423.594.681 1.274.681 2.042a3.16 3.16 0 0 1-1.195 2.466c-.589.423-1.27.677-2.034.677zm-225.642-12.243c-.851 0-1.615-.34-2.208-.934a3.08 3.08 0 0 1-.938-2.212c0-.847.34-1.698.938-2.292 4.081-4.085 8.502-7.996 12.923-11.565 1.274-1.104 3.4-.851 4.421.51.507.594.764 1.274.764 2.042-.087.934-.511 1.868-1.191 2.466a141.322 141.322 0 0 0-12.413 11.051 3.285 3.285 0 0 1-2.296.934zM350.92 140.79c-.682 0-1.362-.253-1.96-.677l-.166-.17c-4.251-3.404-8.759-6.547-13.434-9.44-.938-.593-1.536-1.615-1.444-2.802 0-.511.166-1.108.423-1.619.931-1.445 2.973-1.955 4.417-1.017 4.766 2.972 9.44 6.289 14.031 9.859.083.087.083.087.166.17.682.598 1.196 1.445 1.196 2.466 0 .681-.258 1.444-.681 2.042-.598.765-1.535 1.188-2.548 1.188zm-175.055-9.519c-1.104 0-2.125-.598-2.719-1.532-.34-.423-.511-1.021-.511-1.615 0-1.104.594-2.125 1.528-2.719 4.849-3.063 9.946-5.953 15.135-8.418 1.528-.764 3.57-.083 4.251 1.444.253.428.34.938.34 1.362 0 1.274-.681 2.378-1.785 2.889-4.849 2.296-9.693 5.019-14.538 8.079-.51.34-1.108.51-1.701.51zm146.311-8.501c-.506 0-.93-.087-1.353-.34-4.932-2.296-10.121-4.508-15.394-6.293a3.12 3.12 0 0 1-2.125-2.977c0-.336 0-.764.174-1.104.59-1.615 2.375-2.549 4.077-1.956a151.463 151.463 0 0 1 15.982 6.634c1.104.511 1.785 1.615 1.876 2.802 0 .51-.174 1.021-.34 1.449-.514 1.103-1.701 1.785-2.897 1.785zm-115.791-6.294a3.122 3.122 0 0 1-2.976-2.125 2.354 2.354 0 0 1-.253-1.104c.083-1.362.934-2.549 2.208-2.977 5.442-1.868 11.055-3.57 16.667-4.762 1.615-.423 3.4.681 3.74 2.383.083.17.083.34.083.594.087 1.532-.934 2.889-2.466 3.229a147.138 147.138 0 0 0-15.982 4.591c-.34.088-.68.171-1.021.171zm83.743-4.845c-.257 0-.506 0-.681-.087-5.438-1.188-10.968-2.125-16.405-2.719-1.619-.17-2.89-1.532-2.89-3.146 0-.17 0-.253.083-.34.166-1.785 1.702-3.143 3.487-2.807 5.778.598 11.557 1.532 17.087 2.807 1.444.34 2.549 1.615 2.549 3.146 0 .17-.083.423-.083.681-.34 1.444-1.619 2.465-3.147 2.465zm-50.67-2.723c-1.615 0-2.977-1.187-3.146-2.802 0-.17-.083-.258-.083-.341a3.235 3.235 0 0 1 2.889-3.234c5.696-.593 11.478-.934 17.257-.934 1.79 0 3.234 1.361 3.234 3.146 0 1.702-1.444 3.146-3.234 3.229-5.355 0-10.963.257-16.576.934-.088.002-.258.002-.341.002z"/><path fill="#8AD7F8" d="M146.212 80.302v267.914c26.352 31.691 66.046 51.874 110.482 51.874 49.856 0 93.752-25.405 119.515-63.962V80.302H146.212z"/><g fill="#19335E"><path d="M297.244 231.765l-5.638-.955a31.348 31.348 0 0 0-2.259-5.463l3.321-4.649a4.945 4.945 0 0 0-.54-6.393l-4.998-4.998a4.933 4.933 0 0 0-6.376-.539l-4.658 3.321a31.171 31.171 0 0 0-5.67-2.325l-.938-5.571a4.958 4.958 0 0 0-4.898-4.143h-7.065a4.957 4.957 0 0 0-4.898 4.143l-.972 5.704a30.43 30.43 0 0 0-5.446 2.3l-4.616-3.321a4.906 4.906 0 0 0-2.889-.922c-1.32 0-2.582.515-3.504 1.453l-5.015 4.998a4.977 4.977 0 0 0-.54 6.393l3.362 4.716a30.13 30.13 0 0 0-2.233 5.479l-5.571.947a4.95 4.95 0 0 0-4.143 4.89v7.065a4.957 4.957 0 0 0 4.143 4.898l5.704.971a31.397 31.397 0 0 0 2.299 5.455l-3.304 4.591a4.947 4.947 0 0 0 .531 6.394l4.998 4.998a4.954 4.954 0 0 0 3.512 1.461 4.841 4.841 0 0 0 2.864-.922l4.716-3.354a31.389 31.389 0 0 0 5.297 2.175l.938 5.638a4.958 4.958 0 0 0 4.898 4.143h7.082a4.957 4.957 0 0 0 4.898-4.143l.955-5.638a31.76 31.76 0 0 0 5.471-2.258l4.642 3.32a4.986 4.986 0 0 0 2.89.922 4.933 4.933 0 0 0 3.503-1.461l4.998-4.998a4.978 4.978 0 0 0 .54-6.394l-3.321-4.666c.922-1.76 1.694-3.586 2.259-5.463l5.638-.938a4.958 4.958 0 0 0 4.143-4.898v-7.065c.033-2.432-1.71-4.491-4.11-4.898zm-.383 11.964a.43.43 0 0 1-.373.432l-7.041 1.179a2.247 2.247 0 0 0-1.81 1.661 26.689 26.689 0 0 1-2.923 7.024 2.288 2.288 0 0 0 .1 2.466l4.144 5.836c.116.175.1.424-.05.573l-4.998 4.998a.422.422 0 0 1-.315.133.388.388 0 0 1-.249-.083l-5.829-4.143a2.239 2.239 0 0 0-2.457-.1 26.85 26.85 0 0 1-7.032 2.922 2.221 2.221 0 0 0-1.661 1.811l-1.195 7.04a.43.43 0 0 1-.432.374h-7.065a.43.43 0 0 1-.432-.374l-1.179-7.04a2.234 2.234 0 0 0-1.66-1.811 27.959 27.959 0 0 1-6.875-2.822 2.335 2.335 0 0 0-1.138-.299 2.24 2.24 0 0 0-1.312.415l-5.87 4.176a.492.492 0 0 1-.249.083.463.463 0 0 1-.324-.133l-4.998-4.998a.45.45 0 0 1-.05-.564l4.126-5.795c.523-.73.557-1.71.1-2.474a26.626 26.626 0 0 1-2.948-7.016 2.303 2.303 0 0 0-1.818-1.661l-7.09-1.204a.446.446 0 0 1-.374-.44v-7.065c0-.216.158-.399.374-.432l6.991-1.179a2.27 2.27 0 0 0 1.835-1.677 26.799 26.799 0 0 1 2.864-7.041 2.226 2.226 0 0 0-.116-2.449l-4.176-5.87a.464.464 0 0 1 .05-.573l4.998-4.998a.422.422 0 0 1 .315-.133c.108 0 .191.033.257.083l5.787 4.126c.739.523 1.71.556 2.483.1a26.148 26.148 0 0 1 7.007-2.947 2.313 2.313 0 0 0 1.66-1.818l1.212-7.09a.438.438 0 0 1 .432-.374h7.065c.216 0 .398.158.432.374l1.179 6.991a2.263 2.263 0 0 0 1.678 1.827 27.303 27.303 0 0 1 7.189 2.956 2.254 2.254 0 0 0 2.466-.1l5.796-4.16a.492.492 0 0 1 .249-.083c.066 0 .199.017.315.133l4.998 4.998c.149.149.166.382.05.573l-4.144 5.82a2.286 2.286 0 0 0-.1 2.466 26.689 26.689 0 0 1 2.923 7.024 2.221 2.221 0 0 0 1.81 1.661l7.041 1.195a.43.43 0 0 1 .373.432v7.065h-.016z"/><path d="M261.219 222.865c-9.564 0-17.327 7.763-17.327 17.319 0 9.564 7.763 17.336 17.327 17.336 9.557 0 17.328-7.771 17.328-17.336 0-9.557-7.772-17.319-17.328-17.319zm0 30.121c-7.065 0-12.802-5.737-12.802-12.803 0-7.057 5.737-12.794 12.802-12.794 7.058 0 12.795 5.737 12.795 12.794 0 7.066-5.738 12.803-12.795 12.803z"/></g><path fill="#FFF" d="M175.645 109.992h171.157v7.124H175.645zm0 25.422h171.157v7.124H175.645zm0 28.253h171.157v7.124H175.645zm0 140.496h171.157v7.123H175.645zm0 25.422h171.157v7.124H175.645zm0 28.254h171.157v7.123H175.645z"/><path fill="#E7E7E7" d="M261.717 27.241h56.906v5.978h-56.906zm136.527 86.894h56.889v5.97h-56.889zM-.526 289.302H56.38v5.978H-.526zm455.111 39.296h56.889v5.969h-56.889zM19.4 165.511h56.889v5.97H19.4zm50.263-81.29h24.393v2.557H69.663zm205.155-26.195h24.385v2.565h-24.385zm201.154 232.986h24.394v2.557h-24.394zm-24.376-112.931h24.376v2.558h-24.376zM15.73 320.701h24.393v2.558H15.73zM380.809 57.313h16.256v1.992h-16.256z"/><path fill="#E7E7E7" d="M387.949 50.172h1.992v16.256h-1.992zM36.586 251.475h16.256v1.984H36.586z"/><path fill="#E7E7E7" d="M43.709 244.335h2.001v16.256h-2.001zm407.887-1.486h24.376v2.981h-24.376z"/><path fill="#E7E7E7" d="M462.289 232.147h2.989v24.384h-2.989zM176.948 43.63h24.376v2.98h-24.376z"/><path fill="#E7E7E7" d="M187.642 32.928h2.989v24.385h-2.989z"/><path fill="#E3ECF8" d="M60.348 109.992c0 5.588-4.533 10.113-10.112 10.113a10.11 10.11 0 0 1-10.112-10.113A10.11 10.11 0 0 1 50.236 99.88c5.578-.001 10.112 4.524 10.112 10.112z"/><path fill="#E6E7E8" d="M433.04 87.716c-4.085 0-7.414-3.325-7.414-7.415 0-4.089 3.329-7.414 7.414-7.414s7.414 3.325 7.414 7.414c0 4.09-3.329 7.415-7.414 7.415zm0-12.703a5.298 5.298 0 0 0-5.289 5.289c0 2.915 2.375 5.289 5.289 5.289s5.288-2.375 5.288-5.289a5.297 5.297 0 0 0-5.288-5.289z"/><path fill="#E3ECF8" d="M131.916 66.428a6.353 6.353 0 0 1-6.352 6.36 6.353 6.353 0 0 1-6.351-6.36 6.344 6.344 0 0 1 6.351-6.343 6.345 6.345 0 0 1 6.352 6.343z"/><path fill="#E6E7E8" d="M439.392 311.037c-4.094 0-7.423-3.329-7.423-7.414s3.329-7.414 7.423-7.414c4.084 0 7.414 3.329 7.414 7.414s-3.33 7.414-7.414 7.414zm0-12.702c-2.923 0-5.298 2.374-5.298 5.288s2.375 5.289 5.298 5.289c2.914 0 5.288-2.375 5.288-5.289s-2.374-5.288-5.288-5.288z"/><path fill="#E3ECF8" d="M350.28 60.077c0 3.512-2.848 6.359-6.352 6.359s-6.359-2.848-6.359-6.359c0-3.504 2.855-6.343 6.359-6.343s6.352 2.839 6.352 6.343z"/><path fill="#E6E7E8" d="M60.348 211.474c-4.093 0-7.422-3.33-7.422-7.422 0-4.089 3.329-7.415 7.422-7.415 4.085 0 7.406 3.325 7.406 7.415-.001 4.092-3.321 7.422-7.406 7.422zm0-12.712c-2.922 0-5.297 2.375-5.297 5.289a5.301 5.301 0 0 0 5.297 5.297c2.91 0 5.281-2.375 5.281-5.297-.001-2.914-2.371-5.289-5.281-5.289z"/><path fill="#E3ECF8" d="M58.206 364.971c0-9.481 7.672-17.153 17.153-17.153 9.465 0 17.136 7.672 17.136 17.153 0 9.465-7.671 17.137-17.136 17.137-9.482-.001-17.153-7.672-17.153-17.137zm394.843-177.849c0-8.003 6.501-14.496 14.505-14.496 8.003 0 14.496 6.493 14.496 14.496 0 8.004-6.493 14.488-14.496 14.488-8.004 0-14.505-6.484-14.505-14.488zm-23.006 177.849c0-5.181 4.184-9.365 9.349-9.365 5.164 0 9.349 4.185 9.349 9.365a9.348 9.348 0 0 1-9.349 9.349 9.348 9.348 0 0 1-9.349-9.349z"/></svg>