<svg xmlns="http://www.w3.org/2000/svg" width="512" height="512" viewBox="0 0 512 512"><path fill="#F47847" d="M245.278 23.01c135.286 0 244.929 109.643 244.929 244.928 0 135.286-109.644 244.929-244.929 244.929S.35 403.225.35 267.938C.35 132.653 109.992 23.01 245.278 23.01z"/><path fill="#FFF" d="M245.278 84.225c101.464 0 183.714 82.25 183.714 183.714 0 101.465-82.25 183.679-183.714 183.679S61.582 369.403 61.582 267.938c0-101.463 82.231-183.713 183.696-183.713z"/><path fill="#476288" d="M245.278 145.475c67.643 0 122.464 54.821 122.464 122.464 0 67.625-54.821 122.465-122.464 122.465s-122.464-54.84-122.464-122.465c-.001-67.643 54.821-122.464 122.464-122.464z"/><path fill="#FFF" d="M245.278 206.688c33.822 0 61.25 27.429 61.25 61.25s-27.429 61.215-61.25 61.215-61.232-27.394-61.232-61.215 27.411-61.25 61.232-61.25z"/><path fill="#C3B8B9" d="M481.01 70.51l-4.964-33.357-33.339-4.965-21.286 21.287 4.964 33.338 33.357 4.965z"/><path fill="#463937" d="M224.6 281.51a5.033 5.033 0 0 0 0 7.09 5.056 5.056 0 0 0 7.107 0l31.25-18.411 4.214-24.161-24.143 4.214L224.6 281.51z"/><path fill="#F79D89" d="M269.313 205.582l-26.285 44.66 19.929 19.946 44.66-26.285-4.964-33.34z"/><path fill="#19335E" d="M504.421 47.082c10.571-10.554 10.571-27.75 0-38.321-10.554-10.536-27.75-10.536-38.304 0l-23.41 23.428L481.01 70.51l23.411-23.428z"/><path fill="#FFD24E" d="M459.725 91.778L307.617 243.903l-38.304-38.321L421.421 53.475z"/></svg>