<svg xmlns="http://www.w3.org/2000/svg" width="512" height="512" viewBox="0 0 512 512"><path fill="#FFF" d="M476.021 256.67c0 130.2-105.55 235.758-235.742 235.758-130.2 0-235.75-105.559-235.75-235.758 0-130.192 105.55-235.742 235.75-235.742 107.527.001 235.742 105.542 235.742 235.742z"/><path fill="#F15A29" d="M243.892 421.658c-88.318 0-160.172-71.858-160.172-160.188 0-88.318 71.854-160.173 160.172-160.173 88.33 0 160.188 71.854 160.188 160.173 0 88.33-71.858 160.188-160.188 160.188zm0-303.357c-78.944 0-143.169 64.224-143.169 143.169 0 78.948 64.225 143.185 143.169 143.185 78.948 0 143.186-64.236 143.186-143.185-.001-78.945-64.238-143.169-143.186-143.169z"/><path fill="#E7E7E7" d="M261.966 27.803h56.906v5.978h-56.906zm136.527 86.894h56.889v5.961h-56.889zM-.277 289.864h56.905v5.978H-.277zm455.111 39.287h56.889v5.978h-56.889zM19.649 166.073h56.889v5.961H19.649zm50.263-81.298h24.393v2.557H69.912zm205.155-26.186h24.385v2.557h-24.385zm201.154 232.985h24.394v2.558h-24.394zm-24.376-112.931h24.376v2.558h-24.376zM15.979 321.264h24.393v2.558H15.979zM381.058 57.875h16.256v1.992h-16.256z"/><path fill="#E7E7E7" d="M388.197 50.735h1.993v16.256h-1.993zM36.835 252.038h16.256v1.976H36.835z"/><path fill="#E7E7E7" d="M43.958 244.897h2.001v16.256h-2.001zm407.887-1.494h24.376v2.989h-24.376z"/><path fill="#E7E7E7" d="M462.538 232.709h2.989v24.376h-2.989zM177.197 44.192h24.376v2.972h-24.376z"/><path fill="#E7E7E7" d="M187.891 33.482h2.989v24.393h-2.989z"/><path fill="#E3ECF8" d="M60.597 110.546c0 5.596-4.533 10.113-10.112 10.113a10.104 10.104 0 0 1-10.113-10.113c0-5.579 4.525-10.112 10.113-10.112 5.578 0 10.112 4.533 10.112 10.112z"/><path fill="#E6E7E8" d="M433.289 88.279c-4.085 0-7.414-3.33-7.414-7.423 0-4.084 3.329-7.406 7.414-7.406 4.084 0 7.414 3.321 7.414 7.406 0 4.093-3.33 7.423-7.414 7.423zm0-12.703c-2.914 0-5.289 2.371-5.289 5.28 0 2.923 2.375 5.297 5.289 5.297s5.288-2.375 5.288-5.297c0-2.91-2.374-5.28-5.288-5.28z"/><path fill="#E3ECF8" d="M132.165 66.991c0 3.504-2.839 6.36-6.352 6.36-3.512 0-6.352-2.856-6.352-6.36a6.345 6.345 0 0 1 6.352-6.343 6.344 6.344 0 0 1 6.352 6.343z"/><path fill="#E6E7E8" d="M439.641 311.6c-4.094 0-7.423-3.329-7.423-7.422 0-4.085 3.329-7.406 7.423-7.406 4.084 0 7.414 3.321 7.414 7.406 0 4.093-3.33 7.422-7.414 7.422zm0-12.703c-2.923 0-5.298 2.366-5.298 5.28a5.302 5.302 0 0 0 5.298 5.297c2.914 0 5.288-2.375 5.288-5.297 0-2.913-2.374-5.28-5.288-5.28z"/><path fill="#E3ECF8" d="M350.529 60.631c0 3.52-2.848 6.359-6.352 6.359s-6.359-2.839-6.359-6.359c0-3.504 2.855-6.343 6.359-6.343s6.352 2.839 6.352 6.343z"/><path fill="#E6E7E8" d="M60.597 212.036c-4.093 0-7.422-3.33-7.422-7.422 0-4.093 3.329-7.423 7.422-7.423 4.085 0 7.406 3.33 7.406 7.423-.001 4.093-3.321 7.422-7.406 7.422zm0-12.72a5.301 5.301 0 0 0-5.297 5.297 5.301 5.301 0 0 0 5.297 5.297c2.91 0 5.28-2.375 5.28-5.297 0-2.922-2.37-5.297-5.28-5.297z"/><path fill="#E3ECF8" d="M58.455 365.533c0-9.481 7.672-17.153 17.153-17.153 9.465 0 17.136 7.672 17.136 17.153 0 9.465-7.671 17.137-17.136 17.137-9.482 0-17.153-7.672-17.153-17.137zm394.843-177.857c0-8.003 6.501-14.496 14.505-14.496 8.003 0 14.496 6.493 14.496 14.496 0 8.004-6.493 14.497-14.496 14.497-8.004 0-14.505-6.493-14.505-14.497zm-23.007 177.857c0-5.181 4.185-9.365 9.35-9.365 5.164 0 9.348 4.185 9.348 9.365a9.347 9.347 0 0 1-9.348 9.349 9.348 9.348 0 0 1-9.35-9.349z"/><path fill="#FFF" d="M298.34 92.098l-11.74 60.674 45.132 51.526 13.6 19.926h54.107l26.527-3.246 5.894-90.738-5.894-38.142z"/><path fill="#F7941E" d="M325.796 273.084l-21.146-44.609h-28.61v-8.502h33.99l15.949 33.654L342.7 220.04h70.563c-.183-.033 12.279-2.354 13.608-14.064.913-8.053.614-42.38.373-69.965-.1-11.752-.199-22.674-.199-30.678 0-7.165-10.976-8.946-11.092-8.967l-148.283.05v-8.502h148.923c6.966.984 18.954 5.82 18.954 17.419 0 7.987.092 18.88.199 30.603.258 29.262.548 62.431-.423 70.999-1.652 14.517-14.696 20.445-21.363 21.549l-65.996.054-22.168 44.546z"/><path d="M395.579 158.161c0 3.611-2.932 6.534-6.543 6.534h-89.145a6.53 6.53 0 0 1-6.533-6.534 6.536 6.536 0 0 1 6.533-6.542h89.145a6.545 6.545 0 0 1 6.543 6.542zm0-28.162c0 3.611-2.932 6.534-6.543 6.534h-89.145a6.53 6.53 0 0 1-6.533-6.534 6.536 6.536 0 0 1 6.533-6.542h89.145a6.545 6.545 0 0 1 6.543 6.542zm0 56.316a6.54 6.54 0 0 1-6.543 6.542h-89.145a6.532 6.532 0 0 1-6.533-6.542 6.536 6.536 0 0 1 6.533-6.542h89.145a6.544 6.544 0 0 1 6.543 6.542z" fill="#FBB040"/><path fill="#F3BA85" d="M210.042 263.354l33.368 18.83V241.46h-33.368z"/><path fill="#FDD29D" d="M243.41 261.818s-39.105-15.609-42.758-35.452l-3.645-19.852s-12.521-7.298-12.521-23.986 5.737-11.474 5.737-11.474l16.688-49.541 36.498 5.214v135.091z"/><path fill="#D6D6D8" d="M210.042 263.354l33.368 128.814V282.184z"/><path fill="#EAF3F2" d="M218.287 295.186l25.123-13.002-33.368-18.83z"/><path fill="#EF4136" d="M254.568 288.187l-11.158-6.003v108.671l12.13-39.884-7.821-52.414z"/><path fill="#BE1E2D" d="M232.268 288.187l11.142-6.003v108.671l-12.122-39.884 7.821-52.414z"/><path fill="#375675" d="M210.233 261.818l-32.064 17.452 21.122 19.677-12.521 20.341 56.64 68.048z"/><path fill="#F3C094" d="M276.795 263.354l-33.385 18.83V241.46h33.385z"/><path fill="#FED9A0" d="M243.41 261.818s39.121-15.609 42.767-35.452l3.645-19.852s12.521-7.298 12.521-23.986-5.729-11.474-5.729-11.474l-16.688-49.541-36.515 5.214v135.091z"/><path fill="#D6D6D8" d="M276.795 263.354L243.41 392.168V282.184z"/><path fill="#EAF3F2" d="M268.542 295.186l-25.132-13.002 33.385-18.83z"/><path fill="#BE1E2D" d="M254.568 288.187l-11.158-6.003v108.671l12.13-39.884-7.821-52.414z"/><path fill="#375675" d="M276.595 261.818l32.073 17.452-21.122 19.677 12.52 20.341-56.656 68.048z"/><path d="M243.41 151.494s-16.032-2.731-24.634-10.943l-8.61-8.219-7.422 35.203 2.341 17.203-2.341 3.138-4.301-8.219s-10.693-9.382-13.957-16.422c-3.254-7.041-8.734-38.956 6.127-55.071 14.87-16.115 25.298-22.143 36.116-24.019 10.818-1.876 20.598-1.279 20.598-1.279s9-6.11 19.943-1.594c10.959 4.517 36.382 32.679 36.382 32.679s4.683 17.991 3.902 29.723c-.781 11.74-4.691 27.772-8.212 31.683-3.52 3.919-3.52 12.52-3.52 12.52s-10.553-33.642-9.772-41.462c.78-7.821-6.65-9.382-6.65-9.382l-8.609-.399 8.22 11.341s-32.463-10.478-35.602-14.23c-3.122-3.752 12.13 18.149 12.13 18.149l-12.129-.4z"/><path fill="#375675" d="M368.214 332.854l-9.033-32.347-82.386-37.154-33.385 123.983v17.186c.232 0 .465.033.697.033 53.062 0 99.282-28.876 124.107-71.701z"/><path fill="#375675" d="M210.042 263.354l-82.394 37.154-6.202 34.721c25.032 41.313 70.189 69.044 121.964 69.293v-17.186l-33.368-123.982z"/></svg>