<svg xmlns="http://www.w3.org/2000/svg" width="512" height="512" viewBox="0 0 512 512"><path fill="#8AD4F6" d="M245.244 23.015c135.266 0 244.942 109.641 244.942 244.924 0 135.283-109.677 244.924-244.942 244.924S.302 403.223.302 267.939c0-135.283 109.677-244.924 244.942-244.924z"/><path fill="#FFF" d="M245.244 84.228c101.444 0 183.693 82.249 183.693 183.711 0 101.462-82.249 183.675-183.693 183.675-101.445 0-183.693-82.213-183.693-183.675 0-101.462 82.248-183.711 183.693-183.711z"/><path fill="#476288" d="M245.244 145.477c67.624 0 122.462 54.82 122.462 122.462 0 67.624-54.838 122.462-122.462 122.462s-122.48-54.838-122.48-122.462c0-67.642 54.856-122.462 122.48-122.462z"/><path fill="#FFF" d="M245.244 206.69c33.821 0 61.231 27.428 61.231 61.249 0 33.82-27.41 61.213-61.231 61.213s-61.231-27.393-61.231-61.213c0-33.821 27.41-61.249 61.231-61.249z"/><path fill="#C3B8B9" d="M480.973 70.514l-4.965-33.356-33.339-4.965-21.285 21.286 4.982 33.338 33.321 4.965z"/><path fill="#463937" d="M224.584 281.511a5.001 5.001 0 0 0 0 7.089 5.034 5.034 0 0 0 7.089 0l31.268-18.41 4.196-24.161-24.16 4.214-18.393 31.268z"/><path fill="#F79D89" d="M269.262 205.583l-26.285 44.66 19.963 19.946 44.642-26.285-4.964-33.339z"/><path fill="#19335E" d="M504.4 47.086c10.535-10.553 10.535-27.75 0-38.321-10.571-10.536-27.768-10.536-38.32 0l-23.429 23.428 38.321 38.321L504.4 47.086z"/><path fill="#FFD24E" d="M459.687 91.782L307.582 243.904l-38.32-38.321L421.384 53.479z"/></svg>