<svg xmlns="http://www.w3.org/2000/svg" width="512" height="512" viewBox="0 0 512 512"><path fill="#FFF" d="M483.034 256.67c0 130.2-105.541 235.758-235.742 235.758-130.2 0-235.742-105.559-235.742-235.758 0-130.192 105.542-235.742 235.742-235.742 130.201.001 235.742 105.551 235.742 235.742z"/><path fill="#F15A29" d="M248.505 416.859c-88.318 0-160.172-71.858-160.172-160.189 0-88.318 71.854-160.172 160.172-160.172 88.33 0 160.188 71.854 160.188 160.172 0 88.331-71.858 160.189-160.188 160.189zm0-303.358c-78.945 0-143.169 64.225-143.169 143.169 0 78.949 64.224 143.185 143.169 143.185 78.948 0 143.186-64.236 143.186-143.185-.001-78.944-64.238-143.169-143.186-143.169z"/><path fill="none" d="M392.056 256.67c0 79.347-64.312 143.667-143.65 143.667S104.747 336.018 104.747 256.67c0-79.339 64.32-143.65 143.659-143.65s143.65 64.312 143.65 143.65z"/><path fill="none" d="M392.056 256.67c0 79.347-64.312 143.667-143.65 143.667S104.747 336.018 104.747 256.67c0-79.339 64.32-143.65 143.659-143.65s143.65 64.312 143.65 143.65z"/><path fill="none" d="M364.143 204.298v137.216c17.468-23.786 27.913-53.062 27.913-84.843 0-79.339-64.312-143.65-143.65-143.65s-143.659 64.312-143.659 143.65c0 79.347 64.32 143.667 143.659 143.667 18.83 0 36.78-3.735 53.269-10.328V204.298h62.468z"/><path fill="#FBB040" d="M364.143 341.514v-109.12h-62.469v157.615c25.124-10.046 46.685-26.991 62.469-48.495z"/><path fill="none" d="M392.056 256.67c0-79.339-64.312-143.65-143.65-143.65s-143.659 64.312-143.659 143.65c0 68.645 48.171 125.95 112.524 140.18V221.899h62.485V396.8c64.244-14.314 112.3-71.568 112.3-140.13z"/><path fill="#EF4136" d="M217.271 251.722V396.85c10.038 2.225 20.424 3.486 31.135 3.486 10.776 0 21.237-1.286 31.351-3.536V251.722h-62.486z"/><path fill="none" d="M248.405 113.02c-79.339 0-143.659 64.312-143.659 143.65 0 31.998 10.585 61.456 28.278 85.333v-60.592h62.477V390.15c16.389 6.501 34.198 10.187 52.904 10.187 79.339 0 143.65-64.319 143.65-143.667.001-79.338-64.311-143.65-143.65-143.65z"/><path fill="#375675" d="M133.025 297.519v44.485c15.833 21.37 37.386 38.191 62.477 48.146v-92.632h-62.477z"/><path fill="#BCBEC0" d="M133.029 274.321a4.252 4.252 0 0 1-2.263-7.853l85.13-53.415 84.44-6.563 48.354-29.241c2.001-1.196 4.624-.573 5.837 1.436a4.252 4.252 0 0 1-1.437 5.837l-50.081 30.288-84.366 6.555-83.361 52.31c-.7.439-1.481.646-2.253.646z"/><path fill="#E7E7E7" d="M262.66 37.932h56.906v5.978H262.66zm136.528 86.894h56.889v5.97h-56.889zM.417 299.993h56.905v5.978H.417zm455.111 39.296h56.889v5.97h-56.889zM20.343 176.202h56.889v5.97H20.343zm50.263-81.29h24.393v2.558H70.606zm205.156-26.194h24.385v2.565h-24.385zm201.153 232.985h24.394v2.558h-24.394zm-24.376-112.931h24.376v2.557h-24.376zM16.673 331.394h24.393v2.557H16.673zm365.079-263.39h16.256v1.993h-16.256z"/><path fill="#E7E7E7" d="M388.892 60.864h1.993V77.12h-1.993zM37.529 262.167h16.256v1.984H37.529z"/><path fill="#E7E7E7" d="M44.653 255.026h2.001v16.257h-2.001zm407.886-1.485h24.376v2.98h-24.376z"/><path fill="#E7E7E7" d="M463.232 242.838h2.989v24.384h-2.989zM177.892 54.321h24.376v2.98h-24.376z"/><path fill="#E7E7E7" d="M188.585 43.619h2.989v24.385h-2.989z"/><path fill="#E3ECF8" d="M61.291 120.684c0 5.587-4.533 10.112-10.112 10.112a10.108 10.108 0 0 1-10.112-10.112 10.109 10.109 0 0 1 10.112-10.113c5.579 0 10.112 4.525 10.112 10.113z"/><path fill="#E6E7E8" d="M433.983 98.408c-4.085 0-7.414-3.325-7.414-7.414s3.329-7.414 7.414-7.414 7.414 3.325 7.414 7.414-3.329 7.414-7.414 7.414zm0-12.703c-2.914 0-5.289 2.375-5.289 5.289s2.375 5.289 5.289 5.289 5.288-2.375 5.288-5.289-2.374-5.289-5.288-5.289z"/><path fill="#E3ECF8" d="M132.859 77.12a6.353 6.353 0 1 1-12.704 0 6.344 6.344 0 0 1 6.352-6.343 6.344 6.344 0 0 1 6.352 6.343z"/><path fill="#E6E7E8" d="M440.335 321.729c-4.094 0-7.423-3.329-7.423-7.414 0-4.084 3.329-7.414 7.423-7.414 4.084 0 7.414 3.33 7.414 7.414s-3.33 7.414-7.414 7.414zm0-12.703c-2.923 0-5.298 2.374-5.298 5.288s2.375 5.289 5.298 5.289c2.914 0 5.288-2.375 5.288-5.289s-2.374-5.288-5.288-5.288z"/><path fill="#E3ECF8" d="M351.224 70.769c0 3.512-2.848 6.36-6.352 6.36s-6.359-2.848-6.359-6.36c0-3.503 2.855-6.343 6.359-6.343s6.352 2.839 6.352 6.343z"/><path fill="#E6E7E8" d="M61.291 222.165c-4.093 0-7.422-3.329-7.422-7.422 0-4.089 3.329-7.414 7.422-7.414 4.085 0 7.406 3.325 7.406 7.414 0 4.093-3.321 7.422-7.406 7.422zm0-12.711c-2.922 0-5.297 2.375-5.297 5.289a5.301 5.301 0 0 0 5.297 5.297c2.91 0 5.28-2.375 5.28-5.297 0-2.914-2.37-5.289-5.28-5.289z"/><path fill="#E3ECF8" d="M59.149 375.662c0-9.481 7.672-17.153 17.153-17.153 9.465 0 17.136 7.672 17.136 17.153 0 9.465-7.671 17.137-17.136 17.137-9.481 0-17.153-7.672-17.153-17.137zm394.843-177.848c0-8.004 6.501-14.497 14.505-14.497 8.003 0 14.496 6.493 14.496 14.497 0 8.003-6.493 14.488-14.496 14.488-8.004 0-14.505-6.485-14.505-14.488zm-23.006 177.848c0-5.181 4.184-9.365 9.349-9.365 5.164 0 9.349 4.185 9.349 9.365a9.348 9.348 0 0 1-9.349 9.349 9.347 9.347 0 0 1-9.349-9.349z"/></svg>