<svg xmlns="http://www.w3.org/2000/svg" width="512" height="512" viewBox="0 0 512 512"><path fill="#FFF" d="M482.522 256.67c0 130.2-105.541 235.758-235.742 235.758-130.2 0-235.742-105.559-235.742-235.758 0-130.192 105.542-235.742 235.742-235.742 130.201.001 235.742 105.551 235.742 235.742z"/><path fill="#F15A29" d="M247.479 416.859c-88.318 0-160.172-71.858-160.172-160.189 0-88.318 71.854-160.172 160.172-160.172 88.322 0 160.172 71.854 160.172 160.172-.001 88.331-71.85 160.189-160.172 160.189zm0-303.358c-78.945 0-143.169 64.225-143.169 143.169 0 78.949 64.224 143.185 143.169 143.185 78.94 0 143.169-64.236 143.169-143.185-.001-78.944-64.229-143.169-143.169-143.169z"/><path fill="#FBB040" d="M189.278 209.761l-94.865 94.865c6.742 21.802 18.149 41.529 32.878 58.275l118.46-106.09-56.473-47.05z"/><path fill="#F7941E" d="M283.395 303.862l-42.359-51.758-110.108 106.87-3.786 3.77a160.835 160.835 0 0 0 49.317 37.959c2.391.972 4.683 2.109 7.14 2.965l99.796-99.806z"/><path fill="#FFEBC4" d="M189.278 209.761l64.294-15.791 32.214 22.799-49.45 40.043z"/><path fill="#FFD489" d="M236.336 256.812l44.751-44.751 18.1 27.506-15.792 64.295z"/><path fill="#476289" d="M253.572 193.97l60.459-14.845-14.131 23.529-23.512 14.115z"/><path fill="#243245" d="M276.388 216.769l37.643-37.644-14.844 60.442z"/><path fill="#E7E7E7" d="M262.148 47.953h56.906v5.978h-56.906zm136.528 86.895h56.889v5.969h-56.889zM-.095 310.014h56.906v5.979H-.095zm455.112 39.296h56.889v5.97h-56.889zM19.832 186.224h56.889v5.969H19.832zm50.263-81.29h24.393v2.557H70.095zM275.25 78.739h24.385v2.565H275.25zm201.153 232.986h24.394v2.557h-24.394zm-24.376-112.932h24.376v2.557h-24.376zM16.162 341.414h24.393v2.558H16.162zM381.24 78.025h16.256v1.993H381.24z"/><path fill="#E7E7E7" d="M388.381 70.885h1.992v16.256h-1.992zM37.018 272.188h16.256v1.984H37.018z"/><path fill="#E7E7E7" d="M44.141 265.048h2.001v16.256h-2.001zm407.886-1.486h24.376v2.98h-24.376z"/><path fill="#E7E7E7" d="M462.721 252.859h2.989v24.385h-2.989zM177.38 64.342h24.376v2.981H177.38z"/><path fill="#E7E7E7" d="M188.074 53.641h2.989v24.384h-2.989z"/><path fill="#E3ECF8" d="M60.779 130.705c0 5.587-4.533 10.112-10.112 10.112a10.11 10.11 0 0 1-10.112-10.112 10.108 10.108 0 0 1 10.112-10.112c5.579-.001 10.112 4.524 10.112 10.112z"/><path fill="#E6E7E8" d="M433.472 108.429c-4.085 0-7.414-3.325-7.414-7.414s3.329-7.414 7.414-7.414 7.414 3.325 7.414 7.414-3.329 7.414-7.414 7.414zm0-12.703c-2.914 0-5.289 2.375-5.289 5.289s2.375 5.289 5.289 5.289 5.288-2.375 5.288-5.289-2.374-5.289-5.288-5.289z"/><path fill="#E3ECF8" d="M132.347 87.141a6.353 6.353 0 0 1-6.352 6.36 6.353 6.353 0 0 1-6.351-6.36 6.344 6.344 0 0 1 6.351-6.343 6.344 6.344 0 0 1 6.352 6.343z"/><path fill="#E6E7E8" d="M439.823 331.75c-4.094 0-7.423-3.329-7.423-7.414s3.329-7.414 7.423-7.414c4.084 0 7.414 3.329 7.414 7.414s-3.33 7.414-7.414 7.414zm0-12.703c-2.923 0-5.298 2.375-5.298 5.289s2.375 5.289 5.298 5.289c2.914 0 5.288-2.375 5.288-5.289s-2.374-5.289-5.288-5.289z"/><path fill="#E3ECF8" d="M350.712 80.79c0 3.512-2.848 6.36-6.352 6.36s-6.359-2.848-6.359-6.36c0-3.503 2.855-6.343 6.359-6.343s6.352 2.839 6.352 6.343z"/><path fill="#E6E7E8" d="M60.779 232.186c-4.093 0-7.422-3.329-7.422-7.422 0-4.089 3.33-7.414 7.422-7.414 4.085 0 7.406 3.325 7.406 7.414.001 4.093-3.321 7.422-7.406 7.422zm0-12.711c-2.922 0-5.297 2.375-5.297 5.289a5.3 5.3 0 0 0 5.297 5.297c2.91 0 5.281-2.375 5.281-5.297 0-2.914-2.371-5.289-5.281-5.289z"/><path fill="#E3ECF8" d="M58.637 385.684c0-9.481 7.672-17.153 17.153-17.153 9.465 0 17.136 7.672 17.136 17.153 0 9.465-7.671 17.136-17.136 17.136-9.481-.001-17.153-7.672-17.153-17.136zM453.48 207.835c0-8.003 6.501-14.496 14.505-14.496 8.003 0 14.496 6.493 14.496 14.496s-6.493 14.488-14.496 14.488c-8.004 0-14.505-6.485-14.505-14.488zm-23.005 177.849c0-5.181 4.184-9.365 9.349-9.365 5.164 0 9.349 4.185 9.349 9.365a9.348 9.348 0 0 1-9.349 9.349 9.347 9.347 0 0 1-9.349-9.349z"/></svg>