<svg xmlns="http://www.w3.org/2000/svg" width="512" height="512" viewBox="0 0 512 512"><g fill="#FFF"><path d="M404.805 93.968c8.48 17.819.913 39.142-9.789 44.237L96.9 280.122c-24.944 11.873-46.269 4.306-54.753-13.518-8.484-17.82-.913-39.142 16.911-47.626L357.173 77.063c17.828-8.486 39.148-.917 47.632 16.905z"/><path d="M334.57 206.556c-8.354-17.546-1.12-38.46 16.113-47.197-.277.123-.558.214-.831.345L103.544 276.956c-.201.097-.377.216-.578.316 17.7-8.042 38.636-.471 47.023 17.153 8.392 17.623 1.063 38.643-16.333 47.315.204-.092.404-.154.608-.254l246.309-117.252c.273-.129.52-.291.79-.425-17.646 7.867-38.439.295-46.793-17.253z"/><path d="M484.117 214.522c8.484 17.821.909 39.146-9.79 44.236l-365.673 174.08c-24.94 11.87-46.265 4.306-54.749-13.518-8.48-17.823-.909-39.144 24.028-51.017L443.61 194.228c10.695-5.093 32.023 2.473 40.507 20.294z"/></g><path d="M217.374 52.667h55.611v4.47h-55.611zm-20.165 0h15.031v4.47h-15.031zm117.436 44.458h55.596v5.952h-55.596zM38.331 295.072h55.612v5.847H38.331zm398.416 32.567h55.597v5.834h-55.597zm64.146 0h11.547v5.834h-11.547zM.439 172.704h55.596v4.31H.439zm63.638 0H78.8v4.31H64.077zM60.58 91.738h23.839v2.5H60.58zm200.49-1.254h23.827v2.507H261.07zm189.745 203.34h23.839v2.5h-23.839zm-10.482 0h6.242v2.5h-6.242zm-6.509-110.362h23.823v2.499h-23.823zM45.756 321.592h23.839v2.496H45.756zM364.648 65.441h15.887v1.947h-15.887z" fill="#E7E7E7"/><path fill="#E7E7E7" d="M371.627 58.463h1.945v15.886h-1.945z"/><g fill="#E7E7E7"><path d="M28.252 255.187h15.89v1.939h-15.89z"/><path d="M35.215 248.211h1.957v15.886h-1.957z"/></g><path fill="#E7E7E7" d="M433.824 246.757h23.823v2.914h-23.823z"/><path fill="#E7E7E7" d="M444.276 236.299h2.919v23.829h-2.919z"/><g fill="#E7E7E7"><path d="M211.651 90.282h23.82v2.911h-23.82z"/><path d="M222.1 79.822h2.923v23.831H222.1z"/></g><path fill="#E3ECF8" d="M51.475 116.923c0 5.459-4.429 9.882-9.882 9.882a9.879 9.879 0 0 1-9.882-9.882 9.878 9.878 0 0 1 9.882-9.882c5.453 0 9.882 4.421 9.882 9.882z"/><path fill="#E6E7E8" d="M390.417 85.368c-3.967 0-7.194-3.227-7.194-7.192s3.228-7.192 7.194-7.192c3.963 0 7.19 3.228 7.19 7.192s-3.227 7.192-7.19 7.192zm0-12.412c-2.881 0-5.223 2.341-5.223 5.22s2.342 5.22 5.223 5.22c2.877 0 5.219-2.341 5.219-5.22s-2.342-5.22-5.219-5.22z"/><path fill="#E3ECF8" d="M111.631 75.01a2.493 2.493 0 1 1-2.5-2.492 2.49 2.49 0 0 1 2.5 2.492zm228.17 55.9a2.492 2.492 0 1 1-4.987 0 2.489 2.489 0 0 1 2.487-2.492c1.383 0 2.5 1.112 2.5 2.492zm99.442 232.691a2.493 2.493 0 1 1-4.987 0 2.49 2.49 0 0 1 2.487-2.491 2.492 2.492 0 0 1 2.5 2.491zM105.458 349.34a2.495 2.495 0 0 1-2.5 2.492 2.493 2.493 0 0 1 0-4.984 2.49 2.49 0 0 1 2.5 2.492zM28.237 209.468a2.493 2.493 0 1 1-4.988 0 2.493 2.493 0 0 1 4.988 0zm156.317-98.759a6.212 6.212 0 0 1-6.208 6.216 6.212 6.212 0 0 1-6.208-6.216 6.202 6.202 0 0 1 6.208-6.199 6.202 6.202 0 0 1 6.208 6.199z"/><path fill="#E6E7E8" d="M421.896 314.328c-4.514 0-8.184-3.67-8.184-8.18s3.67-8.18 8.184-8.18c4.51 0 8.181 3.67 8.181 8.18s-3.671 8.18-8.181 8.18zm0-12.416c-2.337 0-4.24 1.898-4.24 4.236s1.903 4.236 4.24 4.236c2.338 0 4.236-1.898 4.236-4.236s-1.898-4.236-4.236-4.236z"/><path fill="#E3ECF8" d="M334.813 68.143a6.211 6.211 0 0 1-6.205 6.214 6.22 6.22 0 0 1-6.216-6.214c0-3.423 2.789-6.198 6.216-6.198a6.203 6.203 0 0 1 6.205 6.198z"/><path fill="#E6E7E8" d="M51.475 217.029c-4.516 0-8.188-3.672-8.188-8.188 0-4.51 3.672-8.178 8.188-8.178 4.506 0 8.172 3.668 8.172 8.178 0 4.516-3.666 8.188-8.172 8.188zm0-12.422a4.244 4.244 0 0 0-4.244 4.234 4.25 4.25 0 0 0 4.244 4.244c2.332 0 4.229-1.905 4.229-4.244a4.236 4.236 0 0 0-4.229-4.234z"/><path fill="#E3ECF8" d="M92.083 255.184c0 3.426-2.777 6.214-6.201 6.214a6.22 6.22 0 0 1-6.216-6.214c0-3.424 2.785-6.207 6.216-6.207a6.207 6.207 0 0 1 6.201 6.207zM49.38 366.104c0-9.267 7.498-16.765 16.764-16.765 9.25 0 16.749 7.498 16.749 16.765 0 9.246-7.499 16.745-16.749 16.745-9.266.001-16.764-7.498-16.764-16.745zm397.526-159.643c0-5.931 4.818-10.741 10.745-10.741 5.931 0 10.741 4.81 10.741 10.741 0 5.929-4.811 10.733-10.741 10.733-5.926.001-10.745-4.803-10.745-10.733zm13.523 150.5c0-5.063 4.09-9.154 9.135-9.154 5.049 0 9.139 4.091 9.139 9.154a9.136 9.136 0 0 1-9.139 9.136 9.135 9.135 0 0 1-9.135-9.136z"/><path fill="#D4EEF8" d="M424.801 107.379c16.244 16.247 16.244 42.585.004 58.83-16.248 16.246-42.587 16.246-58.831 0-16.249-16.245-16.249-42.583 0-58.832 16.244-16.242 42.583-16.242 58.827.002z"/><path fill="#FFD9AB" d="M389.104 130.475h13.075v18.91c0 6.381-13.075 7.113-13.075 0v-18.91z"/><path fill="#FDC680" d="M402.179 142.345v-2.417h-13.075v8.9z"/><path fill="#FFE7C9" d="M395.646 112.257c27.683 0 16.461 36.571 0 36.571-16.467 0-27.689-36.571 0-36.571"/><path fill="#FCB863" d="M395.971 104.387v-.002h-.043v.002c-14.326.029-20.234 14.226-18.231 21.984 2.011 7.77 4.502 3.366 4.402.031-.097-3.333 2.788-10.637 13.074-10.904 9.29 0 13.784 6.098 14.08 10.8.297 4.701 1.934 5.14 3.944.855 2.006-4.28-2.9-22.727-17.226-22.766"/><path fill="#FCB863" d="M381.998 129.271c-.47 3.279-3.416 1.119-3.628-1.914-.22-3.033.077-3.551 1.271-6.368 1.193-2.817 7.532-10.348 15.531-10.348 6.598 0 16.857 11.167 16.649 10.783 1.186 2.167 1.455 4.514.912 6.462-.543 1.951-1.81 3.306-2.491.911-1.729-6.081-5.808-10.371-10.218-12.226-1.536-.647 3.713 6.218 2.18 6.189-2.322-.041-11.269-6.481-13.102-5.214-3.908 2.704-6.522 7.653-7.104 11.725"/><path fill="#FFE7C9" d="M377.365 124.841c-1.013.224-1.405 2.297-.89 4.629.523 2.333 1.76 4.045 2.766 3.82 1.009-.224 1.405-2.299.886-4.633-.521-2.331-1.757-4.037-2.762-3.816"/><path fill="#FFF" d="M419.047 169.153c-1.613-4.178-4.09-9.137-7.044-10.985-7.587-4.754-12.154-5.891-16.633-5.952-4.583-.062-9.066 1.061-16.604 5.952-2.911 1.891-5.422 6.838-7.043 10.985h47.324z"/><path fill="#5CC1A2" d="M394.01 163.274l-.65 5.879c.72.035 1.44.054 2.168.054.717 0 1.429-.018 2.134-.054l-.921-5.879 4.444-10.635a321.235 321.235 0 0 0-11.615 0l4.44 10.635z"/><path fill="#FFF" d="M389.296 148.828l-4.833 6.156 3.008 5.614 7.968-8.013zm12.57 0l4.834 6.156-3.004 5.614-7.972-8.013z"/><path fill="#D4EEF8" d="M146.773 387.976c16.245 16.244 16.245 42.583.004 58.827-16.248 16.248-42.586 16.248-58.831 0-16.248-16.244-16.248-42.583 0-58.831 16.245-16.242 42.583-16.242 58.827.004z"/><path fill="#FFD9AB" d="M111.081 411.067h13.071v18.909c0 6.382-13.071 7.113-13.071 0v-18.909z"/><path fill="#FDC680" d="M124.151 422.937v-2.412h-13.07v8.893z"/><path fill="#FFE7C9" d="M117.62 392.851c27.682 0 16.46 36.567 0 36.567s-27.69-36.567 0-36.567"/><path fill="#A2A5A6" d="M117.947 384.979h-.043c-14.326.034-20.238 14.229-18.231 21.99 2.01 7.764 4.498 3.362 4.398.022-.092-3.327 2.788-10.637 13.079-10.902 9.286 0 13.78 6.101 14.076 10.803.301 4.698 1.938 5.138 3.944.854 2.006-4.281-2.9-22.725-17.223-22.767"/><path fill="#A2A5A6" d="M103.971 409.865c-.47 3.277-3.416 1.117-3.632-1.914-.215-3.034.081-3.551 1.275-6.369 1.194-2.815 7.533-10.345 15.536-10.345 6.593 0 16.853 11.161 16.645 10.775 1.19 2.169 1.456 4.518.917 6.467-.547 1.952-1.81 3.308-2.496.908-1.729-6.077-5.808-10.367-10.217-12.22 30.032 12.628-38.986 4.837-14.638 5.272-2.326-.046 5.553-5.569 3.72-4.302-3.914 2.709-6.524 7.65-7.11 11.728"/><path fill="#FFE7C9" d="M135.409 405.433c1.009.224 1.402 2.296.882 4.626-.516 2.341-1.752 4.047-2.765 3.828-1.005-.231-1.402-2.3-.882-4.638.52-2.33 1.755-4.04 2.765-3.816m-36.075 0c-1.009.224-1.402 2.296-.882 4.626.52 2.341 1.76 4.047 2.761 3.828 1.009-.231 1.402-2.3.886-4.638-.519-2.33-1.752-4.04-2.765-3.816"/><path fill="#FFF" d="M141.024 449.745c-1.618-4.179-4.094-9.136-7.044-10.983-7.587-4.753-12.155-5.893-16.637-5.95-4.583-.065-9.066 1.059-16.606 5.95-2.912 1.891-5.423 6.836-7.036 10.983h47.323z"/><path fill="#FCB863" d="M115.987 443.864l-.654 5.881a44.642 44.642 0 0 0 4.306.004l-.924-5.885 4.444-10.634c-4.16-.072-7.487-.065-11.616 0l4.444 10.634z"/><path fill="#FFF" d="M111.273 429.418l-4.837 6.158 3.008 5.615 7.968-8.014zm12.567 0l4.837 6.158-3.008 5.615-7.972-8.014z"/><path fill="#D4EEF8" d="M146.77 107.379c16.245 16.247 16.245 42.585.004 58.83-16.252 16.246-42.586 16.246-58.831 0-16.248-16.245-16.248-42.583 0-58.832 16.244-16.242 42.578-16.242 58.827.002z"/><path fill="#595A5C" d="M99.215 132.341c1.502 9.63-2.784 20.554-6.998 24.195-1.814 2.264 1.363 4.259 9.613-6.32 2.711-3.468 1.479 11.118 8.503 6.974 14.635-8.627 2.646-41.465-11.118-24.849"/><path fill="#595A5C" d="M135.501 132.066c-1.506 9.63 2.777 20.554 6.998 24.195 1.81 2.266-1.371 4.259-9.621-6.32-2.704-3.468-1.479 11.116-8.503 6.976-14.627-8.63-2.642-41.467 11.126-24.851"/><path fill="#FFD9AB" d="M110.78 130.416h13.252v19.164c0 6.466-13.252 7.209-13.252 0v-19.164z"/><path fill="#FDC680" d="M124.032 142.445v-2.449H110.78v9.019z"/><path fill="#FFE7C9" d="M117.412 111.955c28.052 0 16.676 37.061 0 37.061-16.683-.001-28.06-37.061 0-37.061"/><path fill="#595A5C" d="M117.739 103.981v-.004h-.042v.004c-14.519.029-20.504 14.415-18.478 22.279 2.041 7.872 4.56 3.406 4.46.031-.093-3.379 2.827-10.78 13.252-11.053 9.412 0 13.968 6.181 14.269 10.945.304 4.764 1.96 5.208 4.001.87 2.029-4.342-2.947-23.037-17.462-23.072"/><path fill="#595A5C" d="M103.575 129.195c-.474 3.325-3.462 1.138-3.674-1.939-.219-3.073.081-3.597 1.29-6.453 1.202-2.854 7.633-10.487 15.74-10.487 6.682 0 17.08 11.317 16.868 10.932 1.206 2.191 1.483 4.573.928 6.545-.547 1.978-1.83 3.353-2.526.926-1.756-6.162-5.885-10.514-10.356-12.392-1.552-.655-13.568 8.184-15.124 8.157-2.354-.042 5.915-8.454 4.059-7.169-3.963 2.739-6.609 7.755-7.205 11.88"/><path fill="#FFE7C9" d="M135.436 124.706c1.024.227 1.425 2.328.901 4.695-.532 2.363-1.783 4.096-2.804 3.868-1.024-.227-1.425-2.33-.901-4.692.528-2.365 1.787-4.096 2.804-3.871m-36.556 0c-1.021.227-1.421 2.328-.894 4.695.524 2.363 1.779 4.096 2.796 3.868 1.024-.227 1.425-2.33.901-4.692-.527-2.365-1.779-4.096-2.803-3.871"/><path fill="#FFF" d="M141.128 169.613c-1.641-4.232-4.144-9.26-7.14-11.134-7.691-4.816-12.324-5.968-16.861-6.031-4.637-.063-9.189 1.073-16.822 6.031-2.954 1.918-5.5 6.928-7.14 11.134h47.963z"/><path fill="#FFF" d="M110.977 149.015l-4.899 6.237 3.046 5.69 8.08-8.12zm12.735 0l4.907 6.237-3.05 5.69-8.08-8.12z"/><path fill="#D4EEF8" d="M424.936 386.23c16.244 16.244 16.244 42.583.004 58.827-16.248 16.249-42.587 16.249-58.831 0-16.249-16.244-16.249-42.583 0-58.831 16.244-16.24 42.582-16.24 58.827.004z"/><path fill="#F89521" d="M377.381 411.194c1.502 9.628-2.785 20.554-7.002 24.193-1.81 2.265 1.367 4.26 9.617-6.316 2.707-3.47 1.475 11.115 8.503 6.971 14.631-8.626 2.646-41.462-11.118-24.848"/><path fill="#F89521" d="M413.667 410.917c-1.51 9.632 2.772 20.558 6.993 24.197 1.811 2.269-1.37 4.26-9.616-6.32-2.707-3.466-1.482 11.115-8.503 6.979-14.631-8.634-2.646-41.47 11.126-24.856"/><path fill="#FFD9AB" d="M388.942 409.269h13.256v19.164c0 6.466-13.256 7.209-13.256 0v-19.164z"/><path fill="#FDC680" d="M402.198 421.3v-2.449h-13.256v9.019z"/><path fill="#FFE7C9" d="M395.574 390.806c28.052 0 16.676 37.064 0 37.064-16.683 0-28.06-37.064 0-37.064"/><path fill="#F89521" d="M395.905 382.834v-.004h-.043l-.004.004c-14.515.03-20.504 14.415-18.478 22.279 2.041 7.872 4.563 3.408 4.463.03-.092-3.377 2.823-10.779 13.253-11.053 9.412 0 13.964 6.182 14.265 10.945.308 4.764 1.964 5.211 4.005.87 2.027-4.339-2.95-23.037-17.461-23.071"/><path fill="#F89521" d="M381.74 408.048c-.478 3.323-3.466 1.136-3.674-1.938-.224-3.073.077-3.597 1.286-6.454 1.205-2.854 7.633-10.487 15.744-10.487 6.682 0 17.076 11.319 16.868 10.934 1.201 2.188 1.479 4.571.928 6.543-.551 1.977-1.829 3.354-2.53.929-1.756-6.162-5.881-10.514-10.352-12.394-1.557-.654-13.572 8.185-15.128 8.157-2.35-.043 5.919-8.453 4.06-7.171-3.959 2.742-6.609 7.756-7.202 11.881"/><path fill="#FFE7C9" d="M413.602 403.562c1.021.223 1.421 2.326.897 4.69-.532 2.364-1.779 4.098-2.804 3.87-1.024-.227-1.426-2.33-.897-4.694.527-2.365 1.783-4.094 2.804-3.866m-36.56 0c-1.017.223-1.418 2.326-.894 4.69.523 2.364 1.779 4.098 2.8 3.87 1.021-.227 1.421-2.33.897-4.694-.524-2.365-1.779-4.094-2.803-3.866"/><path fill="#FFF" d="M419.29 448.467c-1.638-4.233-4.145-9.259-7.141-11.135-7.687-4.817-12.32-5.965-16.86-6.03-4.637-.065-9.186 1.074-16.822 6.03-2.95 1.918-5.5 6.929-7.137 11.135h47.96z"/><path fill="#FFF" d="M389.143 427.87l-4.9 6.235 3.043 5.688 8.08-8.118zm12.731 0l4.907 6.235-3.051 5.688-8.08-8.118z"/><path fill="#8BD7F8" d="M379.63 247.966a126.462 126.462 0 0 0-13.495-33.725c-8.673-14.978-20.1-27.806-33.964-38.135-21.74-16.198-47.563-24.756-74.683-24.756-7.587 0-15.201.689-22.641 2.049-21.074 3.863-40.973 13.21-57.533 27.04-24.34 20.323-40.095 48.814-44.358 80.219a129.174 129.174 0 0 0-1.175 17.3c0 22.545 5.958 44.674 17.223 64.007 10.895 18.693 26.473 34.36 45.052 45.313 0 .008.004.008.004.008a124.307 124.307 0 0 0 33.74 13.718 125.407 125.407 0 0 0 29.689 3.566c24.309 0 47.901-7.002 68.213-20.25 19.85-12.939 35.632-31.148 45.652-52.661 7.856-16.876 11.839-34.946 11.839-53.701a127.725 127.725 0 0 0-3.563-29.992zm-45.468-56.64a114.847 114.847 0 0 1 16.822 18.486l-9.897-2.48c-3.178-.793-6.443.046-8.954 2.303-2.515 2.264-3.89 5.592-3.774 9.143a.458.458 0 0 1-.177.37l-7.271 5.172a.353.353 0 0 1-.408.011l-10.24-6.358c-.913-.559-1.379-1.733-1.144-2.846l2.307-10.726c.246-1.144 1.175-1.968 2.253-2.003l8.685-.262c5.818-.18 10.662-4.809 11.798-10.81zM194.005 362.568l-1.463 11.131c-31.472-21.429-50.744-57.453-50.744-95.741 0-3.382.15-6.802.451-10.214l6.701 1.187c1.69.3 3.416.446 5.126.446h3.396c4.707 0 9.382 1.68 13.164 4.737l5.142 4.151c.439.362.724.901.786 1.502l.693 7.024c.116 1.141-.608 2.173-1.645 2.35-5.85 1.017-10.186 6.655-10.09 13.109l.366 24.74c.042 2.812.894 5.484 2.457 7.71l8.161 11.662c3.852 5.499 9.058 9.597 15.062 11.854 1.659.625 2.683 2.45 2.437 4.352zm32.266 26.821a114.954 114.954 0 0 1-24.367-9.951l2.014-15.32c.932-7.071-2.892-13.896-9.089-16.222-4.128-1.548-7.71-4.375-10.36-8.157l-8.161-11.653a2.206 2.206 0 0 1-.408-1.263l-.366-24.748c-.016-1.056.697-1.987 1.66-2.149 6.305-1.102 10.707-7.387 10.025-14.304l-.697-7.032c-.362-3.612-2.103-6.924-4.779-9.089l-5.145-4.151c-5.492-4.444-12.286-6.888-19.125-6.888h-3.396c-1.179 0-2.365-.101-3.524-.309l-6.844-1.201c4.856-26.489 18.817-50.413 39.698-67.851 14.716-12.286 32.308-20.743 50.994-24.532 2.834 2.572 5.03 5.869 6.401 9.643l.281.778a25.653 25.653 0 0 1 1.406 6.108l.254 2.38a26.081 26.081 0 0 1-1.718 12.439l-2.723 6.755c-1.787 4.429-4.71 8.126-8.461 10.699l-3.393 2.334c-3.439 2.357-5.45 6.57-5.246 10.991l.458 9.99c.023.508-.196.847-.381 1.04a1.17 1.17 0 0 1-.975.37 1.245 1.245 0 0 1-.974-.709l-4.167-8.43c-1.444-2.923-3.951-5.11-6.886-6l-14.727-4.479c-3.87-1.179-8.018-.832-11.677.986l-3.508 1.733c-7.379 3.659-11.411 12.555-9.59 21.167.724 3.404 2.303 6.508 4.576 8.989l9.566 10.431c.539.586 1.055 1.21 1.541 1.856l6.559 8.819c2.9 3.897 7.194 6.123 11.792 6.123h.046l17.874-.062h.016c1.833 0 3.539 1.071 4.459 2.792 2.149 4.01 5.769 6.875 9.932 7.846l6.701 1.563c1.471.339 2.727 1.363 3.451 2.804l3.235 6.47c1.294 2.588 3.254 4.66 5.669 5.992l15.201 8.419c1.256.693 1.972 2.18 1.803 3.697-.101.878-.493 1.687-1.102 2.265l-5.773 5.576c-1.629 1.564-2.893 3.566-3.654 5.785l-1.26 3.658c-.385 1.117-1.183 2.011-2.191 2.465l-6.15 2.78c-5.237 2.365-8.623 7.896-8.623 14.073 0 .692-.158 1.386-.455 2.002l-15.717 32.682zm31.217 4.267a116.66 116.66 0 0 1-21.043-1.918l14.411-29.963a16.344 16.344 0 0 0 1.599-7.07c0-1.757.962-3.32 2.445-3.99l6.15-2.78c3.566-1.61 6.378-4.791 7.733-8.72l1.259-3.658a3.631 3.631 0 0 1 .917-1.44l5.773-5.569c2.434-2.349 3.993-5.576 4.397-9.089.701-6.069-2.191-12.008-7.201-14.78l-15.197-8.419a3.432 3.432 0 0 1-1.417-1.502l-3.235-6.455c-2.118-4.236-5.819-7.252-10.148-8.261l-6.693-1.56c-1.417-.331-2.65-1.302-3.381-2.665-2.711-5.068-7.733-8.211-13.113-8.211h-.046l-17.874.062h-.012c-1.567 0-3.027-.763-4.013-2.079l-6.563-8.822a34.125 34.125 0 0 0-2.238-2.704l-9.57-10.429a7.945 7.945 0 0 1-1.895-3.728c-.755-3.566.917-7.252 3.975-8.766l3.508-1.741a6.562 6.562 0 0 1 4.841-.408l14.731 4.479c.32.096.597.335.759.659l4.167 8.434c1.783 3.62 5.091 6.008 8.842 6.397 3.254.339 6.478-.882 8.842-3.343 2.365-2.465 3.628-5.919 3.466-9.482l-.458-9.986c-.023-.489.197-.951.578-1.209l3.393-2.326c5.454-3.744 9.705-9.12 12.293-15.551l2.723-6.759c2.288-5.673 3.15-11.923 2.5-18.082l-.254-2.38a37.636 37.636 0 0 0-2.041-8.869l-.285-.782a35.938 35.938 0 0 0-3.693-7.402h.012c3.67-.351 7.367-.524 11.057-.524 24.197 0 47.263 7.348 66.877 21.29l.034 5.049c.012 1.406-1.032 2.584-2.318 2.623l-8.677.262c-5.627.169-10.444 4.459-11.734 10.425l-2.3 10.726c-1.247 5.784 1.198 11.881 5.935 14.823l10.245 6.354a9.729 9.729 0 0 0 5.148 1.494c1.979 0 3.951-.62 5.688-1.853l7.271-5.176c3.034-2.157 4.833-5.942 4.71-9.882a.41.41 0 0 1 .139-.347c.146-.127.288-.1.335-.084l11.229 2.811c.285.069.563.127.852.173l7.941 1.244a114.571 114.571 0 0 1 8.534 19.595l-7.757-2.041a9.885 9.885 0 0 0-.936-.208l-8.473-1.494c-9.2-1.61-18.555 1.794-25.018 9.12l-1.274 1.44c-3.774 4.283-6.336 9.628-7.391 15.461l-3.235 17.781c-1.124 6.204-.497 12.543 1.811 18.343 4.036 10.129 12.79 17.192 22.853 18.447l1.567.192a26.307 26.307 0 0 0 12.81-1.617l5.338-2.08c.959-.377 2.025-.046 2.661.81l.697.947c.331.438.52.993.535 1.556l.254 9.489c-19.182 39.968-59.993 65.718-104.352 65.718zm111.235-83.787l-.581-.786c-2.399-3.235-5.974-5.015-9.651-5.015-1.397 0-2.804.263-4.171.786l-5.346 2.095a17.136 17.136 0 0 1-8.291 1.04l-1.571-.192c-6.513-.809-12.186-5.384-14.797-11.946-1.498-3.751-1.895-7.856-1.171-11.877l3.231-17.785c.682-3.782 2.342-7.242 4.787-10.015l1.274-1.444c4.187-4.741 10.245-6.944 16.202-5.896l8.469 1.487c.063.016.12.023.182.039l13.367 3.52a116.043 116.043 0 0 1 2.519 24.08c0 10.935-1.49 21.603-4.452 31.909z"/></svg>