<svg xmlns="http://www.w3.org/2000/svg" width="512" height="512" viewBox="0 0 512 512"><g fill="#FFF"><path d="M404.711 103.807c8.48 17.82.917 39.142-9.79 44.237L96.804 289.959c-24.941 11.877-46.269 4.31-54.75-13.51-8.488-17.824-.917-39.146 16.907-47.63L357.079 86.902c17.831-8.486 39.151-.916 47.632 16.905z"/><path d="M334.479 216.396c-8.356-17.546-1.124-38.46 16.114-47.197-.277.123-.563.213-.832.345l-246.31 117.253c-.2.097-.377.212-.578.313 17.7-8.034 38.636-.466 47.024 17.153 8.388 17.623 1.063 38.651-16.337 47.316.208-.093.409-.154.609-.246L380.48 234.076c.276-.129.523-.291.793-.426-17.647 7.866-38.444.295-46.794-17.254z"/><path d="M484.023 224.363c8.488 17.822.909 39.146-9.79 44.238L108.558 442.677c-24.941 11.873-46.261 4.306-54.75-13.515-8.48-17.819-.909-39.144 24.032-51.018l365.676-174.076c10.699-5.092 32.027 2.473 40.507 20.295z"/></g><path d="M217.279 62.506h55.612v4.47h-55.612zm-20.165 0h15.035v4.47h-15.035zm117.44 44.459h55.597v5.952h-55.597zM38.234 304.917h55.612v5.839H38.234zm398.419 32.562h55.597v5.835h-55.597zm64.147 0h11.546v5.835H500.8zM.346 182.544h55.597v4.31H.346zm63.638 0h14.719v4.31H63.984zm-3.497-80.966h23.839v2.499H60.487zm200.488-1.254h23.832v2.507h-23.832zm189.751 203.342h23.84v2.499h-23.84zm-10.484 0h6.239v2.499h-6.239zm-6.508-110.363h23.823v2.5h-23.823zM45.66 331.43h23.839v2.503H45.66zM364.558 75.281h15.883v1.947h-15.883z" fill="#E7E7E7"/><path fill="#E7E7E7" d="M371.536 68.303h1.941v15.886h-1.941z"/><g fill="#E7E7E7"><path d="M28.159 265.026H44.05v1.94H28.159z"/><path d="M35.123 258.052h1.957v15.887h-1.957z"/></g><path fill="#E7E7E7" d="M433.734 256.598h23.823v2.914h-23.823z"/><path fill="#E7E7E7" d="M444.187 246.14h2.919v23.832h-2.919z"/><g fill="#E7E7E7"><path d="M211.556 100.122h23.824v2.912h-23.824z"/><path d="M222.008 89.662h2.919v23.832h-2.919z"/></g><path fill="#E3ECF8" d="M51.382 126.763c0 5.459-4.429 9.882-9.882 9.882a9.879 9.879 0 0 1-9.882-9.882 9.878 9.878 0 0 1 9.882-9.882c5.454-.001 9.882 4.421 9.882 9.882z"/><path fill="#E6E7E8" d="M390.323 95.208c-3.967 0-7.194-3.228-7.194-7.192s3.228-7.192 7.194-7.192 7.193 3.227 7.193 7.192-3.226 7.192-7.193 7.192zm0-12.413c-2.881 0-5.223 2.341-5.223 5.22s2.342 5.221 5.223 5.221c2.88 0 5.222-2.342 5.222-5.221s-2.342-5.22-5.222-5.22z"/><path fill="#E3ECF8" d="M111.539 84.85a2.496 2.496 0 0 1-4.991 0 2.489 2.489 0 0 1 2.488-2.492 2.492 2.492 0 0 1 2.503 2.492zm228.171 55.9a2.497 2.497 0 0 1-2.504 2.494 2.492 2.492 0 0 1-2.487-2.494 2.488 2.488 0 0 1 2.487-2.492 2.494 2.494 0 0 1 2.504 2.492zm99.438 232.692a2.494 2.494 0 0 1-2.495 2.492 2.493 2.493 0 0 1-2.488-2.492 2.487 2.487 0 0 1 2.488-2.491 2.489 2.489 0 0 1 2.495 2.491zm-333.787-14.26a2.493 2.493 0 0 1-4.984 0 2.49 2.49 0 0 1 2.488-2.492 2.49 2.49 0 0 1 2.496 2.492zM28.144 219.308a2.496 2.496 0 0 1-4.991 0 2.489 2.489 0 0 1 2.488-2.492 2.492 2.492 0 0 1 2.503 2.492zm156.314-98.759a6.21 6.21 0 0 1-6.208 6.216 6.214 6.214 0 0 1-6.208-6.216 6.204 6.204 0 0 1 6.208-6.199 6.199 6.199 0 0 1 6.208 6.199z"/><path fill="#E6E7E8" d="M421.803 324.17c-4.51 0-8.18-3.666-8.18-8.177 0-4.51 3.67-8.18 8.18-8.18s8.181 3.67 8.181 8.18c-.001 4.511-3.671 8.177-8.181 8.177zm0-12.413a4.239 4.239 0 0 0-4.236 4.236c0 2.334 1.898 4.233 4.236 4.233s4.236-1.899 4.236-4.233a4.239 4.239 0 0 0-4.236-4.236z"/><path fill="#E3ECF8" d="M334.719 77.983c0 3.431-2.781 6.214-6.201 6.214a6.22 6.22 0 0 1-6.216-6.214c0-3.424 2.789-6.199 6.216-6.199a6.203 6.203 0 0 1 6.201 6.199z"/><path fill="#E6E7E8" d="M51.382 226.87c-4.516 0-8.188-3.672-8.188-8.188 0-4.51 3.672-8.178 8.188-8.178 4.506 0 8.172 3.668 8.172 8.178.001 4.516-3.666 8.188-8.172 8.188zm0-12.422a4.244 4.244 0 0 0-4.244 4.234 4.25 4.25 0 0 0 4.244 4.244c2.332 0 4.229-1.904 4.229-4.244a4.236 4.236 0 0 0-4.229-4.234z"/><path fill="#E3ECF8" d="M91.99 265.026c0 3.424-2.78 6.216-6.2 6.216a6.22 6.22 0 0 1-6.216-6.216 6.21 6.21 0 0 1 6.216-6.208c3.419 0 6.2 2.781 6.2 6.208zM49.287 375.942c0-9.267 7.495-16.761 16.761-16.761 9.251 0 16.753 7.494 16.753 16.761 0 9.25-7.502 16.749-16.753 16.749-9.266 0-16.761-7.499-16.761-16.749zm397.526-159.64c0-5.931 4.822-10.741 10.745-10.741 5.932 0 10.745 4.81 10.745 10.741 0 5.929-4.813 10.733-10.745 10.733-5.923.001-10.745-4.804-10.745-10.733zm13.526 150.497c0-5.061 4.09-9.15 9.135-9.15s9.135 4.09 9.135 9.15c0 5.05-4.09 9.136-9.135 9.136s-9.135-4.086-9.135-9.136z"/><path fill="#8BD7F8" d="M358.219 345.609H154.473c-25.008 0-45.353-20.346-45.353-45.352V189.303c0-25.008 20.344-45.353 45.353-45.353h203.746c25.006 0 45.353 20.344 45.353 45.353v110.955c-.001 25.006-20.347 45.351-45.353 45.351zM154.473 155.782c-18.484 0-33.521 15.037-33.521 33.521v110.955c0 18.481 15.037 33.521 33.521 33.521h203.746c18.482 0 33.521-15.039 33.521-33.521V189.303c0-18.484-15.039-33.521-33.521-33.521H154.473z"/><path fill="#8BD7F8" d="M298 372h-82v-36h82v36zm-71-12h60v-12h-60v12z"/><path fill="#8BD7F8" d="M326 396H188v-36h138v36zm-126-12h114v-12H200v12z"/><path fill="#FBB041" d="M238.455 273.703l.042-57.027 49.359 28.549-49.401 28.478zm7.918-43.359l-.02 29.703 25.729-14.833-25.709-14.87z"/><path fill="#8BD7F8" d="M254.782 298.744c-29.761 0-53.972-24.209-53.972-53.966s24.211-53.966 53.972-53.966c29.755 0 53.964 24.209 53.964 53.966s-24.209 53.966-53.964 53.966zm0-96.1c-23.237 0-42.141 18.902-42.141 42.135s18.904 42.135 42.141 42.135c23.23 0 42.133-18.902 42.133-42.135s-18.902-42.135-42.133-42.135z"/></svg>