<svg xmlns="http://www.w3.org/2000/svg" width="512" height="512" viewBox="0 0 512 512"><g fill="#FFF"><path d="M404.805 103.809c8.48 17.819.913 39.142-9.789 44.237L96.9 289.959c-24.944 11.877-46.269 4.31-54.753-13.51-8.484-17.824-.913-39.146 16.911-47.63L357.173 86.903c17.828-8.486 39.148-.916 47.632 16.906z"/><path d="M334.57 216.397c-8.354-17.546-1.12-38.46 16.113-47.197-.277.123-.558.214-.831.345L103.544 286.797c-.201.097-.377.212-.578.313 17.7-8.034 38.636-.467 47.023 17.153 8.392 17.623 1.063 38.65-16.333 47.315.204-.092.404-.154.608-.246l246.309-117.256c.273-.129.52-.291.79-.425-17.646 7.866-38.439.294-46.793-17.254z"/><path d="M484.117 224.363c8.484 17.821.909 39.146-9.79 44.236L108.654 442.675c-24.94 11.874-46.265 4.306-54.749-13.514-8.48-17.819-.909-39.144 24.028-51.017L443.61 204.069c10.695-5.093 32.023 2.473 40.507 20.294z"/></g><path d="M217.374 62.508h55.611v4.469h-55.611zm-20.165 0h15.031v4.469h-15.031zm117.436 44.458h55.596v5.952h-55.596zM38.331 304.917h55.612v5.839H38.331zm398.416 32.562h55.597v5.834h-55.597zm64.146 0h11.547v5.834h-11.547zM.439 182.544h55.596v4.31H.439zm63.638 0H78.8v4.31H64.077zm-3.497-80.965h23.839v2.5H60.58zm200.49-1.254h23.827v2.507H261.07zm189.745 203.34h23.839v2.5h-23.839zm-10.482 0h6.242v2.5h-6.242zm-6.509-110.362h23.823v2.5h-23.823zM45.756 331.429h23.839v2.503H45.756zM364.648 75.282h15.887v1.947h-15.887z" fill="#E7E7E7"/><path fill="#E7E7E7" d="M371.627 68.304h1.945V84.19h-1.945z"/><g fill="#E7E7E7"><path d="M28.252 265.026h15.89v1.94h-15.89z"/><path d="M35.215 258.052h1.957v15.886h-1.957z"/></g><path fill="#E7E7E7" d="M433.824 256.598h23.823v2.913h-23.823z"/><path fill="#E7E7E7" d="M444.276 246.14h2.919v23.831h-2.919z"/><g fill="#E7E7E7"><path d="M211.651 100.123h23.82v2.912h-23.82z"/><path d="M222.1 89.663h2.923v23.831H222.1z"/></g><path fill="#E3ECF8" d="M51.475 126.764c0 5.459-4.429 9.882-9.882 9.882a9.879 9.879 0 0 1-9.882-9.882 9.878 9.878 0 0 1 9.882-9.882c5.453-.001 9.882 4.421 9.882 9.882z"/><path fill="#E6E7E8" d="M390.417 95.208c-3.967 0-7.194-3.227-7.194-7.192s3.228-7.192 7.194-7.192c3.963 0 7.19 3.228 7.19 7.192s-3.227 7.192-7.19 7.192zm0-12.412c-2.881 0-5.223 2.341-5.223 5.22s2.342 5.22 5.223 5.22c2.877 0 5.219-2.341 5.219-5.22s-2.342-5.22-5.219-5.22z"/><path fill="#E3ECF8" d="M111.631 84.851a2.493 2.493 0 1 1-2.5-2.492 2.49 2.49 0 0 1 2.5 2.492zm228.17 55.9a2.492 2.492 0 1 1-4.987 0 2.489 2.489 0 0 1 2.487-2.492c1.383 0 2.5 1.112 2.5 2.492zm99.442 232.69a2.495 2.495 0 0 1-2.5 2.492 2.492 2.492 0 0 1 0-4.983 2.49 2.49 0 0 1 2.5 2.491zm-333.785-14.26a2.493 2.493 0 1 1-4.988 0 2.49 2.49 0 0 1 2.488-2.492 2.492 2.492 0 0 1 2.5 2.492zM28.237 219.308a2.493 2.493 0 1 1-4.988.002 2.493 2.493 0 0 1 4.988-.002zm156.317-98.758a6.212 6.212 0 0 1-6.208 6.216 6.212 6.212 0 0 1-6.208-6.216 6.202 6.202 0 0 1 6.208-6.199 6.202 6.202 0 0 1 6.208 6.199z"/><path fill="#E6E7E8" d="M421.896 324.169c-4.514 0-8.184-3.666-8.184-8.176s3.67-8.18 8.184-8.18c4.51 0 8.181 3.67 8.181 8.18s-3.671 8.176-8.181 8.176zm0-12.412a4.242 4.242 0 0 0-4.24 4.236 4.241 4.241 0 0 0 4.24 4.232 4.237 4.237 0 0 0 4.236-4.232 4.237 4.237 0 0 0-4.236-4.236z"/><path fill="#E3ECF8" d="M334.813 77.984a6.211 6.211 0 0 1-6.205 6.214 6.22 6.22 0 0 1-6.216-6.214c0-3.423 2.789-6.198 6.216-6.198a6.203 6.203 0 0 1 6.205 6.198z"/><path fill="#E6E7E8" d="M51.475 226.87c-4.516 0-8.188-3.672-8.188-8.188 0-4.51 3.672-8.178 8.188-8.178 4.506 0 8.172 3.668 8.172 8.178 0 4.516-3.666 8.188-8.172 8.188zm0-12.422a4.244 4.244 0 0 0-4.244 4.234 4.25 4.25 0 0 0 4.244 4.244c2.332 0 4.229-1.905 4.229-4.244a4.236 4.236 0 0 0-4.229-4.234z"/><path fill="#E3ECF8" d="M92.083 265.026c0 3.424-2.777 6.216-6.201 6.216a6.223 6.223 0 0 1-6.216-6.216 6.214 6.214 0 0 1 6.216-6.208 6.206 6.206 0 0 1 6.201 6.208zM49.38 375.941c0-9.267 7.498-16.761 16.764-16.761 9.25 0 16.749 7.494 16.749 16.761 0 9.25-7.499 16.749-16.749 16.749-9.266 0-16.764-7.499-16.764-16.749zm397.526-159.639c0-5.931 4.818-10.741 10.745-10.741 5.931 0 10.741 4.81 10.741 10.741 0 5.929-4.811 10.733-10.741 10.733-5.926.001-10.745-4.804-10.745-10.733zm13.523 150.497c0-5.061 4.09-9.151 9.135-9.151 5.049 0 9.139 4.091 9.139 9.151a9.133 9.133 0 0 1-9.139 9.135 9.133 9.133 0 0 1-9.135-9.135z"/><path fill="#8BD7F8" d="M231.046 289h-78.873c-3.268 0-5.915-2.734-5.915-6s2.647-6 5.915-6h78.873c3.268 0 5.916 2.734 5.916 6s-2.649 6-5.916 6zm-23.662 24h-55.211c-3.268 0-5.915-2.734-5.915-6s2.647-6 5.915-6h55.211c3.268 0 5.915 2.734 5.915 6s-2.647 6-5.915 6zm23.662 27h-78.873c-3.268 0-5.915-2.234-5.915-5.5s2.647-5.5 5.915-5.5h78.873c3.268 0 5.916 2.234 5.916 5.5s-2.649 5.5-5.916 5.5zm-35.493 24h-43.38c-3.268 0-5.915-2.734-5.915-6s2.647-6 5.915-6h43.38c3.268 0 5.916 2.734 5.916 6s-2.648 6-5.916 6zm169.577-75h-82.816c-3.266 0-5.916-2.734-5.916-6s2.65-6 5.916-6h82.816c3.266 0 5.915 2.734 5.915 6s-2.649 6-5.915 6zm-23.662 24h-59.154c-3.266 0-5.916-2.734-5.916-6s2.65-6 5.916-6h59.154c3.266 0 5.916 2.734 5.916 6s-2.651 6-5.916 6zm23.662 27h-82.816c-3.266 0-5.916-2.234-5.916-5.5s2.65-5.5 5.916-5.5h82.816c3.266 0 5.915 2.234 5.915 5.5s-2.649 5.5-5.915 5.5zm-35.493 24h-47.323c-3.266 0-5.916-2.734-5.916-6s2.65-6 5.916-6h47.323c3.267 0 5.916 2.734 5.916 6s-2.65 6-5.916 6z"/><path fill="#8BD7F8" d="M263 396H117V147h146v249zm-134-12h122V159H129v225z"/><path fill="#8BD7F8" d="M393 396H251V147h112.693l-1.293 29.241 30.6.186V396zm-130-12h118V188.219l-31.107-.101L351.27 159H263v225z"/><path fill="#FBB041" d="M192.592 248.206c-15.977 0-28.977-13-28.977-28.98s13-28.98 28.977-28.98c15.982 0 28.984 13 28.984 28.98s-13.002 28.98-28.984 28.98zm0-50.074c-11.629 0-21.089 9.462-21.089 21.093 0 11.63 9.46 21.093 21.089 21.093 11.632 0 21.097-9.463 21.097-21.093-.001-11.63-9.465-21.093-21.097-21.093zm131.857 50.074c-15.979 0-28.977-13-28.977-28.98s12.998-28.98 28.977-28.98c15.982 0 28.984 13 28.984 28.98s-13.001 28.98-28.984 28.98zm0-50.074c-11.627 0-21.089 9.462-21.089 21.093 0 11.63 9.462 21.093 21.089 21.093 11.635 0 21.098-9.463 21.098-21.093s-9.463-21.093-21.098-21.093z"/></svg>