<svg xmlns="http://www.w3.org/2000/svg" width="512" height="512" viewBox="0 0 512 512"><g fill="#FFF"><path d="M404.142 103.81c8.48 17.819.909 39.142-9.79 44.237L96.239 289.959c-24.948 11.877-46.268 4.31-54.756-13.511-8.48-17.823-.909-39.145 16.915-47.629L356.51 86.905c17.823-8.487 39.143-.917 47.632 16.905z"/><path d="M333.903 216.397c-8.35-17.546-1.116-38.46 16.113-47.196-.277.124-.555.214-.832.345L102.878 286.797c-.2.097-.377.212-.578.312 17.7-8.033 38.635-.466 47.023 17.153 8.396 17.623 1.063 38.65-16.329 47.316.2-.093.4-.154.608-.247L379.91 234.076c.27-.129.516-.291.785-.426-17.646 7.867-38.434.295-46.792-17.253z"/><path d="M483.453 224.363c8.48 17.821.908 39.146-9.79 44.236l-365.67 174.074c-24.94 11.873-46.268 4.306-54.749-13.514-8.48-17.819-.909-39.144 24.024-51.017l365.678-174.074c10.691-5.092 32.019 2.474 40.507 20.295z"/></g><path d="M216.712 62.509h55.611v4.469h-55.611zm-20.165 0h15.027v4.469h-15.027zm117.431 44.459h55.596v5.952h-55.596zM37.67 304.917h55.611v5.838H37.67zm398.413 32.562h55.596v5.834h-55.596zm64.146 0h11.546v5.834h-11.546zM-.226 182.545H55.37v4.31H-.226zm63.638 0h14.727v4.31H63.412zm-3.497-80.965h23.839v2.5H59.915zm200.492-1.254h23.823v2.507h-23.823zm189.74 203.339h23.839v2.499h-23.839zm-10.482 0h6.246v2.499h-6.246zm-6.509-110.361h23.823v2.499h-23.823zM45.095 331.428h23.839v2.504H45.095zM363.981 75.284h15.89v1.947h-15.89z" fill="#E7E7E7"/><path fill="#E7E7E7" d="M370.96 68.306h1.948v15.886h-1.948z"/><g fill="#E7E7E7"><path d="M27.588 265.026h15.89v1.94h-15.89z"/><path d="M34.551 258.052h1.956v15.886h-1.956z"/></g><path fill="#E7E7E7" d="M433.156 256.598h23.823v2.913h-23.823z"/><path fill="#E7E7E7" d="M443.608 246.14h2.919v23.831h-2.919z"/><g fill="#E7E7E7"><path d="M210.989 100.124h23.816v2.912h-23.816z"/><path d="M221.434 89.664h2.927v23.831h-2.927z"/></g><path fill="#E3ECF8" d="M50.811 126.765c0 5.459-4.429 9.882-9.882 9.882a9.879 9.879 0 0 1-9.882-9.882 9.878 9.878 0 0 1 9.882-9.882c5.452-.001 9.882 4.421 9.882 9.882z"/><path fill="#E6E7E8" d="M389.754 95.21c-3.967 0-7.194-3.228-7.194-7.192s3.228-7.192 7.194-7.192c3.962 0 7.186 3.227 7.186 7.192s-3.224 7.192-7.186 7.192zm0-12.413a5.227 5.227 0 0 0-5.223 5.22 5.227 5.227 0 0 0 5.223 5.221 5.223 5.223 0 0 0 5.214-5.221 5.222 5.222 0 0 0-5.214-5.22z"/><path fill="#E3ECF8" d="M110.966 84.852zm228.168 55.9a2.492 2.492 0 0 1-4.983 0 2.491 2.491 0 1 1 4.983 0zm99.445 232.688a2.496 2.496 0 0 1-4.991 0 2.487 2.487 0 0 1 2.487-2.491 2.492 2.492 0 0 1 2.504 2.491zm-333.783-14.26a2.497 2.497 0 0 1-2.503 2.496 2.494 2.494 0 0 1 0-4.987 2.491 2.491 0 0 1 2.503 2.491zM27.572 219.309zm156.32-98.758a6.214 6.214 0 0 1-6.208 6.216 6.209 6.209 0 0 1-6.208-6.216 6.2 6.2 0 0 1 6.208-6.199 6.204 6.204 0 0 1 6.208 6.199z"/><path fill="#E6E7E8" d="M421.233 324.169c-4.514 0-8.188-3.667-8.188-8.177 0-4.509 3.675-8.18 8.188-8.18 4.51 0 8.18 3.671 8.18 8.18 0 4.51-3.67 8.177-8.18 8.177zm0-12.412a4.242 4.242 0 0 0-4.244 4.235 4.242 4.242 0 0 0 4.244 4.233 4.239 4.239 0 0 0 4.236-4.233 4.238 4.238 0 0 0-4.236-4.235z"/><path fill="#E3ECF8" d="M334.15 77.985a6.212 6.212 0 1 1-12.425 0c0-3.424 2.789-6.198 6.216-6.198 3.428 0 6.209 2.775 6.209 6.198z"/><path fill="#E6E7E8" d="M50.811 226.871c-4.516 0-8.188-3.672-8.188-8.188 0-4.51 3.672-8.178 8.188-8.178 4.506 0 8.172 3.668 8.172 8.178-.001 4.515-3.667 8.188-8.172 8.188zm0-12.423a4.244 4.244 0 0 0-4.244 4.234 4.249 4.249 0 0 0 4.244 4.244c2.332 0 4.229-1.904 4.229-4.244a4.237 4.237 0 0 0-4.229-4.234z"/><path fill="#E3ECF8" d="M91.417 265.026c0 3.424-2.773 6.216-6.201 6.216A6.226 6.226 0 0 1 79 265.026c0-3.428 2.789-6.208 6.216-6.208a6.203 6.203 0 0 1 6.201 6.208zM48.715 375.94c0-9.267 7.502-16.761 16.768-16.761 9.25 0 16.745 7.494 16.745 16.761 0 9.25-7.495 16.749-16.745 16.749-9.266 0-16.768-7.499-16.768-16.749zm397.527-159.637c0-5.931 4.814-10.741 10.745-10.741s10.737 4.81 10.737 10.741c0 5.929-4.807 10.733-10.737 10.733s-10.745-4.805-10.745-10.733zm13.519 150.495c0-5.061 4.09-9.15 9.135-9.15a9.14 9.14 0 0 1 9.143 9.15c0 5.049-4.09 9.135-9.143 9.135a9.133 9.133 0 0 1-9.135-9.135z"/><path fill="#D4EEF8" d="M285.871 250.265h54.961c2.723 0 4.926-2.207 4.926-4.911a4.921 4.921 0 0 0-4.926-4.918h-54.961c-2.711 0-4.926 2.203-4.926 4.918 0 2.704 2.215 4.911 4.926 4.911zm0-29.485h54.961a4.925 4.925 0 0 0 4.926-4.914 4.927 4.927 0 0 0-4.926-4.922h-54.961a4.934 4.934 0 0 0-4.926 4.922c0 2.703 2.215 4.914 4.926 4.914zm0-29.489h54.961a4.926 4.926 0 0 0 4.926-4.921 4.921 4.921 0 0 0-4.926-4.915h-54.961c-2.711 0-4.926 2.203-4.926 4.915 0 2.711 2.215 4.921 4.926 4.921zm54.973 78.614H285.86c-2.712 0-4.915 2.211-4.915 4.906 0 2.716 2.203 4.934 4.915 4.934h54.983c2.711 0 4.929-2.218 4.929-4.934 0-2.695-2.217-4.906-4.928-4.906zm3.943 29.496H166.75a4.913 4.913 0 1 0 0 9.829h178.037c2.711 0 4.93-2.195 4.93-4.918 0-2.7-2.219-4.911-4.93-4.911zm0 28.408H166.75c-2.711 0-4.914 2.21-4.914 4.906 0 2.715 2.203 4.933 4.914 4.933h178.037c2.711 0 4.93-2.218 4.93-4.933 0-2.696-2.219-4.906-4.93-4.906zm0 29.496H166.75a4.921 4.921 0 0 0-4.914 4.91 4.913 4.913 0 0 0 4.914 4.918h178.037c2.711 0 4.93-2.195 4.93-4.918 0-2.7-2.219-4.91-4.93-4.91z"/><path fill="#8BD7F8" d="M340.785 411.603H170.763c-25.007 0-45.352-20.346-45.352-45.352v-183.91c0-25.007 20.344-45.352 45.352-45.352h170.022c25.006 0 45.352 20.344 45.352 45.352v183.91c0 25.006-20.346 45.352-45.352 45.352zM170.763 148.82c-18.484 0-33.521 15.037-33.521 33.521v183.91c0 18.481 15.037 33.521 33.521 33.521h170.022c18.482 0 33.521-15.039 33.521-33.521v-183.91c0-18.483-15.039-33.521-33.521-33.521H170.763z"/><path fill="#FBB041" d="M205.936 242.481c-18.201 0-33.008-14.806-33.008-33.005 0-18.201 14.808-33.009 33.008-33.009 18.199 0 33.005 14.808 33.005 33.009 0 18.199-14.806 33.005-33.005 33.005zm0-58.126c-13.853 0-25.121 11.269-25.121 25.121 0 13.849 11.269 25.117 25.121 25.117 13.849 0 25.118-11.269 25.118-25.117 0-13.852-11.269-25.121-25.118-25.121z"/><path fill="#FBB041" d="M205 277.312c-2.178 0-4-1.764-4-3.943V241.82c0-2.178 1.822-3.944 4-3.944s4 1.766 4 3.944v31.549c0 2.179-1.822 3.943-4 3.943z"/><path d="M263.199 181.066h-.046l-2.711 1.463-.408-1.606 3.404-1.826h1.802V194.7h-2.041v-13.634zm7.91 12.386c0-.863.594-1.51 1.434-1.51.847 0 1.417.624 1.417 1.51 0 .867-.57 1.514-1.456 1.514-.824-.001-1.395-.648-1.395-1.514zm-12.493 30.07v-1.298l1.656-1.606c3.982-3.79 5.808-5.808 5.808-8.165 0-1.579-.747-3.046-3.073-3.046-1.409 0-2.588.72-3.312 1.321l-.671-1.486a6.906 6.906 0 0 1 4.391-1.587c3.358 0 4.783 2.303 4.783 4.537 0 2.881-2.095 5.207-5.384 8.376l-1.217 1.155v.046h6.979v1.752h-9.96zm12.493-1.248c0-.863.594-1.51 1.434-1.51.847 0 1.417.624 1.417 1.51 0 .863-.57 1.514-1.456 1.514-.824 0-1.395-.651-1.395-1.514zm-11.984 27.667c.601.362 1.964.959 3.45.959 2.688 0 3.559-1.702 3.528-3.02-.023-2.188-1.987-3.127-4.028-3.127h-1.179v-1.579h1.179c1.532 0 3.481-.793 3.481-2.642 0-1.252-.794-2.354-2.742-2.354-1.248 0-2.441.555-3.119 1.032l-.57-1.537c.832-.601 2.419-1.198 4.105-1.198 3.073 0 4.46 1.818 4.46 3.716 0 1.633-.986 3.004-2.881 3.697v.054c1.926.358 3.458 1.794 3.481 3.978 0 2.496-1.972 4.683-5.692 4.683-1.748 0-3.289-.551-4.052-1.055l.579-1.607zm11.984 1.151c0-.866.594-1.509 1.434-1.509.847 0 1.417.624 1.417 1.509 0 .863-.57 1.514-1.456 1.514-.824 0-1.395-.651-1.395-1.514zm-5.637 29.243v-4.283h-7.271v-1.371l6.978-9.989h2.288v9.724h2.188v1.637h-2.188v4.283h-1.995zm0-5.92v-5.222c0-.82.016-1.637.069-2.457h-.069a48.86 48.86 0 0 1-1.302 2.314l-3.828 5.314v.05h5.13zm5.969 4.668c0-.866.601-1.514 1.447-1.514.84 0 1.418.624 1.418 1.514 0 .866-.578 1.518-1.472 1.518-.815 0-1.393-.652-1.393-1.518z" fill="#D4EEF8"/></svg>