<svg xmlns="http://www.w3.org/2000/svg" width="512" height="512" viewBox="0 0 512 512"><g fill="#FFF"><path d="M404.805 104.407c8.48 17.819.913 39.142-9.789 44.237L96.9 290.559c-24.944 11.874-46.269 4.31-54.753-13.514-8.484-17.821-.913-39.144 16.911-47.628L357.173 87.501c17.828-8.485 39.148-.916 47.632 16.906z"/><path d="M334.57 216.995c-8.354-17.546-1.12-38.46 16.113-47.197-.277.123-.558.214-.831.345L103.544 287.397c-.201.092-.377.212-.578.312 17.7-8.037 38.636-.466 47.023 17.153 8.392 17.623 1.063 38.647-16.333 47.316.204-.093.404-.154.608-.251l246.309-117.254c.273-.129.52-.291.79-.425-17.646 7.867-38.439.295-46.793-17.253z"/><path d="M484.117 224.961c8.484 17.821.909 39.144-9.79 44.235L108.654 443.275c-24.94 11.873-46.265 4.306-54.749-13.514-8.48-17.824-.909-39.145 24.028-51.021L443.61 204.667c10.695-5.093 32.023 2.473 40.507 20.294z"/></g><path d="M217.374 63.106h55.611v4.47h-55.611zm-20.165 0h15.031v4.47h-15.031zm117.436 44.458h55.596v5.952h-55.596zM38.331 305.514h55.612v5.842H38.331zm398.416 32.565h55.597v5.831h-55.597zm64.146 0h11.547v5.831h-11.547zM.439 183.143h55.596v4.31H.439zm63.638 0H78.8v4.31H64.077zm-3.497-80.966h23.839v2.5H60.58zm200.49-1.254h23.827v2.507H261.07zm189.745 203.343h23.839v2.495h-23.839zm-10.482 0h6.242v2.495h-6.242zm-6.509-110.365h23.823v2.499h-23.823zM45.756 332.029h23.839v2.499H45.756zM364.648 75.881h15.887v1.947h-15.887z" fill="#E7E7E7"/><path fill="#E7E7E7" d="M371.627 68.902h1.945v15.886h-1.945z"/><g fill="#E7E7E7"><path d="M28.252 265.626h15.89v1.938h-15.89z"/><path d="M35.215 258.649h1.957v15.885h-1.957z"/></g><path fill="#E7E7E7" d="M433.824 257.196h23.823v2.911h-23.823z"/><path fill="#E7E7E7" d="M444.276 246.738h2.919v23.83h-2.919z"/><g fill="#E7E7E7"><path d="M211.651 100.721h23.82v2.911h-23.82z"/><path d="M222.1 90.261h2.923v23.831H222.1z"/></g><path fill="#E3ECF8" d="M51.475 127.362c0 5.459-4.429 9.882-9.882 9.882a9.879 9.879 0 0 1-9.882-9.882 9.878 9.878 0 0 1 9.882-9.882c5.453-.001 9.882 4.421 9.882 9.882z"/><path fill="#E6E7E8" d="M390.417 95.807c-3.967 0-7.194-3.227-7.194-7.192s3.228-7.192 7.194-7.192c3.963 0 7.19 3.228 7.19 7.192s-3.227 7.192-7.19 7.192zm0-12.412c-2.881 0-5.223 2.341-5.223 5.22s2.342 5.22 5.223 5.22c2.877 0 5.219-2.341 5.219-5.22s-2.342-5.22-5.219-5.22z"/><path fill="#E3ECF8" d="M111.631 85.449a2.493 2.493 0 1 1-2.5-2.492 2.49 2.49 0 0 1 2.5 2.492zm228.17 55.901a2.492 2.492 0 1 1-4.987 0 2.488 2.488 0 0 1 2.487-2.492 2.49 2.49 0 0 1 2.5 2.492zm99.442 232.692a2.495 2.495 0 1 1-4.989-.007 2.495 2.495 0 0 1 4.989.007zm-333.785-14.265a2.493 2.493 0 1 1-4.988 0 2.487 2.487 0 0 1 2.488-2.488 2.49 2.49 0 0 1 2.5 2.488zm-77.221-139.87a2.493 2.493 0 1 1-4.988.002 2.493 2.493 0 0 1 4.988-.002zm156.317-98.759a6.212 6.212 0 0 1-6.208 6.216 6.212 6.212 0 0 1-6.208-6.216 6.202 6.202 0 0 1 6.208-6.199 6.202 6.202 0 0 1 6.208 6.199z"/><path fill="#E6E7E8" d="M421.896 324.77c-4.514 0-8.184-3.67-8.184-8.18s3.67-8.181 8.184-8.181c4.51 0 8.181 3.671 8.181 8.181s-3.671 8.18-8.181 8.18zm0-12.416a4.242 4.242 0 0 0-4.24 4.236 4.239 4.239 0 0 0 8.476 0 4.237 4.237 0 0 0-4.236-4.236z"/><path fill="#E3ECF8" d="M334.813 78.582a6.211 6.211 0 0 1-6.205 6.214 6.22 6.22 0 0 1-6.216-6.214c0-3.423 2.789-6.198 6.216-6.198a6.203 6.203 0 0 1 6.205 6.198z"/><path fill="#E6E7E8" d="M51.475 227.468c-4.516 0-8.188-3.672-8.188-8.188 0-4.51 3.672-8.178 8.188-8.178 4.506 0 8.172 3.668 8.172 8.178 0 4.516-3.666 8.188-8.172 8.188zm0-12.422a4.244 4.244 0 0 0-4.244 4.234 4.25 4.25 0 0 0 4.244 4.244c2.332 0 4.229-1.905 4.229-4.244a4.236 4.236 0 0 0-4.229-4.234z"/><path fill="#E3ECF8" d="M92.083 265.622c0 3.428-2.777 6.216-6.201 6.216a6.22 6.22 0 0 1-6.216-6.216c0-3.424 2.785-6.206 6.216-6.206a6.206 6.206 0 0 1 6.201 6.206zM49.38 376.541c0-9.266 7.498-16.764 16.764-16.764 9.25 0 16.749 7.498 16.749 16.764 0 9.247-7.499 16.749-16.749 16.749-9.266 0-16.764-7.502-16.764-16.749zM446.906 216.9c0-5.931 4.818-10.741 10.745-10.741 5.931 0 10.741 4.81 10.741 10.741 0 5.929-4.811 10.733-10.741 10.733-5.926.001-10.745-4.803-10.745-10.733zm13.523 150.498c0-5.064 4.09-9.154 9.135-9.154 5.049 0 9.139 4.09 9.139 9.154a9.133 9.133 0 0 1-9.139 9.135 9.133 9.133 0 0 1-9.135-9.135z"/><path fill="#8BD7F8" d="M324.28 385.473H188.598c-25.008 0-45.352-20.347-45.352-45.353V192.469c0-25.008 20.344-45.352 45.352-45.352H324.28c25.006 0 45.352 20.344 45.352 45.352V340.12c0 25.006-20.346 45.353-45.352 45.353zM188.598 158.948c-18.484 0-33.521 15.037-33.521 33.521V340.12c0 18.482 15.037 33.521 33.521 33.521H324.28c18.481 0 33.521-15.039 33.521-33.521V192.469c0-18.484-15.039-33.521-33.521-33.521H188.598z"/><g fill="#8BD7F8"><path d="M254.575 336.266c-17.119 0-33.213-6.663-45.319-18.768-24.989-25.002-24.989-65.675 0-90.669 12.106-12.103 28.202-18.767 45.321-18.767 17.123 0 33.221 6.667 45.329 18.775 24.987 24.99 24.987 65.655 0 90.649-12.108 12.109-28.207 18.78-45.331 18.78zm.002-116.373c-13.96 0-27.085 5.434-36.956 15.303-20.377 20.381-20.377 53.549.002 73.938 9.869 9.866 22.994 15.301 36.953 15.301 13.962 0 27.091-5.438 36.966-15.313 20.373-20.381 20.373-53.542 0-73.92-9.876-9.873-23.001-15.309-36.965-15.309z"/><path d="M318.907 346.102a5.899 5.899 0 0 1-4.182-1.733l-24.001-24.005a5.912 5.912 0 0 1 0-8.364 5.91 5.91 0 0 1 8.364 0l24.001 24.004a5.913 5.913 0 0 1 0 8.365 5.898 5.898 0 0 1-4.182 1.733z"/></g><path fill="#FFF" d="M306 157.5c0 12.979-10.521 23.5-23.5 23.5h-56c-12.979 0-23.5-10.521-23.5-23.5s10.521-23.5 23.5-23.5h56c12.979 0 23.5 10.521 23.5 23.5z"/><path fill="#8BD7F8" d="M284.285 185h-55.211c-16.31 0-29.578-13.19-29.578-29.5 0-16.311 13.268-29.5 29.578-29.5h55.211c16.31 0 29.577 13.189 29.577 29.5 0 16.31-13.267 29.5-29.577 29.5zm-55.211-47c-9.786 0-17.747 7.714-17.747 17.5s7.96 17.5 17.747 17.5h55.211c9.786 0 17.746-7.714 17.746-17.5s-7.96-17.5-17.746-17.5h-55.211z"/><path fill="#8BD7F8" d="M278.37 161h-43.38c-3.268 0-5.916-2.732-5.916-6s2.647-6 5.916-6h43.38c3.266 0 5.915 2.732 5.915 6s-2.649 6-5.915 6z"/><path fill="#FBB03C" d="M231.158 284.428h50.547a3.167 3.167 0 0 0 3.169-3.158 3.165 3.165 0 0 0-3.169-3.161h-50.547a3.17 3.17 0 0 0-3.166 3.161 3.171 3.171 0 0 0 3.166 3.158zm0-18.955h50.547a3.168 3.168 0 0 0 3.169-3.162 3.17 3.17 0 0 0-3.169-3.164h-50.547a3.174 3.174 0 0 0-3.166 3.164 3.173 3.173 0 0 0 3.166 3.162zm0-18.96h50.547a3.169 3.169 0 0 0 3.169-3.166 3.165 3.165 0 0 0-3.169-3.16h-50.547a3.17 3.17 0 0 0-3.166 3.16 3.174 3.174 0 0 0 3.166 3.166zm50.555 50.543H231.15a3.164 3.164 0 0 0-3.158 3.154 3.17 3.17 0 0 0 3.158 3.17h50.563a3.177 3.177 0 0 0 3.169-3.17c0-1.732-1.425-3.154-3.169-3.154z"/></svg>