<svg xmlns="http://www.w3.org/2000/svg" width="512" height="512" viewBox="0 0 512 512"><g fill="#FFF"><path d="M404.365 104.348c8.48 17.82.917 39.142-9.79 44.237L96.458 290.502c-24.941 11.876-46.269 4.308-54.75-13.514-8.488-17.821-.917-39.144 16.907-47.628L356.733 87.443c17.831-8.486 39.152-.916 47.632 16.905z"/><path d="M334.134 216.938c-8.356-17.546-1.124-38.46 16.114-47.197-.277.123-.563.213-.832.344L103.105 287.339c-.2.096-.377.214-.578.313 17.7-8.037 38.636-.468 47.024 17.153 8.388 17.623 1.063 38.647-16.337 47.316.208-.092.409-.154.609-.25l246.311-117.255c.276-.129.523-.291.793-.426-17.647 7.867-38.444.296-46.793-17.252z"/><path d="M483.678 224.904c8.488 17.822.909 39.146-9.79 44.238L108.212 443.22c-24.941 11.871-46.261 4.306-54.75-13.516-8.48-17.822-.909-39.145 24.032-51.018L443.171 204.61c10.698-5.093 32.026 2.472 40.507 20.294z"/></g><path d="M216.933 63.047h55.612v4.47h-55.612zm-20.165 0h15.036v4.47h-15.036zm117.44 44.459h55.597v5.952h-55.597zM37.889 305.457h55.612v5.842H37.889zm398.419 32.564h55.597v5.835h-55.597zm64.146 0H512v5.835h-11.546zM0 183.085h55.597v4.31H0zm63.638 0h14.719v4.31H63.638zm-3.497-80.967H83.98v2.5H60.141zm200.488-1.253h23.832v2.507h-23.832zM450.38 304.207h23.84v2.499h-23.84zm-10.484 0h6.239v2.499h-6.239zm-6.507-110.363h23.823v2.499h-23.823zM45.314 331.973h23.839v2.499H45.314zM364.212 75.822h15.883v1.947h-15.883z" fill="#E7E7E7"/><path fill="#E7E7E7" d="M371.19 68.844h1.941V84.73h-1.941z"/><g fill="#E7E7E7"><path d="M27.813 265.569h15.891v1.939H27.813z"/><path d="M34.777 258.593h1.957v15.887h-1.957z"/></g><path fill="#E7E7E7" d="M433.389 257.139h23.823v2.914h-23.823z"/><path fill="#E7E7E7" d="M443.841 246.681h2.919v23.83h-2.919z"/><g fill="#E7E7E7"><path d="M211.21 100.663h23.824v2.912H211.21z"/><path d="M221.662 90.203h2.919v23.832h-2.919z"/></g><path fill="#E3ECF8" d="M51.037 127.304c0 5.459-4.429 9.882-9.882 9.882a9.879 9.879 0 0 1-9.882-9.882 9.878 9.878 0 0 1 9.882-9.882c5.453-.001 9.882 4.421 9.882 9.882z"/><path fill="#E6E7E8" d="M389.978 95.749c-3.967 0-7.194-3.228-7.194-7.192s3.228-7.192 7.194-7.192 7.193 3.227 7.193 7.192-3.227 7.192-7.193 7.192zm0-12.413c-2.881 0-5.223 2.341-5.223 5.22s2.342 5.22 5.223 5.22c2.88 0 5.222-2.341 5.222-5.22s-2.343-5.22-5.222-5.22z"/><path fill="#E3ECF8" d="M111.193 85.391a2.496 2.496 0 0 1-4.991 0 2.489 2.489 0 0 1 2.488-2.492 2.492 2.492 0 0 1 2.503 2.492zm228.171 55.901a2.497 2.497 0 0 1-2.504 2.494 2.492 2.492 0 0 1-2.487-2.494 2.488 2.488 0 0 1 2.487-2.492 2.492 2.492 0 0 1 2.504 2.492zm99.439 232.691a2.494 2.494 0 0 1-2.495 2.494 2.493 2.493 0 0 1 0-4.985 2.49 2.49 0 0 1 2.495 2.491zm-333.787-14.26zM27.798 219.849a2.496 2.496 0 0 1-4.991 0 2.489 2.489 0 0 1 2.488-2.492 2.492 2.492 0 0 1 2.503 2.492zm156.315-98.759a6.21 6.21 0 0 1-6.208 6.216 6.214 6.214 0 0 1-6.208-6.216 6.204 6.204 0 0 1 6.208-6.199 6.2 6.2 0 0 1 6.208 6.199z"/><path fill="#E6E7E8" d="M421.457 324.711c-4.51 0-8.18-3.668-8.18-8.178s3.67-8.181 8.18-8.181 8.181 3.671 8.181 8.181-3.671 8.178-8.181 8.178zm0-12.414c-2.338 0-4.236 1.9-4.236 4.236s1.898 4.234 4.236 4.234 4.236-1.898 4.236-4.234-1.898-4.236-4.236-4.236z"/><path fill="#E3ECF8" d="M334.373 78.524c0 3.431-2.781 6.214-6.201 6.214a6.22 6.22 0 0 1-6.216-6.214c0-3.424 2.789-6.199 6.216-6.199a6.203 6.203 0 0 1 6.201 6.199z"/><path fill="#E6E7E8" d="M51.037 227.411c-4.516 0-8.188-3.672-8.188-8.188 0-4.51 3.672-8.178 8.188-8.178 4.506 0 8.172 3.668 8.172 8.178 0 4.516-3.667 8.188-8.172 8.188zm0-12.422a4.244 4.244 0 0 0-4.244 4.234 4.25 4.25 0 0 0 4.244 4.244c2.332 0 4.229-1.904 4.229-4.244a4.236 4.236 0 0 0-4.229-4.234z"/><path fill="#E3ECF8" d="M91.644 265.565c0 3.426-2.78 6.216-6.2 6.216a6.219 6.219 0 0 1-6.216-6.216 6.211 6.211 0 0 1 6.216-6.206c3.42 0 6.2 2.783 6.2 6.206zm-42.703 110.92c0-9.267 7.495-16.763 16.761-16.763 9.251 0 16.753 7.496 16.753 16.763 0 9.249-7.502 16.747-16.753 16.747-9.266 0-16.761-7.498-16.761-16.747zm397.526-159.642c0-5.931 4.822-10.741 10.745-10.741 5.931 0 10.745 4.81 10.745 10.741 0 5.929-4.814 10.733-10.745 10.733-5.923.001-10.745-4.804-10.745-10.733zm13.526 150.5c0-5.063 4.09-9.153 9.135-9.153s9.135 4.091 9.135 9.153c0 5.047-4.09 9.135-9.135 9.135s-9.135-4.088-9.135-9.135z"/><path fill="#8BD7F8" d="M346 383.281C346 404.112 329.112 421 308.281 421H162.719C141.887 421 125 404.112 125 383.281V198.719C125 177.887 141.887 161 162.719 161h145.563c20.83 0 37.718 16.887 37.718 37.719v184.562zm-12-185.393C334 183.59 322.409 172 308.111 172H162.889C148.591 172 137 183.59 137 197.888v185.223C137 397.409 148.591 409 162.889 409h145.223C322.409 409 334 397.409 334 383.111V197.888z"/><path fill="#8BD7F8" d="M371.541 142.998c13.772 13.772 13.772 36.104 0 49.874-13.771 13.774-36.102 13.774-49.873 0-13.776-13.77-13.776-36.102 0-49.875 13.771-13.771 36.102-13.771 49.873.001z"/><g fill="#FFF"><path d="M330.476 165.964h32.25v3.944h-32.25z"/><path d="M344.629 151.809h3.947v32.252h-3.947z"/></g><path d="M181.555 196.189l3.413 12.911c.678 2.831 1.363 5.459 1.833 8.082h.158c.578-2.571 1.421-5.303 2.257-8.032l4.148-12.961h3.882l3.943 12.698c.947 3.044 1.675 5.725 2.253 8.295h.158c.419-2.571 1.101-5.251 1.937-8.244l3.62-12.75h4.571l-8.191 25.403h-4.198l-3.882-12.127c-.89-2.831-1.629-5.35-2.253-8.342h-.108c-.624 3.044-1.421 5.669-2.311 8.397l-4.09 12.072h-4.202l-7.668-25.403h4.73zm39.279 0l3.412 12.911c.682 2.831 1.363 5.459 1.841 8.082h.15c.582-2.571 1.421-5.303 2.257-8.032l4.152-12.961h3.878l3.943 12.698c.947 3.044 1.676 5.725 2.253 8.295h.162c.416-2.571 1.102-5.251 1.938-8.244l3.623-12.75h4.564l-8.188 25.403h-4.198l-3.878-12.127c-.897-2.831-1.626-5.35-2.269-8.342h-.097c-.628 3.044-1.421 5.669-2.311 8.397l-4.09 12.072h-4.202l-7.664-25.403h4.724zm39.275 0l3.424 12.911c.674 2.831 1.355 5.459 1.829 8.082h.162c.573-2.571 1.417-5.303 2.253-8.032l4.151-12.961h3.882l3.937 12.698c.943 3.044 1.679 5.725 2.261 8.295h.149c.428-2.571 1.105-5.251 1.945-8.244l3.62-12.75h4.571l-8.191 25.403h-4.198l-3.882-12.127c-.897-2.831-1.629-5.35-2.253-8.342h-.115c-.624 3.044-1.414 5.669-2.304 8.397l-4.098 12.072h-4.197l-7.664-25.403h4.718z" fill="#FCB863"/><path d="M195.705 257.732h-33.552a4.202 4.202 0 0 1-4.202-4.196 4.2 4.2 0 0 1 4.202-4.196h33.552a4.196 4.196 0 0 1 0 8.392zm117.443 0h-12.582a4.2 4.2 0 0 1-4.197-4.196 4.198 4.198 0 0 1 4.197-4.196h12.582a4.196 4.196 0 0 1 4.198 4.196 4.199 4.199 0 0 1-4.198 4.196zm-29.361 0h-71.302a4.196 4.196 0 1 1 0-8.392h71.302a4.192 4.192 0 0 1 4.193 4.196 4.193 4.193 0 0 1-4.193 4.196zm-71.302 41.944h-50.332a4.201 4.201 0 0 1-4.202-4.197 4.198 4.198 0 0 1 4.202-4.19h50.332a4.195 4.195 0 0 1 4.194 4.19 4.2 4.2 0 0 1-4.194 4.197zm-20.974 20.97h-29.358a4.199 4.199 0 0 1-4.202-4.194 4.202 4.202 0 0 1 4.202-4.194h29.358a4.193 4.193 0 1 1 0 8.388zm121.637 0h-67.111a4.194 4.194 0 0 1-4.194-4.194 4.199 4.199 0 0 1 4.194-4.194h67.111a4.197 4.197 0 0 1 4.194 4.194 4.19 4.19 0 0 1-4.194 4.194zm0-20.97h-33.552a4.198 4.198 0 0 1-4.198-4.197c0-2.312 1.88-4.19 4.198-4.19h33.552a4.196 4.196 0 0 1 4.198 4.19 4.2 4.2 0 0 1-4.198 4.197zm-48.232 0h-33.557a4.198 4.198 0 0 1-4.198-4.197 4.195 4.195 0 0 1 4.198-4.19h33.557a4.197 4.197 0 0 1 4.193 4.19 4.198 4.198 0 0 1-4.193 4.197zm-39.849-20.97h-62.914a4.203 4.203 0 0 1-4.202-4.198 4.198 4.198 0 0 1 4.202-4.193h62.914a4.195 4.195 0 0 1 4.194 4.193 4.2 4.2 0 0 1-4.194 4.198zm-4.194 41.94h-12.585a4.194 4.194 0 0 1-4.194-4.194 4.198 4.198 0 0 1 4.194-4.194h12.585a4.193 4.193 0 1 1 0 8.388zm-41.944 20.974h-16.776a4.2 4.2 0 0 1-4.198-4.194 4.197 4.197 0 0 1 4.198-4.194h16.776c2.315 0 4.19 1.88 4.19 4.194a4.195 4.195 0 0 1-4.19 4.194zm79.694 20.97h-16.78a4.194 4.194 0 0 1-4.194-4.194 4.196 4.196 0 0 1 4.194-4.193h16.78a4.197 4.197 0 0 1 4.193 4.193 4.195 4.195 0 0 1-4.193 4.194zm54.525 0h-37.75a4.19 4.19 0 0 1-4.193-4.194 4.193 4.193 0 0 1 4.193-4.193h37.75a4.197 4.197 0 0 1 4.198 4.193 4.196 4.196 0 0 1-4.198 4.194zm0-20.97h-16.779a4.195 4.195 0 0 1-4.19-4.194 4.193 4.193 0 0 1 4.19-4.194h16.779a4.198 4.198 0 0 1 4.198 4.194 4.202 4.202 0 0 1-4.198 4.194zm-33.551 0h-83.892a4.194 4.194 0 1 1 0-8.388h83.892c2.314 0 4.19 1.88 4.19 4.194a4.196 4.196 0 0 1-4.19 4.194zm-67.112 41.943h-50.332a4.199 4.199 0 0 1-4.202-4.197 4.197 4.197 0 0 1 4.202-4.19h50.332a4.194 4.194 0 0 1 4.194 4.19 4.197 4.197 0 0 1-4.194 4.197zm100.663 0h-29.361a4.19 4.19 0 0 1-4.19-4.197 4.19 4.19 0 0 1 4.19-4.19h29.361a4.194 4.194 0 0 1 4.198 4.19 4.196 4.196 0 0 1-4.198 4.197zm-46.137 0h-37.75a4.192 4.192 0 0 1-4.194-4.197 4.19 4.19 0 0 1 4.194-4.19h37.75a4.194 4.194 0 0 1 0 8.387zm-41.944-20.973h-62.914a4.198 4.198 0 0 1-4.202-4.194 4.2 4.2 0 0 1 4.202-4.193h62.914a4.194 4.194 0 0 1 0 8.387zm88.081-83.884h-71.306a4.195 4.195 0 1 1 0-8.391h71.306a4.196 4.196 0 0 1 4.198 4.193 4.201 4.201 0 0 1-4.198 4.198z" fill="#D4EEF8"/></svg>