<svg xmlns="http://www.w3.org/2000/svg" width="512" height="512" viewBox="0 0 512 512"><g fill="#FFF"><path d="M404.803 104.405c8.48 17.82.917 39.142-9.79 44.237L96.896 290.56c-24.941 11.873-46.269 4.31-54.75-13.515-8.488-17.821-.917-39.144 16.907-47.628L357.171 87.5c17.831-8.486 39.151-.916 47.632 16.905z"/><path d="M334.571 216.995c-8.356-17.546-1.124-38.46 16.114-47.197-.277.123-.563.213-.832.344l-246.31 117.255c-.2.093-.377.212-.578.312 17.7-8.037 38.636-.466 47.024 17.153 8.388 17.624 1.063 38.647-16.337 47.316.208-.092.408-.153.608-.25l246.311-117.255c.276-.129.523-.291.793-.426-17.646 7.867-38.443.296-46.793-17.252z"/><path d="M484.115 224.961c8.488 17.822.909 39.145-9.79 44.235L108.65 443.276c-24.941 11.873-46.261 4.306-54.75-13.514-8.48-17.824-.909-39.145 24.032-51.021l365.676-174.074c10.699-5.093 32.027 2.472 40.507 20.294z"/></g><path d="M217.371 63.104h55.612v4.47h-55.612zm-20.165 0h15.035v4.47h-15.035zm117.44 44.459h55.597v5.952h-55.597zM38.326 305.514h55.612v5.842H38.326zm398.419 32.566h55.597v5.83h-55.597zm64.147 0h11.546v5.83h-11.546zM.438 183.142h55.597v4.31H.438zm63.638 0h14.719v4.31H64.076zm-3.497-80.967h23.839v2.5H60.579zm200.487-1.253h23.832v2.507h-23.832zm189.751 203.344h23.84v2.496h-23.84zm-10.482 0h6.238v2.496h-6.238zM433.826 193.9h23.823v2.5h-23.823zM45.751 332.029H69.59v2.5H45.751zm318.898-256.15h15.883v1.947h-15.883z" fill="#E7E7E7"/><path fill="#E7E7E7" d="M371.628 68.901h1.941v15.886h-1.941z"/><g fill="#E7E7E7"><path d="M28.251 265.626h15.891v1.938H28.251z"/><path d="M35.214 258.649h1.957v15.885h-1.957z"/></g><path fill="#E7E7E7" d="M433.826 257.196h23.823v2.911h-23.823z"/><path fill="#E7E7E7" d="M444.278 246.738h2.919v23.83h-2.919z"/><g fill="#E7E7E7"><path d="M211.647 100.72h23.824v2.912h-23.824z"/><path d="M222.1 90.26h2.919v23.832H222.1z"/></g><path fill="#E3ECF8" d="M51.474 127.361c0 5.459-4.429 9.882-9.882 9.882a9.879 9.879 0 0 1-9.882-9.882 9.878 9.878 0 0 1 9.882-9.882c5.453 0 9.882 4.421 9.882 9.882z"/><path fill="#E6E7E8" d="M390.415 95.806c-3.967 0-7.194-3.228-7.194-7.192s3.228-7.192 7.194-7.192 7.193 3.227 7.193 7.192-3.226 7.192-7.193 7.192zm0-12.413c-2.881 0-5.223 2.341-5.223 5.22s2.342 5.22 5.223 5.22c2.88 0 5.222-2.341 5.222-5.22s-2.342-5.22-5.222-5.22z"/><path fill="#E3ECF8" d="M111.631 85.448a2.497 2.497 0 0 1-2.503 2.494 2.493 2.493 0 0 1 0-4.986 2.492 2.492 0 0 1 2.503 2.492zm228.171 55.901a2.497 2.497 0 0 1-2.504 2.494 2.492 2.492 0 0 1-2.487-2.494 2.488 2.488 0 0 1 2.487-2.492 2.492 2.492 0 0 1 2.504 2.492zm99.439 232.694a2.492 2.492 0 1 1-4.984 0 2.491 2.491 0 1 1 4.984 0zm-333.788-14.266a2.495 2.495 0 0 1-2.496 2.496c-1.371 0-2.488-1.117-2.488-2.496s1.117-2.487 2.488-2.487a2.488 2.488 0 0 1 2.496 2.487zM28.236 219.906a2.496 2.496 0 0 1-4.991 0 2.489 2.489 0 0 1 2.488-2.492 2.493 2.493 0 0 1 2.503 2.492zm156.314-98.759a6.21 6.21 0 0 1-6.208 6.216 6.214 6.214 0 0 1-6.208-6.216 6.204 6.204 0 0 1 6.208-6.199 6.2 6.2 0 0 1 6.208 6.199z"/><path fill="#E6E7E8" d="M421.895 324.77c-4.51 0-8.18-3.67-8.18-8.18s3.67-8.18 8.18-8.18 8.181 3.67 8.181 8.18-3.672 8.18-8.181 8.18zm0-12.416c-2.338 0-4.236 1.898-4.236 4.236s1.898 4.236 4.236 4.236 4.236-1.898 4.236-4.236-1.899-4.236-4.236-4.236z"/><path fill="#E3ECF8" d="M334.811 78.581c0 3.431-2.781 6.214-6.201 6.214a6.22 6.22 0 0 1-6.216-6.214c0-3.424 2.789-6.199 6.216-6.199a6.203 6.203 0 0 1 6.201 6.199z"/><path fill="#E6E7E8" d="M51.474 227.468c-4.516 0-8.188-3.672-8.188-8.188 0-4.51 3.672-8.178 8.188-8.178 4.506 0 8.172 3.668 8.172 8.178 0 4.516-3.666 8.188-8.172 8.188zm0-12.422a4.244 4.244 0 0 0-4.244 4.234 4.25 4.25 0 0 0 4.244 4.244c2.332 0 4.229-1.904 4.229-4.244a4.235 4.235 0 0 0-4.229-4.234z"/><path fill="#E3ECF8" d="M92.082 265.622c0 3.428-2.78 6.216-6.2 6.216a6.217 6.217 0 0 1-6.216-6.216 6.211 6.211 0 0 1 6.216-6.206c3.419 0 6.2 2.782 6.2 6.206zm-42.703 110.92c0-9.266 7.495-16.765 16.761-16.765 9.251 0 16.753 7.499 16.753 16.765 0 9.247-7.502 16.749-16.753 16.749-9.266 0-16.761-7.502-16.761-16.749zM446.904 216.9c0-5.931 4.822-10.741 10.745-10.741 5.932 0 10.745 4.81 10.745 10.741 0 5.929-4.813 10.733-10.745 10.733-5.922.001-10.745-4.804-10.745-10.733zm13.527 150.499c0-5.064 4.09-9.154 9.135-9.154s9.135 4.09 9.135 9.154c0 5.049-4.09 9.135-9.135 9.135s-9.135-4.086-9.135-9.135z"/><path fill="#FBB03C" d="M242.376 252.609c2.873 0 5.203-2.326 5.203-5.199s-2.33-5.207-5.203-5.207-5.199 2.333-5.199 5.207 2.326 5.199 5.199 5.199zm20.805 0c2.873 0 5.203-2.326 5.203-5.199s-2.33-5.207-5.203-5.207c-2.869 0-5.199 2.333-5.199 5.207s2.33 5.199 5.199 5.199zm-30.737 33.76c2.7.438 8.827.916 11.666.916 24.898 0 41.617-18.531 41.617-40.314s-20.89-39.444-41.617-39.444c-24.933 0-45.079 17.662-45.079 39.444 0 12.624 4.81 23.339 13.869 31.057v19.656l19.544-11.315zm-26.477-38.959c0-18.201 16.483-32.943 38.143-32.943 17.246 0 34.676 14.743 34.676 32.943 0 18.194-13.61 32.936-34.676 32.936-3.097 0-9.559-.347-12.44-.947l-11.831 7.887v-12.293c-8.457-6.863-13.872-16.029-13.872-27.583zm86.514-8.196c.065.994.177 1.979.177 2.989 0 2.21-.212 4.367-.523 6.501 4.668 5.469 7.456 12.2 7.456 19.51 0 11.554-6.901 21.706-17.339 27.591v12.285l-11.83-7.887c-2.881.601-5.878.955-8.974.955-8.981 0-13.749-2.704-20.273-7.187a70.844 70.844 0 0 1-5.734.254c-1.378 0-2.73-.101-4.094-.185 8.257 8.08 16.749 13.179 30.102 13.179 2.842 0 5.611-.254 8.303-.693l19.441 11.97v-19.672c10.537-7.218 17.338-18.425 17.338-31.049-.001-11.245-5.415-21.366-14.05-28.561zm-70.909 13.395c2.869 0 5.199-2.326 5.199-5.199s-2.33-5.207-5.199-5.207c-2.873 0-5.203 2.333-5.203 5.207s2.33 5.199 5.203 5.199z"/><path fill="#8BD7F8" d="M252.779 385.304c-67.905 0-123.151-55.246-123.151-123.155 0-67.905 55.246-123.151 123.151-123.151S375.93 194.244 375.93 262.149c0 67.909-55.246 123.155-123.151 123.155zm0-238.419c-63.557 0-115.264 51.707-115.264 115.264 0 63.558 51.707 115.268 115.264 115.268s115.264-51.71 115.264-115.268-51.707-115.264-115.264-115.264z"/><path fill="#D4EEF8" d="M283.438 111.195c16.245 16.248 16.245 42.583 0 58.828-16.244 16.249-42.587 16.249-58.832 0-16.245-16.245-16.245-42.58 0-58.832 16.246-16.24 42.588-16.24 58.832.004z"/><path fill="#FFD9AB" d="M247.737 134.291h13.079v18.91c0 6.381-13.079 7.113-13.079 0v-18.91z"/><path fill="#FDC680" d="M260.816 146.161v-2.419h-13.079v8.904z"/><path fill="#FFE7C9" d="M254.285 116.075c27.683 0 16.46 36.571 0 36.571-16.468 0-27.691-36.571 0-36.571"/><path fill="#FCB863" d="M254.608 108.203h-.046c-14.327.031-20.234 14.227-18.232 21.983 2.01 7.772 4.506 3.366 4.406.031-.1-3.331 2.789-10.637 13.071-10.903 9.29 0 13.788 6.097 14.081 10.803.3 4.699 1.933 5.138 3.943.855s-2.896-22.731-17.223-22.769"/><path fill="#FCB863" d="M240.636 133.089c-.47 3.277-3.42 1.117-3.628-1.918-.223-3.031.077-3.551 1.271-6.366 1.194-2.815 7.533-10.349 15.528-10.349 6.601 0 16.861 11.169 16.653 10.784 1.187 2.165 1.456 4.514.909 6.462-.539 1.949-1.811 3.304-2.488.909-1.733-6.077-5.808-10.368-10.221-12.224-1.533-.647 3.712 6.216 2.18 6.189-2.318-.042-11.269-6.482-13.103-5.215-3.904 2.705-6.524 7.654-7.101 11.728"/><path fill="#FFE7C9" d="M235.999 128.657c-1.009.223-1.402 2.299-.886 4.629.523 2.333 1.756 4.047 2.765 3.82 1.009-.224 1.402-2.299.886-4.633-.524-2.333-1.756-4.036-2.765-3.816"/><path fill="#FFF" d="M277.685 172.969c-1.617-4.179-4.09-9.139-7.048-10.988-7.587-4.752-12.154-5.889-16.629-5.95-4.583-.062-9.066 1.059-16.606 5.95-2.912 1.895-5.423 6.84-7.04 10.988h47.323z"/><path fill="#5CC1A2" d="M252.644 167.088l-.647 5.881a42.881 42.881 0 0 0 4.298 0l-.917-5.881 4.444-10.633a325.89 325.89 0 0 0-11.615 0l4.437 10.633z"/><path fill="#FFF" d="M247.93 152.646l-4.829 6.154 3.003 5.616 7.973-8.015zm12.571 0l4.837 6.154-3.004 5.616-7.972-8.015z"/><path fill="#D4EEF8" d="M401.402 232.737c16.244 16.248 16.244 42.583.004 58.828-16.249 16.248-42.587 16.248-58.832 0-16.248-16.244-16.248-42.58 0-58.832 16.245-16.241 42.583-16.241 58.828.004z"/><path fill="#595A5C" d="M353.847 257.696c1.502 9.632-2.78 20.559-6.997 24.197-1.814 2.265 1.367 4.26 9.616-6.319 2.708-3.467 1.479 11.118 8.504 6.975 14.631-8.631 2.641-41.467-11.123-24.853"/><path fill="#595A5C" d="M390.134 257.423c-1.502 9.632 2.776 20.555 6.997 24.197 1.814 2.265-1.371 4.26-9.616-6.323-2.707-3.466-1.479 11.118-8.504 6.979-14.631-8.631-2.642-41.471 11.123-24.853"/><path fill="#FFD9AB" d="M365.416 255.771h13.248v19.164c0 6.47-13.248 7.21-13.248 0v-19.164z"/><path fill="#FDC680" d="M378.664 267.802v-2.449h-13.248v9.019z"/><path fill="#FFE7C9" d="M372.044 237.312c28.057 0 16.676 37.06 0 37.06-16.684 0-28.056-37.06 0-37.06"/><path fill="#595A5C" d="M372.371 229.336h-.043c-14.516.031-20.504 14.419-18.475 22.283 2.041 7.872 4.561 3.405 4.46.031-.093-3.381 2.823-10.783 13.248-11.053 9.413 0 13.973 6.177 14.273 10.945.3 4.76 1.956 5.207 3.997.871 2.031-4.345-2.94-23.038-17.46-23.077"/><path fill="#595A5C" d="M358.207 254.554c-.474 3.324-3.459 1.136-3.675-1.941-.219-3.073.081-3.597 1.29-6.455 1.206-2.85 7.638-10.483 15.74-10.483 6.687 0 17.084 11.315 16.869 10.93 1.209 2.191 1.482 4.575.932 6.547-.551 1.976-1.833 3.351-2.526.924-1.756-6.162-5.885-10.514-10.36-12.393-1.548-.655-13.563 8.188-15.119 8.157-2.357-.039 5.915-8.45 4.059-7.167-3.968 2.738-6.609 7.752-7.21 11.881"/><path fill="#FFE7C9" d="M390.072 250.063c1.024.227 1.425 2.326.896 4.694-.527 2.361-1.782 4.094-2.803 3.871-1.021-.231-1.422-2.334-.897-4.695.524-2.364 1.784-4.093 2.804-3.87m-36.56 0c-1.021.227-1.421 2.326-.894 4.694.528 2.361 1.783 4.094 2.8 3.871 1.024-.231 1.426-2.334.897-4.695-.527-2.364-1.775-4.093-2.803-3.87"/><path fill="#FFF" d="M395.76 294.969c-1.637-4.229-4.144-9.258-7.14-11.13-7.691-4.818-12.32-5.97-16.857-6.031-4.641-.065-9.188 1.07-16.822 6.031-2.957 1.918-5.499 6.925-7.14 11.13h47.959z"/><path fill="#FFF" d="M365.608 274.372l-4.898 6.239 3.05 5.689 8.076-8.122zm12.737 0l4.906 6.239-3.05 5.689-8.076-8.122z"/><path fill="#D4EEF8" d="M283.438 342.089c16.245 16.244 16.245 42.583 0 58.828-16.244 16.248-42.587 16.248-58.832 0-16.245-16.245-16.245-42.584 0-58.832 16.246-16.24 42.588-16.24 58.832.004z"/><path fill="#FFD9AB" d="M247.741 365.181h13.071v18.91c0 6.381-13.071 7.113-13.071 0v-18.91z"/><path fill="#FDC680" d="M260.813 377.051v-2.411h-13.072v8.892z"/><path fill="#FFE7C9" d="M254.277 346.965c27.687 0 16.46 36.567 0 36.567s-27.691-36.567 0-36.567"/><path fill="#A2A5A6" d="M254.608 339.093h-.046c-14.327.034-20.234 14.23-18.232 21.99 2.01 7.765 4.499 3.362 4.402.023-.096-3.327 2.789-10.638 13.075-10.903 9.29 0 13.78 6.101 14.081 10.803.3 4.699 1.933 5.138 3.943.855 2.003-4.283-2.904-22.726-17.223-22.768"/><path fill="#A2A5A6" d="M240.632 363.979c-.474 3.277-3.416 1.117-3.631-1.914-.216-3.035.081-3.551 1.271-6.37 1.194-2.815 7.533-10.345 15.536-10.345 6.597 0 16.857 11.161 16.645 10.776 1.194 2.168 1.456 4.518.917 6.466-.543 1.953-1.807 3.309-2.496.909-1.726-6.077-5.804-10.368-10.213-12.22 30.031 12.628-38.987 4.837-14.643 5.271-2.326-.046 5.554-5.568 3.72-4.302-3.909 2.71-6.525 7.65-7.106 11.729"/><path fill="#FFE7C9" d="M272.069 359.547c1.01.223 1.402 2.295.882 4.625-.52 2.342-1.752 4.048-2.765 3.828-1.005-.231-1.405-2.299-.882-4.637.516-2.33 1.757-4.04 2.765-3.816m-36.074 0c-1.009.223-1.406 2.295-.882 4.625.516 2.342 1.756 4.048 2.761 3.828 1.005-.231 1.402-2.299.882-4.637-.516-2.33-1.748-4.04-2.761-3.816"/><path fill="#FFF" d="M277.685 403.859c-1.617-4.179-4.098-9.136-7.044-10.984-7.591-4.752-12.158-5.893-16.637-5.95-4.583-.065-9.069 1.06-16.61 5.95-2.908 1.892-5.418 6.836-7.032 10.984h47.323z"/><path fill="#FCB863" d="M252.644 397.979l-.655 5.881a44.403 44.403 0 0 0 4.305.004l-.92-5.885 4.445-10.634a326.17 326.17 0 0 0-11.62 0l4.445 10.634z"/><path fill="#FFF" d="M247.93 383.532l-4.837 6.158 3.011 5.616 7.969-8.015zm12.571 0l4.837 6.158-3.012 5.616-7.972-8.015z"/><path fill="#D4EEF8" d="M170.304 232.737c16.245 16.244 16.245 42.583.004 58.828-16.248 16.248-42.587 16.248-58.832 0-16.249-16.244-16.249-42.583 0-58.832 16.245-16.241 42.584-16.241 58.828.004z"/><path fill="#F89521" d="M122.749 257.696c1.502 9.628-2.784 20.555-7.001 24.193-1.81 2.265 1.367 4.26 9.617-6.315 2.708-3.47 1.475 11.114 8.503 6.971 14.631-8.627 2.646-41.463-11.119-24.849"/><path fill="#F89521" d="M159.036 257.419c-1.51 9.632 2.773 20.559 6.994 24.197 1.811 2.269-1.371 4.26-9.616-6.319-2.708-3.466-1.483 11.114-8.504 6.979-14.632-8.635-2.646-41.471 11.126-24.857"/><path fill="#FFD9AB" d="M134.311 255.771h13.256v19.164c0 6.467-13.256 7.21-13.256 0v-19.164z"/><path fill="#FDC680" d="M147.566 267.802v-2.449h-13.255v9.019z"/><path fill="#FFE7C9" d="M140.942 237.308c28.053 0 16.676 37.064 0 37.064-16.683 0-28.06-37.064 0-37.064"/><path fill="#F89521" d="M141.274 229.336v-.004h-.042l-.004.004c-14.516.031-20.504 14.415-18.479 22.279 2.042 7.872 4.564 3.409 4.464.031-.092-3.377 2.823-10.779 13.252-11.053 9.413 0 13.965 6.181 14.265 10.945.308 4.764 1.964 5.21 4.005.87 2.026-4.34-2.95-23.037-17.461-23.072"/><path fill="#F89521" d="M127.109 254.55c-.478 3.324-3.466 1.136-3.674-1.937-.223-3.073.077-3.597 1.287-6.455 1.205-2.854 7.633-10.487 15.744-10.487 6.682 0 17.077 11.319 16.869 10.934 1.202 2.188 1.479 4.571.928 6.543-.551 1.976-1.83 3.354-2.53.928-1.756-6.162-5.881-10.514-10.353-12.393-1.556-.655-13.572 8.184-15.127 8.157-2.349-.042 5.919-8.453 4.059-7.171-3.96 2.742-6.61 7.756-7.203 11.881"/><path fill="#FFE7C9" d="M158.97 250.063c1.021.223 1.421 2.326.897 4.691-.532 2.365-1.779 4.097-2.804 3.871-1.024-.228-1.425-2.33-.897-4.695s1.784-4.094 2.804-3.867m-36.56 0c-1.017.223-1.417 2.326-.894 4.691.524 2.365 1.779 4.097 2.8 3.871 1.021-.228 1.421-2.33.897-4.695-.523-2.365-1.778-4.094-2.803-3.867"/><path fill="#FFF" d="M164.659 294.969c-1.637-4.232-4.144-9.258-7.141-11.134-7.687-4.818-12.32-5.966-16.86-6.031-4.637-.065-9.186 1.074-16.822 6.031-2.95 1.918-5.5 6.929-7.137 11.134h47.96z"/><path fill="#FFF" d="M134.511 274.372l-4.899 6.235 3.043 5.689 8.079-8.118zm12.732 0l4.906 6.235-3.049 5.689-8.08-8.118z"/></svg>