<svg xmlns="http://www.w3.org/2000/svg" width="512" height="512" viewBox="0 0 512 512"><g fill="#FFF"><path d="M404.803 103.587c8.48 17.82.917 39.142-9.79 44.237L96.896 289.743c-24.941 11.874-46.269 4.306-54.75-13.518-8.488-17.82-.917-39.142 16.907-47.626L357.171 86.683c17.831-8.487 39.151-.917 47.632 16.904z"/><path d="M334.571 216.177c-8.356-17.546-1.124-38.46 16.114-47.197-.277.123-.563.213-.832.345l-246.31 117.252c-.2.097-.377.216-.578.316 17.7-8.042 38.636-.47 47.024 17.153 8.388 17.623 1.063 38.644-16.337 47.316.208-.093.408-.154.608-.254l246.311-117.253c.276-.129.523-.291.793-.426-17.646 7.867-38.443.296-46.793-17.252z"/><path d="M484.115 224.143c8.488 17.822.909 39.146-9.79 44.238L108.65 442.461c-24.941 11.869-46.261 4.306-54.75-13.519-8.48-17.823-.909-39.144 24.032-51.018l365.676-174.076c10.699-5.092 32.027 2.473 40.507 20.295z"/></g><path d="M217.371 62.287h55.612v4.47h-55.612zm-20.165 0h15.035v4.47h-15.035zm117.44 44.459h55.597v5.952h-55.597zM38.326 304.693h55.612v5.847H38.326zm398.419 32.567h55.597v5.835h-55.597zm64.147 0h11.546v5.835h-11.546zM.438 182.324h55.597v4.31H.438zm63.638 0h14.719v4.31H64.076zm-3.497-80.966h23.839v2.499H60.579zm200.487-1.254h23.832v2.507h-23.832zm189.751 203.342h23.84v2.499h-23.84zm-10.482 0h6.238v2.499h-6.238zm-6.509-110.363h23.823v2.499h-23.823zM45.751 331.214H69.59v2.495H45.751zM364.649 75.062h15.883v1.947h-15.883z" fill="#E7E7E7"/><path fill="#E7E7E7" d="M371.628 68.083h1.941v15.886h-1.941z"/><g fill="#E7E7E7"><path d="M28.251 264.811h15.891v1.937H28.251z"/><path d="M35.214 257.832h1.957v15.887h-1.957z"/></g><path fill="#E7E7E7" d="M433.826 256.378h23.823v2.913h-23.823z"/><path fill="#E7E7E7" d="M444.278 245.92h2.919v23.828h-2.919z"/><g fill="#E7E7E7"><path d="M211.647 99.902h23.824v2.912h-23.824z"/><path d="M222.1 89.442h2.919v23.832H222.1z"/></g><path fill="#E3ECF8" d="M51.474 126.543c0 5.459-4.429 9.882-9.882 9.882a9.879 9.879 0 0 1-9.882-9.882 9.878 9.878 0 0 1 9.882-9.882c5.453 0 9.882 4.421 9.882 9.882z"/><path fill="#E6E7E8" d="M390.415 94.988c-3.967 0-7.194-3.228-7.194-7.192s3.228-7.192 7.194-7.192 7.193 3.227 7.193 7.192-3.226 7.192-7.193 7.192zm0-12.413c-2.881 0-5.223 2.341-5.223 5.22s2.342 5.221 5.223 5.221c2.88 0 5.222-2.342 5.222-5.221s-2.342-5.22-5.222-5.22z"/><path fill="#E3ECF8" d="M111.631 84.63a2.496 2.496 0 0 1-4.991 0 2.489 2.489 0 0 1 2.488-2.492 2.492 2.492 0 0 1 2.503 2.492zm228.171 55.901a2.497 2.497 0 0 1-2.504 2.494 2.492 2.492 0 0 1-2.487-2.494 2.488 2.488 0 0 1 2.487-2.492 2.492 2.492 0 0 1 2.504 2.492zm99.439 232.692a2.495 2.495 0 0 1-2.496 2.496 2.494 2.494 0 0 1 0-4.987 2.49 2.49 0 0 1 2.496 2.491zm-333.788-14.261a2.492 2.492 0 1 1-4.984-.002 2.492 2.492 0 0 1 4.984.002zM28.236 219.088a2.496 2.496 0 0 1-4.991 0 2.489 2.489 0 0 1 2.488-2.492 2.493 2.493 0 0 1 2.503 2.492zm156.314-98.759a6.21 6.21 0 0 1-6.208 6.216 6.214 6.214 0 0 1-6.208-6.216 6.204 6.204 0 0 1 6.208-6.199 6.2 6.2 0 0 1 6.208 6.199z"/><path fill="#E6E7E8" d="M421.895 323.95c-4.51 0-8.18-3.67-8.18-8.181 0-4.51 3.67-8.18 8.18-8.18s8.181 3.67 8.181 8.18c-.001 4.511-3.672 8.181-8.181 8.181zm0-12.417a4.239 4.239 0 0 0-4.236 4.236c0 2.338 1.898 4.237 4.236 4.237s4.236-1.899 4.236-4.237a4.24 4.24 0 0 0-4.236-4.236z"/><path fill="#E3ECF8" d="M334.811 77.763c0 3.431-2.781 6.214-6.201 6.214a6.22 6.22 0 0 1-6.216-6.214c0-3.424 2.789-6.199 6.216-6.199a6.203 6.203 0 0 1 6.201 6.199z"/><path fill="#E6E7E8" d="M51.474 226.65c-4.516 0-8.188-3.672-8.188-8.188 0-4.51 3.672-8.178 8.188-8.178 4.506 0 8.172 3.668 8.172 8.178 0 4.516-3.666 8.188-8.172 8.188zm0-12.422a4.244 4.244 0 0 0-4.244 4.234 4.25 4.25 0 0 0 4.244 4.244c2.332 0 4.229-1.904 4.229-4.244a4.236 4.236 0 0 0-4.229-4.234z"/><path fill="#E3ECF8" d="M92.082 264.803c0 3.428-2.78 6.216-6.2 6.216a6.217 6.217 0 0 1-6.216-6.216 6.208 6.208 0 0 1 12.416 0zM49.379 375.727c0-9.267 7.495-16.765 16.761-16.765 9.251 0 16.753 7.498 16.753 16.765 0 9.246-7.502 16.745-16.753 16.745-9.266 0-16.761-7.499-16.761-16.745zm397.525-159.644c0-5.931 4.822-10.741 10.745-10.741 5.932 0 10.745 4.81 10.745 10.741 0 5.929-4.813 10.733-10.745 10.733-5.922 0-10.745-4.805-10.745-10.733zm13.527 150.5c0-5.064 4.09-9.154 9.135-9.154s9.135 4.09 9.135 9.154a9.135 9.135 0 1 1-18.27 0z"/><path fill="#8BD7F8" d="M223 211v-33.665c0-5.365 3.274-9.335 8.639-9.335h49.6c5.369 0 8.761 3.97 8.761 9.335V211h12v-33.665C302 166.583 291.992 156 281.239 156h-49.6C220.887 156 211 166.583 211 177.335V211h12z"/><path fill="#8BD7F8" d="M341.45 393.727H171.425c-25.008 0-45.353-20.346-45.353-45.352V247.281c0-25.008 20.344-45.352 45.353-45.352H341.45c25.006 0 45.352 20.344 45.352 45.352v101.094c0 25.006-20.346 45.352-45.352 45.352zM171.425 213.76c-18.484 0-33.521 15.037-33.521 33.521v101.094c0 18.481 15.037 33.521 33.521 33.521H341.45c18.481 0 33.521-15.039 33.521-33.521V247.281c0-18.484-15.039-33.521-33.521-33.521H171.425z"/><path d="M273.965 327.065l-19.499-10.252-19.499 10.252 3.724-21.709-15.774-15.378 21.798-3.17 9.751-19.757 9.751 19.757 21.798 3.17-15.774 15.378 3.724 21.709zm-19.499-18.27l10.071 5.292-1.922-11.211 8.148-7.945-11.261-1.637-5.037-10.206-5.038 10.206-11.261 1.637 8.149 7.945-1.922 11.211 10.073-5.292zm-47.544 18.27l-19.499-10.252-19.499 10.252 3.724-21.709-15.774-15.378 21.798-3.17 9.751-19.757 9.751 19.757 21.798 3.17-15.775 15.378 3.725 21.709zm-19.499-18.27l10.071 5.292-1.922-11.211 8.149-7.945-11.261-1.637-5.037-10.206-5.038 10.206-11.261 1.637 8.149 7.945-1.922 11.211 10.072-5.292zm157.528 18.27l-19.499-10.252-19.499 10.252 3.724-21.709-15.774-15.378 21.798-3.17 9.752-19.757 9.751 19.757 21.798 3.17-15.774 15.378 3.723 21.709zm-19.499-18.27l10.07 5.292-1.921-11.211 8.148-7.945-11.261-1.637-5.037-10.206-5.038 10.206-11.261 1.637 8.149 7.945-1.922 11.211 10.073-5.292z" fill="#FBB041"/></svg>