<svg xmlns="http://www.w3.org/2000/svg" width="512" height="512" viewBox="0 0 512 512"><g fill="#FFF"><path d="M404.711 104.405c8.48 17.82.917 39.142-9.79 44.237L96.804 290.56c-24.941 11.873-46.269 4.31-54.75-13.515-8.488-17.821-.917-39.144 16.907-47.628L357.079 87.5c17.831-8.486 39.151-.916 47.632 16.905z"/><path d="M334.479 216.995c-8.356-17.546-1.124-38.46 16.114-47.197-.277.123-.563.213-.832.344l-246.31 117.255c-.2.093-.377.212-.578.312 17.7-8.037 38.636-.466 47.024 17.153 8.388 17.624 1.063 38.647-16.337 47.316.208-.092.409-.153.609-.25L380.48 234.673c.276-.129.523-.291.793-.426-17.647 7.867-38.444.296-46.794-17.252z"/><path d="M484.023 224.961c8.488 17.822.909 39.145-9.79 44.235l-365.675 174.08c-24.941 11.873-46.261 4.306-54.75-13.514-8.48-17.824-.909-39.145 24.032-51.021l365.676-174.074c10.699-5.093 32.027 2.472 40.507 20.294z"/></g><path d="M217.279 63.104h55.612v4.47h-55.612zm-20.165 0h15.035v4.47h-15.035zm117.44 44.459h55.597v5.952h-55.597zM38.234 305.514h55.612v5.842H38.234zm398.419 32.566h55.597v5.83h-55.597zm64.147 0h11.546v5.83H500.8zM.346 183.142h55.597v4.31H.346zm63.638 0h14.719v4.31H63.984zm-3.497-80.967h23.839v2.5H60.487zm200.488-1.253h23.832v2.507h-23.832zm189.751 203.344h23.84v2.496h-23.84zm-10.484 0h6.239v2.496h-6.239zM433.734 193.9h23.823v2.5h-23.823zM45.66 332.029h23.839v2.5H45.66zm318.898-256.15h15.883v1.947h-15.883z" fill="#E7E7E7"/><path fill="#E7E7E7" d="M371.536 68.901h1.941v15.886h-1.941z"/><g fill="#E7E7E7"><path d="M28.159 265.626H44.05v1.938H28.159z"/><path d="M35.123 258.649h1.957v15.885h-1.957z"/></g><path fill="#E7E7E7" d="M433.734 257.196h23.823v2.911h-23.823z"/><path fill="#E7E7E7" d="M444.187 246.738h2.919v23.83h-2.919z"/><g fill="#E7E7E7"><path d="M211.556 100.72h23.824v2.912h-23.824z"/><path d="M222.008 90.26h2.919v23.832h-2.919z"/></g><path fill="#E3ECF8" d="M51.382 127.361c0 5.459-4.429 9.882-9.882 9.882a9.879 9.879 0 0 1-9.882-9.882 9.878 9.878 0 0 1 9.882-9.882c5.454 0 9.882 4.421 9.882 9.882z"/><path fill="#E6E7E8" d="M390.323 95.806c-3.967 0-7.194-3.228-7.194-7.192s3.228-7.192 7.194-7.192 7.193 3.227 7.193 7.192-3.226 7.192-7.193 7.192zm0-12.413c-2.881 0-5.223 2.341-5.223 5.22s2.342 5.22 5.223 5.22c2.88 0 5.222-2.341 5.222-5.22s-2.342-5.22-5.222-5.22z"/><path fill="#E3ECF8" d="M111.539 85.448a2.497 2.497 0 0 1-2.503 2.494 2.493 2.493 0 0 1 0-4.986 2.492 2.492 0 0 1 2.503 2.492zm228.171 55.901a2.497 2.497 0 0 1-2.504 2.494 2.492 2.492 0 0 1-2.487-2.494 2.488 2.488 0 0 1 2.487-2.492 2.492 2.492 0 0 1 2.504 2.492zm99.438 232.694a2.492 2.492 0 0 1-4.983 0 2.491 2.491 0 1 1 4.983 0zm-333.787-14.266a2.495 2.495 0 0 1-2.496 2.496c-1.371 0-2.488-1.117-2.488-2.496s1.117-2.487 2.488-2.487a2.487 2.487 0 0 1 2.496 2.487zM28.144 219.906a2.496 2.496 0 0 1-4.991 0 2.489 2.489 0 0 1 2.488-2.492 2.493 2.493 0 0 1 2.503 2.492zm156.314-98.759a6.21 6.21 0 0 1-6.208 6.216 6.214 6.214 0 0 1-6.208-6.216 6.204 6.204 0 0 1 6.208-6.199 6.199 6.199 0 0 1 6.208 6.199z"/><path fill="#E6E7E8" d="M421.803 324.77c-4.51 0-8.18-3.67-8.18-8.18s3.67-8.18 8.18-8.18 8.181 3.67 8.181 8.18-3.671 8.18-8.181 8.18zm0-12.416c-2.338 0-4.236 1.898-4.236 4.236s1.898 4.236 4.236 4.236 4.236-1.898 4.236-4.236-1.898-4.236-4.236-4.236z"/><path fill="#E3ECF8" d="M334.719 78.581c0 3.431-2.781 6.214-6.201 6.214a6.22 6.22 0 0 1-6.216-6.214c0-3.424 2.789-6.199 6.216-6.199a6.203 6.203 0 0 1 6.201 6.199z"/><path fill="#E6E7E8" d="M51.382 227.468c-4.516 0-8.188-3.672-8.188-8.188 0-4.51 3.672-8.178 8.188-8.178 4.506 0 8.172 3.668 8.172 8.178.001 4.516-3.666 8.188-8.172 8.188zm0-12.422a4.244 4.244 0 0 0-4.244 4.234 4.25 4.25 0 0 0 4.244 4.244c2.332 0 4.229-1.904 4.229-4.244a4.235 4.235 0 0 0-4.229-4.234z"/><path fill="#E3ECF8" d="M91.99 265.622c0 3.428-2.78 6.216-6.2 6.216a6.217 6.217 0 0 1-6.216-6.216 6.211 6.211 0 0 1 6.216-6.206c3.419 0 6.2 2.782 6.2 6.206zm-42.703 110.92c0-9.266 7.495-16.765 16.761-16.765 9.251 0 16.753 7.499 16.753 16.765 0 9.247-7.502 16.749-16.753 16.749-9.266 0-16.761-7.502-16.761-16.749zM446.813 216.9c0-5.931 4.822-10.741 10.745-10.741 5.932 0 10.745 4.81 10.745 10.741 0 5.929-4.813 10.733-10.745 10.733-5.923.001-10.745-4.804-10.745-10.733zm13.526 150.499c0-5.064 4.09-9.154 9.135-9.154s9.135 4.09 9.135 9.154c0 5.049-4.09 9.135-9.135 9.135s-9.135-4.086-9.135-9.135z"/><path fill="#8BD7F8" d="M341.358 393.364H171.333c-25.008 0-45.353-20.346-45.353-45.353V164.1c0-25.008 20.344-45.352 45.353-45.352h170.025c25.006 0 45.352 20.344 45.352 45.352v183.912c0 25.007-20.346 45.352-45.352 45.352zM171.333 130.579c-18.484 0-33.521 15.037-33.521 33.521v183.912c0 18.482 15.037 33.521 33.521 33.521h170.025c18.481 0 33.521-15.039 33.521-33.521V164.1c0-18.484-15.039-33.521-33.521-33.521H171.333z"/><path fill="#8BD7F8" d="M144.868 376.253l-10.283-5.854 61.073-107.315 49.833 34.858 32.456-96.629 54.206 35.448 43.408-82.307 10.467 5.519-49.468 93.803-52.274-34.182-32.614 97.111-52.155-36.482z"/><path fill="#FFF" d="M214.964 275.824c0 11.146-9.035 20.181-20.176 20.181-11.146 0-20.181-9.035-20.181-20.181 0-11.142 9.035-20.177 20.181-20.177 11.141 0 20.176 9.036 20.176 20.177z"/><path fill="#FBB041" d="M194.788 299.948c-13.302 0-24.125-10.821-24.125-24.124 0-13.298 10.822-24.12 24.125-24.12 13.3 0 24.12 10.822 24.12 24.12 0 13.303-10.82 24.124-24.12 24.124zm0-40.356c-8.953 0-16.237 7.282-16.237 16.232 0 8.954 7.284 16.237 16.237 16.237 8.95 0 16.233-7.283 16.233-16.237 0-8.95-7.283-16.232-16.233-16.232z"/><path fill="#FFF" d="M301.725 212.726c0 11.146-9.035 20.181-20.177 20.181-11.146 0-20.18-9.035-20.18-20.181 0-11.142 9.034-20.177 20.18-20.177 11.141 0 20.177 9.035 20.177 20.177z"/><path fill="#FBB041" d="M281.548 236.85c-13.302 0-24.124-10.822-24.124-24.124 0-13.3 10.822-24.121 24.124-24.121 13.299 0 24.121 10.82 24.121 24.121 0 13.302-10.822 24.124-24.121 24.124zm0-40.357c-8.954 0-16.236 7.283-16.236 16.233 0 8.952 7.282 16.237 16.236 16.237 8.95 0 16.233-7.285 16.233-16.237 0-8.951-7.283-16.233-16.233-16.233z"/></svg>