<svg xmlns="http://www.w3.org/2000/svg" width="512" height="512" viewBox="0 0 512 512"><g fill="#FFF"><path d="M403.957 104.407c8.48 17.819.913 39.142-9.789 44.237L96.053 290.559c-24.944 11.874-46.269 4.31-54.753-13.514-8.484-17.821-.913-39.144 16.911-47.628L356.326 87.501c17.827-8.485 39.148-.916 47.631 16.906z"/><path d="M333.723 216.995c-8.354-17.546-1.12-38.46 16.113-47.197-.277.123-.558.214-.831.345L102.696 287.397c-.201.092-.377.212-.578.312 17.7-8.037 38.635-.466 47.023 17.153 8.392 17.623 1.063 38.647-16.333 47.316.204-.093.404-.154.609-.251l246.308-117.254c.273-.129.52-.291.79-.425-17.646 7.867-38.439.295-46.792-17.253z"/><path d="M483.27 224.961c8.484 17.821.909 39.144-9.79 44.235L107.807 443.275c-24.94 11.873-46.265 4.306-54.749-13.514-8.48-17.824-.909-39.145 24.028-51.021l365.677-174.073c10.694-5.093 32.022 2.473 40.507 20.294z"/></g><path d="M216.526 63.106h55.611v4.47h-55.611zm-20.165 0h15.032v4.47h-15.032zm117.436 44.458h55.596v5.952h-55.596zM37.483 305.514h55.612v5.842H37.483zm398.416 32.565h55.597v5.831h-55.597zm64.146 0h11.547v5.831h-11.547zM-.409 183.143h55.596v4.31H-.409zm63.638 0h14.723v4.31H63.229zm-3.497-80.966h23.839v2.5H59.732zm200.491-1.254h23.827v2.507h-23.827zm189.745 203.343h23.839v2.495h-23.839zm-10.483 0h6.242v2.495h-6.242zm-6.508-110.365H456.8v2.499h-23.823zM44.909 332.029h23.839v2.499H44.909zM363.801 75.881h15.887v1.947h-15.887z" fill="#E7E7E7"/><path fill="#E7E7E7" d="M370.779 68.902h1.945v15.886h-1.945z"/><g fill="#E7E7E7"><path d="M27.405 265.626h15.89v1.938h-15.89z"/><path d="M34.368 258.649h1.957v15.885h-1.957z"/></g><path fill="#E7E7E7" d="M432.977 257.196H456.8v2.911h-23.823z"/><path fill="#E7E7E7" d="M443.429 246.738h2.919v23.83h-2.919z"/><g fill="#E7E7E7"><path d="M210.804 100.721h23.82v2.911h-23.82z"/><path d="M221.252 90.261h2.923v23.831h-2.923z"/></g><path fill="#E3ECF8" d="M50.627 127.362c0 5.459-4.429 9.882-9.882 9.882a9.879 9.879 0 0 1-9.882-9.882 9.878 9.878 0 0 1 9.882-9.882c5.454-.001 9.882 4.421 9.882 9.882z"/><path fill="#E6E7E8" d="M389.569 95.807c-3.967 0-7.194-3.227-7.194-7.192s3.228-7.192 7.194-7.192c3.963 0 7.19 3.228 7.19 7.192s-3.227 7.192-7.19 7.192zm0-12.412c-2.881 0-5.223 2.341-5.223 5.22s2.342 5.22 5.223 5.22c2.877 0 5.219-2.341 5.219-5.22s-2.342-5.22-5.219-5.22z"/><path fill="#E3ECF8" d="M110.784 85.449a2.493 2.493 0 1 1-2.5-2.492c1.383 0 2.5 1.111 2.5 2.492zm228.169 55.901a2.492 2.492 0 1 1-4.987 0 2.488 2.488 0 0 1 2.487-2.492 2.49 2.49 0 0 1 2.5 2.492zm99.443 232.692a2.495 2.495 0 1 1-4.989-.007 2.495 2.495 0 0 1 4.989.007zM104.61 359.777a2.493 2.493 0 1 1-4.988 0 2.487 2.487 0 0 1 2.488-2.488 2.49 2.49 0 0 1 2.5 2.488zm-77.22-139.87a2.493 2.493 0 1 1-2.5-2.492c1.382 0 2.5 1.111 2.5 2.492zm156.317-98.759a6.212 6.212 0 0 1-6.208 6.216 6.212 6.212 0 0 1-6.208-6.216 6.202 6.202 0 0 1 6.208-6.199 6.202 6.202 0 0 1 6.208 6.199z"/><path fill="#E6E7E8" d="M421.049 324.77c-4.514 0-8.184-3.67-8.184-8.18s3.67-8.181 8.184-8.181c4.51 0 8.181 3.671 8.181 8.181s-3.671 8.18-8.181 8.18zm0-12.416a4.242 4.242 0 0 0-4.24 4.236 4.239 4.239 0 0 0 8.476 0 4.238 4.238 0 0 0-4.236-4.236z"/><path fill="#E3ECF8" d="M333.966 78.582a6.211 6.211 0 0 1-6.205 6.214 6.22 6.22 0 0 1-6.216-6.214c0-3.423 2.789-6.198 6.216-6.198a6.203 6.203 0 0 1 6.205 6.198z"/><path fill="#E6E7E8" d="M50.627 227.468c-4.515 0-8.188-3.672-8.188-8.188 0-4.51 3.672-8.178 8.188-8.178 4.506 0 8.172 3.668 8.172 8.178.001 4.516-3.665 8.188-8.172 8.188zm0-12.422a4.244 4.244 0 0 0-4.244 4.234 4.25 4.25 0 0 0 4.244 4.244c2.332 0 4.229-1.905 4.229-4.244a4.236 4.236 0 0 0-4.229-4.234z"/><path fill="#E3ECF8" d="M91.235 265.622c0 3.428-2.777 6.216-6.201 6.216a6.22 6.22 0 0 1-6.216-6.216c0-3.424 2.785-6.206 6.216-6.206a6.206 6.206 0 0 1 6.201 6.206zM48.533 376.541c0-9.266 7.498-16.764 16.764-16.764 9.25 0 16.749 7.498 16.749 16.764 0 9.247-7.499 16.749-16.749 16.749-9.266 0-16.764-7.502-16.764-16.749zM446.059 216.9c0-5.931 4.818-10.741 10.745-10.741 5.931 0 10.741 4.81 10.741 10.741 0 5.929-4.811 10.733-10.741 10.733-5.927.001-10.745-4.803-10.745-10.733zm13.522 150.498c0-5.064 4.09-9.154 9.135-9.154 5.049 0 9.139 4.09 9.139 9.154a9.133 9.133 0 0 1-9.139 9.135 9.133 9.133 0 0 1-9.135-9.135z"/><path fill="#8BD7F8" d="M340.602 393.363H170.578c-25.008 0-45.352-20.346-45.352-45.352v-183.91c0-25.008 20.344-45.352 45.352-45.352h170.024c25.006 0 45.352 20.344 45.352 45.352v183.911c-.001 25.006-20.347 45.351-45.352 45.351zM170.578 130.58c-18.484 0-33.521 15.037-33.521 33.521v183.911c0 18.481 15.037 33.521 33.521 33.521h170.024c18.481 0 33.521-15.039 33.521-33.521V164.101c0-18.484-15.039-33.521-33.521-33.521H170.578z"/><g fill="#8BD7F8"><circle cx="170.938" cy="163.33" r="9.43"/><path d="M207.973 163.33a9.43 9.43 0 0 1-9.432 9.432c-5.207 0-9.428-4.221-9.428-9.432a9.428 9.428 0 0 1 9.428-9.428c5.211 0 9.432 4.222 9.432 9.428zm27.606 0a9.43 9.43 0 0 1-9.432 9.432c-5.207 0-9.428-4.221-9.428-9.432a9.428 9.428 0 0 1 9.428-9.428c5.21 0 9.432 4.222 9.432 9.428z"/></g><path fill="#D4EEF8" d="M339.727 212.988H236.226c-2.711 0-4.914 2.919-4.914 6.481 0 3.593 2.203 6.489 4.914 6.489h103.501c2.712 0 4.93-2.896 4.93-6.489-.001-3.562-2.219-6.481-4.93-6.481zm0 55.989H236.226c-2.711 0-4.914 2.916-4.914 6.471 0 3.585 2.203 6.512 4.914 6.512h103.501c2.712 0 4.93-2.927 4.93-6.512-.001-3.555-2.219-6.471-4.93-6.471zm0 62.69H236.226c-2.711 0-4.914 2.919-4.914 6.478 0 3.597 2.203 6.493 4.914 6.493h103.501c2.712 0 4.93-2.896 4.93-6.493-.001-3.559-2.219-6.478-4.93-6.478z"/><path fill="#8BD7F8" d="M210 240h-44v-43h44v43zm-36-8h28v-27h-28v27z"/><path fill="#FBB03C" d="M210 299h-44v-43h44v43zm-36-8h28v-27h-28v27z"/><path fill="#8BD7F8" d="M210 358h-44v-43h44v43zm-36-8h28v-27h-28v27z"/></svg>