<svg xmlns="http://www.w3.org/2000/svg" width="512" height="512" viewBox="0 0 512 512"><g fill="#FFF"><path d="M404.766 103.589c8.48 17.819.913 39.142-9.789 44.237L96.861 289.743c-24.944 11.873-46.269 4.306-54.753-13.518-8.484-17.82-.913-39.142 16.911-47.626L357.134 86.684c17.828-8.486 39.148-.917 47.632 16.905z"/><path d="M334.531 216.177c-8.354-17.546-1.12-38.46 16.113-47.197-.277.123-.558.214-.831.345L103.505 286.577c-.201.097-.377.216-.578.316 17.7-8.042 38.636-.471 47.023 17.153 8.392 17.623 1.063 38.643-16.333 47.315.204-.092.404-.154.608-.254l246.309-117.252c.273-.129.52-.291.79-.425-17.646 7.866-38.439.295-46.793-17.253z"/><path d="M484.078 224.144c8.484 17.821.909 39.146-9.79 44.236L108.615 442.459c-24.94 11.869-46.265 4.306-54.749-13.518-8.48-17.823-.909-39.144 24.028-51.018l365.677-174.075c10.695-5.092 32.023 2.474 40.507 20.296z"/></g><path d="M217.335 62.288h55.611v4.469h-55.611zm-20.165 0h15.031v4.469H197.17zm117.435 44.459h55.596v5.952h-55.596zM38.292 304.693h55.612v5.847H38.292zm398.416 32.567h55.597v5.834h-55.597zm64.146 0h11.547v5.834h-11.547zM.4 182.325h55.596v4.31H.4zm63.638 0h14.723v4.31H64.038zm-3.497-80.966H84.38v2.5H60.541zm200.49-1.254h23.827v2.507h-23.827zm189.745 203.34h23.839v2.5h-23.839zm-10.482 0h6.242v2.5h-6.242zm-6.509-110.362h23.823v2.5h-23.823zM45.717 331.213h23.839v2.496H45.717zm318.892-256.15h15.887v1.947h-15.887z" fill="#E7E7E7"/><path fill="#E7E7E7" d="M371.588 68.084h1.945V83.97h-1.945z"/><g fill="#E7E7E7"><path d="M28.213 264.811h15.89v1.937h-15.89z"/><path d="M35.176 257.832h1.957v15.886h-1.957z"/></g><path fill="#E7E7E7" d="M433.785 256.378h23.823v2.913h-23.823z"/><path fill="#E7E7E7" d="M444.237 245.92h2.919v23.827h-2.919z"/><g fill="#E7E7E7"><path d="M211.612 99.903h23.82v2.912h-23.82z"/><path d="M222.061 89.443h2.923v23.831h-2.923z"/></g><path fill="#E3ECF8" d="M51.436 126.544c0 5.459-4.429 9.882-9.882 9.882a9.879 9.879 0 0 1-9.882-9.882 9.878 9.878 0 0 1 9.882-9.882c5.453 0 9.882 4.421 9.882 9.882z"/><path fill="#E6E7E8" d="M390.378 94.989c-3.967 0-7.194-3.227-7.194-7.192s3.228-7.192 7.194-7.192c3.963 0 7.19 3.228 7.19 7.192s-3.227 7.192-7.19 7.192zm0-12.412c-2.881 0-5.223 2.341-5.223 5.22s2.342 5.22 5.223 5.22c2.877 0 5.219-2.341 5.219-5.22s-2.342-5.22-5.219-5.22z"/><path fill="#E3ECF8" d="M111.592 84.631a2.493 2.493 0 1 1-2.5-2.492 2.49 2.49 0 0 1 2.5 2.492zm228.17 55.9a2.492 2.492 0 1 1-4.987 0 2.489 2.489 0 0 1 2.487-2.492 2.493 2.493 0 0 1 2.5 2.492zm99.442 232.691a2.493 2.493 0 1 1-4.987 0 2.489 2.489 0 0 1 2.487-2.491 2.491 2.491 0 0 1 2.5 2.491zm-333.785-14.261a2.495 2.495 0 0 1-2.5 2.492 2.493 2.493 0 0 1 0-4.984 2.49 2.49 0 0 1 2.5 2.492zM28.198 219.088a2.493 2.493 0 1 1-4.988.002 2.493 2.493 0 0 1 4.988-.002zm156.317-98.758a6.212 6.212 0 0 1-6.208 6.216 6.212 6.212 0 0 1-6.208-6.216 6.202 6.202 0 0 1 6.208-6.199 6.202 6.202 0 0 1 6.208 6.199z"/><path fill="#E6E7E8" d="M421.857 323.949c-4.514 0-8.184-3.67-8.184-8.18s3.67-8.18 8.184-8.18c4.51 0 8.181 3.67 8.181 8.18s-3.671 8.18-8.181 8.18zm0-12.416c-2.337 0-4.24 1.898-4.24 4.236s1.903 4.236 4.24 4.236c2.338 0 4.236-1.898 4.236-4.236s-1.898-4.236-4.236-4.236z"/><path fill="#E3ECF8" d="M334.774 77.764a6.211 6.211 0 0 1-6.205 6.214 6.22 6.22 0 0 1-6.216-6.214c0-3.423 2.789-6.198 6.216-6.198a6.203 6.203 0 0 1 6.205 6.198z"/><path fill="#E6E7E8" d="M51.436 226.65c-4.515 0-8.188-3.672-8.188-8.188 0-4.51 3.672-8.178 8.188-8.178 4.506 0 8.172 3.668 8.172 8.178 0 4.517-3.666 8.188-8.172 8.188zm0-12.421a4.244 4.244 0 0 0-4.244 4.234 4.25 4.25 0 0 0 4.244 4.244c2.332 0 4.229-1.905 4.229-4.244a4.235 4.235 0 0 0-4.229-4.234z"/><path fill="#E3ECF8" d="M92.043 264.803c0 3.428-2.777 6.216-6.201 6.216a6.22 6.22 0 0 1-6.216-6.216c0-3.422 2.785-6.204 6.216-6.204a6.205 6.205 0 0 1 6.201 6.204zM49.341 375.726c0-9.267 7.498-16.765 16.764-16.765 9.25 0 16.749 7.498 16.749 16.765 0 9.246-7.499 16.745-16.749 16.745-9.266 0-16.764-7.499-16.764-16.745zm397.526-159.643c0-5.931 4.818-10.741 10.745-10.741 5.931 0 10.741 4.81 10.741 10.741 0 5.929-4.811 10.733-10.741 10.733-5.926 0-10.745-4.804-10.745-10.733zm13.523 150.499c0-5.063 4.09-9.154 9.135-9.154 5.049 0 9.139 4.091 9.139 9.154a9.136 9.136 0 0 1-9.139 9.136 9.135 9.135 0 0 1-9.135-9.136z"/><path fill="#8BD7F8" d="M338.147 154.821H168.144c-8.064 0-14.604 6.532-14.604 14.604v9.744h-4.868c-8.068 0-14.604 6.528-14.604 14.6V360.86c0 10.753 8.719 19.472 19.472 19.472h179.74c10.752 0 19.472-8.719 19.472-19.472V169.425c0-8.072-6.54-14.604-14.605-14.604zm4.865 206.038c0 5.369-4.367 9.736-9.731 9.736H153.54c-5.369 0-9.732-4.367-9.732-9.736v-167.09a4.869 4.869 0 0 1 4.864-4.872h4.868v181.849a4.87 4.87 0 0 0 4.879 4.875c2.685 0 4.86-2.18 4.86-4.875V169.425a4.869 4.869 0 0 1 4.864-4.864h170.004a4.869 4.869 0 0 1 4.864 4.864v191.434z"/><path fill="#D4EEF8" d="M260.55 235.943h59.285a3.714 3.714 0 0 0 3.717-3.705 3.713 3.713 0 0 0-3.717-3.709H260.55a3.717 3.717 0 0 0-3.713 3.709 3.718 3.718 0 0 0 3.713 3.705zm0-22.236h59.285a3.712 3.712 0 0 0 3.717-3.705 3.712 3.712 0 0 0-3.717-3.708H260.55a3.717 3.717 0 0 0-3.713 3.708 3.716 3.716 0 0 0 3.713 3.705zm0-22.233h59.285c2.057 0 3.717-1.668 3.717-3.713s-1.66-3.705-3.717-3.705H260.55c-2.045 0-3.713 1.66-3.713 3.705s1.668 3.713 3.713 3.713zm-47.158 148.227h-27.798a3.708 3.708 0 0 0-3.705 3.705 3.703 3.703 0 0 0 3.705 3.704h27.798a3.707 3.707 0 0 0 3.697-3.704 3.71 3.71 0 0 0-3.697-3.705zm0-22.237h-27.798a3.714 3.714 0 0 0-3.705 3.705 3.704 3.704 0 0 0 3.705 3.705h27.798a3.707 3.707 0 0 0 3.697-3.705c-.001-2.033-1.664-3.705-3.697-3.705zm0-22.236h-27.798a3.713 3.713 0 0 0-3.705 3.704 3.704 3.704 0 0 0 3.705 3.705h27.798a3.707 3.707 0 0 0 3.697-3.705c-.001-2.034-1.664-3.704-3.697-3.704zm106.455-44.473H185.593a3.707 3.707 0 0 0-3.705 3.697c0 2.049 1.66 3.721 3.705 3.721h134.253a3.728 3.728 0 0 0 3.717-3.721c0-2.033-1.671-3.697-3.716-3.697zm0 22.243H185.593a3.705 3.705 0 0 0 0 7.409h134.253a3.715 3.715 0 0 0 3.717-3.712c0-2.033-1.671-3.697-3.716-3.697z"/><path fill="#FCB863" d="M187.631 235.604h51.664a5.74 5.74 0 0 0 5.742-5.742v-40.164a5.737 5.737 0 0 0-5.742-5.742h-51.664a5.735 5.735 0 0 0-5.742 5.742v40.164a5.74 5.74 0 0 0 5.742 5.742zm.281-45.062h50.813v37.765h-50.813v-37.765z"/><path fill="#8BD7F8" d="M227 302h150v90H227z"/><path fill="#FFF" d="M301.665 351.817l-61.294-33.252a3.944 3.944 0 1 1 3.763-6.932l57.601 31.248 59.859-31.279a3.943 3.943 0 0 1 5.322 1.671 3.95 3.95 0 0 1-1.671 5.323l-63.58 33.221z"/></svg>