<svg xmlns="http://www.w3.org/2000/svg" width="512" height="512" viewBox="0 0 512 512"><g fill="#FFF"><path d="M404.142 103.59c8.48 17.819.909 39.142-9.79 44.237L96.239 289.743c-24.948 11.873-46.268 4.306-54.756-13.519-8.48-17.819-.909-39.141 16.915-47.625L356.51 86.685c17.823-8.486 39.143-.916 47.632 16.905z"/><path d="M333.903 216.177c-8.35-17.546-1.116-38.46 16.113-47.196-.277.124-.555.214-.832.345L102.878 286.577c-.2.097-.377.216-.578.315 17.7-8.041 38.635-.47 47.023 17.153 8.396 17.623 1.063 38.643-16.329 47.315.2-.092.4-.153.608-.254l246.308-117.25c.27-.129.516-.291.785-.426-17.646 7.867-38.434.295-46.792-17.253z"/><path d="M483.453 224.144c8.48 17.821.908 39.146-9.79 44.236l-365.67 174.078c-24.94 11.869-46.268 4.306-54.749-13.518-8.48-17.823-.909-39.144 24.024-51.017L442.946 203.85c10.691-5.094 32.019 2.472 40.507 20.294z"/></g><path d="M216.712 62.29h55.611v4.469h-55.611zm-20.165 0h15.027v4.469h-15.027zm117.431 44.458h55.596v5.952h-55.596zM37.67 304.693h55.611v5.846H37.67zm398.413 32.566h55.596v5.835h-55.596zm64.146 0h11.546v5.835h-11.546zM-.226 182.325H55.37v4.31H-.226zm63.638 0h14.727v4.31H63.412zm-3.497-80.965h23.839v2.5H59.915zm200.492-1.254h23.823v2.507h-23.823zm189.74 203.339h23.839v2.499h-23.839zm-10.482 0h6.246v2.499h-6.246zm-6.509-110.361h23.823v2.499h-23.823zM45.095 331.212h23.839v2.496H45.095zM363.981 75.064h15.89v1.947h-15.89z" fill="#E7E7E7"/><path fill="#E7E7E7" d="M370.96 68.086h1.948v15.886h-1.948z"/><g fill="#E7E7E7"><path d="M27.588 264.811h15.89v1.937h-15.89z"/><path d="M34.551 257.832h1.956v15.886h-1.956z"/></g><path fill="#E7E7E7" d="M433.156 256.378h23.823v2.913h-23.823z"/><path fill="#E7E7E7" d="M443.608 245.92h2.919v23.827h-2.919z"/><g fill="#E7E7E7"><path d="M210.989 99.904h23.816v2.912h-23.816z"/><path d="M221.434 89.444h2.927v23.831h-2.927z"/></g><path fill="#E3ECF8" d="M50.811 126.545c0 5.459-4.429 9.882-9.882 9.882a9.879 9.879 0 0 1-9.882-9.882 9.878 9.878 0 0 1 9.882-9.882c5.452 0 9.882 4.421 9.882 9.882z"/><path fill="#E6E7E8" d="M389.754 94.99c-3.967 0-7.194-3.228-7.194-7.192s3.228-7.192 7.194-7.192c3.962 0 7.186 3.227 7.186 7.192s-3.224 7.192-7.186 7.192zm0-12.412a5.227 5.227 0 0 0-5.223 5.22 5.227 5.227 0 0 0 5.223 5.221 5.223 5.223 0 0 0 5.214-5.221 5.222 5.222 0 0 0-5.214-5.22z"/><path fill="#E3ECF8" d="M110.966 84.632zm228.168 55.9a2.492 2.492 0 0 1-4.983 0 2.492 2.492 0 0 1 4.983 0zm99.445 232.689a2.497 2.497 0 0 1-2.504 2.496 2.493 2.493 0 0 1-2.487-2.496 2.49 2.49 0 0 1 2.487-2.491 2.493 2.493 0 0 1 2.504 2.491zM104.796 358.96a2.496 2.496 0 0 1-4.991 0 2.487 2.487 0 0 1 2.488-2.491 2.49 2.49 0 0 1 2.503 2.491zM27.572 219.089zm156.32-98.758a6.214 6.214 0 0 1-6.208 6.216 6.209 6.209 0 0 1-6.208-6.216 6.2 6.2 0 0 1 6.208-6.199 6.204 6.204 0 0 1 6.208 6.199z"/><path fill="#E6E7E8" d="M421.233 323.949c-4.514 0-8.188-3.67-8.188-8.18s3.675-8.181 8.188-8.181c4.51 0 8.18 3.671 8.18 8.181s-3.67 8.18-8.18 8.18zm0-12.416a4.242 4.242 0 0 0-4.244 4.236 4.24 4.24 0 1 0 8.48 0 4.239 4.239 0 0 0-4.236-4.236z"/><path fill="#E3ECF8" d="M334.15 77.766a6.212 6.212 0 1 1-12.425 0c0-3.424 2.789-6.198 6.216-6.198a6.203 6.203 0 0 1 6.209 6.198z"/><path fill="#E6E7E8" d="M50.811 226.651c-4.516 0-8.188-3.672-8.188-8.188 0-4.51 3.672-8.178 8.188-8.178 4.506 0 8.172 3.668 8.172 8.178-.001 4.516-3.667 8.188-8.172 8.188zm0-12.422a4.244 4.244 0 0 0-4.244 4.234 4.249 4.249 0 0 0 4.244 4.244c2.332 0 4.229-1.904 4.229-4.244a4.237 4.237 0 0 0-4.229-4.234z"/><path fill="#E3ECF8" d="M91.417 264.803c0 3.428-2.773 6.216-6.201 6.216A6.223 6.223 0 0 1 79 264.803c0-3.422 2.789-6.204 6.216-6.204a6.203 6.203 0 0 1 6.201 6.204zM48.715 375.725c0-9.267 7.502-16.765 16.768-16.765 9.25 0 16.745 7.498 16.745 16.765 0 9.246-7.495 16.745-16.745 16.745-9.266 0-16.768-7.499-16.768-16.745zm397.527-159.642c0-5.931 4.814-10.741 10.745-10.741s10.737 4.81 10.737 10.741c0 5.929-4.807 10.733-10.737 10.733s-10.745-4.804-10.745-10.733zm13.519 150.499c0-5.064 4.09-9.154 9.135-9.154 5.053 0 9.143 4.09 9.143 9.154 0 5.045-4.09 9.135-9.143 9.135a9.135 9.135 0 0 1-9.135-9.135z"/><path fill="#8BD7F8" d="M340.785 409.977H170.763c-25.007 0-45.352-20.346-45.352-45.352V180.718c0-25.008 20.344-45.352 45.352-45.352h170.022c25.006 0 45.352 20.344 45.352 45.352v183.907c0 25.006-20.346 45.352-45.352 45.352zm-170.022-262.78c-18.484 0-33.521 15.037-33.521 33.521v183.907c0 18.482 15.037 33.521 33.521 33.521h170.022c18.482 0 33.521-15.039 33.521-33.521V180.718c0-18.484-15.039-33.521-33.521-33.521H170.763z"/><path d="M177.642 179.947a9.43 9.43 0 0 1-9.432 9.432c-5.207 0-9.428-4.221-9.428-9.432a9.428 9.428 0 0 1 9.428-9.428c5.21.001 9.432 4.222 9.432 9.428zm27.605 0a9.43 9.43 0 0 1-9.432 9.432c-5.207 0-9.428-4.221-9.428-9.432a9.428 9.428 0 0 1 9.428-9.428c5.211.001 9.432 4.222 9.432 9.428zm27.605 0a9.43 9.43 0 0 1-9.432 9.432c-5.207 0-9.428-4.221-9.428-9.432a9.428 9.428 0 0 1 9.428-9.428c5.211.001 9.432 4.222 9.432 9.428z" fill="#8BD7F8"/><path fill="#FBB041" d="M343 302H158v-87h185v87zm-177-8h170v-71H166v71z"/><path fill="#8BD7F8" d="M240.89 333h-78.873c-3.268 0-5.915-2.734-5.915-6s2.647-6 5.915-6h78.873c3.268 0 5.916 2.734 5.916 6s-2.649 6-5.916 6zm102.534 0h-74.929c-3.266 0-5.916-2.734-5.916-6s2.65-6 5.916-6h74.929c3.266 0 5.915 2.734 5.915 6s-2.65 6-5.915 6zM240.89 361h-78.873c-3.268 0-5.915-2.734-5.915-6s2.647-6 5.915-6h78.873c3.268 0 5.916 2.734 5.916 6s-2.649 6-5.916 6zm102.534 0h-74.929c-3.266 0-5.916-2.734-5.916-6s2.65-6 5.916-6h74.929c3.266 0 5.915 2.734 5.915 6s-2.65 6-5.915 6z"/></svg>