<svg xmlns="http://www.w3.org/2000/svg" width="512" height="512" viewBox="0 0 512 512"><g fill="#FFF"><path d="M404.766 104.407c8.48 17.819.913 39.142-9.789 44.237L96.861 290.559c-24.944 11.874-46.269 4.31-54.753-13.514-8.484-17.821-.913-39.144 16.911-47.628L357.134 87.501c17.828-8.485 39.148-.916 47.632 16.906z"/><path d="M334.531 216.995c-8.354-17.546-1.12-38.46 16.113-47.197-.277.123-.558.214-.831.345L103.505 287.397c-.201.092-.377.212-.578.312 17.7-8.037 38.636-.466 47.023 17.153 8.392 17.623 1.063 38.647-16.333 47.316.204-.093.404-.154.608-.251l246.309-117.254c.273-.129.52-.291.79-.425-17.646 7.867-38.439.295-46.793-17.253z"/><path d="M484.078 224.961c8.484 17.821.909 39.144-9.79 44.235L108.615 443.275c-24.94 11.873-46.265 4.306-54.749-13.514-8.48-17.824-.909-39.145 24.028-51.021l365.677-174.073c10.695-5.093 32.023 2.473 40.507 20.294z"/></g><path d="M217.335 63.106h55.611v4.47h-55.611zm-20.165 0h15.031v4.47H197.17zm117.435 44.458h55.596v5.952h-55.596zM38.292 305.514h55.612v5.842H38.292zm398.416 32.565h55.597v5.831h-55.597zm64.146 0h11.547v5.831h-11.547zM.4 183.143h55.596v4.31H.4zm63.638 0h14.723v4.31H64.038zm-3.497-80.966H84.38v2.5H60.541zm200.49-1.254h23.827v2.507h-23.827zm189.745 203.343h23.839v2.495h-23.839zm-10.482 0h6.242v2.495h-6.242zm-6.509-110.365h23.823v2.499h-23.823zM45.717 332.029h23.839v2.499H45.717zM364.609 75.881h15.887v1.947h-15.887z" fill="#E7E7E7"/><path fill="#E7E7E7" d="M371.588 68.902h1.945v15.886h-1.945z"/><g fill="#E7E7E7"><path d="M28.213 265.626h15.89v1.938h-15.89z"/><path d="M35.176 258.649h1.957v15.885h-1.957z"/></g><path fill="#E7E7E7" d="M433.785 257.196h23.823v2.911h-23.823z"/><path fill="#E7E7E7" d="M444.237 246.738h2.919v23.83h-2.919z"/><g fill="#E7E7E7"><path d="M211.612 100.721h23.82v2.911h-23.82z"/><path d="M222.061 90.261h2.923v23.831h-2.923z"/></g><path fill="#E3ECF8" d="M51.436 127.362c0 5.459-4.429 9.882-9.882 9.882a9.879 9.879 0 0 1-9.882-9.882 9.878 9.878 0 0 1 9.882-9.882c5.453-.001 9.882 4.421 9.882 9.882z"/><path fill="#E6E7E8" d="M390.378 95.807c-3.967 0-7.194-3.227-7.194-7.192s3.228-7.192 7.194-7.192c3.963 0 7.19 3.228 7.19 7.192s-3.227 7.192-7.19 7.192zm0-12.412c-2.881 0-5.223 2.341-5.223 5.22s2.342 5.22 5.223 5.22c2.877 0 5.219-2.341 5.219-5.22s-2.342-5.22-5.219-5.22z"/><path fill="#E3ECF8" d="M111.592 85.449a2.493 2.493 0 1 1-2.5-2.492 2.49 2.49 0 0 1 2.5 2.492zm228.17 55.901a2.492 2.492 0 1 1-4.987 0 2.488 2.488 0 0 1 2.487-2.492 2.49 2.49 0 0 1 2.5 2.492zm99.442 232.692a2.495 2.495 0 1 1-4.989-.007 2.495 2.495 0 0 1 4.989.007zm-333.785-14.265a2.493 2.493 0 1 1-4.988 0 2.487 2.487 0 0 1 2.488-2.488 2.49 2.49 0 0 1 2.5 2.488zm-77.221-139.87a2.493 2.493 0 1 1-4.988.002 2.493 2.493 0 0 1 4.988-.002zm156.317-98.759a6.212 6.212 0 0 1-6.208 6.216 6.212 6.212 0 0 1-6.208-6.216 6.202 6.202 0 0 1 6.208-6.199 6.202 6.202 0 0 1 6.208 6.199z"/><path fill="#E6E7E8" d="M421.857 324.77c-4.514 0-8.184-3.67-8.184-8.18s3.67-8.181 8.184-8.181c4.51 0 8.181 3.671 8.181 8.181s-3.671 8.18-8.181 8.18zm0-12.416a4.242 4.242 0 0 0-4.24 4.236 4.239 4.239 0 0 0 8.476 0 4.237 4.237 0 0 0-4.236-4.236z"/><path fill="#E3ECF8" d="M334.774 78.582a6.211 6.211 0 0 1-6.205 6.214 6.22 6.22 0 0 1-6.216-6.214c0-3.423 2.789-6.198 6.216-6.198a6.203 6.203 0 0 1 6.205 6.198z"/><path fill="#E6E7E8" d="M51.436 227.468c-4.515 0-8.188-3.672-8.188-8.188 0-4.51 3.672-8.178 8.188-8.178 4.506 0 8.172 3.668 8.172 8.178 0 4.516-3.666 8.188-8.172 8.188zm0-12.422a4.244 4.244 0 0 0-4.244 4.234 4.25 4.25 0 0 0 4.244 4.244c2.332 0 4.229-1.905 4.229-4.244a4.236 4.236 0 0 0-4.229-4.234z"/><path fill="#E3ECF8" d="M92.043 265.622c0 3.428-2.777 6.216-6.201 6.216a6.22 6.22 0 0 1-6.216-6.216c0-3.424 2.785-6.206 6.216-6.206a6.206 6.206 0 0 1 6.201 6.206zM49.341 376.541c0-9.266 7.498-16.764 16.764-16.764 9.25 0 16.749 7.498 16.749 16.764 0 9.247-7.499 16.749-16.749 16.749-9.266 0-16.764-7.502-16.764-16.749zM446.867 216.9c0-5.931 4.818-10.741 10.745-10.741 5.931 0 10.741 4.81 10.741 10.741 0 5.929-4.811 10.733-10.741 10.733-5.926.001-10.745-4.803-10.745-10.733zm13.523 150.498c0-5.064 4.09-9.154 9.135-9.154 5.049 0 9.139 4.09 9.139 9.154a9.133 9.133 0 0 1-9.139 9.135 9.132 9.132 0 0 1-9.135-9.135z"/><path fill="#8BD7F8" d="M341.41 393.363H171.386c-25.008 0-45.352-20.346-45.352-45.352v-183.91c0-25.008 20.344-45.352 45.352-45.352H341.41c25.006 0 45.352 20.344 45.352 45.352v183.911c0 25.006-20.346 45.351-45.352 45.351zM171.386 130.58c-18.484 0-33.521 15.037-33.521 33.521v183.911c0 18.481 15.037 33.521 33.521 33.521H341.41c18.481 0 33.521-15.039 33.521-33.521V164.101c0-18.484-15.039-33.521-33.521-33.521H171.386z"/><path fill="#8BD7F8" d="M215 205h-55v-48h55v48zm-47-8h39v-32h-39v32zm185 8H227v-48h126v48zm-118-8h111v-32H235v32zm118 153H160V216h193v134zm-185-7h178V224H168v119z"/><g fill="#FBB03C"><path d="M298.469 303.311c1.864-2.38 2.758-4.938 2.646-7.564-.111-2.896-1.405-5.164-2.477-6.555 1.24-3.088 1.714-7.937-2.418-11.715-3.027-2.766-8.177-4.006-15.305-3.659-5.011.228-9.205 1.159-9.374 1.202h-.016a73.21 73.21 0 0 0-2.992.604c-.081-1.217.135-4.248 2.384-11.068 2.669-8.115 2.519-14.331-.501-18.482-3.161-4.36-8.207-4.707-9.693-4.707a4.797 4.797 0 0 0-3.678 1.672c-2.118 2.461-1.872 6.998-1.602 9.092-2.515 6.748-9.563 23.285-15.532 27.875-.112.077-.204.177-.301.27-1.752 1.845-2.935 3.852-3.739 5.604a7.796 7.796 0 0 0-3.767-.951h-11.623c-4.383 0-7.934 3.559-7.934 7.922v30.964c0 4.379 3.566 7.93 7.934 7.93h11.623a7.919 7.919 0 0 0 4.571-1.452l4.475.535c.689.093 12.886 1.633 25.403 1.391 2.261.169 4.401.266 6.382.266 3.412 0 6.377-.266 8.857-.797 5.831-1.244 9.813-3.717 11.831-7.36 1.548-2.784 1.548-5.542 1.298-7.298 3.789-3.428 4.456-7.225 4.328-9.886a12.984 12.984 0 0 0-.78-3.833zm-77.988 23.288a2.788 2.788 0 0 1-2.784-2.784v-30.983a2.788 2.788 0 0 1 2.784-2.784h11.623a2.79 2.79 0 0 1 2.781 2.784v30.964a2.785 2.785 0 0 1-2.781 2.784h-11.623v.019zm73.104-25.519c-.793.844-.947 2.118-.339 3.108 0 .02.778 1.355.878 3.188.132 2.488-1.07 4.699-3.589 6.59a2.592 2.592 0 0 0-.874 2.935c0 .016.82 2.534-.509 4.906-1.282 2.292-4.117 3.937-8.423 4.841-3.45.751-8.141.878-13.895.428h-.262c-12.255.266-24.645-1.332-24.771-1.359h-.015l-1.934-.228a7.966 7.966 0 0 0 .177-1.675v-30.983c0-.824-.139-1.617-.362-2.356.339-1.283 1.294-4.121 3.543-6.544 8.557-6.781 16.918-29.662 17.277-30.659.153-.393.192-.835.123-1.267-.331-2.137-.216-4.752.238-5.53 1.018.019 3.74.308 5.377 2.569 1.944 2.696 1.867 7.498-.224 13.86-3.204 9.693-3.47 14.801-.936 17.05 1.251 1.124 2.931 1.182 4.147.743a61.086 61.086 0 0 1 3.319-.674c.077-.016.174-.031.247-.047 5.85-1.278 16.329-2.061 19.969 1.252 3.084 2.823.896 6.551.65 6.951-.709 1.071-.497 2.461.454 3.316.02.022 2.022 1.906 2.111 4.44.088 1.699-.721 3.435-2.377 5.145z"/><path d="M272.936 334.455c-2.026 0-4.218-.096-6.528-.27-.739.023-1.664.031-2.58.031-11.91 0-22.83-1.422-22.938-1.437l-3.742-.447a9.813 9.813 0 0 1-5.043 1.383h-11.623c-5.461 0-9.905-4.44-9.905-9.901V292.85c0-5.457 4.444-9.894 9.905-9.894h11.623c.965 0 1.92.139 2.831.408a21.877 21.877 0 0 1 3.247-4.448c.262-.258.428-.408.61-.531 4.795-3.693 11.315-17.7 14.637-26.499-.298-2.754-.322-7.294 2.122-10.135 1.315-1.521 3.15-2.357 5.172-2.357 1.71 0 7.575.398 11.288 5.521 3.4 4.673 3.662 11.488.778 20.255-1.264 3.84-1.849 6.37-2.107 7.999.166-.035.336-.065.501-.093h-.004c.004 0 4.349-.989 9.647-1.229 7.625-.404 13.287 1.032 16.722 4.171 4.979 4.553 4.117 10.167 3.289 12.859 1.071 1.625 2.138 3.936 2.249 6.79.116 2.788-.7 5.473-2.43 7.991.258.901.493 2.053.563 3.377.139 2.865-.513 6.975-4.236 10.745.143 2.041-.104 4.752-1.637 7.502-2.3 4.155-6.725 6.959-13.141 8.33-2.604.562-5.724.843-9.27.843zm-6.421-4.209c6.447.454 11.153.308 14.866-.489 5.253-1.121 8.792-3.27 10.518-6.386 1.274-2.291 1.286-4.563 1.07-6.065l-.146-1.036.777-.705c2.592-2.345 3.832-5.148 3.682-8.33a11.174 11.174 0 0 0-.662-3.238l-.385-1.032.682-.87c1.571-2.003 2.318-4.109 2.226-6.263-.093-2.396-1.175-4.278-2.068-5.438l-.686-.89.42-1.048c.686-1.71 1.872-6.058-1.918-9.523-2.626-2.396-7.336-3.455-13.88-3.146-4.91.223-8.965 1.14-9.004 1.151l-.466.054c-.601.135-1.583.339-2.584.559l-2.238.497-.153-2.292c-.108-1.633.234-5.007 2.479-11.815 2.465-7.495 2.389-13.113-.223-16.707-2.623-3.612-6.863-3.894-8.1-3.894-.858 0-1.637.35-2.186.99-1.354 1.571-1.475 4.931-1.138 7.55l.062.483-.17.458c-.348.932-8.609 22.926-16.179 28.75-1.421 1.482-2.557 3.188-3.449 5.134l-.884 1.922-1.856-1.017a5.793 5.793 0 0 0-2.819-.709H220.48c-3.287 0-5.961 2.669-5.961 5.95v30.964a5.966 5.966 0 0 0 5.961 5.958h11.623a5.947 5.947 0 0 0 3.435-1.09l.618-.439 5.228.628c.14.015 12.532 1.636 25.131 1.374zm6.47-.936c-1.934 0-4.04-.088-6.305-.27l-.107-1.964.042 1.972c-12.792.255-25.148-1.386-25.222-1.401v-.004l-3.926-.447.458-2.122c.086-.404.133-.839.133-1.259v-30.983c0-.573-.095-1.179-.277-1.787l-.162-.535.142-.539c.424-1.603 1.506-4.69 4.005-7.379 8.444-6.725 16.782-29.754 16.865-29.985-.264-2.205-.38-5.594.516-7.127l.582-.998 1.159.021c1.367.027 4.779.408 6.936 3.383 2.365 3.281 2.384 8.54.051 15.634-2.8 8.477-3.289 13.367-1.498 14.958.809.725 1.59.578 2.168.362a57.365 57.365 0 0 1 3.662-.763c3.436-.743 7.41-1.175 10.787-1.175 5.265 0 8.993.967 11.084 2.865 3.216 2.946 2.55 6.929 1.002 9.443-.22.335-.104.64.092.816.686.674 2.661 2.854 2.766 5.839.111 2.233-.878 4.46-2.935 6.585a.597.597 0 0 0-.077.705l.292.582a9.998 9.998 0 0 1 .875 3.531c.115 2.191-.551 5.403-4.375 8.272a.622.622 0 0 0-.196.701l.111.404c.258 1.055.646 3.616-.759 6.123-1.583 2.827-4.86 4.783-9.739 5.808-2.223.487-4.969.734-8.15.734zm-6.435-4.206h.285c5.95.446 10.271.319 13.476-.382 3.678-.773 6.135-2.114 7.12-3.878.816-1.452.424-3.077.347-3.354a4.56 4.56 0 0 1 1.561-5.091c1.994-1.498 2.915-3.104 2.818-4.918a6.045 6.045 0 0 0-.643-2.35c-1.006-1.722-.751-3.928.635-5.403 1.291-1.328 1.903-2.564 1.849-3.693-.05-1.336-.978-2.592-1.517-3.127a4.484 4.484 0 0 1-.725-5.819c.351-.569 1.472-2.75-.339-4.405-1.278-1.167-4.348-1.837-8.423-1.837-3.107 0-6.771.396-9.793 1.055a68.938 68.938 0 0 0-3.551.717c-.439.177-1.183.304-1.91.304a5.957 5.957 0 0 1-3.99-1.502c-3.262-2.896-3.154-8.441.381-19.137 1.86-5.657 2.038-9.951.497-12.087-.601-.83-1.456-1.267-2.222-1.498-.035.82-.012 1.929.153 3.004.124.78.043 1.575-.234 2.29-.335.936-8.792 24.274-17.889 31.484-1.525 1.671-2.353 3.816-2.721 5.014a9.97 9.97 0 0 1 .287 2.342l.016 30.93c.196.022 12.328 1.594 24.513 1.344h.019zm-46.069 3.466a4.761 4.761 0 0 1-4.756-4.756v-30.983a4.762 4.762 0 0 1 4.756-4.756h11.623a4.76 4.76 0 0 1 4.752 4.756v30.964a4.76 4.76 0 0 1-4.752 4.756l-11.623.019zm0-36.551a.814.814 0 0 0-.813.813v30.983c0 .389.277.716.643.793h11.792a.812.812 0 0 0 .809-.813v-30.964a.823.823 0 0 0-.809-.813h-11.622z"/></g></svg>