<svg xmlns="http://www.w3.org/2000/svg" width="512" height="512" viewBox="0 0 512 512"><g fill="#FFF"><path d="M403.957 103.589c8.48 17.819.913 39.142-9.789 44.237L96.053 289.743c-24.944 11.873-46.269 4.306-54.753-13.518-8.484-17.82-.913-39.142 16.911-47.626L356.326 86.684c17.827-8.486 39.148-.917 47.631 16.905z"/><path d="M333.723 216.177c-8.354-17.546-1.12-38.46 16.113-47.197-.277.123-.558.214-.831.345L102.696 286.577c-.201.097-.377.216-.578.316 17.7-8.042 38.635-.471 47.023 17.153 8.392 17.623 1.063 38.643-16.333 47.315.204-.092.404-.154.609-.254l246.308-117.252c.273-.129.52-.291.79-.425-17.646 7.866-38.439.295-46.792-17.253z"/><path d="M483.27 224.144c8.484 17.821.909 39.146-9.79 44.236L107.807 442.459c-24.94 11.869-46.265 4.306-54.749-13.518-8.48-17.823-.909-39.144 24.028-51.018l365.677-174.075c10.694-5.092 32.022 2.474 40.507 20.296z"/></g><path d="M216.526 62.288h55.611v4.469h-55.611zm-20.165 0h15.032v4.469h-15.032zm117.436 44.459h55.596v5.952h-55.596zM37.483 304.693h55.612v5.847H37.483zm398.416 32.567h55.597v5.834h-55.597zm64.146 0h11.547v5.834h-11.547zM-.409 182.325h55.596v4.31H-.409zm63.638 0h14.723v4.31H63.229zm-3.497-80.966h23.839v2.5H59.732zm200.491-1.254h23.827v2.507h-23.827zm189.745 203.34h23.839v2.5h-23.839zm-10.483 0h6.242v2.5h-6.242zm-6.508-110.362H456.8v2.5h-23.823zM44.909 331.213h23.839v2.496H44.909zm318.892-256.15h15.887v1.947h-15.887z" fill="#E7E7E7"/><path fill="#E7E7E7" d="M370.779 68.084h1.945V83.97h-1.945z"/><g fill="#E7E7E7"><path d="M27.405 264.811h15.89v1.937h-15.89z"/><path d="M34.368 257.832h1.957v15.886h-1.957z"/></g><path fill="#E7E7E7" d="M432.977 256.378H456.8v2.913h-23.823z"/><path fill="#E7E7E7" d="M443.429 245.92h2.919v23.827h-2.919z"/><g fill="#E7E7E7"><path d="M210.804 99.903h23.82v2.912h-23.82z"/><path d="M221.252 89.443h2.923v23.831h-2.923z"/></g><path fill="#E3ECF8" d="M50.627 126.544c0 5.459-4.429 9.882-9.882 9.882a9.879 9.879 0 0 1-9.882-9.882 9.878 9.878 0 0 1 9.882-9.882c5.454 0 9.882 4.421 9.882 9.882z"/><path fill="#E6E7E8" d="M389.569 94.989c-3.967 0-7.194-3.227-7.194-7.192s3.228-7.192 7.194-7.192c3.963 0 7.19 3.228 7.19 7.192s-3.227 7.192-7.19 7.192zm0-12.412c-2.881 0-5.223 2.341-5.223 5.22s2.342 5.22 5.223 5.22c2.877 0 5.219-2.341 5.219-5.22s-2.342-5.22-5.219-5.22z"/><path fill="#E3ECF8" d="M110.784 84.631a2.493 2.493 0 1 1-2.5-2.492c1.383 0 2.5 1.111 2.5 2.492zm228.169 55.9a2.492 2.492 0 1 1-4.987 0 2.489 2.489 0 0 1 2.487-2.492 2.493 2.493 0 0 1 2.5 2.492zm99.443 232.691a2.493 2.493 0 1 1-4.987 0 2.489 2.489 0 0 1 2.487-2.491 2.492 2.492 0 0 1 2.5 2.491zM104.61 358.961a2.495 2.495 0 0 1-2.5 2.492 2.493 2.493 0 0 1 0-4.984 2.49 2.49 0 0 1 2.5 2.492zM27.39 219.088a2.493 2.493 0 1 1-4.99.002 2.493 2.493 0 0 1 4.99-.002zm156.317-98.758a6.212 6.212 0 0 1-6.208 6.216 6.212 6.212 0 0 1-6.208-6.216 6.202 6.202 0 0 1 6.208-6.199 6.202 6.202 0 0 1 6.208 6.199z"/><path fill="#E6E7E8" d="M421.049 323.949c-4.514 0-8.184-3.67-8.184-8.18s3.67-8.18 8.184-8.18c4.51 0 8.181 3.67 8.181 8.18s-3.671 8.18-8.181 8.18zm0-12.416c-2.337 0-4.24 1.898-4.24 4.236s1.903 4.236 4.24 4.236c2.338 0 4.236-1.898 4.236-4.236s-1.898-4.236-4.236-4.236z"/><path fill="#E3ECF8" d="M333.966 77.764a6.211 6.211 0 0 1-6.205 6.214 6.22 6.22 0 0 1-6.216-6.214c0-3.423 2.789-6.198 6.216-6.198a6.203 6.203 0 0 1 6.205 6.198z"/><path fill="#E6E7E8" d="M50.627 226.65c-4.515 0-8.188-3.672-8.188-8.188 0-4.51 3.672-8.178 8.188-8.178 4.506 0 8.172 3.668 8.172 8.178.001 4.517-3.665 8.188-8.172 8.188zm0-12.421a4.244 4.244 0 0 0-4.244 4.234 4.25 4.25 0 0 0 4.244 4.244c2.332 0 4.229-1.905 4.229-4.244a4.235 4.235 0 0 0-4.229-4.234z"/><path fill="#E3ECF8" d="M91.235 264.803c0 3.428-2.777 6.216-6.201 6.216a6.22 6.22 0 0 1-6.216-6.216c0-3.422 2.785-6.204 6.216-6.204a6.206 6.206 0 0 1 6.201 6.204zM48.533 375.726c0-9.267 7.498-16.765 16.764-16.765 9.25 0 16.749 7.498 16.749 16.765 0 9.246-7.499 16.745-16.749 16.745-9.266 0-16.764-7.499-16.764-16.745zm397.526-159.643c0-5.931 4.818-10.741 10.745-10.741 5.931 0 10.741 4.81 10.741 10.741 0 5.929-4.811 10.733-10.741 10.733-5.927 0-10.745-4.804-10.745-10.733zm13.522 150.499c0-5.063 4.09-9.154 9.135-9.154 5.049 0 9.139 4.091 9.139 9.154a9.136 9.136 0 0 1-9.139 9.136 9.135 9.135 0 0 1-9.135-9.136z"/><path fill="#8BD7F8" d="M340.602 420.546H170.578c-25.008 0-45.352-20.346-45.352-45.353v-183.91c0-25.008 20.344-45.352 45.352-45.352h170.024c25.006 0 45.352 20.344 45.352 45.352v183.911c-.001 25.006-20.347 45.352-45.352 45.352zM170.578 157.762c-18.484 0-33.521 15.037-33.521 33.521v183.911c0 18.482 15.037 33.521 33.521 33.521h170.024c18.481 0 33.521-15.039 33.521-33.521V191.283c0-18.484-15.039-33.521-33.521-33.521H170.578z"/><path d="M259 181.339c-3.268 0-6-2.647-6-5.916v-43.38c0-3.268 2.732-5.916 6-5.916 3.266 0 6 2.647 6 5.916v43.38c0 3.268-2.734 5.916-6 5.916zm-63 0c-3.268 0-6-2.647-6-5.916v-43.38c0-3.268 2.732-5.916 6-5.916s6 2.647 6 5.916v43.38c0 3.268-2.732 5.916-6 5.916zm126 0c-3.266 0-6-2.647-6-5.916v-43.38c0-3.268 2.734-5.916 6-5.916s6 2.647 6 5.916v43.38c0 3.268-2.734 5.916-6 5.916z" fill="#8BD7F8"/><path fill="#FFD9AB" d="M235.856 278.651h32.512v47.031c0 15.867-32.512 17.688-32.512 0v-47.031z"/><path fill="#FDC680" d="M268.368 308.175v-5.996h-32.512v22.113z"/><path fill="#FFE7C9" d="M252.124 233.35c68.844 0 40.93 90.942 0 90.942-40.939 0-68.868-90.942 0-90.942"/><path fill="#A2A5A6" d="M252.932 213.774h-.101c-35.631.088-50.335 35.389-45.344 54.691 4.999 19.307 11.191 8.357 10.938.058-.231-8.276 6.94-26.454 32.527-27.116 23.092 0 34.268 15.17 35.007 26.866.747 11.681 4.822 12.774 9.806 2.126 4.992-10.653-7.209-56.517-42.833-56.625"/><path fill="#A2A5A6" d="M218.179 275.667c-1.171 8.149-8.496 2.78-9.035-4.764-.539-7.545.208-8.827 3.174-15.84 2.973-7.001 18.732-25.726 38.635-25.726 16.398 0 41.917 27.76 41.393 26.796 2.957 5.396 3.62 11.238 2.287 16.083-1.363 4.856-4.506 8.23-6.208 2.261-4.306-15.112-14.442-25.784-25.418-30.39 74.698 31.402-96.951 12.027-36.402 13.113-5.784-.115 13.811-13.849 9.251-10.699-9.729 6.732-16.222 19.021-17.677 29.166"/><path fill="#FFE7C9" d="M296.358 264.641c2.511.555 3.489 5.712 2.195 11.504-1.286 5.823-4.352 10.066-6.871 9.52-2.511-.573-3.489-5.719-2.194-11.53 1.294-5.797 4.36-10.045 6.87-9.494m-89.71 0c-2.511.555-3.489 5.712-2.195 11.504 1.294 5.823 4.375 10.066 6.863 9.52 2.519-.573 3.489-5.719 2.21-11.53-1.294-5.797-4.359-10.045-6.878-9.494"/><path fill="#D4EEF8" d="M310.323 374.848c-4.021-10.395-10.183-22.723-17.516-27.321-18.863-11.819-30.225-14.649-41.377-14.796-11.4-.162-22.545 2.634-41.3 14.796-7.241 4.706-13.479 17.003-17.5 27.321h117.693z"/><path fill="#FCB863" d="M248.057 360.221l-1.625 14.627c1.795.08 3.589.131 5.392.131 1.779 0 3.559-.039 5.315-.124l-2.295-14.634 11.053-26.446c-10.345-.182-18.617-.162-28.884 0l11.044 26.446z"/><path fill="#FFF" d="M236.341 324.292l-12.031 15.316 7.479 13.961 19.818-19.93zm31.249 0l12.031 15.316-7.487 13.961-19.818-19.93z"/></svg>